<?xml version="1.0" standalone="no"?><!-- Generator: Gravit.io --><svg xmlns="http://www.w3.org/2000/svg" xmlns:xlink="http://www.w3.org/1999/xlink" style="isolation:isolate" viewBox="0 0 1178.371 130" width="1178.371" height="130"><defs><clipPath id="_clipPath_ToHXsaBGDTjHSNuGqqxludUTHqIASI8v"><rect width="1178.371" height="130"/></clipPath></defs><g clip-path="url(#_clipPath_ToHXsaBGDTjHSNuGqqxludUTHqIASI8v)"><g style="isolation:isolate" id="home"><clipPath id="_clipPath_Sx3CJIQ9UeWg0j7lMHkuOvIEG4niO6ta"><rect x="0" y="0" width="1178.371" height="130" transform="matrix(1,0,0,1,0,0)" fill="rgb(255,255,255)"/></clipPath><g clip-path="url(#_clipPath_Sx3CJIQ9UeWg0j7lMHkuOvIEG4niO6ta)"><g id="Group"><path d=" M 216.335 57.085 L 190.308 7.328 C 188.886 4.61 185.241 2.403 182.173 2.403 L 7.591 2.403 C 4.523 2.403 3.2 4.603 4.639 7.312 L 31.065 57.1 C 32.503 59.81 32.593 64.255 31.267 67.021 L 4.437 122.956 C 3.11 125.722 4.523 127.967 7.591 127.967 L 182.173 127.967 C 185.241 127.967 188.796 125.716 190.107 122.942 L 216.536 67.035 C 217.847 64.262 217.757 59.803 216.335 57.085 Z  M 64.186 106 L 59.627 103.721 L 68.744 80.929 C 68.509 79.046 69.375 77.312 71.023 76.371 C 72.479 75.538 73.694 75.742 75.582 76.371 C 76.971 77.079 76.731 77.56 75.582 80.929 C 75.209 82.019 74.334 82.692 73.302 83.207 L 64.186 106 Z  M 66.464 62.784 C 66.464 54.607 73.103 47.969 81.279 47.969 C 89.456 47.969 96.094 54.607 96.094 62.784 C 96.094 70.959 89.456 77.598 81.279 77.598 C 73.103 77.598 66.464 70.959 66.464 62.784 Z  M 71.228 62.784 C 71.228 57.236 75.732 52.732 81.279 52.732 C 86.827 52.732 91.332 57.236 91.332 62.784 C 91.332 68.33 86.827 72.835 81.279 72.835 C 75.732 72.835 71.228 68.33 71.228 62.784 Z  M 77.861 78.025 L 77.861 110.557 L 150.794 110.557 L 150.794 33.066 L 137.357 19.391 L 77.861 19.391 L 77.861 46.741 M 137.119 33.066 L 137.119 19.391 L 150.794 33.066 L 137.119 33.066 Z  M 91.536 42.705 C 91.536 37.045 96.132 32.45 101.792 32.45 C 107.453 32.45 112.048 37.045 112.048 42.705 C 112.048 48.366 107.453 52.961 101.792 52.961 C 96.132 52.961 91.536 48.366 91.536 42.705 Z  M 118.886 43.322 C 118.886 37.662 123.482 33.066 129.142 33.066 C 134.803 33.066 139.398 37.662 139.398 43.322 C 139.398 48.983 134.803 53.579 129.142 53.579 C 123.482 53.579 118.886 48.983 118.886 43.322 Z  M 93.814 85.487 L 102.932 85.487 L 102.932 103.28 L 93.932 103.28 L 93.814 85.487 Z  M 130.282 95.222 L 135.979 95.222 L 135.979 103.28 L 130.355 103.28 L 130.282 95.222 Z  M 118.886 85.487 L 125.723 85.487 L 125.723 103.28 L 118.973 103.28 L 118.886 85.487 Z  M 107.489 88.384 L 114.327 88.384 L 114.327 103.28 L 107.577 103.28 L 107.489 88.384 Z  M 96.094 50.682 L 102.932 43.845 L 96.094 34.729 M 112.048 43.845 L 102.932 43.845 M 118.886 43.845 L 139.398 43.845 M 128.002 33.066 L 128.002 53.579 M 100.652 60.416 L 137.119 60.416 M 137.357 67.254 L 100.652 67.254 M 96.094 74.091 L 137.119 74.091 M 137.357 78.65 L 96.094 78.65" fill-rule="evenodd" fill="none" vector-effect="non-scaling-stroke" stroke-width="1" stroke="rgb(0,0,0)" stroke-opacity="100" stroke-linejoin="miter" stroke-linecap="butt" stroke-miterlimit="3"/><path d=" M 450.779 57.085 L 424.752 7.328 C 423.33 4.61 419.685 2.403 416.617 2.403 L 242.035 2.403 C 238.968 2.403 237.645 4.603 239.083 7.312 L 265.509 57.1 C 266.947 59.81 267.038 64.255 265.711 67.021 L 238.881 122.956 C 237.554 125.722 238.968 127.967 242.035 127.967 L 416.617 127.967 C 419.685 127.967 423.24 125.716 424.551 122.942 L 450.98 67.035 C 452.291 64.262 452.201 59.803 450.779 57.085 Z  M 375.253 49.067 L 386.649 49.067 M 327.39 103.5 L 293.203 103.5 L 293.203 78.245 Q 297.527 67.837 309.156 67.474 Q 320.786 67.111 322.831 69.753 L 348.625 49.067 Q 352.549 45.524 354.74 46.961 Q 357.12 48.522 354.74 53.799 L 327.39 78.869 L 327.39 103.5 Z  M 297.76 52.659 C 297.76 45.741 303.378 40.124 310.296 40.124 C 317.215 40.124 322.831 45.741 322.831 52.659 C 322.831 59.577 317.215 65.194 310.296 65.194 C 303.378 65.194 297.76 59.577 297.76 52.659 Z  M 322.831 51.519 Q 318.34 52.159 315.994 51.519 Q 313.159 50.747 309.156 46.961 Q 306.732 50.606 304.599 51.519 Q 302.329 52.492 297.76 51.519 M 331.949 74.311 L 331.949 76.59 L 395.765 76.59 L 395.765 33.286 L 331.949 33.286 L 331.949 61.741 M 310.113 75.024 L 307.833 72.744 L 310.113 70.465 L 312.759 72.744 L 310.113 75.024 Z  M 310.056 74.93 L 307.833 88.605 L 310.056 95.442 L 312.459 88.605 L 310.056 74.93 Z  M 363.856 49.484 C 363.856 43.066 369.067 37.855 375.485 37.855 C 381.903 37.855 387.114 43.066 387.114 49.484 C 387.114 55.901 381.903 61.111 375.485 61.111 C 369.067 61.111 363.856 55.901 363.856 49.484 Z  M 368.415 40.124 L 375.253 49.067 L 370.694 58.358 M 329.669 26.449 L 398.044 26.449 L 398.044 33.286 L 329.669 33.286 L 329.669 26.449 Z  M 338.785 37.844 L 361.578 37.844 M 338.785 42.403 L 361.578 42.403 M 350.181 65.194 L 386.649 65.194 M 386.649 70.465 L 350.181 70.465" fill-rule="evenodd" fill="none" vector-effect="non-scaling-stroke" stroke-width="1" stroke="rgb(0,0,0)" stroke-opacity="100" stroke-linejoin="miter" stroke-linecap="round" stroke-miterlimit="3"/><path d=" M 685.223 57.085 L 659.196 7.328 C 657.774 4.61 654.129 2.403 651.062 2.403 L 476.48 2.403 C 473.412 2.403 472.089 4.603 473.527 7.312 L 499.953 57.1 C 501.391 59.81 501.432 64.231 500.044 66.967 L 473.436 119.411 C 472.048 122.147 473.412 124.368 476.48 124.368 L 651.062 124.368 C 654.129 124.368 657.734 122.14 659.106 119.396 L 685.314 66.981 C 686.686 64.237 686.645 59.803 685.223 57.085 Z  M 565.395 89.555 L 593.533 89.555 L 593.533 102.771 L 565.395 102.771 L 565.395 89.555 Z  M 554.053 102.769 L 604.878 102.769 L 604.878 107.67 L 554.053 107.67 L 554.053 102.769 Z  M 538.002 22.28 L 538.002 89.555 L 620.928 89.555 L 620.928 22.28 L 538.002 22.28 Z  M 538.002 27.837 L 620.928 27.837 L 620.928 85.396 L 538.002 85.396 L 538.002 27.837 Z  M 556.726 37.273 L 562.077 37.273 L 562.077 71.79 L 556.726 71.79 L 556.726 37.273 Z  M 599.527 35.005 L 604.877 35.005 L 604.877 71.79 L 599.527 71.79 L 599.527 35.005 Z  M 588.828 46.092 L 594.178 46.092 L 594.178 71.79 L 588.828 71.79 L 588.828 46.092 Z  M 578.127 34.753 L 583.477 34.753 L 583.477 71.79 L 578.127 71.79 L 578.127 34.753 Z  M 567.427 40.339 L 572.777 40.339 L 572.777 71.79 L 567.427 71.79 L 567.427 40.339 Z  M 554.053 76.437 L 607.552 76.437" fill-rule="evenodd" fill="none" vector-effect="non-scaling-stroke" stroke-width="1" stroke="rgb(0,0,0)" stroke-opacity="100" stroke-linejoin="miter" stroke-linecap="round" stroke-miterlimit="3"/><path d=" M 918.99 56.715 L 892.963 6.958 C 891.541 4.24 887.896 2.033 884.828 2.033 L 710.246 2.033 C 707.178 2.033 705.856 4.233 707.294 6.942 L 733.72 56.73 C 735.158 59.44 735.253 63.888 733.933 66.657 L 707.081 122.95 C 705.76 125.719 707.178 127.967 710.246 127.967 L 884.828 127.967 C 887.896 127.967 891.446 125.713 892.751 122.937 L 919.202 66.67 C 920.507 63.894 920.412 59.433 918.99 56.715 Z  M 768.798 19.386 L 862.827 19.386 L 862.827 84.268 L 768.798 84.268 L 768.798 19.386 Z  M 760.25 102.127 L 871.374 102.127 L 862.825 84.268 L 769.016 84.92 L 760.25 102.127 Z  M 768.798 25.098 L 862.827 25.098 L 862.827 79.222 L 768.798 79.222 L 768.798 25.098 Z  M 760.25 102.127 L 871.374 102.127 L 871.374 110.564 L 760.25 110.564 L 760.25 102.127 Z  M 822.934 62.125 L 828.633 62.125 L 828.633 68.714 L 822.934 68.714 L 822.934 62.125 Z  M 845.73 51.244 L 851.428 51.244 L 851.428 68.714 L 845.73 68.714 L 845.73 51.244 Z  M 834.333 56.536 L 840.031 56.536 L 840.031 68.714 L 834.333 68.714 L 834.333 56.536 Z  M 791.592 68.714 L 808.689 53.577 L 814.387 59.276 L 828.634 42.18 L 825.784 39.113 L 837.181 36.481 L 834.333 47.878 L 828.634 42.18 M 780.684 42.18 C 780.684 36.16 785.572 31.272 791.592 31.272 C 797.612 31.272 802.5 36.16 802.5 42.18 C 802.5 48.199 797.612 53.087 791.592 53.087 C 785.572 53.087 780.684 48.199 780.684 42.18 Z  M 785.894 33.631 L 791.592 42.18 L 802.526 42.18 M 791.592 42.18 L 785.894 50.728" fill-rule="evenodd" fill="none" vector-effect="non-scaling-stroke" stroke-width="1" stroke="rgb(0,0,0)" stroke-opacity="100" stroke-linejoin="miter" stroke-linecap="round" stroke-miterlimit="3"/><path d=" M 1173.688 57.874 L 1146.055 6.919 C 1144.592 4.222 1140.914 2.033 1137.846 2.033 L 952.821 2.033 C 949.754 2.033 948.464 4.215 949.943 6.903 L 978 57.891 C 979.479 60.579 979.544 64.977 978.145 67.707 L 949.798 123.021 C 948.399 125.751 949.754 127.967 952.821 127.967 L 1137.846 127.967 C 1140.914 127.967 1144.528 125.744 1145.911 123.006 L 1173.832 67.722 C 1175.215 64.984 1175.151 60.571 1173.688 57.874 Z  M 1012.311 77.665 L 1035.872 77.665 L 1035.872 110.482 L 1012.314 110.484 L 1012.311 77.665 Z  M 1082.998 41.853 L 1106.559 41.853 L 1106.559 110.593 L 1082.998 110.593 L 1082.998 41.853 Z  M 1093.468 41.612 L 1093.468 21.977 M 1103.94 21.977 L 1093.468 27.213 L 1093.468 19.36 L 1103.94 21.977 Z  M 1014.929 63.965 L 1067.288 37.685 M 1059.434 32.45 L 1067.288 37.685 L 1067.288 46.889 M 1059.437 53.395 L 1082.998 53.395 L 1082.998 110.581 L 1059.437 110.482 L 1059.437 53.395 Z  M 1035.875 77.719 L 1035.875 65.177 L 1059.433 65.174 L 1059.433 110.483 L 1035.875 110.486 L 1035.875 77.719 Z " fill-rule="evenodd" fill="none" vector-effect="non-scaling-stroke" stroke-width="1" stroke="rgb(0,0,0)" stroke-opacity="100" stroke-linejoin="miter" stroke-linecap="round" stroke-miterlimit="3"/></g></g></g></g></svg>