<?xml version="1.0" standalone="no"?><!-- Generator: Gravit.io --><svg xmlns="http://www.w3.org/2000/svg" xmlns:xlink="http://www.w3.org/1999/xlink" style="isolation:isolate" viewBox="0 0 206.073 113.378" width="206.073" height="113.378"><defs><clipPath id="_clipPath_Fj5SIbZJvR7pxNKWFvYMUz625Wb26EIr"><rect width="206.073" height="113.378"/></clipPath></defs><g clip-path="url(#_clipPath_Fj5SIbZJvR7pxNKWFvYMUz625Wb26EIr)"><g style="isolation:isolate" id="home"><path d=" M 126.398 30.388 C 126.398 13.892 140.691 0.5 158.295 0.5 C 175.9 0.5 190.192 13.892 190.192 30.388 C 190.192 46.883 175.9 60.276 158.295 60.276 C 140.691 60.276 126.398 46.883 126.398 30.388 Z  M 113.639 112.878 L 205.503 112.878 C 207.011 87.446 184.161 66.036 157.019 67.449 C 131.669 68.769 112.231 89.125 113.639 112.878 Z  M 0.5 29.321 L 95.831 29.321 L 104.774 78.095 L 9.443 78.095 L 0.5 29.321 Z  M 9.443 84.746 L 104.774 84.746 L 117.353 93.44 L 115.118 99.157 L 30.504 99.157 L 9.443 84.746 Z " fill-rule="evenodd" fill="none" vector-effect="non-scaling-stroke" stroke-width="1" stroke="rgb(0,0,0)" stroke-linejoin="round" stroke-linecap="round" stroke-miterlimit="3"/></g></g></svg>