<?xml version="1.0" standalone="no"?><!-- Generator: Gravit.io --><svg xmlns="http://www.w3.org/2000/svg" xmlns:xlink="http://www.w3.org/1999/xlink" style="isolation:isolate" viewBox="0 0 234.876 232.135" width="234.876" height="232.135"><defs><clipPath id="_clipPath_ayUgcjk8Io6VIZ7pzpnN5aof73oCLE8Q"><rect width="234.876" height="232.135"/></clipPath></defs><g clip-path="url(#_clipPath_ayUgcjk8Io6VIZ7pzpnN5aof73oCLE8Q)"><g style="isolation:isolate" id="home"><path d=" M 12.558 157.692 C 12.558 143.206 24.319 131.445 38.805 131.445 C 53.292 131.445 65.053 143.206 65.053 157.692 C 65.053 172.179 53.292 183.94 38.805 183.94 C 24.319 183.94 12.558 172.179 12.558 157.692 Z  M 2.059 230.135 L 77.651 230.135 C 78.892 207.8 60.09 188.998 37.755 190.239 C 16.895 191.398 0.9 209.275 2.059 230.135 Z  M 64.993 89.975 L 79.692 89.975 L 75.492 127.771 L 69.193 127.771 L 64.993 89.975 Z  M 69.193 131.97 L 75.492 131.97 L 75.492 138.269 L 69.193 138.269 L 69.193 131.97 Z  M 165.742 157.692 C 165.742 143.206 177.503 131.445 191.989 131.445 C 206.476 131.445 218.237 143.206 218.237 157.692 C 218.237 172.179 206.476 183.94 191.989 183.94 C 177.503 183.94 165.742 172.179 165.742 157.692 Z  M 155.243 230.135 L 230.835 230.135 C 232.076 207.8 213.274 188.998 190.939 190.239 C 170.079 191.398 154.084 209.275 155.243 230.135 Z  M 218.177 89.975 L 232.876 89.975 L 228.676 127.771 L 222.377 127.771 L 218.177 89.975 Z  M 222.377 131.97 L 228.676 131.97 L 228.676 138.269 L 222.377 138.269 L 222.377 131.97 Z  M 95.558 69.718 C 95.558 55.232 107.319 43.471 121.805 43.471 C 136.292 43.471 148.053 55.232 148.053 69.718 C 148.053 84.204 136.292 95.965 121.805 95.965 C 107.319 95.965 95.558 84.204 95.558 69.718 Z  M 85.059 142.16 L 160.651 142.16 C 161.892 119.826 143.09 101.024 120.755 102.264 C 99.895 103.423 83.9 121.3 85.059 142.16 Z  M 147.993 2 L 162.692 2 L 158.492 39.796 L 152.193 39.796 L 147.993 2 Z  M 152.193 43.996 L 158.492 43.996 L 158.492 50.295 L 152.193 50.295 L 152.193 43.996 Z " fill-rule="evenodd" fill="none" vector-effect="non-scaling-stroke" stroke-width="1" stroke="rgb(0,0,0)" stroke-linejoin="round" stroke-linecap="round" stroke-miterlimit="3"/></g></g></svg>