<?xml version="1.0" standalone="no"?><!-- Generator: Gravit.io --><svg xmlns="http://www.w3.org/2000/svg" xmlns:xlink="http://www.w3.org/1999/xlink" style="isolation:isolate" viewBox="0 0 234.041 231.135" width="234.041" height="231.135"><defs><clipPath id="_clipPath_p2DdOgnHo1iHeds8HW8ORm9AXUmZXftm"><rect width="234.041" height="231.135"/></clipPath></defs><g clip-path="url(#_clipPath_p2DdOgnHo1iHeds8HW8ORm9AXUmZXftm)"><g style="isolation:isolate" id="home"><path d=" M 13.075 155.462 C 13.075 140.581 25.968 128.5 41.85 128.5 C 57.731 128.5 70.624 140.581 70.624 155.462 C 70.624 170.343 57.731 182.425 41.85 182.425 C 25.968 182.425 13.075 170.343 13.075 155.462 Z  M 1.565 229.878 L 84.436 229.878 C 85.797 206.936 65.184 187.621 40.699 188.896 C 17.83 190.086 0.294 208.45 1.565 229.878 Z  M 161.075 155.462 C 161.075 140.581 173.968 128.5 189.85 128.5 C 205.731 128.5 218.624 140.581 218.624 155.462 C 218.624 170.343 205.731 182.425 189.85 182.425 C 173.968 182.425 161.075 170.343 161.075 155.462 Z  M 149.565 229.878 L 232.436 229.878 C 233.797 206.936 213.184 187.621 188.699 188.896 C 165.83 190.086 148.294 208.45 149.565 229.878 Z  M 79.765 3.308 L 44.499 38.573 C 42.5 40.572 42.5 43.818 44.499 45.816 L 53.645 54.962 C 55.644 56.961 58.889 56.961 60.888 54.962 L 96.154 19.697 C 98.153 17.698 98.153 14.452 96.154 12.454 L 87.008 3.308 C 85.009 1.309 81.764 1.309 79.765 3.308 Z  M 100.435 23.092 L 70.064 52.996 C 68.654 54.384 67.978 57.047 68.556 58.94 C 68.593 59.064 69.337 62.482 70.583 65.242 C 71.586 67.465 73.063 69.17 73.063 69.17 C 73.673 70.111 75.768 70.741 77.74 70.575 L 87.511 69.752 C 89.16 69.613 91.139 70.683 91.926 72.139 Q 93.822 75.647 96.702 78.046 Q 99.07 80.017 101.599 81.029 C 103.137 81.644 104.69 83.452 105.066 85.065 Q 105.518 87.005 107.458 88.801 Q 109.341 90.546 111.159 90.856 C 112.791 91.135 114.523 92.643 115.025 94.221 Q 115.505 95.729 117.189 97.508 Q 119.912 100.384 124.445 100.811 C 126.093 100.967 127.992 102.314 128.683 103.819 Q 130.404 107.57 129.992 111.336 Q 129.534 115.526 126.308 119.299 C 125.232 120.557 125.554 122.193 127.027 122.95 Q 132.852 125.944 136.65 121.579 Q 139.04 118.833 137.549 116.032 C 136.77 114.571 137.278 114.097 138.682 114.975 Q 143.806 118.18 147.406 115.433 Q 150.769 112.867 149.595 107.606 C 149.235 105.99 150.227 105.072 151.81 105.558 Q 156.045 106.858 158.673 104.166 Q 160.987 101.795 160.296 98.399 C 159.965 96.776 161.036 95.579 162.685 95.727 Q 167.58 96.167 169.94 92.898 Q 171.601 90.599 170.965 85.216 L 139.723 54.487 Q 131.882 57.152 127.432 57.56 Q 123.473 57.922 116.164 57.047 L 106.946 66.266 Q 102.603 69.417 99.775 69.339 C 97.128 69.266 95.402 67.459 93.117 66.266 C 90.9 65.109 88.761 64.466 86.971 62.681 Q 85.584 61.297 85.584 61.297 C 84.654 59.517 84.853 55.735 86.03 52.857 Q 87.858 48.381 91.581 44.244 Q 98.962 36.04 109.759 25.07 C 110.75 24.063 110.409 23.191 108.997 23.123 L 101.311 22.757 C 101.029 22.744 100.636 22.894 100.435 23.092 Z  M 169.726 67.35 Q 170.034 67.103 171.477 64.218 Q 173.05 61.072 173.013 54.487 L 141.26 22.221 Q 133.583 21.548 129.48 22.221 Q 125.135 22.934 117.701 26.318 L 91.069 53.462 Q 90.703 59.606 93.117 61.657 Q 95.623 63.785 101.824 62.169 L 110.214 53.429 C 112.367 51.186 116.578 49.923 119.61 50.61 Q 121.704 51.084 125.895 50.902 Q 131.35 50.664 135.536 48.944 C 138.413 47.763 142.551 48.57 144.773 50.746 L 161.306 66.934 C 163.527 69.109 167.3 69.296 169.726 67.35 Z  M 146.222 20.522 L 179.227 53.527 C 181.426 55.726 184.996 55.726 187.195 53.527 L 196.641 44.081 C 198.839 41.883 198.839 38.313 196.641 36.114 L 162.611 2.085 C 160.413 -0.114 156.95 -0.012 154.885 2.312 L 145.981 12.328 C 143.916 14.652 144.024 18.324 146.222 20.522 Z  M 74.269 78.899 L 75.603 77.705 C 77.92 75.632 82.32 74.122 85.422 74.336 Q 86.003 74.376 88.508 75.485 Q 92.107 77.078 90.103 83.811 C 89.788 84.869 90.378 85.432 91.42 85.068 Q 96.069 83.441 98.751 85.728 Q 101.637 88.189 100.271 93.521 C 99.998 94.591 100.65 95.262 101.726 95.019 Q 107.244 93.775 109.802 96.699 Q 112.04 99.258 110.987 103.755 C 110.735 104.83 111.3 105.243 112.248 104.677 Q 117.664 101.444 121.07 103.87 Q 123.807 105.819 123.812 106.727 C 123.831 109.836 122.104 114.186 119.957 116.435 L 116.981 119.552 C 114.834 121.801 111.122 123.383 108.695 123.081 Q 108.695 123.081 105.705 122.307 Q 101.752 121.284 103.847 113.774 C 104.144 112.711 103.637 112.342 102.716 112.95 Q 96.993 116.729 93.413 114.113 Q 89.898 111.543 91.587 105.076 C 91.866 104.008 91.257 103.464 90.227 103.862 Q 85.415 105.72 82.658 103.357 Q 79.515 100.663 81.674 94.776 C 82.054 93.74 81.513 93.186 80.468 93.54 Q 75.148 95.341 72.119 92.898 Q 69.019 90.398 69.312 88.238 C 69.731 85.157 71.952 80.972 74.269 78.899 Z " fill-rule="evenodd" fill="none" vector-effect="non-scaling-stroke" stroke-width="1" stroke="rgb(0,0,0)" stroke-linejoin="miter" stroke-linecap="square" stroke-miterlimit="3"/></g></g></svg>