<?xml version="1.0" standalone="no"?><!-- Generator: Gravit.io --><svg xmlns="http://www.w3.org/2000/svg" xmlns:xlink="http://www.w3.org/1999/xlink" style="isolation:isolate" viewBox="0 0 234.041 231.135" width="234.041" height="231.135"><defs><clipPath id="_clipPath_OwlHi0D5rIRDEyX35SYmZEc5WqpJTXDS"><rect width="234.041" height="231.135"/></clipPath></defs><g clip-path="url(#_clipPath_OwlHi0D5rIRDEyX35SYmZEc5WqpJTXDS)"><g style="isolation:isolate" id="home"><path d=" M 24.595 67.462 C 24.595 52.581 37.489 40.5 53.37 40.5 C 69.251 40.5 82.145 52.581 82.145 67.462 C 82.145 82.343 69.251 94.425 53.37 94.425 C 37.489 94.425 24.595 82.343 24.595 67.462 Z  M 13.085 141.878 L 95.957 141.878 C 97.317 118.936 76.704 99.621 52.219 100.896 C 29.35 102.086 11.815 120.45 13.085 141.878 Z  M 123.283 115.925 C 123.283 93.062 143.093 74.5 167.493 74.5 C 191.893 74.5 211.702 93.062 211.702 115.925 C 211.702 138.788 191.893 157.35 167.493 157.35 C 143.093 157.35 123.283 138.788 123.283 115.925 Z  M 105.6 230.257 L 232.923 230.257 C 235.013 195.008 203.343 165.333 165.724 167.291 C 130.589 169.121 103.648 197.334 105.6 230.257 Z  M 0.021 148.5 L 122.521 147.902 M 212.102 147.556 L 233.021 147.419 M 134.007 44.695 C 130.692 43.934 126.253 43.983 111.5 49.659 C 107.979 51.014 117.34 37.353 114.076 35.129 C 107.045 30.341 105.5 28.31 105.5 24.838 C 105.5 12.509 128.46 2.5 156.74 2.5 C 185.02 2.5 207.979 12.509 207.979 24.838 C 207.979 37.167 185.02 47.177 156.74 47.177 C 149.772 47.177 144.565 47.116 134.007 44.695 Z " fill-rule="evenodd" fill="none" vector-effect="non-scaling-stroke" stroke-width="1" stroke="rgb(0,0,0)" stroke-linejoin="miter" stroke-linecap="round" stroke-miterlimit="3"/></g></g></svg>