<?xml version="1.0" standalone="no"?><!-- Generator: Gravit.io --><svg xmlns="http://www.w3.org/2000/svg" xmlns:xlink="http://www.w3.org/1999/xlink" style="isolation:isolate" viewBox="0 0 209.073 147.793" width="209.073" height="147.793"><defs><clipPath id="_clipPath_itQdZOlTslbJiZgN6Q6cBnOS8qrAveqA"><rect width="209.073" height="147.793"/></clipPath></defs><g clip-path="url(#_clipPath_itQdZOlTslbJiZgN6Q6cBnOS8qrAveqA)"><g style="isolation:isolate" id="home"/><path d=" M 127.898 63.302 C 127.898 46.807 142.191 33.414 159.795 33.414 C 177.4 33.414 191.692 46.807 191.692 63.302 C 191.692 79.798 177.4 93.19 159.795 93.19 C 142.191 93.19 127.898 79.798 127.898 63.302 Z  M 115.139 145.793 L 207.003 145.793 C 208.511 120.361 185.661 98.95 158.519 100.363 C 133.169 101.683 113.731 122.039 115.139 145.793 Z  M 2 62.236 L 97.331 62.236 L 106.274 111.01 L 10.943 111.01 L 2 62.236 Z  M 10.943 117.661 L 106.274 117.661 L 118.853 126.355 L 116.618 132.071 L 32.004 132.071 L 10.943 117.661 Z " fill-rule="evenodd" fill="none" vector-effect="non-scaling-stroke" stroke-width="1" stroke="rgb(0,0,0)" stroke-linejoin="round" stroke-linecap="round" stroke-miterlimit="3"/></g></svg>