<?xml version="1.0" standalone="no"?><!-- Generator: Gravit.io --><svg xmlns="http://www.w3.org/2000/svg" xmlns:xlink="http://www.w3.org/1999/xlink" style="isolation:isolate" viewBox="0 0 209.073 147.793" width="209.073" height="147.793"><defs><clipPath id="_clipPath_hxG82Vj7Xc8wJBjL0h0inSWR6Ehp3IjI"><rect width="209.073" height="147.793"/></clipPath></defs><g clip-path="url(#_clipPath_hxG82Vj7Xc8wJBjL0h0inSWR6Ehp3IjI)"><g style="isolation:isolate" id="home"/><path d=" M 67.177 72.323 C 67.177 57.837 78.938 46.076 93.424 46.076 C 107.911 46.076 119.672 57.837 119.672 72.323 C 119.672 86.809 107.911 98.57 93.424 98.57 C 78.938 98.57 67.177 86.809 67.177 72.323 Z  M 56.678 144.765 L 132.27 144.765 C 133.511 122.431 114.709 103.629 92.375 104.869 C 71.514 106.028 55.519 123.905 56.678 144.765 Z  M 119.612 4.605 L 134.311 4.605 L 130.111 42.401 L 123.812 42.401 L 119.612 4.605 Z  M 123.812 46.601 L 130.111 46.601 L 130.111 52.9 L 123.812 52.9 L 123.812 46.601 Z " fill-rule="evenodd" fill="none" vector-effect="non-scaling-stroke" stroke-width="1" stroke="rgb(0,0,0)" stroke-linejoin="round" stroke-linecap="round" stroke-miterlimit="3"/></g></svg>