<?xml version="1.0" standalone="no"?><!-- Generator: Gravit.io --><svg xmlns="http://www.w3.org/2000/svg" xmlns:xlink="http://www.w3.org/1999/xlink" style="isolation:isolate" viewBox="0 0 206.073 113.378" width="206.073" height="113.378"><defs><clipPath id="_clipPath_f6oVCFij5AbgRP7lodoaSci7QKyjljC0"><rect width="206.073" height="113.378"/></clipPath></defs><g clip-path="url(#_clipPath_f6oVCFij5AbgRP7lodoaSci7QKyjljC0)"><g style="isolation:isolate" id="home"><path d=" M 98.478 100.25 C 98.478 96.682 101.374 93.786 104.941 93.786 C 108.508 93.786 111.404 96.682 111.404 100.25 C 111.404 103.817 108.508 106.713 104.941 106.713 C 101.374 106.713 98.478 103.817 98.478 100.25 Z  M 53.234 113.176 L 56.771 91.071 C 57.673 85.435 62.856 79.573 68.34 77.989 L 82.522 73.892 C 85.264 73.1 89.807 72.427 92.66 72.389 Q 102.507 72.26 103.002 79.567 Q 103.395 85.372 97.424 87.896 C 94.795 89.006 90.408 90.452 87.634 91.121 L 79.571 93.068 C 76.451 93.821 74.01 97.037 74.124 100.246 L 74.332 106.071 C 74.46 109.636 77.459 112.53 81.026 112.53 L 128.209 112.53 C 131.776 112.53 134.673 109.634 134.673 106.067 L 134.61 102.054 M 135.758 48.545 L 135.758 7.823 C 135.758 4.256 132.862 1.36 129.295 1.36 L 80.173 1.36 C 76.606 1.36 73.785 4.255 73.878 7.821 L 74.563 75.689 M 137.051 29.152 L 144.595 24.123 C 145.782 23.332 147.9 22.797 149.32 22.929 Q 152.827 23.257 154.502 25.921 Q 156.032 28.353 155.216 31.192 C 154.822 32.563 153.604 34.408 152.497 35.309 L 128.715 54.666 C 127.608 55.567 126.256 57.364 125.696 58.677 Q 124.255 62.061 126.063 64.701 Q 128.09 67.659 132.554 67.011 C 133.966 66.806 136.199 66.239 137.538 65.745 Q 146.938 62.275 149.332 67.933 Q 150.557 70.829 149.114 73.984 C 148.521 75.281 147.107 77.024 145.96 77.872 L 133.173 87.323 Q 121.54 94.79 125.417 100.25 Q 128.258 104.25 135.212 102.255 C 136.584 101.862 138.616 100.836 139.747 99.966 L 144.051 96.655 C 145.182 95.785 146.512 93.996 147.02 92.663 Q 148.079 89.881 146.746 87.323 Q 144.166 82.369 133.819 87.323 Q 127.361 85.928 126.063 82.798 Q 124.825 79.812 126.694 76.626 C 127.416 75.395 128.9 73.664 130.007 72.763 L 143.449 61.81 C 144.555 60.908 146.27 59.355 147.276 58.343 Q 152.188 53.402 149.978 49.189 Q 147.623 44.7 137.697 47.25 M 93.1 9.762 L 114.429 9.762" fill-rule="evenodd" fill="none" vector-effect="non-scaling-stroke" stroke-width="1" stroke="rgb(0,0,0)" stroke-linejoin="round" stroke-linecap="round" stroke-miterlimit="3"/></g></g></svg>