<?xml version="1.0" standalone="no"?><!-- Generator: Gravit.io --><svg xmlns="http://www.w3.org/2000/svg" xmlns:xlink="http://www.w3.org/1999/xlink" style="isolation:isolate" viewBox="0 0 209.073 147.793" width="209.073" height="147.793"><defs><clipPath id="_clipPath_7KT2htMwxVoYlzlSugJbstbSloSSy5B4"><rect width="209.073" height="147.793"/></clipPath></defs><g clip-path="url(#_clipPath_7KT2htMwxVoYlzlSugJbstbSloSSy5B4)"><g style="isolation:isolate" id="home"/><path d=" M 159.831 44.209 L 181.098 44.209 M 70.509 145.793 L 6.709 145.793 L 6.709 98.662 Q 14.779 79.239 36.481 78.561 Q 58.185 77.883 62.001 82.815 L 110.138 44.209 Q 117.46 37.599 121.549 40.279 Q 125.99 43.193 121.549 53.041 L 70.509 99.828 L 70.509 145.793 Z  M 15.214 50.914 C 15.214 38.003 25.697 27.52 38.607 27.52 C 51.521 27.52 62.001 38.003 62.001 50.914 C 62.001 63.825 51.521 74.307 38.607 74.307 C 25.697 74.307 15.214 63.825 15.214 50.914 Z  M 62.001 48.787 Q 53.62 49.981 49.242 48.787 Q 43.951 47.345 36.481 40.279 Q 31.956 47.082 27.975 48.787 Q 23.739 50.603 15.214 48.787 M 79.016 91.32 L 79.016 95.574 L 198.111 95.574 L 198.111 14.759 L 79.016 14.759 L 79.016 67.863 M 38.266 92.65 L 34.012 88.397 L 38.266 84.143 L 43.205 88.397 L 38.266 92.65 Z  M 38.16 92.476 L 34.012 117.996 L 38.16 130.755 L 42.644 117.996 L 38.16 92.476 Z  M 138.562 44.988 C 138.562 33.011 148.286 23.287 160.264 23.287 C 172.241 23.287 181.965 33.011 181.965 44.988 C 181.965 56.963 172.241 66.687 160.264 66.687 C 148.286 66.687 138.562 56.963 138.562 44.988 Z  M 147.07 27.52 L 159.831 44.209 L 151.324 61.548 M 74.762 2 L 202.364 2 L 202.364 14.759 L 74.762 14.759 L 74.762 2 Z  M 91.775 23.267 L 134.311 23.267 M 91.775 31.774 L 134.311 31.774 M 113.042 74.307 L 181.098 74.307 M 181.098 84.143 L 113.042 84.143" fill-rule="evenodd" fill="none" vector-effect="non-scaling-stroke" stroke-width="1" stroke="rgb(0,0,0)" stroke-opacity="100" stroke-linejoin="miter" stroke-linecap="round" stroke-miterlimit="3"/></g></svg>