<?xml version="1.0" standalone="no"?><!-- Generator: Gravit.io --><svg xmlns="http://www.w3.org/2000/svg" xmlns:xlink="http://www.w3.org/1999/xlink" style="isolation:isolate" viewBox="0 0 209.073 147.793" width="209.073" height="147.793"><defs><clipPath id="_clipPath_yHJ0ISQX72aZFlfEglF065VmRTHywQ0d"><rect width="209.073" height="147.793"/></clipPath></defs><g clip-path="url(#_clipPath_yHJ0ISQX72aZFlfEglF065VmRTHywQ0d)"><g style="isolation:isolate" id="home"/><path d=" M 79.693 71.377 C 79.693 56.496 92.586 44.414 108.467 44.414 C 124.349 44.414 137.242 56.496 137.242 71.377 C 137.242 86.258 124.349 98.339 108.467 98.339 C 92.586 98.339 79.693 86.258 79.693 71.377 Z  M 68.183 145.793 L 151.054 145.793 C 152.414 122.85 131.801 103.536 107.316 104.81 C 84.448 106.001 66.912 124.364 68.183 145.793 Z  M 55.118 152.414 M 153.868 54.359 L 146.326 54.359 L 146.326 47.633 L 154.118 47.633 L 153.868 54.359 Z  M 154.118 42.166 L 146.728 42.166 L 147.264 34.654 Q 149.22 31.145 150.699 29.56 C 152.117 28.041 153.937 27.46 155.324 25.908 C 157.404 23.578 159.328 21.275 159.295 18.066 C 159.271 15.745 158.799 13.575 157.033 12 C 155.094 10.271 152.658 10.671 150.118 10.633 C 145.743 10.567 143.642 13.788 142.941 17.429 Q 142.727 18.541 142.941 20.633 L 136.118 20.633 Q 135.993 18.55 136.118 17.429 C 136.886 10.537 141.133 4.869 149.118 4.633 C 154.742 4.466 157.204 4.997 161.118 7.633 C 164.66 10.018 165.097 14.419 165.118 18.633 Q 165.144 23.821 161.118 28.633 L 156.118 32.633 L 154.118 35.633 L 154.118 42.166 Z " fill-rule="evenodd" fill="none" vector-effect="non-scaling-stroke" stroke-width="1" stroke="rgb(0,0,0)" stroke-linejoin="round" stroke-linecap="round" stroke-miterlimit="3"/></g></svg>