<?xml version="1.0" standalone="no"?><!-- Generator: Gravit.io --><svg xmlns="http://www.w3.org/2000/svg" xmlns:xlink="http://www.w3.org/1999/xlink" style="isolation:isolate" viewBox="0 0 234.041 231.135" width="234.041" height="231.135"><defs><clipPath id="_clipPath_vgTqRBkjEPdpseEB5b8IAmSao7v05Ugz"><rect width="234.041" height="231.135"/></clipPath></defs><g clip-path="url(#_clipPath_vgTqRBkjEPdpseEB5b8IAmSao7v05Ugz)"><g style="isolation:isolate" id="home"><path d=" M 83.98 40.783 Q 108.15 64.953 119.065 77.077 L 138.421 57.72 Q 125.625 43.529 108.176 26.081 C 88.731 7.363 78.538 2.367 67.043 0.859 C 55.549 -0.648 31.048 2.288 17.442 15.377 C 4.917 27.425 0.733 41.686 0.504 60.139 C 0.276 78.593 8.807 90.93 22.281 104.902 Q 40.782 124.088 56.155 139.986 L 75.512 120.629 Q 36.087 79.994 31.959 75.867 C 13.468 41.553 51.01 7.813 83.98 40.783 Z  M 114.169 152.562 C 114.169 142.317 122.487 134 132.731 134 C 142.976 134 151.293 142.317 151.293 152.562 C 151.293 162.806 142.976 171.124 132.731 171.124 C 122.487 171.124 114.169 162.806 114.169 152.562 Z  M 106.745 203.793 L 160.203 203.793 C 161.08 187.998 147.783 174.701 131.989 175.579 C 117.237 176.398 105.925 189.04 106.745 203.793 Z  M 48.261 179.404 C 48.261 169.159 56.579 160.842 66.823 160.842 C 77.068 160.842 85.385 169.159 85.385 179.404 C 85.385 189.649 77.068 197.966 66.823 197.966 C 56.579 197.966 48.261 189.649 48.261 179.404 Z  M 40.837 230.635 L 94.295 230.635 C 95.172 214.84 81.875 201.543 66.081 202.421 C 51.329 203.24 40.017 215.883 40.837 230.635 Z  M 177.467 79.313 C 177.467 69.069 185.784 60.751 196.029 60.751 C 206.273 60.751 214.59 69.069 214.59 79.313 C 214.59 89.558 206.273 97.875 196.029 97.875 C 185.784 97.875 177.467 89.558 177.467 79.313 Z  M 170.042 130.544 L 223.5 130.544 C 224.378 114.749 211.081 101.452 195.286 102.33 C 180.534 103.149 169.222 115.792 170.042 130.544 Z  M 187.467 179.404 C 187.467 169.159 195.784 160.842 206.029 160.842 C 216.273 160.842 224.59 169.159 224.59 179.404 C 224.59 189.649 216.273 197.966 206.029 197.966 C 195.784 197.966 187.467 189.649 187.467 179.404 Z  M 180.042 230.635 L 233.5 230.635 C 234.378 214.84 221.081 201.543 205.286 202.421 C 190.534 203.24 179.222 215.883 180.042 230.635 Z  M 124 53 L 115 63 M 114 53 L 124 63 M 62 116 L 52 125.946 M 145 56 L 157 53 L 167 63 L 178 60 M 121.822 83.873 L 125.61 95.648 L 116.294 106.288 L 120.016 117.065 M 139.761 74.104 L 150.362 80.477 L 150.349 94.619 L 160.244 100.285 M 51 147 L 37.755 173.682 M 73 137 L 101 161 M 85 120.629 L 120.016 127" fill-rule="evenodd" fill="none" vector-effect="non-scaling-stroke" stroke-width="1" stroke="rgb(0,0,0)" stroke-linejoin="miter" stroke-linecap="round" stroke-miterlimit="3"/></g></g></svg>