<?xml version="1.0" standalone="no"?><!-- Generator: Gravit.io --><svg xmlns="http://www.w3.org/2000/svg" xmlns:xlink="http://www.w3.org/1999/xlink" style="isolation:isolate" viewBox="0 0 33.736 19.236" width="33.736" height="19.236"><defs><clipPath id="_clipPath_N6jjgfaA72zeD3biZw7lP5aciIypByys"><rect width="33.736" height="19.236"/></clipPath></defs><g clip-path="url(#_clipPath_N6jjgfaA72zeD3biZw7lP5aciIypByys)"><g style="isolation:isolate" id="background"/><g style="isolation:isolate" id="service-web"/><g style="isolation:isolate" id="Layer 5"><g id="Group"><clipPath id="_clipPath_PVQRxRWiIQmeGYLQKcYmb6JvStOgsiKo"><path d=" M 0 0 L 33.736 0 L 33.736 19.236 L 0 19.236 L 0 0 Z " fill="rgb(255,255,255)"/></clipPath><g clip-path="url(#_clipPath_PVQRxRWiIQmeGYLQKcYmb6JvStOgsiKo)"><g id="Group"><path d=" M 28.985 19.235 L 0.03 19.235 L 4.77 9.662 L 0.03 0.089 L 28.985 0.089 L 33.717 9.662 L 28.985 19.235 Z " fill="rgb(55,201,239)"/></g></g><path d=" M 14.534 8.505 C 14.053 8.505 13.81 8.26 13.704 8.105 C 13.324 8.589 12.703 8.461 12.697 8.459 C 12.654 8.45 12.627 8.408 12.636 8.365 C 12.645 8.322 12.688 8.295 12.731 8.304 C 12.756 8.31 13.336 8.426 13.644 7.914 C 13.659 7.887 13.689 7.873 13.719 7.875 C 13.75 7.879 13.776 7.898 13.786 7.927 C 13.794 7.949 13.994 8.453 14.773 8.326 C 14.816 8.319 14.857 8.348 14.864 8.391 C 14.871 8.434 14.842 8.476 14.799 8.483 C 14.703 8.498 14.615 8.505 14.534 8.505 Z " fill="rgb(2,3,1)"/><path d=" M 13.745 7.455 C 13.209 7.455 12.773 7.911 12.773 8.473 C 12.773 9.034 13.209 9.49 13.745 9.49 C 14.281 9.49 14.717 9.034 14.717 8.473 C 14.717 7.911 14.281 7.455 13.745 7.455 Z  M 13.745 9.649 C 13.121 9.649 12.614 9.121 12.614 8.473 C 12.614 7.824 13.121 7.296 13.745 7.296 C 14.368 7.296 14.876 7.824 14.876 8.473 C 14.876 9.121 14.368 9.649 13.745 9.649 Z " fill="rgb(2,3,1)"/><path d=" M 13.682 12.101 L 13.434 11.627 L 13.663 10.609 C 13.676 10.619 13.693 10.625 13.71 10.625 C 13.725 10.625 13.739 10.62 13.751 10.612 L 13.955 11.663 L 13.682 12.101 Z  M 13.71 10.152 L 13.846 10.291 L 13.71 10.431 L 13.574 10.291 L 13.71 10.152 Z  M 14.117 11.664 L 13.887 10.478 L 14.014 10.347 C 14.044 10.316 14.044 10.267 14.014 10.236 L 13.767 9.983 C 13.737 9.952 13.683 9.952 13.653 9.983 L 13.406 10.236 C 13.376 10.267 13.376 10.316 13.406 10.347 L 13.53 10.474 L 13.273 11.621 C 13.268 11.639 13.271 11.658 13.28 11.676 L 13.607 12.297 C 13.619 12.322 13.645 12.339 13.673 12.34 L 13.676 12.34 C 13.704 12.34 13.729 12.326 13.744 12.302 L 14.106 11.72 C 14.117 11.704 14.121 11.683 14.117 11.664 Z " fill="rgb(2,3,1)"/><path d=" M 21.594 6.617 C 21.594 6.618 21.593 6.62 21.591 6.62 L 15.546 6.62 C 15.545 6.62 15.544 6.618 15.544 6.617 L 15.544 6.319 C 15.544 6.318 15.545 6.316 15.546 6.316 L 21.591 6.316 C 21.593 6.316 21.594 6.318 21.594 6.319 L 21.594 6.617 Z  M 21.591 6.157 L 15.546 6.157 C 15.457 6.157 15.385 6.23 15.385 6.319 L 15.385 6.617 C 15.385 6.706 15.457 6.778 15.546 6.778 L 15.58 6.778 C 15.58 6.779 15.58 6.78 15.58 6.781 L 15.58 9.345 C 15.58 9.389 15.616 9.425 15.659 9.425 C 15.703 9.425 15.739 9.389 15.739 9.345 L 15.739 6.781 C 15.739 6.779 15.74 6.778 15.742 6.778 L 21.396 6.778 C 21.397 6.778 21.399 6.779 21.399 6.781 L 21.399 10.573 C 21.399 10.574 21.397 10.575 21.396 10.575 L 15.742 10.575 C 15.74 10.575 15.739 10.574 15.739 10.573 L 15.739 10.383 C 15.739 10.339 15.703 10.303 15.659 10.303 C 15.616 10.303 15.58 10.339 15.58 10.383 L 15.58 10.573 C 15.58 10.662 15.652 10.735 15.742 10.735 L 21.396 10.735 C 21.485 10.735 21.557 10.662 21.557 10.573 L 21.557 6.781 C 21.557 6.78 21.557 6.779 21.557 6.778 L 21.591 6.778 C 21.68 6.778 21.752 6.706 21.752 6.617 L 21.752 6.319 C 21.752 6.23 21.68 6.157 21.591 6.157 Z " fill="rgb(2,3,1)"/><path d=" M 12.14 13.031 L 15.231 13.032 L 15.227 10.618 C 15.227 10.594 15.238 10.571 15.257 10.556 L 17.759 8.563 C 17.894 8.461 17.92 8.27 17.819 8.137 C 17.761 8.061 17.673 8.018 17.577 8.018 C 17.511 8.018 17.448 8.038 17.394 8.079 L 14.863 10.095 C 14.836 10.116 14.798 10.118 14.769 10.098 C 14.551 9.952 14.297 9.874 14.034 9.874 L 13.456 9.874 C 12.73 9.874 12.14 10.464 12.14 11.191 L 12.14 13.031 Z  M 15.31 13.192 L 12.06 13.19 C 12.016 13.19 11.981 13.155 11.981 13.11 L 11.981 11.191 C 11.981 10.377 12.643 9.715 13.456 9.715 L 14.034 9.715 C 14.309 9.715 14.576 9.791 14.808 9.935 L 17.297 7.954 C 17.379 7.891 17.476 7.858 17.577 7.858 C 17.723 7.858 17.857 7.925 17.945 8.041 C 18.1 8.244 18.06 8.535 17.857 8.688 L 15.386 10.656 L 15.39 13.112 C 15.39 13.133 15.381 13.153 15.366 13.168 C 15.352 13.183 15.331 13.192 15.31 13.192 Z " fill="rgb(2,3,1)"/><path d=" M 19.537 9.149 C 19.387 9.149 19.245 9.114 19.118 9.052 L 19.549 8.261 L 20.487 8.261 C 20.454 8.756 20.04 9.149 19.537 9.149 Z  M 18.584 8.196 C 18.584 7.867 18.751 7.576 19.006 7.405 L 19.401 8.199 L 18.982 8.97 C 18.741 8.797 18.584 8.515 18.584 8.196 Z  M 20.485 8.102 L 19.53 8.102 L 19.145 7.328 C 19.265 7.274 19.397 7.243 19.537 7.243 C 20.03 7.243 20.437 7.62 20.485 8.102 Z  M 19.537 7.084 C 19.347 7.084 19.169 7.132 19.013 7.216 C 19.01 7.217 19.006 7.218 19.003 7.22 C 18.997 7.223 18.991 7.227 18.986 7.231 C 18.651 7.422 18.425 7.783 18.425 8.196 C 18.425 8.809 18.924 9.308 19.537 9.308 C 20.15 9.308 20.648 8.809 20.648 8.196 C 20.648 7.583 20.15 7.084 19.537 7.084 Z " fill="rgb(2,3,1)"/><path d=" M 20.637 9.708 L 17.321 9.708 C 17.278 9.708 17.242 9.672 17.242 9.628 C 17.242 9.585 17.278 9.549 17.321 9.549 L 20.637 9.549 C 20.681 9.549 20.716 9.585 20.716 9.628 C 20.716 9.672 20.681 9.708 20.637 9.708 Z " fill="rgb(2,3,1)"/><path d=" M 18.277 7.335 L 16.429 7.335 C 16.385 7.335 16.349 7.299 16.349 7.256 C 16.349 7.212 16.385 7.177 16.429 7.177 L 18.277 7.177 C 18.321 7.177 18.357 7.212 18.357 7.256 C 18.357 7.299 18.321 7.335 18.277 7.335 Z " fill="rgb(2,3,1)"/><path d=" M 18.277 7.685 L 16.429 7.685 C 16.385 7.685 16.349 7.65 16.349 7.605 C 16.349 7.562 16.385 7.526 16.429 7.526 L 18.277 7.526 C 18.321 7.526 18.357 7.562 18.357 7.605 C 18.357 7.65 18.321 7.685 18.277 7.685 Z " fill="rgb(2,3,1)"/><path d=" M 20.637 10.182 L 17.321 10.182 C 17.278 10.182 17.242 10.147 17.242 10.102 C 17.242 10.059 17.278 10.023 17.321 10.023 L 20.637 10.023 C 20.681 10.023 20.716 10.059 20.716 10.102 C 20.716 10.147 20.681 10.182 20.637 10.182 Z " fill="rgb(2,3,1)"/></g></g></g></svg>