<?xml version="1.0" standalone="no"?><!-- Generator: Gravit.io --><svg xmlns="http://www.w3.org/2000/svg" xmlns:xlink="http://www.w3.org/1999/xlink" style="isolation:isolate" viewBox="0 0 33.731 19.236" width="33.731" height="19.236"><defs><clipPath id="_clipPath_6QvxMPBXWSgojQMjjLzWpWNNp3xlm3PF"><rect width="33.731" height="19.236"/></clipPath></defs><g clip-path="url(#_clipPath_6QvxMPBXWSgojQMjjLzWpWNNp3xlm3PF)"><g style="isolation:isolate" id="background"/><g style="isolation:isolate" id="service-web"/><g style="isolation:isolate" id="Layer 5"><g id="Group"><clipPath id="_clipPath_SwqJYcZ2n9p5UkmzN0nRIquh9bBZJUBc"><path d=" M 0 0 L 33.731 0 L 33.731 19.236 L 0 19.236 L 0 0 Z " fill="rgb(255,255,255)"/></clipPath><g clip-path="url(#_clipPath_SwqJYcZ2n9p5UkmzN0nRIquh9bBZJUBc)"><g id="Group"><path d=" M 28.985 19.235 L 0.03 19.235 L 4.77 9.662 L 0.03 0.089 L 28.985 0.089 L 33.717 9.662 L 28.985 19.235 Z " fill="rgb(0,183,255)"/></g></g><path d=" M 15.452 7.03 C 15.4 7.03 15.358 7.072 15.358 7.124 L 15.358 10.893 C 15.358 10.944 15.4 10.987 15.452 10.987 L 21.504 10.987 C 21.556 10.987 21.598 10.944 21.598 10.893 L 21.598 7.124 C 21.598 7.072 21.556 7.03 21.504 7.03 L 15.452 7.03 Z  M 21.504 11.135 L 15.452 11.135 C 15.319 11.135 15.21 11.026 15.21 10.893 L 15.21 7.124 C 15.21 6.991 15.319 6.882 15.452 6.882 L 21.504 6.882 C 21.637 6.882 21.746 6.991 21.746 7.124 L 21.746 10.893 C 21.746 11.026 21.637 11.135 21.504 11.135 Z " fill="rgb(2,3,1)"/><path d=" M 21.603 11.406 C 21.603 11.458 21.56 11.5 21.508 11.5 L 15.442 11.5 C 15.39 11.5 15.347 11.458 15.347 11.406 L 15.347 6.611 C 15.347 6.559 15.39 6.517 15.442 6.517 L 21.508 6.517 C 21.56 6.517 21.603 6.559 21.603 6.611 L 21.603 11.406 Z  M 19.638 11.745 L 19.638 12.379 C 19.638 12.431 19.596 12.473 19.544 12.473 L 17.405 12.473 C 17.354 12.473 17.312 12.431 17.312 12.379 L 17.312 11.745 C 17.312 11.693 17.354 11.651 17.405 11.651 L 19.544 11.651 C 19.596 11.651 19.638 11.693 19.638 11.745 Z  M 20.288 12.734 L 20.288 12.808 C 20.288 12.859 20.246 12.902 20.194 12.902 L 16.749 12.902 C 16.698 12.902 16.656 12.859 16.656 12.808 L 16.656 12.734 C 16.656 12.682 16.698 12.639 16.749 12.639 L 20.194 12.639 C 20.246 12.639 20.288 12.682 20.288 12.734 Z  M 21.508 6.369 L 15.442 6.369 C 15.308 6.369 15.2 6.478 15.2 6.611 L 15.2 11.406 C 15.2 11.54 15.308 11.648 15.442 11.648 L 17.184 11.648 C 17.171 11.678 17.164 11.71 17.164 11.745 L 17.164 12.379 C 17.164 12.419 17.174 12.458 17.192 12.491 L 16.749 12.491 C 16.616 12.491 16.508 12.6 16.508 12.734 L 16.508 12.808 C 16.508 12.942 16.616 13.05 16.749 13.05 L 20.194 13.05 C 20.327 13.05 20.436 12.942 20.436 12.808 L 20.436 12.734 C 20.436 12.6 20.327 12.491 20.194 12.491 L 19.758 12.491 C 19.776 12.458 19.786 12.419 19.786 12.379 L 19.786 11.745 C 19.786 11.71 19.779 11.678 19.766 11.648 L 21.508 11.648 C 21.642 11.648 21.751 11.54 21.751 11.406 L 21.751 6.611 C 21.751 6.478 21.642 6.369 21.508 6.369 Z " fill="rgb(2,3,1)"/><path d=" M 20.481 10.624 L 16.501 10.624 C 16.461 10.624 16.427 10.591 16.427 10.55 C 16.427 10.509 16.461 10.476 16.501 10.476 L 20.481 10.476 C 20.523 10.476 20.555 10.509 20.555 10.55 C 20.555 10.591 20.523 10.624 20.481 10.624 Z " fill="rgb(2,3,1)"/><path d=" M 17.612 10.158 L 17.997 10.158 L 17.997 8.094 L 17.612 8.094 L 17.612 10.158 Z  M 18.031 10.306 L 17.578 10.306 C 17.515 10.306 17.464 10.254 17.464 10.192 L 17.464 8.06 C 17.464 7.997 17.515 7.946 17.578 7.946 L 18.031 7.946 C 18.094 7.946 18.145 7.997 18.145 8.06 L 18.145 10.192 C 18.145 10.254 18.094 10.306 18.031 10.306 Z " fill="rgb(2,3,1)"/><path d=" M 18.356 10.158 L 18.741 10.158 L 18.741 7.617 L 18.356 7.617 L 18.356 10.158 Z  M 18.775 10.306 L 18.323 10.306 C 18.259 10.306 18.208 10.254 18.208 10.192 L 18.208 7.583 C 18.208 7.52 18.259 7.469 18.323 7.469 L 18.775 7.469 C 18.838 7.469 18.889 7.52 18.889 7.583 L 18.889 10.192 C 18.889 10.254 18.838 10.306 18.775 10.306 Z " fill="rgb(2,3,1)"/><path d=" M 16.868 10.158 L 17.253 10.158 L 17.253 7.715 L 16.868 7.715 L 16.868 10.158 Z  M 17.287 10.306 L 16.834 10.306 C 16.771 10.306 16.72 10.254 16.72 10.192 L 16.72 7.682 C 16.72 7.619 16.771 7.567 16.834 7.567 L 17.287 7.567 C 17.349 7.567 17.401 7.619 17.401 7.682 L 17.401 10.192 C 17.401 10.254 17.349 10.306 17.287 10.306 Z " fill="rgb(2,3,1)"/><path d=" M 19.1 10.158 L 19.485 10.158 L 19.485 8.091 L 19.1 8.091 L 19.1 10.158 Z  M 19.519 10.306 L 19.066 10.306 C 19.003 10.306 18.952 10.254 18.952 10.192 L 18.952 8.058 C 18.952 7.995 19.003 7.944 19.066 7.944 L 19.519 7.944 C 19.582 7.944 19.633 7.995 19.633 8.058 L 19.633 10.192 C 19.633 10.254 19.582 10.306 19.519 10.306 Z " fill="rgb(2,3,1)"/><path d=" M 19.845 10.158 L 20.23 10.158 L 20.23 7.631 L 19.845 7.631 L 19.845 10.158 Z  M 20.263 10.306 L 19.811 10.306 C 19.748 10.306 19.697 10.254 19.697 10.192 L 19.697 7.597 C 19.697 7.534 19.748 7.483 19.811 7.483 L 20.263 7.483 C 20.326 7.483 20.378 7.534 20.378 7.597 L 20.378 10.192 C 20.378 10.254 20.326 10.306 20.263 10.306 Z " fill="rgb(2,3,1)"/></g></g></g></svg>