<?xml version="1.0" standalone="no"?><!-- Generator: Gravit.io --><svg xmlns="http://www.w3.org/2000/svg" xmlns:xlink="http://www.w3.org/1999/xlink" style="isolation:isolate" viewBox="0 0 33.723 19.236" width="33.723" height="19.236"><defs><clipPath id="_clipPath_lIpBSZOZotwAQaR7Z2BL9OtTArLog5pi"><rect width="33.723" height="19.236"/></clipPath></defs><g clip-path="url(#_clipPath_lIpBSZOZotwAQaR7Z2BL9OtTArLog5pi)"><g style="isolation:isolate" id="background"/><g style="isolation:isolate" id="service-web"/><g style="isolation:isolate" id="Layer 5"><g id="Group"><clipPath id="_clipPath_TjvTKYlbUBW3fv0eVgTZhC8n5Oopze1I"><path d=" M 0 0 L 33.723 0 L 33.723 19.236 L 0 19.236 L 0 0 Z " fill="rgb(255,255,255)"/></clipPath><g clip-path="url(#_clipPath_TjvTKYlbUBW3fv0eVgTZhC8n5Oopze1I)"><g id="Group"><path d=" M 28.985 19.235 L 0.03 19.235 L 4.77 9.662 L 0.03 0.089 L 28.985 0.089 L 33.717 9.662 L 28.985 19.235 Z " fill="rgb(89,65,255)"/></g></g><path d=" M 19.103 6.322 L 19.103 5.856 L 19.737 6.011 L 19.103 6.322 Z  M 19.938 5.989 C 19.935 5.956 19.913 5.899 19.809 5.873 L 19.057 5.69 C 19.017 5.68 18.976 5.705 18.966 5.745 C 18.966 5.747 18.966 5.748 18.966 5.75 C 18.957 5.761 18.952 5.776 18.952 5.792 L 18.952 7.467 C 18.952 7.509 18.986 7.542 19.028 7.542 C 19.069 7.542 19.103 7.509 19.103 7.467 L 19.103 6.49 L 19.837 6.129 C 19.933 6.083 19.942 6.021 19.938 5.989 Z " fill="rgb(2,3,1)"/><path d=" M 19.929 12.728 C 19.929 12.78 19.887 12.823 19.834 12.823 L 18.426 12.823 C 18.374 12.823 18.331 12.78 18.331 12.728 L 18.331 7.703 C 18.331 7.651 18.374 7.608 18.426 7.608 L 19.834 7.608 C 19.887 7.608 19.929 7.651 19.929 7.703 L 19.929 12.728 Z  M 18.179 12.728 C 18.179 12.78 18.136 12.823 18.084 12.823 L 16.676 12.823 C 16.623 12.823 16.581 12.78 16.581 12.728 L 16.581 8.533 C 16.581 8.48 16.623 8.437 16.676 8.437 L 18.084 8.437 C 18.136 8.437 18.179 8.48 18.179 8.533 L 18.179 12.728 Z  M 16.334 12.823 L 14.927 12.823 C 14.874 12.823 14.831 12.78 14.831 12.728 L 14.831 9.317 C 14.831 9.264 14.874 9.222 14.927 9.222 L 16.334 9.222 C 16.387 9.222 16.43 9.264 16.43 9.317 L 16.43 12.728 C 16.43 12.78 16.387 12.823 16.334 12.823 Z  M 14.663 12.728 C 14.663 12.78 14.62 12.823 14.567 12.823 L 13.16 12.823 C 13.107 12.823 13.065 12.78 13.065 12.728 L 13.065 10.327 C 13.065 10.275 13.107 10.232 13.16 10.232 L 14.567 10.232 C 14.62 10.232 14.663 10.275 14.663 10.327 L 14.663 12.728 Z  M 19.834 7.458 L 18.426 7.458 C 18.291 7.458 18.18 7.568 18.18 7.703 L 18.18 8.307 C 18.151 8.294 18.118 8.286 18.084 8.286 L 16.676 8.286 C 16.54 8.286 16.43 8.397 16.43 8.533 L 16.43 9.09 C 16.4 9.078 16.368 9.071 16.334 9.071 L 14.927 9.071 C 14.791 9.071 14.681 9.181 14.681 9.317 L 14.681 10.109 C 14.647 10.091 14.608 10.082 14.567 10.082 L 13.16 10.082 C 13.024 10.082 12.914 10.192 12.914 10.327 L 12.914 12.728 C 12.914 12.864 13.024 12.974 13.16 12.974 L 14.567 12.974 C 14.638 12.974 14.702 12.944 14.747 12.896 C 14.792 12.944 14.856 12.974 14.927 12.974 L 16.334 12.974 C 16.401 12.974 16.461 12.948 16.505 12.905 C 16.55 12.948 16.61 12.974 16.676 12.974 L 18.084 12.974 C 18.15 12.974 18.211 12.948 18.255 12.904 C 18.299 12.948 18.36 12.974 18.426 12.974 L 19.834 12.974 C 19.97 12.974 20.08 12.864 20.08 12.728 L 20.08 7.703 C 20.08 7.568 19.97 7.458 19.834 7.458 Z " fill="rgb(2,3,1)"/><path d=" M 17.432 6.975 C 17.4 6.923 17.342 6.891 17.271 6.887 L 16.533 6.853 C 16.491 6.852 16.456 6.884 16.454 6.926 C 16.452 6.967 16.485 7.002 16.526 7.004 L 17.199 7.035 L 13.123 9.311 C 13.087 9.332 13.073 9.378 13.094 9.414 C 13.108 9.439 13.134 9.453 13.16 9.453 C 13.172 9.453 13.185 9.45 13.197 9.443 L 17.263 7.172 L 16.99 7.766 C 16.972 7.803 16.989 7.849 17.027 7.865 C 17.037 7.871 17.048 7.873 17.058 7.873 C 17.086 7.873 17.114 7.856 17.127 7.829 L 17.436 7.158 C 17.465 7.094 17.464 7.027 17.432 6.975 Z " fill="rgb(2,3,1)"/></g></g></g></svg>