<?xml version="1.0" standalone="no"?><!-- Generator: Gravit.io --><svg xmlns="http://www.w3.org/2000/svg" xmlns:xlink="http://www.w3.org/1999/xlink" style="isolation:isolate" viewBox="0 0 18 2.832" width="18" height="2.832"><defs><clipPath id="_clipPath_Zd9dtVQI9ke4s4K0xI9WaRxuikMwPOBK"><rect width="18" height="2.832"/></clipPath></defs><g clip-path="url(#_clipPath_Zd9dtVQI9ke4s4K0xI9WaRxuikMwPOBK)"><g style="isolation:isolate" id="Layer 0"><clipPath id="_clipPath_kNiMWIFMM1WXzZPu5djMsTRQ8BkwYHuQ"><path d=" M 0 0 L 18 0 L 18 2.832 L 0 2.832 L 0 0 Z " fill="rgb(255,255,255)"/></clipPath><g clip-path="url(#_clipPath_kNiMWIFMM1WXzZPu5djMsTRQ8BkwYHuQ)"><g id="Group"><clipPath id="_clipPath_SacKHMdbrr78m5TcL37a7ENfnmLpFxrY"><path d=" M 6.254 2.006 C 6.159 2.047 5.924 2.029 5.757 2.043 C 5.752 2.034 5.766 2.032 5.78 2.031 C 5.791 2.004 5.664 2.065 5.684 2.013 C 5.597 2.01 5.448 2.036 5.399 2.013 C 5.494 2.009 5.589 2.006 5.684 2.002 C 5.766 2.02 5.794 1.995 5.874 2.006 C 5.886 2.008 5.814 2.027 5.803 2.02 C 5.846 2.05 5.965 2.013 6.112 2.021 C 6.115 1.997 6.027 2.018 5.993 2.013 C 5.971 1.983 6.175 2.013 6.254 2.006 Z  M 5.574 2.245 C 5.53 2.268 5.764 2.245 5.835 2.246 C 5.837 2.253 5.839 2.259 5.859 2.256 C 5.848 2.21 5.66 2.253 5.574 2.245 Z  M 5.759 2.108 C 5.877 2.097 5.937 2.13 5.996 2.088 C 5.924 2.098 5.791 2.082 5.759 2.108 Z  M 4.904 2.064 C 4.95 2.072 5.183 2.094 5.307 2.059 C 5.165 2.046 5.061 2.024 4.904 2.064 Z  M 10.43 2.142 C 10.429 2.127 10.441 2.118 10.454 2.11 C 10.38 2.111 10.271 2.178 10.172 2.131 C 10.192 2.141 10.245 2.124 10.242 2.123 C 10.168 2.115 10.073 2.112 9.999 2.106 C 9.926 2.101 9.876 2.092 9.892 2.068 C 9.831 2.097 9.709 2.087 9.655 2.094 C 9.697 2.1 9.645 2.105 9.631 2.115 C 9.792 2.111 9.959 2.111 10.055 2.126 C 10.054 2.141 10.013 2.135 10.007 2.146 C 10.204 2.165 10.895 2.131 10.43 2.142 Z  M 9.208 2.094 C 9.087 2.087 8.683 2.094 8.996 2.102 C 9.062 2.117 9.164 2.101 9.231 2.137 C 9.319 2.111 9.54 2.15 9.561 2.092 C 9.486 2.115 9.094 2.047 9.208 2.094 Z  M 6.563 2.019 C 6.669 2.022 6.738 2.034 6.799 2.002 C 6.728 2.011 6.595 1.994 6.563 2.019 Z  M 8.101 2.184 C 8.18 2.177 8.273 2.176 8.313 2.151 C 8.208 2.146 8.147 2.162 8.101 2.184 Z  M 3.998 2.296 C 4.01 2.317 4.114 2.316 4.212 2.309 C 4.31 2.302 4.403 2.289 4.395 2.285 C 4.261 2.288 4.098 2.309 3.998 2.296 Z  M 7.228 2.148 C 7.348 2.16 7.516 2.148 7.629 2.164 C 7.567 2.131 7.322 2.128 7.228 2.148 Z  M 3.136 2.215 C 3.028 2.223 2.927 2.236 2.811 2.273 C 3.051 2.228 3.333 2.237 3.501 2.189 C 3.357 2.204 3.242 2.206 3.136 2.215 Z  M 2.072 2.451 C 2.083 2.446 2.095 2.441 2.105 2.436 C 2.09 2.44 2.072 2.442 2.072 2.451 Z  M 2.116 2.434 C 2.114 2.434 2.113 2.434 2.11 2.435 C 2.109 2.435 2.107 2.436 2.106 2.437 C 2.109 2.436 2.113 2.435 2.116 2.434 Z  M 3.808 2.254 C 3.777 2.285 3.481 2.269 3.556 2.305 C 3.562 2.285 3.867 2.292 3.808 2.254 Z  M 2.593 2.4 C 2.669 2.39 2.738 2.378 2.773 2.354 C 2.628 2.375 2.466 2.394 2.368 2.433 C 2.433 2.419 2.517 2.411 2.593 2.4 Z  M 1.828 2.499 C 1.894 2.481 2.022 2.482 2.05 2.454 C 1.982 2.469 1.855 2.47 1.828 2.499 Z  M 1.472 2.523 C 1.269 2.566 1.066 2.616 0.83 2.655 C 0.889 2.665 0.965 2.661 1.048 2.65 C 1.133 2.64 1.227 2.625 1.322 2.608 C 1.05 2.683 0.75 2.689 0.465 2.755 C 0.421 2.77 0.471 2.803 0.436 2.819 C 0.323 2.828 0.293 2.763 0.173 2.778 C 0.193 2.743 0.286 2.721 0.333 2.69 C 0.284 2.731 0.358 2.723 0.39 2.73 C 0.437 2.719 0.45 2.701 0.462 2.684 C 0.445 2.717 0.548 2.703 0.654 2.686 C 0.711 2.62 0.577 2.64 0.539 2.591 C 0.573 2.565 0.65 2.549 0.717 2.53 C 0.783 2.51 0.839 2.491 0.83 2.455 C 0.885 2.452 0.949 2.441 1.014 2.43 C 1.077 2.42 1.141 2.412 1.192 2.413 C 1.16 2.452 1.072 2.429 1.015 2.448 C 1.11 2.468 1.228 2.471 1.359 2.46 C 1.426 2.456 1.495 2.45 1.568 2.441 C 1.604 2.436 1.641 2.431 1.678 2.426 C 1.716 2.421 1.754 2.415 1.793 2.41 C 2.101 2.362 2.44 2.303 2.742 2.269 C 2.461 2.336 2.295 2.356 2.111 2.434 C 1.876 2.445 1.674 2.481 1.472 2.523 Z  M 1.067 2.481 C 1.012 2.485 0.924 2.454 0.864 2.503 C 0.926 2.493 1.038 2.507 1.067 2.481 Z  M 2.281 2.466 C 2.196 2.482 2.046 2.509 1.922 2.517 C 1.977 2.548 2.319 2.475 2.281 2.466 Z  M 3.301 2.314 C 3.362 2.309 3.424 2.304 3.485 2.3 C 3.505 2.247 3.312 2.315 3.298 2.282 C 3.336 2.278 3.508 2.272 3.436 2.26 C 3.257 2.274 2.83 2.309 2.839 2.326 C 2.88 2.327 2.972 2.299 2.978 2.322 C 2.934 2.348 2.852 2.361 2.8 2.384 C 2.871 2.418 2.935 2.327 3.005 2.363 C 3.024 2.391 2.896 2.365 2.916 2.394 C 3.02 2.382 3.125 2.372 3.225 2.359 C 3.325 2.347 3.422 2.335 3.511 2.319 C 3.446 2.314 3.348 2.329 3.301 2.314 Z  M 1.231 2.726 C 1.195 2.74 1.158 2.749 1.12 2.756 C 1.083 2.763 1.047 2.769 1.014 2.775 C 0.947 2.785 0.89 2.793 0.866 2.814 C 1.003 2.796 1.1 2.808 1.224 2.804 C 1.244 2.77 1.263 2.75 1.231 2.726 Z  M 4.877 2.011 C 4.96 2.009 5.029 2.002 5.066 1.981 C 4.983 1.983 4.914 1.991 4.877 2.011 Z  M 13.542 0.651 C 13.696 0.669 13.859 0.693 13.958 0.679 C 13.821 0.671 13.657 0.647 13.542 0.651 Z  M 14.421 1.759 C 14.34 1.762 14.262 1.766 14.202 1.782 C 14.268 1.777 14.491 1.812 14.465 1.787 C 14.43 1.781 14.378 1.779 14.372 1.763 C 14.406 1.769 14.464 1.774 14.421 1.759 Z  M 15.025 1.146 C 15.175 1.18 15.289 1.175 15.074 1.143 C 14.969 1.131 14.805 1.088 14.736 1.103 C 14.799 1.097 14.805 1.156 14.831 1.128 C 14.816 1.125 14.803 1.122 14.808 1.114 C 14.855 1.154 14.932 1.137 15.025 1.146 Z  M 0.14 1.103 C 0.132 1.085 0.056 1.116 0.037 1.106 C 0.311 1.002 0.374 0.829 0.283 0.722 C 0.442 0.692 0.491 0.645 0.541 0.596 C 0.592 0.548 0.644 0.499 0.81 0.476 C 0.869 0.461 0.776 0.453 0.753 0.454 C 0.875 0.435 1.019 0.413 1.175 0.389 C 1.33 0.365 1.496 0.343 1.665 0.32 C 2.001 0.277 2.345 0.239 2.622 0.221 C 2.666 0.238 2.621 0.235 2.626 0.264 C 3.542 0.192 4.438 0.131 5.316 0.08 C 6.195 0.027 7.076 -0.011 7.952 0.004 C 8.189 0.009 8.42 0.016 8.659 0.027 C 9.731 0.068 10.835 0.121 11.883 0.236 C 11.992 0.248 12.143 0.264 12.295 0.276 C 12.447 0.288 12.601 0.298 12.715 0.304 C 12.744 0.308 12.734 0.326 12.737 0.339 C 12.805 0.324 12.951 0.353 13.056 0.359 C 13.067 0.377 12.819 0.347 12.759 0.362 C 12.821 0.389 12.958 0.372 13.126 0.398 C 13.077 0.412 12.996 0.408 12.927 0.411 C 13.063 0.448 13.176 0.456 13.298 0.462 C 13.421 0.468 13.554 0.478 13.732 0.509 C 13.784 0.51 13.776 0.53 13.777 0.547 C 13.953 0.568 14.096 0.566 14.29 0.6 C 14.168 0.622 13.986 0.615 13.785 0.593 C 13.584 0.571 13.363 0.537 13.162 0.522 C 13.236 0.539 13.319 0.551 13.406 0.565 C 13.493 0.579 13.585 0.591 13.679 0.603 C 13.865 0.628 14.058 0.649 14.229 0.679 C 14.05 0.677 13.868 0.663 13.697 0.642 C 13.526 0.621 13.366 0.592 13.231 0.572 C 13.203 0.602 13.283 0.597 13.326 0.603 C 13.173 0.598 12.757 0.544 12.646 0.525 C 12.617 0.536 12.575 0.543 12.529 0.549 C 12.484 0.555 12.436 0.558 12.398 0.558 C 12.314 0.507 11.968 0.505 11.743 0.474 C 11.82 0.517 12.001 0.523 12.154 0.539 C 12.161 0.547 12.094 0.551 12.081 0.544 C 12.16 0.584 12.374 0.599 12.601 0.616 C 12.827 0.635 13.065 0.652 13.194 0.688 L 13.352 0.703 L 13.51 0.722 C 13.692 0.743 13.531 0.744 13.435 0.724 C 13.222 0.704 13.064 0.679 12.902 0.67 C 12.997 0.682 13.131 0.708 13.266 0.735 C 13.334 0.748 13.402 0.764 13.467 0.778 C 13.531 0.792 13.593 0.805 13.646 0.815 C 13.671 0.819 14.024 0.853 13.862 0.852 C 13.765 0.852 13.66 0.835 13.553 0.818 C 13.445 0.801 13.336 0.784 13.232 0.789 C 13.315 0.803 13.426 0.865 13.52 0.843 C 13.613 0.879 13.732 0.906 13.867 0.928 C 14.001 0.951 14.152 0.966 14.305 0.988 C 14.458 1.008 14.615 1.027 14.765 1.048 C 14.84 1.059 14.912 1.069 14.981 1.082 C 15.05 1.096 15.116 1.111 15.176 1.127 C 15.221 1.137 15.415 1.16 15.343 1.166 C 14.962 1.086 14.556 1.031 14.142 0.973 C 14.206 1.006 14.33 1.023 14.452 1.039 C 14.451 1.066 14.191 1.036 14.374 1.072 C 14.32 1.07 14.255 1.065 14.181 1.058 C 14.108 1.051 14.026 1.044 13.94 1.035 C 13.769 1.017 13.581 0.994 13.41 0.972 C 13.5 1.001 13.629 1.029 13.777 1.055 C 13.85 1.068 13.928 1.08 14.008 1.093 C 14.048 1.099 14.087 1.105 14.128 1.111 C 14.168 1.118 14.208 1.124 14.248 1.13 C 14.568 1.184 14.871 1.23 14.982 1.269 C 15.085 1.282 15.195 1.3 15.272 1.296 C 15.357 1.338 15.178 1.304 15.126 1.293 C 15.238 1.348 15.22 1.333 15.359 1.366 C 15.3 1.398 15.135 1.309 14.977 1.301 C 15.211 1.314 14.943 1.263 14.88 1.297 C 14.909 1.306 15.013 1.337 15.115 1.357 C 15.108 1.381 15.013 1.345 14.971 1.344 C 15.136 1.415 15.543 1.461 15.677 1.507 C 15.727 1.509 15.863 1.55 15.746 1.531 C 15.54 1.498 15.191 1.4 15.103 1.432 C 15.203 1.463 15.314 1.492 15.43 1.52 C 15.489 1.534 15.548 1.548 15.61 1.561 C 15.67 1.574 15.733 1.587 15.795 1.602 C 16.044 1.659 16.302 1.71 16.538 1.752 C 16.669 1.773 16.719 1.81 16.559 1.768 C 16.522 1.763 16.576 1.791 16.531 1.783 C 16.26 1.746 16.013 1.695 15.752 1.637 C 15.621 1.609 15.486 1.583 15.341 1.555 C 15.197 1.527 15.044 1.497 14.877 1.472 C 14.926 1.508 15.131 1.507 15.181 1.544 C 15.143 1.543 15.016 1.526 14.873 1.505 C 14.731 1.486 14.571 1.46 14.469 1.434 C 14.524 1.461 14.426 1.438 14.298 1.413 C 14.234 1.4 14.162 1.386 14.098 1.377 C 14.034 1.37 13.977 1.366 13.944 1.374 C 14.001 1.386 14.067 1.397 14.138 1.413 C 14.208 1.428 14.284 1.443 14.362 1.456 C 14.519 1.484 14.687 1.506 14.846 1.511 C 15.061 1.58 15.339 1.659 15.654 1.728 C 15.81 1.765 15.976 1.804 16.146 1.838 C 16.316 1.873 16.493 1.902 16.669 1.937 C 16.663 1.945 16.643 1.943 16.641 1.954 C 16.758 1.979 17.177 2.08 16.916 2.037 C 16.547 1.967 15.525 1.727 15.04 1.664 C 15.047 1.653 15.088 1.664 15.09 1.65 C 14.964 1.618 14.93 1.644 14.827 1.629 C 14.767 1.609 14.923 1.629 14.949 1.627 C 14.813 1.56 14.63 1.589 14.519 1.585 C 14.384 1.582 14.194 1.539 14.018 1.514 C 13.843 1.489 13.683 1.475 13.611 1.52 C 13.526 1.437 13.443 1.522 13.279 1.48 C 13.271 1.445 13.389 1.485 13.401 1.462 C 13.408 1.432 13.279 1.463 13.355 1.445 C 13.164 1.46 12.966 1.438 12.756 1.409 C 12.651 1.396 12.543 1.379 12.432 1.37 C 12.321 1.361 12.207 1.356 12.09 1.36 C 12.213 1.387 12.372 1.403 12.54 1.424 C 12.707 1.446 12.882 1.469 13.036 1.5 C 13.023 1.523 12.919 1.492 12.869 1.494 C 12.955 1.527 13.082 1.547 13.221 1.561 C 13.361 1.578 13.512 1.593 13.648 1.612 C 13.695 1.618 13.742 1.623 13.79 1.629 C 13.849 1.634 13.829 1.647 13.789 1.64 C 13.71 1.63 13.631 1.62 13.552 1.611 C 13.48 1.619 13.312 1.581 13.195 1.591 C 13.141 1.592 13.163 1.568 13.126 1.563 C 13.024 1.565 12.899 1.553 12.769 1.538 C 12.824 1.575 12.978 1.579 13.099 1.593 C 13.105 1.638 13.049 1.583 12.979 1.592 C 12.951 1.626 13.051 1.616 13.096 1.625 C 12.987 1.643 12.87 1.597 12.763 1.603 C 12.952 1.668 13.252 1.656 13.473 1.678 C 13.426 1.66 13.349 1.648 13.281 1.64 C 13.213 1.633 13.154 1.631 13.144 1.629 C 13.181 1.621 13.23 1.618 13.286 1.622 C 13.343 1.625 13.406 1.633 13.471 1.642 C 13.602 1.66 13.743 1.684 13.855 1.691 C 13.828 1.713 13.743 1.7 13.663 1.69 C 13.67 1.715 13.779 1.708 13.827 1.72 C 13.727 1.735 13.602 1.724 13.464 1.707 C 13.395 1.698 13.323 1.688 13.249 1.679 C 13.175 1.671 13.098 1.664 13.021 1.661 C 13.254 1.721 13.481 1.698 13.655 1.754 C 13.733 1.76 13.508 1.759 13.418 1.736 C 13.408 1.754 13.435 1.759 13.463 1.764 C 13.409 1.765 13.344 1.761 13.273 1.754 C 13.201 1.747 13.122 1.74 13.04 1.73 C 12.876 1.711 12.7 1.688 12.542 1.678 C 12.694 1.745 13.016 1.751 13.27 1.783 C 13.58 1.817 13.414 1.819 13.198 1.787 C 13.35 1.818 13.503 1.843 13.656 1.864 C 13.809 1.886 13.962 1.902 14.111 1.93 C 14.037 1.967 13.865 1.927 13.661 1.907 C 13.701 1.936 13.796 1.946 13.893 1.957 C 13.731 1.953 13.514 1.924 13.288 1.893 C 13.062 1.864 12.824 1.837 12.623 1.828 C 12.871 1.859 13.093 1.918 13.28 1.905 C 13.302 1.955 13.41 1.905 13.346 1.957 C 13.486 1.966 13.639 1.976 13.797 1.986 C 13.877 1.991 13.957 1.996 14.038 2.002 C 14.118 2.01 14.199 2.018 14.28 2.027 C 14.441 2.045 14.598 2.065 14.746 2.09 C 14.893 2.115 15.029 2.15 15.147 2.187 C 15.266 2.217 14.967 2.179 14.958 2.177 C 14.822 2.155 14.668 2.138 14.505 2.118 C 14.342 2.098 14.168 2.077 13.992 2.054 C 13.816 2.036 13.636 2.016 13.459 1.995 C 13.371 1.985 13.283 1.974 13.198 1.964 C 13.112 1.955 13.027 1.946 12.945 1.937 C 13.014 1.969 13.187 1.963 13.296 1.984 C 13.314 1.997 13.263 1.992 13.197 1.985 C 13.132 1.977 13.052 1.967 13.013 1.965 C 13.091 1.987 13.172 2.002 13.257 2.02 C 13.342 2.037 13.43 2.052 13.522 2.067 C 13.614 2.081 13.708 2.095 13.805 2.11 C 13.902 2.125 14.003 2.139 14.104 2.161 C 14.103 2.177 13.964 2.156 14.078 2.179 C 13.928 2.182 13.793 2.173 13.649 2.157 C 13.505 2.142 13.352 2.121 13.163 2.111 C 13.224 2.142 13.388 2.142 13.488 2.161 C 13.7 2.191 13.43 2.171 13.347 2.155 C 13.181 2.13 13.022 2.121 12.83 2.104 C 12.638 2.09 12.412 2.069 12.107 2.046 C 12.115 2.072 12.222 2.06 12.27 2.07 C 11.966 2.051 11.622 2.088 11.282 2.054 C 11.286 2.007 11.425 2.033 11.518 2.035 C 11.294 2.009 11.01 1.986 10.742 1.985 C 10.473 1.987 10.22 2.008 10.057 2.06 C 9.838 2.046 9.731 2.051 9.492 2.045 C 9.432 2.044 9.464 2.036 9.469 2.022 C 9.188 2.036 8.857 2.026 8.532 2.009 C 8.206 1.995 7.886 1.984 7.628 1.999 C 7.861 2.023 8.029 2.01 8.266 2.03 C 8.243 2.048 8.157 2.038 8.148 2.063 C 7.99 2.023 7.748 2.019 7.504 2.021 C 7.259 2.023 7.013 2.026 6.848 1.99 C 7.078 2.009 7.229 2.004 7.605 2 C 7.614 1.981 7.587 1.979 7.558 1.979 C 7.757 1.947 7.976 1.995 8.196 1.965 C 8.085 1.933 7.959 1.925 7.829 1.924 C 7.699 1.923 7.566 1.928 7.439 1.926 C 7.102 1.919 6.795 1.908 6.419 1.913 C 6.469 1.929 6.545 1.932 6.633 1.929 C 6.391 1.958 5.92 1.905 5.661 1.969 C 5.568 1.94 5.376 1.944 5.191 1.954 C 5.005 1.964 4.827 1.979 4.759 1.972 C 4.732 1.989 4.661 1.989 4.666 2.019 C 4.467 2.01 4.126 2.027 3.962 2.069 C 4.083 2.079 4.379 2.07 4.621 2.054 C 4.402 2.115 4.066 2.114 3.734 2.16 C 3.74 2.145 3.792 2.147 3.826 2.142 C 3.403 2.154 2.923 2.165 2.554 2.245 C 2.551 2.275 2.64 2.206 2.625 2.259 C 2.507 2.264 2.462 2.294 2.353 2.303 C 2.354 2.282 2.43 2.287 2.441 2.27 C 2.282 2.286 2.135 2.301 1.991 2.31 C 1.919 2.316 1.849 2.322 1.78 2.327 C 1.711 2.332 1.642 2.337 1.574 2.344 C 1.506 2.351 1.439 2.358 1.37 2.364 C 1.302 2.371 1.235 2.381 1.165 2.391 C 1.028 2.409 0.889 2.438 0.742 2.472 C 0.65 2.451 0.477 2.495 0.372 2.485 C 0.445 2.456 0.363 2.455 0.46 2.463 C 0.491 2.408 0.423 2.373 0.362 2.33 C 0.301 2.288 0.245 2.236 0.306 2.143 C 0.221 2.139 0.258 2.101 0.191 2.073 C 0.346 2.033 0.229 1.945 0.341 1.9 C 0.33 1.89 0.297 1.897 0.268 1.901 C 0.238 1.906 0.213 1.909 0.216 1.887 C 0.262 1.865 0.208 1.82 0.232 1.759 C 0.211 1.742 0.163 1.747 0.108 1.759 C 0.109 1.719 0.21 1.693 0.257 1.663 C 0.112 1.669 0.207 1.577 0.057 1.57 C 0.096 1.469 0.046 1.409 0.02 1.346 C 0.007 1.315 0.001 1.282 0.016 1.243 C 0.03 1.207 0.066 1.16 0.14 1.103 Z  M 12.553 1.541 C 12.561 1.561 12.516 1.565 12.551 1.574 C 12.586 1.549 12.795 1.601 12.789 1.575 C 12.746 1.552 12.634 1.552 12.553 1.541 Z  M 12.482 1.534 C 12.531 1.528 12.746 1.559 12.675 1.52 C 12.64 1.542 12.497 1.501 12.482 1.534 Z  M 13.227 1.292 C 13.386 1.301 13.591 1.346 13.68 1.345 C 13.687 1.332 13.72 1.328 13.659 1.321 C 13.554 1.3 13.485 1.296 13.415 1.292 C 13.379 1.291 13.343 1.289 13.302 1.287 C 13.261 1.284 13.214 1.281 13.157 1.274 C 13.04 1.266 13.178 1.293 13.227 1.292 Z  M 9.447 1.937 C 9.562 1.949 9.688 1.909 9.684 1.899 C 9.591 1.905 9.51 1.917 9.447 1.937 Z  M 9.141 1.897 C 9.213 1.891 9.344 1.916 9.377 1.892 C 9.305 1.897 9.174 1.873 9.141 1.897 Z  M 9.069 1.951 C 8.875 1.959 8.655 1.957 8.573 1.99 C 8.755 1.968 8.907 1.99 9.069 1.951 Z  M 8.479 1.913 C 8.592 1.905 8.794 1.938 8.834 1.895 C 8.776 1.905 8.333 1.891 8.479 1.913 Z  M 10.127 2.076 C 10.314 2.068 10.619 2.096 10.624 1.999 C 10.505 2.035 10.117 2.047 10.127 2.076 Z  M 14.374 0.711 C 14.293 0.701 14.139 0.704 14.151 0.713 C 14.21 0.713 14.325 0.751 14.347 0.729 C 14.303 0.718 14.358 0.719 14.374 0.711 Z  M 14.713 1.746 C 14.61 1.718 14.359 1.681 14.354 1.728 C 14.447 1.715 14.62 1.78 14.713 1.746 Z  M 13.655 1.56 C 13.63 1.581 13.52 1.548 13.508 1.575 L 13.651 1.593 C 13.643 1.573 13.689 1.569 13.655 1.56 Z  M 7.012 1.956 C 7.053 1.964 7.086 1.991 7.106 1.954 C 7.072 1.931 7.049 1.969 7.035 1.945 L 6.845 1.947 C 6.857 1.972 6.962 1.95 7.012 1.956 Z  M 14.112 1.561 C 14.088 1.558 14.064 1.555 14.04 1.552 C 13.727 1.52 13.985 1.595 14.112 1.561 Z  M 14.516 1.609 C 14.387 1.602 14.182 1.563 14.157 1.589 C 14.267 1.59 14.433 1.626 14.516 1.609 Z  M 0.499 0.507 C 0.478 0.52 0.435 0.522 0.379 0.527 C 0.324 0.532 0.258 0.541 0.193 0.566 C 0.209 0.644 0.525 0.533 0.499 0.507 Z  M 14.401 2.238 C 14.487 2.252 14.562 2.257 14.613 2.247 C 14.528 2.235 14.43 2.215 14.401 2.238 Z  M 17.629 2.435 C 17.772 2.473 17.842 2.501 18 2.518 C 17.85 2.485 17.737 2.408 17.629 2.435 Z  M 16.483 2.576 M 13.742 2.204 C 13.852 2.21 14.019 2.251 14.093 2.238 C 13.983 2.228 13.816 2.188 13.742 2.204 Z  M 10.834 2.051 C 10.964 2.053 11.126 2.073 11.165 2.027 C 11.084 2.05 10.846 1.99 10.834 2.051 Z  M 15.905 1.464 C 15.869 1.452 15.804 1.433 15.739 1.419 C 15.673 1.406 15.608 1.398 15.572 1.404 C 15.602 1.416 15.669 1.433 15.737 1.445 C 15.804 1.459 15.872 1.468 15.905 1.464 Z  M 16.045 0.983 C 16.013 0.961 15.84 0.96 15.782 0.922 C 15.769 0.959 16.011 0.991 16.045 0.983 Z  M 17.713 2.009 C 17.549 1.986 17.289 1.886 17.285 1.934 C 17.436 1.939 17.622 2.027 17.713 2.009 Z  M 16.029 1.588 C 15.935 1.586 15.861 1.527 15.816 1.547 C 15.831 1.566 16.086 1.616 16.029 1.588 Z  M 16.932 1.966 C 17.024 1.99 17.101 2.01 17.175 2.027 C 17.212 2.035 17.25 2.042 17.287 2.047 C 17.324 2.054 17.363 2.06 17.402 2.064 C 17.713 2.131 17.398 2.058 17.242 2.013 C 17.131 1.983 16.989 1.904 16.94 1.935 C 17.081 1.968 17.001 1.97 16.932 1.966 Z " fill="rgb(255,255,255)"/></clipPath><g clip-path="url(#_clipPath_SacKHMdbrr78m5TcL37a7ENfnmLpFxrY)"><g id="Group"><linearGradient id="_lgradient_30" x1="-0.0001677754616721816%" y1="50.065885696528525%" x2="100.00009694437688%" y2="50.06588569652863%"><stop offset="0%" stop-opacity="1" style="stop-color:rgb(181,255,255)"/><stop offset="0.78125%" stop-opacity="1" style="stop-color:rgb(182,254,255)"/><stop offset="1.5625%" stop-opacity="1" style="stop-color:rgb(182,253,255)"/><stop offset="2.34375%" stop-opacity="1" style="stop-color:rgb(183,253,255)"/><stop offset="3.125%" stop-opacity="1" style="stop-color:rgb(184,252,255)"/><stop offset="3.90625%" stop-opacity="1" style="stop-color:rgb(184,251,254)"/><stop offset="4.6875%" stop-opacity="1" style="stop-color:rgb(185,250,254)"/><stop offset="5.46875%" stop-opacity="1" style="stop-color:rgb(185,250,254)"/><stop offset="6.25%" stop-opacity="1" style="stop-color:rgb(186,249,254)"/><stop offset="7.03125%" stop-opacity="1" style="stop-color:rgb(186,248,254)"/><stop offset="7.8125%" stop-opacity="1" style="stop-color:rgb(187,248,254)"/><stop offset="8.59375%" stop-opacity="1" style="stop-color:rgb(187,247,254)"/><stop offset="9.375%" stop-opacity="1" style="stop-color:rgb(188,246,254)"/><stop offset="10.1562%" stop-opacity="1" style="stop-color:rgb(189,246,254)"/><stop offset="10.9375%" stop-opacity="1" style="stop-color:rgb(189,245,253)"/><stop offset="11.7188%" stop-opacity="1" style="stop-color:rgb(190,244,253)"/><stop offset="12.5%" stop-opacity="1" style="stop-color:rgb(190,243,253)"/><stop offset="13.281299999999998%" stop-opacity="1" style="stop-color:rgb(191,243,253)"/><stop offset="14.0625%" stop-opacity="1" style="stop-color:rgb(191,242,253)"/><stop offset="14.843799999999998%" stop-opacity="1" style="stop-color:rgb(192,241,253)"/><stop offset="15.625%" stop-opacity="1" style="stop-color:rgb(192,241,253)"/><stop offset="16.406299999999998%" stop-opacity="1" style="stop-color:rgb(193,240,253)"/><stop offset="17.1875%" stop-opacity="1" style="stop-color:rgb(193,239,253)"/><stop offset="17.968799999999998%" stop-opacity="1" style="stop-color:rgb(194,238,252)"/><stop offset="18.75%" stop-opacity="1" style="stop-color:rgb(195,238,252)"/><stop offset="19.531299999999998%" stop-opacity="1" style="stop-color:rgb(195,237,252)"/><stop offset="20.3125%" stop-opacity="1" style="stop-color:rgb(196,236,252)"/><stop offset="21.093799999999998%" stop-opacity="1" style="stop-color:rgb(196,236,252)"/><stop offset="21.875%" stop-opacity="1" style="stop-color:rgb(197,235,252)"/><stop offset="22.656299999999998%" stop-opacity="1" style="stop-color:rgb(197,234,252)"/><stop offset="23.4375%" stop-opacity="1" style="stop-color:rgb(198,234,252)"/><stop offset="24.218799999999998%" stop-opacity="1" style="stop-color:rgb(198,233,252)"/><stop offset="25%" stop-opacity="1" style="stop-color:rgb(199,232,251)"/><stop offset="25.7812%" stop-opacity="1" style="stop-color:rgb(200,231,251)"/><stop offset="26.5625%" stop-opacity="1" style="stop-color:rgb(200,231,251)"/><stop offset="27.3438%" stop-opacity="1" style="stop-color:rgb(201,230,251)"/><stop offset="28.125%" stop-opacity="1" style="stop-color:rgb(201,229,251)"/><stop offset="28.9063%" stop-opacity="1" style="stop-color:rgb(202,229,251)"/><stop offset="29.6875%" stop-opacity="1" style="stop-color:rgb(202,228,251)"/><stop offset="30.4688%" stop-opacity="1" style="stop-color:rgb(203,227,251)"/><stop offset="31.25%" stop-opacity="1" style="stop-color:rgb(203,227,251)"/><stop offset="32.0312%" stop-opacity="1" style="stop-color:rgb(204,226,250)"/><stop offset="32.8125%" stop-opacity="1" style="stop-color:rgb(205,225,250)"/><stop offset="33.5938%" stop-opacity="1" style="stop-color:rgb(205,224,250)"/><stop offset="34.375%" stop-opacity="1" style="stop-color:rgb(206,224,250)"/><stop offset="35.1562%" stop-opacity="1" style="stop-color:rgb(206,223,250)"/><stop offset="35.9375%" stop-opacity="1" style="stop-color:rgb(207,222,250)"/><stop offset="36.7188%" stop-opacity="1" style="stop-color:rgb(207,222,250)"/><stop offset="37.5%" stop-opacity="1" style="stop-color:rgb(208,221,250)"/><stop offset="38.2812%" stop-opacity="1" style="stop-color:rgb(208,220,250)"/><stop offset="39.0625%" stop-opacity="1" style="stop-color:rgb(209,219,249)"/><stop offset="39.8438%" stop-opacity="1" style="stop-color:rgb(210,219,249)"/><stop offset="40.625%" stop-opacity="1" style="stop-color:rgb(210,218,249)"/><stop offset="41.4062%" stop-opacity="1" style="stop-color:rgb(211,217,249)"/><stop offset="42.1875%" stop-opacity="1" style="stop-color:rgb(211,217,249)"/><stop offset="42.9688%" stop-opacity="1" style="stop-color:rgb(212,216,249)"/><stop offset="43.75%" stop-opacity="1" style="stop-color:rgb(212,215,249)"/><stop offset="44.5312%" stop-opacity="1" style="stop-color:rgb(213,215,249)"/><stop offset="45.3125%" stop-opacity="1" style="stop-color:rgb(213,214,249)"/><stop offset="46.0938%" stop-opacity="1" style="stop-color:rgb(214,213,248)"/><stop offset="46.875%" stop-opacity="1" style="stop-color:rgb(215,212,248)"/><stop offset="47.6562%" stop-opacity="1" style="stop-color:rgb(215,212,248)"/><stop offset="48.4375%" stop-opacity="1" style="stop-color:rgb(216,211,248)"/><stop offset="49.2188%" stop-opacity="1" style="stop-color:rgb(216,210,248)"/><stop offset="50%" stop-opacity="1" style="stop-color:rgb(217,210,248)"/><stop offset="50.781200000000005%" stop-opacity="1" style="stop-color:rgb(217,209,248)"/><stop offset="51.5625%" stop-opacity="1" style="stop-color:rgb(218,208,248)"/><stop offset="52.343799999999995%" stop-opacity="1" style="stop-color:rgb(218,208,248)"/><stop offset="53.125%" stop-opacity="1" style="stop-color:rgb(219,207,247)"/><stop offset="53.906200000000005%" stop-opacity="1" style="stop-color:rgb(220,206,247)"/><stop offset="54.6875%" stop-opacity="1" style="stop-color:rgb(220,205,247)"/><stop offset="55.468799999999995%" stop-opacity="1" style="stop-color:rgb(221,205,247)"/><stop offset="56.25%" stop-opacity="1" style="stop-color:rgb(221,204,247)"/><stop offset="57.031200000000005%" stop-opacity="1" style="stop-color:rgb(222,203,247)"/><stop offset="57.8125%" stop-opacity="1" style="stop-color:rgb(222,203,247)"/><stop offset="58.593799999999995%" stop-opacity="1" style="stop-color:rgb(223,202,247)"/><stop offset="59.375%" stop-opacity="1" style="stop-color:rgb(223,201,247)"/><stop offset="60.156299999999995%" stop-opacity="1" style="stop-color:rgb(224,201,247)"/><stop offset="60.9375%" stop-opacity="1" style="stop-color:rgb(225,200,246)"/><stop offset="61.718799999999995%" stop-opacity="1" style="stop-color:rgb(225,199,246)"/><stop offset="62.5%" stop-opacity="1" style="stop-color:rgb(226,198,246)"/><stop offset="63.281200000000005%" stop-opacity="1" style="stop-color:rgb(226,198,246)"/><stop offset="64.0625%" stop-opacity="1" style="stop-color:rgb(227,197,246)"/><stop offset="64.8438%" stop-opacity="1" style="stop-color:rgb(227,196,246)"/><stop offset="65.625%" stop-opacity="1" style="stop-color:rgb(228,196,246)"/><stop offset="66.4063%" stop-opacity="1" style="stop-color:rgb(228,195,246)"/><stop offset="67.1875%" stop-opacity="1" style="stop-color:rgb(229,194,246)"/><stop offset="67.9688%" stop-opacity="1" style="stop-color:rgb(229,193,245)"/><stop offset="68.75%" stop-opacity="1" style="stop-color:rgb(230,193,245)"/><stop offset="69.5313%" stop-opacity="1" style="stop-color:rgb(231,192,245)"/><stop offset="70.3125%" stop-opacity="1" style="stop-color:rgb(231,191,245)"/><stop offset="71.0938%" stop-opacity="1" style="stop-color:rgb(232,191,245)"/><stop offset="71.875%" stop-opacity="1" style="stop-color:rgb(232,190,245)"/><stop offset="72.6562%" stop-opacity="1" style="stop-color:rgb(233,189,245)"/><stop offset="73.4375%" stop-opacity="1" style="stop-color:rgb(233,189,245)"/><stop offset="74.2188%" stop-opacity="1" style="stop-color:rgb(234,188,245)"/><stop offset="75%" stop-opacity="1" style="stop-color:rgb(234,187,244)"/><stop offset="75.7812%" stop-opacity="1" style="stop-color:rgb(235,186,244)"/><stop offset="76.5625%" stop-opacity="1" style="stop-color:rgb(236,186,244)"/><stop offset="77.3438%" stop-opacity="1" style="stop-color:rgb(236,185,244)"/><stop offset="78.125%" stop-opacity="1" style="stop-color:rgb(237,184,244)"/><stop offset="78.9062%" stop-opacity="1" style="stop-color:rgb(237,184,244)"/><stop offset="79.6875%" stop-opacity="1" style="stop-color:rgb(238,183,244)"/><stop offset="80.4688%" stop-opacity="1" style="stop-color:rgb(238,182,244)"/><stop offset="81.25%" stop-opacity="1" style="stop-color:rgb(239,182,244)"/><stop offset="82.0313%" stop-opacity="1" style="stop-color:rgb(239,181,243)"/><stop offset="82.8125%" stop-opacity="1" style="stop-color:rgb(240,180,243)"/><stop offset="83.5938%" stop-opacity="1" style="stop-color:rgb(241,179,243)"/><stop offset="84.375%" stop-opacity="1" style="stop-color:rgb(241,179,243)"/><stop offset="85.1562%" stop-opacity="1" style="stop-color:rgb(242,178,243)"/><stop offset="85.9375%" stop-opacity="1" style="stop-color:rgb(242,177,243)"/><stop offset="86.7188%" stop-opacity="1" style="stop-color:rgb(243,177,243)"/><stop offset="87.5%" stop-opacity="1" style="stop-color:rgb(243,176,243)"/><stop offset="88.2812%" stop-opacity="1" style="stop-color:rgb(244,175,243)"/><stop offset="89.0625%" stop-opacity="1" style="stop-color:rgb(244,174,242)"/><stop offset="89.8438%" stop-opacity="1" style="stop-color:rgb(245,174,242)"/><stop offset="90.625%" stop-opacity="1" style="stop-color:rgb(246,173,242)"/><stop offset="91.4062%" stop-opacity="1" style="stop-color:rgb(246,172,242)"/><stop offset="92.1875%" stop-opacity="1" style="stop-color:rgb(247,172,242)"/><stop offset="92.9688%" stop-opacity="1" style="stop-color:rgb(247,171,242)"/><stop offset="93.75%" stop-opacity="1" style="stop-color:rgb(248,170,242)"/><stop offset="94.5312%" stop-opacity="1" style="stop-color:rgb(248,170,242)"/><stop offset="95.3125%" stop-opacity="1" style="stop-color:rgb(249,169,242)"/><stop offset="96.0938%" stop-opacity="1" style="stop-color:rgb(249,168,241)"/><stop offset="96.875%" stop-opacity="1" style="stop-color:rgb(250,167,241)"/><stop offset="97.6562%" stop-opacity="1" style="stop-color:rgb(251,167,241)"/><stop offset="98.4375%" stop-opacity="1" style="stop-color:rgb(251,166,241)"/><stop offset="99.2188%" stop-opacity="1" style="stop-color:rgb(252,165,241)"/><stop offset="100%" stop-opacity="1" style="stop-color:rgb(252,165,241)"/></linearGradient><path d=" M 18 2.828 L 18 -0.011 L 0.001 -0.011 L 0.001 2.828 L 18 2.828 Z " fill="url(#_lgradient_30)"/></g></g></g></g></g></g></svg>