<?xml version="1.0" standalone="no"?><!-- Generator: Gravit.io --><svg xmlns="http://www.w3.org/2000/svg" xmlns:xlink="http://www.w3.org/1999/xlink" style="isolation:isolate" viewBox="0 0 95.168 17.1" width="95.168" height="17.1"><defs><clipPath id="_clipPath_Hq5kZX9ViztZeD36R375K6irnCWf1xUz"><rect width="95.168" height="17.1"/></clipPath></defs><g clip-path="url(#_clipPath_Hq5kZX9ViztZeD36R375K6irnCWf1xUz)"><g style="isolation:isolate" id="background"/><g style="isolation:isolate" id="service-web"/><g style="isolation:isolate" id="Layer 5"/><g style="isolation:isolate" id="Layer 7"><g id="HP ホーム (8)"><clipPath id="_clipPath_QBY8XsYkY8xGZow4Sva3HYH1m81rLC6y"><path d=" M 47.584 0 L 95.168 0 L 95.168 17.1 L 47.584 17.1 L 47.584 0 Z " fill="rgb(255,255,255)"/></clipPath><g clip-path="url(#_clipPath_QBY8XsYkY8xGZow4Sva3HYH1m81rLC6y)"><g id="Group"><path d=" M 47.584 0 L 95.168 0 L 95.168 17.1 L 47.584 17.1 L 47.584 0 Z " fill="rgb(62,218,216)"/></g></g><clipPath id="_clipPath_Ei1sq9TQixiP9jvXGcfUolvtCZunrok9"><path d=" M 54.839 4.548 L 58.904 4.548 L 58.904 12.578 L 54.839 12.578 L 54.839 4.548 Z " fill="rgb(255,255,255)"/></clipPath><g clip-path="url(#_clipPath_Ei1sq9TQixiP9jvXGcfUolvtCZunrok9)"><g id="Group"><path d=" M 60.901 8.563 C 60.901 8.695 60.895 8.826 60.882 8.957 C 60.869 9.087 60.85 9.217 60.824 9.346 C 60.799 9.475 60.767 9.603 60.728 9.728 C 60.69 9.854 60.646 9.978 60.596 10.099 C 60.545 10.221 60.489 10.34 60.427 10.456 C 60.365 10.572 60.298 10.684 60.225 10.794 C 60.152 10.903 60.074 11.008 59.99 11.11 C 59.907 11.212 59.818 11.309 59.726 11.402 C 59.632 11.495 59.535 11.583 59.434 11.667 C 59.332 11.75 59.226 11.828 59.117 11.901 C 59.008 11.974 58.895 12.042 58.779 12.104 C 58.663 12.166 58.544 12.222 58.423 12.272 C 58.302 12.323 58.178 12.367 58.052 12.405 C 57.926 12.443 57.799 12.475 57.67 12.501 C 57.541 12.526 57.411 12.546 57.28 12.559 C 57.149 12.572 57.018 12.578 56.887 12.578 C 56.755 12.578 56.624 12.572 56.493 12.559 C 56.362 12.546 56.232 12.526 56.103 12.501 C 55.974 12.475 55.847 12.443 55.721 12.405 C 55.595 12.367 55.472 12.323 55.35 12.272 C 55.229 12.222 55.11 12.166 54.994 12.104 C 54.878 12.042 54.765 11.974 54.656 11.901 C 54.547 11.828 54.441 11.75 54.34 11.667 C 54.238 11.583 54.141 11.495 54.048 11.402 C 53.955 11.309 53.866 11.212 53.783 11.11 C 53.7 11.008 53.621 10.903 53.548 10.794 C 53.475 10.684 53.408 10.572 53.346 10.456 C 53.284 10.34 53.227 10.221 53.177 10.099 C 53.127 9.978 53.083 9.854 53.044 9.728 C 53.006 9.603 52.974 9.475 52.949 9.346 C 52.923 9.217 52.904 9.087 52.891 8.957 C 52.878 8.826 52.872 8.695 52.872 8.563 C 52.872 8.431 52.878 8.3 52.891 8.169 C 52.904 8.039 52.923 7.909 52.949 7.78 C 52.974 7.651 53.006 7.524 53.044 7.398 C 53.083 7.272 53.127 7.148 53.177 7.027 C 53.227 6.905 53.284 6.786 53.346 6.671 C 53.408 6.554 53.475 6.442 53.548 6.332 C 53.621 6.223 53.7 6.118 53.783 6.016 C 53.866 5.914 53.955 5.817 54.048 5.724 C 54.141 5.631 54.238 5.543 54.34 5.46 C 54.441 5.376 54.547 5.298 54.656 5.225 C 54.765 5.152 54.878 5.084 54.994 5.022 C 55.11 4.96 55.229 4.904 55.35 4.854 C 55.472 4.804 55.595 4.759 55.721 4.721 C 55.847 4.683 55.974 4.651 56.103 4.625 C 56.232 4.6 56.362 4.581 56.493 4.568 C 56.624 4.555 56.755 4.548 56.887 4.548 C 57.018 4.548 57.149 4.555 57.28 4.568 C 57.411 4.581 57.541 4.6 57.67 4.625 C 57.799 4.651 57.926 4.683 58.052 4.721 C 58.178 4.759 58.302 4.804 58.423 4.854 C 58.544 4.904 58.663 4.96 58.779 5.022 C 58.895 5.084 59.008 5.152 59.117 5.225 C 59.226 5.298 59.332 5.376 59.434 5.46 C 59.535 5.543 59.632 5.631 59.726 5.724 C 59.818 5.817 59.907 5.914 59.99 6.016 C 60.074 6.118 60.152 6.223 60.225 6.332 C 60.298 6.442 60.365 6.554 60.427 6.671 C 60.489 6.786 60.545 6.905 60.596 7.027 C 60.646 7.148 60.69 7.272 60.728 7.398 C 60.767 7.524 60.799 7.651 60.824 7.78 C 60.85 7.909 60.869 8.039 60.882 8.169 C 60.895 8.3 60.901 8.431 60.901 8.563 Z " fill="rgb(255,255,255)"/></g></g><g id="Group"><g id="Group"><g id="Group"><path d=" M 55.637 6.423 C 55.745 6.289 55.911 6.221 56.135 6.221 C 56.358 6.221 56.524 6.289 56.633 6.423 C 56.742 6.557 56.796 6.774 56.796 7.076 C 56.796 7.379 56.742 7.597 56.633 7.731 C 56.524 7.865 56.358 7.932 56.135 7.932 C 55.911 7.932 55.745 7.865 55.637 7.731 C 55.528 7.597 55.474 7.379 55.474 7.076 C 55.474 6.774 55.528 6.557 55.637 6.423 Z  M 55.933 7.512 C 55.977 7.596 56.044 7.637 56.135 7.637 C 56.226 7.637 56.294 7.596 56.337 7.512 C 56.38 7.428 56.402 7.283 56.402 7.076 C 56.402 6.87 56.38 6.725 56.337 6.642 C 56.294 6.558 56.226 6.516 56.135 6.516 C 56.044 6.516 55.977 6.558 55.933 6.642 C 55.89 6.725 55.868 6.87 55.868 7.076 C 55.868 7.283 55.89 7.428 55.933 7.512 Z " fill="rgb(62,218,216)"/></g></g></g><g id="Group"><g id="Group"><g id="Group"><path d=" M 57.054 7.597 C 57.353 7.367 57.55 7.196 57.645 7.083 C 57.74 6.969 57.788 6.859 57.788 6.753 C 57.788 6.613 57.711 6.543 57.556 6.543 C 57.431 6.543 57.284 6.597 57.114 6.707 L 57.016 6.397 C 57.093 6.345 57.186 6.304 57.296 6.271 C 57.406 6.238 57.512 6.221 57.612 6.221 C 57.796 6.221 57.937 6.265 58.036 6.353 C 58.135 6.44 58.185 6.561 58.185 6.716 C 58.185 6.85 58.142 6.979 58.058 7.101 C 57.973 7.223 57.809 7.387 57.563 7.592 L 57.563 7.597 L 58.194 7.597 L 58.194 7.909 L 57.054 7.909 L 57.054 7.597 Z " fill="rgb(62,218,216)"/></g></g></g><g id="Group"><g id="Group"/></g><clipPath id="_clipPath_ABZo8R97mVhU9F37nmsDQey9q8W1mKpp"><path d=" M 0 0 L 47.584 0 L 47.584 17.1 L 0 17.1 L 0 0 Z " fill="rgb(255,255,255)"/></clipPath><g clip-path="url(#_clipPath_ABZo8R97mVhU9F37nmsDQey9q8W1mKpp)"><g id="Group"><path d=" M 0 0 L 47.584 0 L 47.584 17.1 L 0 17.1 L 0 0 Z " fill="rgb(134,234,233)" vector-effect="non-scaling-stroke" stroke-width="1.333" stroke="rgb(134,234,233)" stroke-linejoin="miter" stroke-linecap="butt" stroke-miterlimit="4"/></g><clipPath id="_clipPath_Z0h62NywixZWtOIdzpjSjih2gHOSEHsS"><path d=" M 6.813 4.548 L 10.877 4.548 L 10.877 12.578 L 6.813 12.578 L 6.813 4.548 Z " fill="rgb(255,255,255)"/></clipPath><g clip-path="url(#_clipPath_Z0h62NywixZWtOIdzpjSjih2gHOSEHsS)"><g id="Group"><path d=" M 12.875 8.563 C 12.875 8.695 12.869 8.826 12.856 8.957 C 12.843 9.087 12.824 9.217 12.798 9.346 C 12.772 9.475 12.74 9.603 12.702 9.728 C 12.664 9.854 12.62 9.978 12.569 10.099 C 12.519 10.221 12.463 10.34 12.401 10.456 C 12.339 10.572 12.272 10.684 12.199 10.794 C 12.125 10.903 12.047 11.008 11.964 11.11 C 11.88 11.212 11.792 11.309 11.699 11.402 C 11.606 11.495 11.509 11.583 11.407 11.667 C 11.306 11.75 11.2 11.828 11.091 11.901 C 10.982 11.974 10.869 12.042 10.753 12.104 C 10.637 12.166 10.518 12.222 10.397 12.272 C 10.275 12.323 10.152 12.367 10.026 12.405 C 9.9 12.443 9.773 12.475 9.644 12.501 C 9.514 12.526 9.385 12.546 9.254 12.559 C 9.123 12.572 8.992 12.578 8.86 12.578 C 8.729 12.578 8.598 12.572 8.467 12.559 C 8.336 12.546 8.206 12.526 8.077 12.501 C 7.948 12.475 7.821 12.443 7.695 12.405 C 7.569 12.367 7.445 12.323 7.324 12.272 C 7.202 12.222 7.084 12.166 6.968 12.104 C 6.852 12.042 6.739 11.974 6.63 11.901 C 6.52 11.828 6.415 11.75 6.313 11.667 C 6.212 11.583 6.114 11.495 6.021 11.402 C 5.928 11.309 5.84 11.212 5.757 11.11 C 5.673 11.008 5.595 10.903 5.522 10.794 C 5.449 10.684 5.381 10.572 5.319 10.456 C 5.257 10.34 5.201 10.221 5.151 10.099 C 5.101 9.978 5.057 9.854 5.018 9.728 C 4.98 9.603 4.948 9.475 4.923 9.346 C 4.897 9.217 4.878 9.087 4.865 8.957 C 4.852 8.826 4.845 8.695 4.845 8.563 C 4.845 8.431 4.852 8.3 4.865 8.169 C 4.878 8.039 4.897 7.909 4.923 7.78 C 4.948 7.651 4.98 7.524 5.018 7.398 C 5.057 7.272 5.101 7.148 5.151 7.027 C 5.201 6.905 5.257 6.786 5.319 6.671 C 5.381 6.554 5.449 6.442 5.522 6.332 C 5.595 6.223 5.673 6.118 5.757 6.016 C 5.84 5.914 5.928 5.817 6.021 5.724 C 6.114 5.631 6.212 5.543 6.313 5.46 C 6.415 5.376 6.52 5.298 6.63 5.225 C 6.739 5.152 6.852 5.084 6.968 5.022 C 7.084 4.96 7.202 4.904 7.324 4.854 C 7.445 4.804 7.569 4.759 7.695 4.721 C 7.821 4.683 7.948 4.651 8.077 4.625 C 8.206 4.6 8.336 4.581 8.467 4.568 C 8.598 4.555 8.729 4.548 8.86 4.548 C 8.992 4.548 9.123 4.555 9.254 4.568 C 9.385 4.581 9.514 4.6 9.644 4.625 C 9.773 4.651 9.9 4.683 10.026 4.721 C 10.152 4.759 10.275 4.804 10.397 4.854 C 10.518 4.904 10.637 4.96 10.753 5.022 C 10.869 5.084 10.982 5.152 11.091 5.225 C 11.2 5.298 11.306 5.376 11.407 5.46 C 11.509 5.543 11.606 5.631 11.699 5.724 C 11.792 5.817 11.88 5.914 11.964 6.016 C 12.047 6.118 12.125 6.223 12.199 6.332 C 12.272 6.442 12.339 6.554 12.401 6.671 C 12.463 6.786 12.519 6.905 12.569 7.027 C 12.62 7.148 12.664 7.272 12.702 7.398 C 12.74 7.524 12.772 7.651 12.798 7.78 C 12.824 7.909 12.843 8.039 12.856 8.169 C 12.869 8.3 12.875 8.431 12.875 8.563 Z " fill="rgb(255,255,255)"/></g><g id="Group"><g id="Group"><g id="Group"><path d=" M 7.611 6.423 C 7.719 6.289 7.885 6.221 8.108 6.221 C 8.332 6.221 8.498 6.289 8.607 6.423 C 8.716 6.557 8.77 6.774 8.77 7.076 C 8.77 7.379 8.716 7.597 8.607 7.731 C 8.498 7.865 8.332 7.932 8.108 7.932 C 7.885 7.932 7.719 7.865 7.611 7.731 C 7.502 7.597 7.447 7.379 7.447 7.076 C 7.447 6.774 7.502 6.557 7.611 6.423 Z  M 7.907 7.512 C 7.95 7.596 8.017 7.637 8.108 7.637 C 8.2 7.637 8.267 7.596 8.311 7.512 C 8.354 7.428 8.376 7.283 8.376 7.076 C 8.376 6.87 8.354 6.725 8.311 6.642 C 8.267 6.558 8.2 6.516 8.108 6.516 C 8.017 6.516 7.95 6.558 7.907 6.642 C 7.864 6.725 7.842 6.87 7.842 7.076 C 7.842 7.283 7.864 7.428 7.907 7.512 Z " fill="rgb(134,234,233)"/></g></g></g><g id="Group"><g id="Group"><g id="Group"><path d=" M 9.493 7.909 L 9.493 6.693 L 9.488 6.693 L 9.119 7.035 L 8.999 6.707 L 9.493 6.244 L 9.894 6.244 L 9.894 7.909 L 9.493 7.909 Z " fill="rgb(134,234,233)"/></g></g></g></g></g><clipPath id="_clipPath_V9sRBo7GcfQrYU0Qyh7T2ZUqkC1hA5X5"><path d=" M 47.584 6.704 L 49.434 6.704 L 49.434 10.405 L 47.584 10.405 L 47.584 6.704 Z " fill="rgb(255,255,255)"/></clipPath><g clip-path="url(#_clipPath_V9sRBo7GcfQrYU0Qyh7T2ZUqkC1hA5X5)"><g id="Group"><clipPath id="_clipPath_igeXYNfBnyNzptXKABc0pQQw5xjL4M1K"><path d=" M 47.586 10.387 L 45.763 8.564 L 47.586 6.741 L 49.408 8.564 L 47.586 10.387 Z " fill="rgb(255,255,255)"/></clipPath><g clip-path="url(#_clipPath_igeXYNfBnyNzptXKABc0pQQw5xjL4M1K)"><g id="Group"><path d=" M 47.586 6.741 L 49.408 8.564 L 47.586 10.387 L 47.586 6.741 Z " fill="rgb(134,234,233)" vector-effect="non-scaling-stroke" stroke-width="1.333" stroke="rgb(134,234,233)" stroke-linejoin="miter" stroke-linecap="butt" stroke-miterlimit="4"/></g></g></g><g id="Group"><g id="Group"/></g></g><g id="Group"><g id="Group"/></g><g id="Group"><g id="Group"/></g></g></g></g></svg>