<?xml version="1.0" standalone="no"?><!-- Generator: Gravit.io --><svg xmlns="http://www.w3.org/2000/svg" xmlns:xlink="http://www.w3.org/1999/xlink" style="isolation:isolate" viewBox="0 0 33.727 19.236" width="33.727" height="19.236"><defs><clipPath id="_clipPath_6WqYDs54em5EyyPuKLv5RCWjL42Zf1z0"><rect width="33.727" height="19.236"/></clipPath></defs><g clip-path="url(#_clipPath_6WqYDs54em5EyyPuKLv5RCWjL42Zf1z0)"><g style="isolation:isolate" id="background"/><g style="isolation:isolate" id="service-web"/><g style="isolation:isolate" id="Layer 5"><g id="Group"><clipPath id="_clipPath_SlCSiWV4SF2Z0IAJvW0Oe2P071KsB6lH"><path d=" M 0 0 L 33.727 0 L 33.727 19.236 L 0 19.236 L 0 0 Z " fill="rgb(255,255,255)"/></clipPath><g clip-path="url(#_clipPath_SlCSiWV4SF2Z0IAJvW0Oe2P071KsB6lH)"><g id="Group"><path d=" M 28.985 19.235 L 0.03 19.235 L 4.77 9.662 L 0.03 0.089 L 28.985 0.089 L 33.717 9.662 L 28.985 19.235 Z " fill="rgb(44,146,213)"/></g></g><path d=" M 13.719 7.045 C 13.666 7.045 13.624 7.087 13.624 7.139 L 13.624 10.507 C 13.624 10.559 13.666 10.602 13.719 10.602 L 20.161 10.602 C 20.214 10.602 20.256 10.559 20.256 10.507 L 20.256 7.139 C 20.256 7.087 20.214 7.045 20.161 7.045 L 13.719 7.045 Z  M 20.161 10.751 L 13.719 10.751 C 13.584 10.751 13.474 10.642 13.474 10.507 L 13.474 7.139 C 13.474 7.005 13.584 6.895 13.719 6.895 L 20.161 6.895 C 20.296 6.895 20.406 7.005 20.406 7.139 L 20.406 10.507 C 20.406 10.642 20.296 10.751 20.161 10.751 Z " fill="rgb(2,3,1)"/><path d=" M 13.718 6.581 C 13.665 6.581 13.623 6.624 13.623 6.676 L 13.623 10.97 C 13.623 11.023 13.665 11.065 13.718 11.065 L 20.162 11.065 C 20.215 11.065 20.257 11.023 20.257 10.97 L 20.257 6.676 C 20.257 6.624 20.215 6.581 20.162 6.581 L 13.718 6.581 Z  M 20.162 11.215 L 13.718 11.215 C 13.583 11.215 13.473 11.105 13.473 10.97 L 13.473 6.676 C 13.473 6.542 13.583 6.432 13.718 6.432 L 20.162 6.432 C 20.298 6.432 20.407 6.542 20.407 6.676 L 20.407 10.97 C 20.407 11.105 20.298 11.215 20.162 11.215 Z " fill="rgb(2,3,1)"/><path d=" M 13.706 11.233 C 13.642 11.233 13.56 11.286 13.533 11.343 L 12.983 12.519 C 12.974 12.537 12.974 12.55 12.977 12.556 C 12.981 12.561 12.993 12.567 13.013 12.567 L 20.764 12.567 C 20.783 12.567 20.798 12.561 20.804 12.553 C 20.809 12.545 20.808 12.53 20.801 12.512 L 20.326 11.343 C 20.303 11.286 20.225 11.233 20.162 11.233 L 13.706 11.233 Z  M 20.764 12.716 L 13.013 12.716 C 12.942 12.716 12.884 12.686 12.851 12.636 C 12.819 12.586 12.818 12.52 12.847 12.456 L 13.397 11.281 C 13.449 11.17 13.585 11.084 13.706 11.084 L 20.162 11.084 C 20.286 11.084 20.419 11.173 20.465 11.287 L 20.939 12.456 C 20.966 12.521 20.962 12.587 20.928 12.637 C 20.894 12.687 20.835 12.716 20.764 12.716 Z " fill="rgb(2,3,1)"/><path d=" M 13.013 12.716 C 12.961 12.716 12.918 12.759 12.918 12.81 L 12.918 12.857 C 12.918 12.909 12.961 12.952 13.013 12.952 L 20.763 12.952 C 20.815 12.952 20.858 12.909 20.858 12.857 L 20.858 12.81 C 20.858 12.759 20.815 12.716 20.763 12.716 L 13.013 12.716 Z  M 20.763 13.101 L 13.013 13.101 C 12.878 13.101 12.769 12.992 12.769 12.857 L 12.769 12.81 C 12.769 12.676 12.878 12.567 13.013 12.567 L 20.763 12.567 C 20.898 12.567 21.007 12.676 21.007 12.81 L 21.007 12.857 C 21.007 12.992 20.898 13.101 20.763 13.101 Z " fill="rgb(2,3,1)"/><path d=" M 15.182 10.096 C 15.163 10.096 15.143 10.089 15.129 10.074 C 15.099 10.045 15.099 9.997 15.129 9.968 L 16.294 8.803 C 16.324 8.774 16.371 8.774 16.4 8.803 L 16.846 9.249 L 17.912 8.168 C 17.941 8.138 17.989 8.138 18.018 8.167 C 18.047 8.196 18.048 8.244 18.019 8.273 L 16.9 9.408 C 16.886 9.422 16.867 9.43 16.847 9.43 C 16.827 9.43 16.808 9.422 16.794 9.408 L 16.347 8.962 L 15.234 10.074 C 15.22 10.089 15.201 10.096 15.182 10.096 Z " fill="rgb(2,3,1)"/><path d=" M 17.817 7.942 L 18.224 8.335 L 18.36 7.788 L 17.817 7.942 Z  M 18.265 8.554 C 18.246 8.554 18.227 8.546 18.213 8.533 L 17.62 7.96 C 17.6 7.941 17.593 7.914 17.599 7.887 C 17.606 7.862 17.626 7.842 17.651 7.834 L 18.443 7.609 C 18.468 7.601 18.496 7.608 18.515 7.627 C 18.534 7.645 18.542 7.673 18.536 7.699 L 18.338 8.498 C 18.331 8.523 18.311 8.543 18.286 8.551 C 18.279 8.553 18.272 8.554 18.265 8.554 Z " fill="rgb(2,3,1)"/><path d=" M 15.182 8.91 C 15.077 8.91 14.978 8.886 14.889 8.845 L 15.2 8.273 L 15.879 8.273 C 15.847 8.629 15.547 8.91 15.182 8.91 Z  M 14.482 8.21 C 14.482 7.974 14.6 7.765 14.778 7.638 L 15.064 8.212 L 14.761 8.768 C 14.592 8.64 14.482 8.437 14.482 8.21 Z  M 15.876 8.124 L 15.186 8.124 L 14.908 7.565 C 14.993 7.53 15.085 7.51 15.182 7.51 C 15.539 7.51 15.834 7.778 15.876 8.124 Z  M 15.182 7.36 C 15.037 7.36 14.901 7.397 14.782 7.461 C 14.78 7.462 14.777 7.462 14.774 7.463 C 14.77 7.466 14.765 7.469 14.761 7.473 C 14.505 7.62 14.333 7.895 14.333 8.21 C 14.333 8.678 14.714 9.059 15.182 9.059 C 15.65 9.059 16.031 8.678 16.031 8.21 C 16.031 7.741 15.65 7.36 15.182 7.36 Z " fill="rgb(2,3,1)"/><path d=" M 18.94 10.029 L 19.148 10.029 L 19.148 8.941 L 18.94 8.941 L 18.94 10.029 Z  M 19.223 10.179 L 18.866 10.179 C 18.824 10.179 18.791 10.145 18.791 10.104 L 18.791 8.866 C 18.791 8.825 18.824 8.791 18.866 8.791 L 19.223 8.791 C 19.264 8.791 19.297 8.825 19.297 8.866 L 19.297 10.104 C 19.297 10.145 19.264 10.179 19.223 10.179 Z " fill="rgb(2,3,1)"/><path d=" M 18.348 10.029 L 18.555 10.029 L 18.555 9.268 L 18.348 9.268 L 18.348 10.029 Z  M 18.63 10.179 L 18.273 10.179 C 18.232 10.179 18.199 10.145 18.199 10.104 L 18.199 9.194 C 18.199 9.152 18.232 9.119 18.273 9.119 L 18.63 9.119 C 18.672 9.119 18.705 9.152 18.705 9.194 L 18.705 10.104 C 18.705 10.145 18.672 10.179 18.63 10.179 Z " fill="rgb(2,3,1)"/><path d=" M 17.756 10.029 L 17.962 10.029 L 17.962 9.579 L 17.756 9.579 L 17.756 10.029 Z  M 18.038 10.179 L 17.68 10.179 C 17.639 10.179 17.606 10.145 17.606 10.104 L 17.606 9.504 C 17.606 9.462 17.639 9.429 17.68 9.429 L 18.038 9.429 C 18.079 9.429 18.112 9.462 18.112 9.504 L 18.112 10.104 C 18.112 10.145 18.079 10.179 18.038 10.179 Z " fill="rgb(2,3,1)"/></g></g></g></svg>