<!--?xml version="1.0" standalone="no"?--><!-- Generator: Gravit.io --><svg xmlns="http://www.w3.org/2000/svg" xmlns:xlink="http://www.w3.org/1999/xlink" style="isolation:isolate" viewBox="0 0 1382.395 150.929" width="100%" height="150.9290008544922"><defs><clipPath id="_clipPath_nGil5K9iF3LBoaOFMzGmTyecjixlQf9a"><rect width="1382.395" height="150.929" class="svg-elem-service-web-flow-1"></rect></clipPath></defs><g clip-path="url(#_clipPath_nGil5K9iF3LBoaOFMzGmTyecjixlQf9a)"><path d=" M 256.255 71.952 L 219.631 1.935 L 1.5 1.935 L 38.663 71.952 L 1.5 149.429 L 219.631 149.429 L 256.255 71.952 Z " fill="rgb(56,213,211)" vector-effect="non-scaling-stroke" stroke-width="1" stroke="rgb(0,0,0)" stroke-linejoin="miter" stroke-linecap="round" stroke-miterlimit="3" class="svg-elem-service-web-flow-2"></path><path d=" M 531.645 71.952 L 495.02 1.935 L 276.889 1.935 L 314.052 71.952 L 276.889 149.429 L 495.02 149.429 L 531.645 71.952 Z " fill="rgb(48,194,235)" vector-effect="non-scaling-stroke" stroke-width="1" stroke="rgb(0,0,0)" stroke-linejoin="miter" stroke-linecap="round" stroke-miterlimit="3" class="svg-elem-service-web-flow-3"></path><path d=" M 807.034 71.952 L 770.41 1.935 L 552.279 1.935 L 589.442 71.952 L 552.279 145.201 L 770.41 145.201 L 807.034 71.952 Z " fill="rgb(0,175,252)" vector-effect="non-scaling-stroke" stroke-width="1" stroke="rgb(0,0,0)" stroke-linejoin="miter" stroke-linecap="round" stroke-miterlimit="3" class="svg-elem-service-web-flow-4"></path><path d=" M 1081.628 71.517 L 1045.003 1.5 L 826.872 1.5 L 864.035 71.517 L 826.872 149.429 L 1045.003 149.429 L 1081.628 71.517 Z " fill="rgb(38,136,204)" vector-effect="non-scaling-stroke" stroke-width="1" stroke="rgb(0,0,0)" stroke-linejoin="miter" stroke-linecap="round" stroke-miterlimit="3" class="svg-elem-service-web-flow-5"></path><path d=" M 1380.895 72.834 L 1342.211 1.5 L 1111.813 1.5 L 1151.066 72.834 L 1111.813 149.429 L 1342.211 149.429 L 1380.895 72.834 Z " fill="rgb(52,116,242)" vector-effect="non-scaling-stroke" stroke-width="1" stroke="rgb(0,0,0)" stroke-linejoin="miter" stroke-linecap="round" stroke-miterlimit="3" class="svg-elem-service-web-flow-6"></path><g id="Group"><path d=" M 74.508 123.624 L 69.153 120.947 L 79.862 94.175 C 79.586 91.962 80.604 89.927 82.54 88.82 C 84.249 87.844 85.678 88.082 87.894 88.82 C 89.526 89.654 89.243 90.218 87.894 94.175 C 87.457 95.456 86.427 96.247 85.217 96.852 L 74.508 123.624 Z " fill="none" vector-effect="non-scaling-stroke" stroke-width="1" stroke="rgb(0,0,0)" stroke-linejoin="round" stroke-linecap="round" stroke-miterlimit="3" class="svg-elem-service-web-flow-7"></path><path d=" M 77.185 72.861 C 77.185 63.256 84.983 55.459 94.587 55.459 C 104.191 55.459 111.989 63.256 111.989 72.861 C 111.989 82.465 104.191 90.263 94.587 90.263 C 84.983 90.263 77.185 82.465 77.185 72.861 Z " fill="none" vector-effect="non-scaling-stroke" stroke-width="1" stroke="rgb(0,0,0)" stroke-linejoin="miter" stroke-linecap="butt" stroke-miterlimit="3" class="svg-elem-service-web-flow-8"></path><path d=" M 82.78 72.861 C 82.78 66.344 88.071 61.054 94.587 61.054 C 101.103 61.054 106.394 66.344 106.394 72.861 C 106.394 79.377 101.103 84.668 94.587 84.668 C 88.071 84.668 82.78 79.377 82.78 72.861 Z " fill="none" vector-effect="non-scaling-stroke" stroke-width="1" stroke="rgb(0,0,0)" stroke-linejoin="miter" stroke-linecap="butt" stroke-miterlimit="3" class="svg-elem-service-web-flow-9"></path><path d=" M 383.68 120.689 L 343.522 120.689 L 343.522 91.023 Q 348.602 78.797 362.262 78.37 Q 375.923 77.944 378.326 81.047 L 408.625 56.748 Q 413.233 52.587 415.807 54.275 Q 418.601 56.108 415.807 62.307 L 383.68 91.756 L 383.68 120.689 Z " fill="none" vector-effect="non-scaling-stroke" stroke-width="1" stroke="rgb(0,0,0)" stroke-linejoin="round" stroke-linecap="round" stroke-miterlimit="3" class="svg-elem-service-web-flow-10"></path><path d=" M 348.876 60.968 C 348.876 52.842 355.474 46.244 363.601 46.244 C 371.728 46.244 378.326 52.842 378.326 60.968 C 378.326 69.095 371.728 75.693 363.601 75.693 C 355.474 75.693 348.876 69.095 348.876 60.968 Z " fill="none" vector-effect="non-scaling-stroke" stroke-width="1" stroke="rgb(0,0,0)" stroke-linejoin="miter" stroke-linecap="square" stroke-miterlimit="3" class="svg-elem-service-web-flow-11"></path><path d=" M 378.326 59.63 Q 373.049 60.381 370.294 59.63 Q 366.965 58.722 362.262 54.275 Q 359.414 58.556 356.908 59.63 Q 354.242 60.772 348.876 59.63" fill="none" vector-effect="non-scaling-stroke" stroke-width="1" stroke="rgb(0,0,0)" stroke-linejoin="round" stroke-linecap="round" stroke-miterlimit="3" class="svg-elem-service-web-flow-12"></path><rect x="663.253" y="104.307" width="33.052" height="15.523" transform="matrix(1,0,0,1,0,0)" fill="none" vector-effect="non-scaling-stroke" stroke-width="1" stroke="rgb(0,0,0)" stroke-linejoin="round" stroke-linecap="round" stroke-miterlimit="3" class="svg-elem-service-web-flow-13"></rect><rect x="649.928" y="119.83" width="59.702" height="5.755" transform="matrix(1,0,0,1,0,0)" fill="none" vector-effect="non-scaling-stroke" stroke-width="1" stroke="rgb(0,0,0)" stroke-linejoin="round" stroke-linecap="round" stroke-miterlimit="3" class="svg-elem-service-web-flow-14"></rect><rect x="902.179" y="21.883" width="110.45" height="76.215" transform="matrix(1,0,0,1,0,0)" fill="none" vector-effect="non-scaling-stroke" stroke-width="1" stroke="rgb(0,0,0)" stroke-linejoin="round" stroke-linecap="round" stroke-miterlimit="3" class="svg-elem-service-web-flow-15"></rect><path d=" M 892.138 119.076 L 1022.67 119.076 L 1012.629 98.098 L 902.436 98.863 L 892.138 119.076 Z " fill="none" vector-effect="non-scaling-stroke" stroke-width="1" stroke="rgb(0,0,0)" stroke-linejoin="round" stroke-linecap="round" stroke-miterlimit="3" class="svg-elem-service-web-flow-16"></path><rect x="1188.222" y="90.341" width="27.677" height="38.549" transform="matrix(1,0,0,1,0,0)" fill="none" vector-effect="non-scaling-stroke" stroke-width="1" stroke="rgb(0,0,0)" stroke-linejoin="round" stroke-linecap="round" stroke-miterlimit="3" class="svg-elem-service-web-flow-17"></rect><rect x="1271.251" y="48.272" width="27.677" height="80.744" transform="matrix(1,0,0,1,0,0)" fill="none" vector-effect="non-scaling-stroke" stroke-width="1" stroke="rgb(0,0,0)" stroke-linejoin="round" stroke-linecap="round" stroke-miterlimit="3" class="svg-elem-service-web-flow-18"></rect><rect x="1243.575" y="61.83" width="27.677" height="66.237" transform="matrix(1,0,0,1,0,0)" fill="none" vector-effect="non-scaling-stroke" stroke-width="1" stroke="rgb(0,0,0)" stroke-linejoin="round" stroke-linecap="round" stroke-miterlimit="3" class="svg-elem-service-web-flow-19"></rect><rect x="1215.898" y="75.668" width="27.677" height="53.222" transform="matrix(1,0,0,1,0,0)" fill="none" vector-effect="non-scaling-stroke" stroke-width="1" stroke="rgb(0,0,0)" stroke-linejoin="round" stroke-linecap="round" stroke-miterlimit="3" class="svg-elem-service-web-flow-20"></rect></g><g id="Group"><path d=" M 90.571 90.764 L 90.571 128.979 L 176.242 128.979 L 176.242 37.953 L 160.459 21.89 L 90.571 21.89 L 90.571 54.017" fill="none" vector-effect="non-scaling-stroke" stroke-width="1" stroke="rgb(0,0,0)" stroke-linejoin="round" stroke-linecap="round" stroke-miterlimit="3" class="svg-elem-service-web-flow-21"></path><path d=" M 389.035 86.402 L 389.035 89.079 L 463.997 89.079 L 463.997 38.212 L 389.035 38.212 L 389.035 71.637" fill="none" vector-effect="non-scaling-stroke" stroke-width="1" stroke="rgb(0,0,0)" stroke-linejoin="round" stroke-linecap="round" stroke-miterlimit="3" class="svg-elem-service-web-flow-22"></path><path d=" M 631.075 25.283 L 631.075 104.307 L 728.483 104.307 L 728.483 25.283 L 631.075 25.283 Z " fill="none" vector-effect="non-scaling-stroke" stroke-width="1" stroke="rgb(0,0,0)" stroke-linejoin="round" stroke-linecap="round" stroke-miterlimit="3" class="svg-elem-service-web-flow-23"></path><rect x="631.075" y="31.811" width="97.408" height="67.613" transform="matrix(1,0,0,1,0,0)" fill="none" vector-effect="non-scaling-stroke" stroke-width="1" stroke="rgb(0,0,0)" stroke-linejoin="round" stroke-linecap="round" stroke-miterlimit="3" class="svg-elem-service-web-flow-24"></rect><rect x="902.179" y="28.593" width="110.45" height="63.576" transform="matrix(1,0,0,1,0,0)" fill="none" vector-effect="non-scaling-stroke" stroke-width="1" stroke="rgb(0,0,0)" stroke-linejoin="round" stroke-linecap="round" stroke-miterlimit="3" class="svg-elem-service-web-flow-25"></rect><rect x="892.138" y="119.076" width="130.531" height="9.91" transform="matrix(1,0,0,1,0,0)" fill="none" vector-effect="non-scaling-stroke" stroke-width="1" stroke="rgb(0,0,0)" stroke-linejoin="round" stroke-linecap="round" stroke-miterlimit="3" class="svg-elem-service-web-flow-26"></rect><line x1="1283.552" y1="47.992" x2="1283.552" y2="24.928" vector-effect="non-scaling-stroke" stroke-width="1" stroke="rgb(0,0,0)" stroke-linejoin="round" stroke-linecap="round" stroke-miterlimit="3" class="svg-elem-service-web-flow-27"></line><path d=" M 1295.853 24.928 L 1283.552 31.078 L 1283.552 21.853 L 1295.853 24.928 Z " fill="none" vector-effect="non-scaling-stroke" stroke-width="1" stroke="rgb(0,0,0)" stroke-linejoin="round" stroke-linecap="round" stroke-miterlimit="3" class="svg-elem-service-web-flow-28"></path></g><g id="Group"><path d=" M 160.179 37.953 L 160.179 21.89 L 176.242 37.953 L 160.179 37.953 Z " fill="none" vector-effect="non-scaling-stroke" stroke-width="1" stroke="rgb(0,0,0)" stroke-linejoin="round" stroke-linecap="round" stroke-miterlimit="3" class="svg-elem-service-web-flow-29"></path><path d=" M 106.635 49.276 C 106.635 42.627 112.033 37.229 118.682 37.229 C 125.331 37.229 130.73 42.627 130.73 49.276 C 130.73 55.925 125.331 61.324 118.682 61.324 C 112.033 61.324 106.635 55.925 106.635 49.276 Z " fill="none" vector-effect="non-scaling-stroke" stroke-width="1" stroke="rgb(0,0,0)" stroke-linejoin="round" stroke-linecap="butt" stroke-miterlimit="3" class="svg-elem-service-web-flow-30"></path><path d=" M 138.761 50.001 C 138.761 43.352 144.159 37.953 150.809 37.953 C 157.458 37.953 162.856 43.352 162.856 50.001 C 162.856 56.65 157.458 62.048 150.809 62.048 C 144.159 62.048 138.761 56.65 138.761 50.001 Z " fill="none" vector-effect="non-scaling-stroke" stroke-width="1" stroke="rgb(0,0,0)" stroke-linejoin="round" stroke-linecap="butt" stroke-miterlimit="3" class="svg-elem-service-web-flow-31"></path><path d=" M 109.312 99.529 L 120.021 99.529 L 120.021 120.43 L 109.449 120.43 L 109.312 99.529 Z " fill="none" vector-effect="non-scaling-stroke" stroke-width="1" stroke="rgb(0,0,0)" stroke-linejoin="round" stroke-linecap="round" stroke-miterlimit="3" class="svg-elem-service-web-flow-32"></path><path d=" M 152.147 110.965 L 158.84 110.965 L 158.84 120.43 L 152.233 120.43 L 152.147 110.965 Z " fill="none" vector-effect="non-scaling-stroke" stroke-width="1" stroke="rgb(0,0,0)" stroke-linejoin="round" stroke-linecap="round" stroke-miterlimit="3" class="svg-elem-service-web-flow-33"></path><path d=" M 138.761 99.529 L 146.793 99.529 L 146.793 120.43 L 138.864 120.43 L 138.761 99.529 Z " fill="none" vector-effect="non-scaling-stroke" stroke-width="1" stroke="rgb(0,0,0)" stroke-linejoin="round" stroke-linecap="round" stroke-miterlimit="3" class="svg-elem-service-web-flow-34"></path><path d=" M 125.375 102.933 L 133.407 102.933 L 133.407 120.43 L 125.478 120.43 L 125.375 102.933 Z " fill="none" vector-effect="non-scaling-stroke" stroke-width="1" stroke="rgb(0,0,0)" stroke-linejoin="round" stroke-linecap="round" stroke-miterlimit="3" class="svg-elem-service-web-flow-35"></path><path d=" M 111.989 58.646 L 120.021 50.615 L 111.989 39.906" fill="none" vector-effect="non-scaling-stroke" stroke-width="1" stroke="rgb(0,0,0)" stroke-linejoin="round" stroke-linecap="round" stroke-miterlimit="3" class="svg-elem-service-web-flow-36"></path><line x1="130.73" y1="50.615" x2="120.021" y2="50.615" vector-effect="non-scaling-stroke" stroke-width="1" stroke="rgb(0,0,0)" stroke-linejoin="round" stroke-linecap="round" stroke-miterlimit="3" class="svg-elem-service-web-flow-37"></line><line x1="138.761" y1="50.615" x2="162.856" y2="50.615" vector-effect="non-scaling-stroke" stroke-width="1" stroke="rgb(0,0,0)" stroke-linejoin="round" stroke-linecap="round" stroke-miterlimit="3" class="svg-elem-service-web-flow-38"></line><line x1="149.47" y1="37.953" x2="149.47" y2="62.048" vector-effect="non-scaling-stroke" stroke-width="1" stroke="rgb(0,0,0)" stroke-linejoin="round" stroke-linecap="round" stroke-miterlimit="3" class="svg-elem-service-web-flow-39"></line><path d=" M 363.385 87.238 L 360.708 84.561 L 363.385 81.884 L 366.494 84.561 L 363.385 87.238 Z " fill="none" vector-effect="non-scaling-stroke" stroke-width="1" stroke="rgb(0,0,0)" stroke-linejoin="round" stroke-linecap="round" stroke-miterlimit="3" class="svg-elem-service-web-flow-40"></path><path d=" M 363.319 87.128 L 360.708 103.192 L 363.319 111.223 L 366.142 103.192 L 363.319 87.128 Z " fill="none" vector-effect="non-scaling-stroke" stroke-width="1" stroke="rgb(0,0,0)" stroke-linejoin="round" stroke-linecap="round" stroke-miterlimit="3" class="svg-elem-service-web-flow-41"></path><path d=" M 426.516 57.238 C 426.516 49.7 432.636 43.579 440.175 43.579 C 447.713 43.579 453.834 49.7 453.834 57.238 C 453.834 64.777 447.713 70.897 440.175 70.897 C 432.636 70.897 426.516 64.777 426.516 57.238 Z " fill="none" vector-effect="non-scaling-stroke" stroke-width="1" stroke="rgb(0,0,0)" stroke-linejoin="round" stroke-linecap="butt" stroke-miterlimit="3" class="svg-elem-service-web-flow-42"></path><path d=" M 431.87 46.244 L 439.902 56.748 L 434.547 67.661" fill="none" vector-effect="non-scaling-stroke" stroke-width="1" stroke="rgb(0,0,0)" stroke-linejoin="round" stroke-linecap="round" stroke-miterlimit="3" class="svg-elem-service-web-flow-43"></path><line x1="439.902" y1="56.748" x2="453.288" y2="56.748" vector-effect="non-scaling-stroke" stroke-width="1" stroke="rgb(0,0,0)" stroke-linejoin="round" stroke-linecap="round" stroke-miterlimit="3" class="svg-elem-service-web-flow-44"></line><rect x="653.071" y="42.894" width="6.284" height="40.546" transform="matrix(1,0,0,1,0,0)" fill="none" vector-effect="non-scaling-stroke" stroke-width="1" stroke="rgb(0,0,0)" stroke-linejoin="round" stroke-linecap="round" stroke-miterlimit="3" class="svg-elem-service-web-flow-45"></rect><rect x="703.346" y="40.231" width="6.284" height="43.21" transform="matrix(1,0,0,1,0,0)" fill="none" vector-effect="non-scaling-stroke" stroke-width="1" stroke="rgb(0,0,0)" stroke-linejoin="round" stroke-linecap="round" stroke-miterlimit="3" class="svg-elem-service-web-flow-46"></rect><rect x="690.777" y="53.254" width="6.284" height="30.186" transform="matrix(1,0,0,1,0,0)" fill="none" vector-effect="non-scaling-stroke" stroke-width="1" stroke="rgb(0,0,0)" stroke-linejoin="round" stroke-linecap="round" stroke-miterlimit="3" class="svg-elem-service-web-flow-47"></rect><rect x="678.208" y="39.935" width="6.284" height="43.506" transform="matrix(1,0,0,1,0,0)" fill="none" vector-effect="non-scaling-stroke" stroke-width="1" stroke="rgb(0,0,0)" stroke-linejoin="round" stroke-linecap="round" stroke-miterlimit="3" class="svg-elem-service-web-flow-48"></rect><rect x="665.639" y="46.497" width="6.284" height="36.943" transform="matrix(1,0,0,1,0,0)" fill="none" vector-effect="non-scaling-stroke" stroke-width="1" stroke="rgb(0,0,0)" stroke-linejoin="round" stroke-linecap="round" stroke-miterlimit="3" class="svg-elem-service-web-flow-49"></rect><rect x="965.771" y="72.087" width="6.694" height="7.739" transform="matrix(1,0,0,1,0,0)" fill="none" vector-effect="non-scaling-stroke" stroke-width="1" stroke="rgb(0,0,0)" stroke-linejoin="round" stroke-linecap="round" stroke-miterlimit="3" class="svg-elem-service-web-flow-50"></rect><rect x="992.547" y="59.306" width="6.694" height="20.521" transform="matrix(1,0,0,1,0,0)" fill="none" vector-effect="non-scaling-stroke" stroke-width="1" stroke="rgb(0,0,0)" stroke-linejoin="round" stroke-linecap="round" stroke-miterlimit="3" class="svg-elem-service-web-flow-51"></rect><rect x="979.159" y="65.523" width="6.694" height="14.304" transform="matrix(1,0,0,1,0,0)" fill="none" vector-effect="non-scaling-stroke" stroke-width="1" stroke="rgb(0,0,0)" stroke-linejoin="round" stroke-linecap="round" stroke-miterlimit="3" class="svg-elem-service-web-flow-52"></rect><line x1="1191.297" y1="74.25" x2="1252.8" y2="43.379" vector-effect="non-scaling-stroke" stroke-width="1" stroke="rgb(0,0,0)" stroke-linejoin="round" stroke-linecap="round" stroke-miterlimit="3" class="svg-elem-service-web-flow-53"></line><path d=" M 1243.575 37.229 L 1252.8 43.379 L 1252.8 54.19" fill="none" vector-effect="non-scaling-stroke" stroke-width="1" stroke="rgb(0,0,0)" stroke-linejoin="round" stroke-linecap="round" stroke-miterlimit="3" class="svg-elem-service-web-flow-54"></path><line x1="117.343" y1="70.08" x2="160.179" y2="70.08" vector-effect="non-scaling-stroke" stroke-width="1" stroke="rgb(0,0,0)" stroke-linejoin="round" stroke-linecap="round" stroke-miterlimit="3" class="svg-elem-service-web-flow-55"></line><line x1="160.459" y1="78.112" x2="117.343" y2="78.112" vector-effect="non-scaling-stroke" stroke-width="1" stroke="rgb(0,0,0)" stroke-linejoin="miter" stroke-linecap="round" stroke-miterlimit="3" class="svg-elem-service-web-flow-56"></line><line x1="111.989" y1="86.143" x2="160.179" y2="86.143" vector-effect="non-scaling-stroke" stroke-width="1" stroke="rgb(0,0,0)" stroke-linejoin="miter" stroke-linecap="round" stroke-miterlimit="3" class="svg-elem-service-web-flow-57"></line><line x1="160.459" y1="91.498" x2="111.989" y2="91.498" vector-effect="non-scaling-stroke" stroke-width="1" stroke="rgb(0,0,0)" stroke-linejoin="miter" stroke-linecap="round" stroke-miterlimit="3" class="svg-elem-service-web-flow-58"></line><path d=" M 386.357 30.18 L 466.674 30.18 L 466.674 38.212 L 386.357 38.212 L 386.357 30.18 Z " fill="none" vector-effect="non-scaling-stroke" stroke-width="1" stroke="rgb(0,0,0)" stroke-linejoin="round" stroke-linecap="round" stroke-miterlimit="3" class="svg-elem-service-web-flow-59"></path><line x1="397.066" y1="43.566" x2="423.839" y2="43.566" vector-effect="non-scaling-stroke" stroke-width="1" stroke="rgb(0,0,0)" stroke-linejoin="round" stroke-linecap="round" stroke-miterlimit="3" class="svg-elem-service-web-flow-60"></line><line x1="397.066" y1="48.921" x2="423.839" y2="48.921" vector-effect="non-scaling-stroke" stroke-width="1" stroke="rgb(0,0,0)" stroke-linejoin="round" stroke-linecap="round" stroke-miterlimit="3" class="svg-elem-service-web-flow-61"></line><line x1="410.452" y1="75.693" x2="453.288" y2="75.693" vector-effect="non-scaling-stroke" stroke-width="1" stroke="rgb(0,0,0)" stroke-linejoin="round" stroke-linecap="round" stroke-miterlimit="3" class="svg-elem-service-web-flow-62"></line><line x1="453.288" y1="81.884" x2="410.452" y2="81.884" vector-effect="non-scaling-stroke" stroke-width="1" stroke="rgb(0,0,0)" stroke-linejoin="round" stroke-linecap="round" stroke-miterlimit="3" class="svg-elem-service-web-flow-63"></line><line x1="649.928" y1="88.898" x2="712.772" y2="88.898" vector-effect="non-scaling-stroke" stroke-width="1" stroke="rgb(0,0,0)" stroke-linejoin="round" stroke-linecap="round" stroke-miterlimit="3" class="svg-elem-service-web-flow-64"></line><path d=" M 928.955 79.827 L 949.036 62.047 L 955.73 68.74 L 972.465 48.659 L 969.118 45.057 L 982.506 41.965 L 979.159 55.353 L 972.465 48.659" fill="rgb(38,136,204)" vector-effect="non-scaling-stroke" stroke-width="1" stroke="rgb(0,0,0)" stroke-linejoin="round" stroke-linecap="round" stroke-miterlimit="3" class="svg-elem-service-web-flow-65"></path><path d=" M 916.142 48.659 C 916.142 41.587 921.883 35.846 928.955 35.846 C 936.026 35.846 941.767 41.587 941.767 48.659 C 941.767 55.73 936.026 61.471 928.955 61.471 C 921.883 61.471 916.142 55.73 916.142 48.659 Z " fill="none" vector-effect="non-scaling-stroke" stroke-width="1" stroke="rgb(0,0,0)" stroke-linejoin="miter" stroke-linecap="square" stroke-miterlimit="3" class="svg-elem-service-web-flow-66"></path><path d=" M 922.261 38.618 L 928.955 48.659 L 938.996 48.659" fill="none" vector-effect="non-scaling-stroke" stroke-width="1" stroke="rgb(0,0,0)" stroke-linejoin="round" stroke-linecap="round" stroke-miterlimit="3" class="svg-elem-service-web-flow-67"></path><line x1="928.955" y1="48.659" x2="922.261" y2="58.7" vector-effect="non-scaling-stroke" stroke-width="1" stroke="rgb(0,0,0)" stroke-linejoin="round" stroke-linecap="round" stroke-miterlimit="3" class="svg-elem-service-web-flow-68"></line></g></g></svg>