<?xml version="1.0" standalone="no"?><!-- Generator: Gravit.io --><svg xmlns="http://www.w3.org/2000/svg" xmlns:xlink="http://www.w3.org/1999/xlink" style="isolation:isolate" viewBox="0 0 95.168 17.1" width="95.168" height="17.1"><defs><clipPath id="_clipPath_9pVs7b5WYhY0TLwsvLjYCbDuF9inaiMU"><rect width="95.168" height="17.1"/></clipPath></defs><g clip-path="url(#_clipPath_9pVs7b5WYhY0TLwsvLjYCbDuF9inaiMU)"><g style="isolation:isolate" id="background"/><g style="isolation:isolate" id="service-web"/><g style="isolation:isolate" id="Layer 5"/><g style="isolation:isolate" id="Layer 7"><g id="HP ホーム (8)"><clipPath id="_clipPath_5p6vyS2XxMxn0t9lo50LHZuR6ibGYI7B"><path d=" M 0 0 L 47.584 0 L 47.584 17.1 L 0 17.1 L 0 0 Z " fill="rgb(255,255,255)"/></clipPath><g clip-path="url(#_clipPath_5p6vyS2XxMxn0t9lo50LHZuR6ibGYI7B)"><g id="Group"><path d=" M 0 0 L 47.584 0 L 47.584 17.1 L 0 17.1 L 0 0 Z " fill="rgb(55,201,239)" vector-effect="non-scaling-stroke" stroke-width="1.333" stroke="rgb(55,201,239)" stroke-linejoin="miter" stroke-linecap="butt" stroke-miterlimit="4"/></g><clipPath id="_clipPath_838AK2YVm8UUFLSsB3qtCz5RJSPxX1KQ"><path d=" M 6.813 4.315 L 10.877 4.315 L 10.877 12.344 L 6.813 12.344 L 6.813 4.315 Z " fill="rgb(255,255,255)"/></clipPath><g clip-path="url(#_clipPath_838AK2YVm8UUFLSsB3qtCz5RJSPxX1KQ)"><g id="Group"><path d=" M 12.875 8.329 C 12.875 8.461 12.869 8.592 12.856 8.723 C 12.843 8.854 12.824 8.984 12.798 9.113 C 12.772 9.242 12.74 9.369 12.702 9.495 C 12.664 9.621 12.62 9.744 12.569 9.866 C 12.519 9.987 12.463 10.106 12.401 10.222 C 12.339 10.338 12.272 10.451 12.199 10.56 C 12.125 10.669 12.047 10.775 11.964 10.876 C 11.88 10.978 11.792 11.076 11.699 11.168 C 11.606 11.261 11.509 11.35 11.407 11.433 C 11.306 11.516 11.2 11.595 11.091 11.668 C 10.982 11.741 10.869 11.808 10.753 11.87 C 10.637 11.932 10.518 11.988 10.397 12.039 C 10.275 12.089 10.152 12.133 10.026 12.172 C 9.9 12.21 9.773 12.242 9.644 12.267 C 9.514 12.293 9.385 12.312 9.254 12.325 C 9.123 12.338 8.992 12.344 8.86 12.344 C 8.729 12.344 8.598 12.338 8.467 12.325 C 8.336 12.312 8.206 12.293 8.077 12.267 C 7.948 12.242 7.821 12.21 7.695 12.172 C 7.569 12.133 7.445 12.089 7.324 12.039 C 7.202 11.988 7.084 11.932 6.968 11.87 C 6.852 11.808 6.739 11.741 6.63 11.668 C 6.52 11.595 6.415 11.516 6.313 11.433 C 6.212 11.35 6.114 11.261 6.021 11.168 C 5.928 11.076 5.84 10.978 5.757 10.876 C 5.673 10.775 5.595 10.669 5.522 10.56 C 5.449 10.451 5.381 10.338 5.319 10.222 C 5.257 10.106 5.201 9.987 5.151 9.866 C 5.101 9.744 5.057 9.621 5.018 9.495 C 4.98 9.369 4.948 9.242 4.923 9.113 C 4.897 8.984 4.878 8.854 4.865 8.723 C 4.852 8.592 4.845 8.461 4.845 8.329 C 4.845 8.198 4.852 8.067 4.865 7.936 C 4.878 7.805 4.897 7.675 4.923 7.546 C 4.948 7.417 4.98 7.29 5.018 7.164 C 5.057 7.038 5.101 6.915 5.151 6.793 C 5.201 6.672 5.257 6.553 5.319 6.437 C 5.381 6.321 5.449 6.208 5.522 6.099 C 5.595 5.99 5.673 5.884 5.757 5.782 C 5.84 5.681 5.928 5.583 6.021 5.491 C 6.114 5.398 6.212 5.31 6.313 5.226 C 6.415 5.143 6.52 5.064 6.63 4.991 C 6.739 4.918 6.852 4.851 6.968 4.789 C 7.084 4.727 7.202 4.671 7.324 4.62 C 7.445 4.57 7.569 4.526 7.695 4.488 C 7.821 4.449 7.948 4.417 8.077 4.392 C 8.206 4.366 8.336 4.347 8.467 4.334 C 8.598 4.321 8.729 4.315 8.86 4.315 C 8.992 4.315 9.123 4.321 9.254 4.334 C 9.385 4.347 9.514 4.366 9.644 4.392 C 9.773 4.417 9.9 4.449 10.026 4.488 C 10.152 4.526 10.275 4.57 10.397 4.62 C 10.518 4.671 10.637 4.727 10.753 4.789 C 10.869 4.851 10.982 4.918 11.091 4.991 C 11.2 5.064 11.306 5.143 11.407 5.226 C 11.509 5.31 11.606 5.398 11.699 5.491 C 11.792 5.583 11.88 5.681 11.964 5.782 C 12.047 5.884 12.125 5.99 12.199 6.099 C 12.272 6.208 12.339 6.321 12.401 6.437 C 12.463 6.553 12.519 6.672 12.569 6.793 C 12.62 6.915 12.664 7.038 12.702 7.164 C 12.74 7.29 12.772 7.417 12.798 7.546 C 12.824 7.675 12.843 7.805 12.856 7.936 C 12.869 8.067 12.875 8.198 12.875 8.329 Z " fill="rgb(255,255,255)"/></g><g id="Group"><g id="Group"><g id="Group"><path d=" M 7.611 6.189 C 7.719 6.055 7.885 5.988 8.108 5.988 C 8.332 5.988 8.498 6.055 8.607 6.189 C 8.716 6.323 8.77 6.541 8.77 6.843 C 8.77 7.145 8.716 7.363 8.607 7.498 C 8.498 7.631 8.332 7.698 8.108 7.698 C 7.885 7.698 7.719 7.631 7.611 7.498 C 7.502 7.363 7.447 7.145 7.447 6.843 C 7.447 6.541 7.502 6.323 7.611 6.189 Z  M 7.907 7.279 C 7.95 7.362 8.017 7.404 8.108 7.404 C 8.2 7.404 8.267 7.362 8.311 7.279 C 8.354 7.195 8.376 7.05 8.376 6.843 C 8.376 6.636 8.354 6.492 8.311 6.408 C 8.267 6.324 8.2 6.282 8.108 6.282 C 8.017 6.282 7.95 6.324 7.907 6.408 C 7.864 6.492 7.842 6.636 7.842 6.843 C 7.842 7.05 7.864 7.195 7.907 7.279 Z " fill="rgb(55,201,239)"/></g></g></g><g id="Group"><g id="Group"><g id="Group"><path d=" M 9.021 6.011 L 10.131 6.011 L 10.131 6.324 L 9.686 6.69 L 9.686 6.695 L 9.716 6.695 C 9.849 6.695 9.954 6.736 10.034 6.818 C 10.114 6.9 10.154 7.011 10.154 7.151 C 10.154 7.327 10.1 7.462 9.992 7.557 C 9.884 7.651 9.729 7.698 9.527 7.698 C 9.334 7.698 9.158 7.655 8.999 7.568 L 9.094 7.272 C 9.247 7.351 9.381 7.39 9.495 7.39 C 9.583 7.39 9.652 7.37 9.7 7.329 C 9.749 7.288 9.773 7.231 9.773 7.158 C 9.773 7.084 9.744 7.031 9.685 7 C 9.627 6.968 9.518 6.952 9.358 6.952 L 9.244 6.952 L 9.244 6.692 L 9.666 6.328 L 9.666 6.324 L 9.021 6.324 L 9.021 6.011 Z " fill="rgb(55,201,239)"/></g></g></g></g></g><clipPath id="_clipPath_8oBEX6krbpE2KJATeiJ12uDNyxF9uvue"><path d=" M 47.584 0 L 95.168 0 L 95.168 17.1 L 47.584 17.1 L 47.584 0 Z " fill="rgb(255,255,255)"/></clipPath><g clip-path="url(#_clipPath_8oBEX6krbpE2KJATeiJ12uDNyxF9uvue)"><g id="Group"><path d=" M 47.584 0 L 95.168 0 L 95.168 17.1 L 47.584 17.1 L 47.584 0 Z " fill="rgb(44,146,213)"/></g><clipPath id="_clipPath_LIKEXJ42fm0Mi518qYjtDLsy3lJtGGyu"><path d=" M 54.885 4.315 L 58.949 4.315 L 58.949 12.344 L 54.885 12.344 L 54.885 4.315 Z " fill="rgb(255,255,255)"/></clipPath><g clip-path="url(#_clipPath_LIKEXJ42fm0Mi518qYjtDLsy3lJtGGyu)"><g id="Group"><path d=" M 60.947 8.329 C 60.947 8.461 60.94 8.592 60.928 8.723 C 60.915 8.854 60.896 8.984 60.87 9.113 C 60.844 9.242 60.812 9.369 60.774 9.495 C 60.736 9.621 60.692 9.744 60.641 9.866 C 60.591 9.987 60.535 10.106 60.473 10.222 C 60.411 10.338 60.343 10.451 60.27 10.56 C 60.197 10.669 60.119 10.775 60.036 10.876 C 59.952 10.978 59.864 11.076 59.771 11.168 C 59.678 11.261 59.581 11.35 59.479 11.433 C 59.378 11.516 59.272 11.595 59.163 11.668 C 59.053 11.741 58.941 11.808 58.825 11.87 C 58.709 11.932 58.59 11.988 58.469 12.039 C 58.347 12.089 58.223 12.133 58.098 12.172 C 57.972 12.21 57.844 12.242 57.715 12.267 C 57.586 12.293 57.457 12.312 57.326 12.325 C 57.195 12.338 57.064 12.344 56.932 12.344 C 56.801 12.344 56.669 12.338 56.539 12.325 C 56.408 12.312 56.278 12.293 56.149 12.267 C 56.02 12.242 55.892 12.21 55.767 12.172 C 55.641 12.133 55.517 12.089 55.396 12.039 C 55.274 11.988 55.155 11.932 55.039 11.87 C 54.924 11.808 54.811 11.741 54.702 11.668 C 54.592 11.595 54.487 11.516 54.385 11.433 C 54.284 11.35 54.186 11.261 54.093 11.168 C 54 11.076 53.912 10.978 53.829 10.876 C 53.745 10.775 53.667 10.669 53.594 10.56 C 53.521 10.451 53.453 10.338 53.391 10.222 C 53.329 10.106 53.273 9.987 53.223 9.866 C 53.172 9.744 53.128 9.621 53.09 9.495 C 53.052 9.369 53.02 9.242 52.994 9.113 C 52.969 8.984 52.949 8.854 52.936 8.723 C 52.924 8.592 52.917 8.461 52.917 8.329 C 52.917 8.198 52.924 8.067 52.936 7.936 C 52.949 7.805 52.969 7.675 52.994 7.546 C 53.02 7.417 53.052 7.29 53.09 7.164 C 53.128 7.038 53.172 6.915 53.223 6.793 C 53.273 6.672 53.329 6.553 53.391 6.437 C 53.453 6.321 53.521 6.208 53.594 6.099 C 53.667 5.99 53.745 5.884 53.829 5.782 C 53.912 5.681 54 5.583 54.093 5.491 C 54.186 5.398 54.284 5.31 54.385 5.226 C 54.487 5.143 54.592 5.064 54.702 4.991 C 54.811 4.918 54.924 4.851 55.039 4.789 C 55.155 4.727 55.274 4.671 55.396 4.62 C 55.517 4.57 55.641 4.526 55.767 4.488 C 55.892 4.449 56.02 4.417 56.149 4.392 C 56.278 4.366 56.408 4.347 56.539 4.334 C 56.669 4.321 56.801 4.315 56.932 4.315 C 57.064 4.315 57.195 4.321 57.326 4.334 C 57.457 4.347 57.586 4.366 57.715 4.392 C 57.844 4.417 57.972 4.449 58.098 4.488 C 58.223 4.526 58.347 4.57 58.469 4.62 C 58.59 4.671 58.709 4.727 58.825 4.789 C 58.941 4.851 59.053 4.918 59.163 4.991 C 59.272 5.064 59.378 5.143 59.479 5.226 C 59.581 5.31 59.678 5.398 59.771 5.491 C 59.864 5.583 59.952 5.681 60.036 5.782 C 60.119 5.884 60.197 5.99 60.27 6.099 C 60.343 6.208 60.411 6.321 60.473 6.437 C 60.535 6.553 60.591 6.672 60.641 6.793 C 60.692 6.915 60.736 7.038 60.774 7.164 C 60.812 7.29 60.844 7.417 60.87 7.546 C 60.896 7.675 60.915 7.805 60.928 7.936 C 60.94 8.067 60.947 8.198 60.947 8.329 Z " fill="rgb(255,255,255)"/></g><g id="Group"><g id="Group"><g id="Group"><path d=" M 55.682 6.189 C 55.791 6.055 55.957 5.988 56.18 5.988 C 56.404 5.988 56.57 6.055 56.679 6.189 C 56.788 6.323 56.842 6.541 56.842 6.843 C 56.842 7.145 56.788 7.363 56.679 7.498 C 56.57 7.631 56.404 7.698 56.18 7.698 C 55.957 7.698 55.791 7.631 55.682 7.498 C 55.573 7.363 55.519 7.145 55.519 6.843 C 55.519 6.541 55.573 6.323 55.682 6.189 Z  M 55.979 7.279 C 56.022 7.362 56.089 7.404 56.18 7.404 C 56.272 7.404 56.339 7.362 56.383 7.279 C 56.426 7.195 56.448 7.05 56.448 6.843 C 56.448 6.636 56.426 6.492 56.383 6.408 C 56.339 6.324 56.272 6.282 56.18 6.282 C 56.089 6.282 56.022 6.324 55.979 6.408 C 55.935 6.492 55.914 6.636 55.914 6.843 C 55.914 7.05 55.935 7.195 55.979 7.279 Z " fill="rgb(44,146,213)"/></g></g></g><g id="Group"><g id="Group"><g id="Group"><path d=" M 57.688 7.053 L 57.688 6.481 L 57.683 6.481 L 57.288 7.048 L 57.288 7.053 L 57.688 7.053 Z  M 58.06 7.053 L 58.299 7.053 L 58.299 7.356 L 58.06 7.356 L 58.06 7.675 L 57.688 7.675 L 57.688 7.356 L 56.947 7.356 L 56.947 7.053 L 57.688 6.011 L 58.06 6.011 L 58.06 7.053 Z " fill="rgb(44,146,213)"/></g></g></g></g></g><g id="Group"><g id="Group"/></g><clipPath id="_clipPath_8wuORbCrPTSfOE1u9UhBFgjMIxztTHyi"><path d=" M 47.584 6.714 L 49.434 6.714 L 49.434 10.415 L 47.584 10.415 L 47.584 6.714 Z " fill="rgb(255,255,255)"/></clipPath><g clip-path="url(#_clipPath_8wuORbCrPTSfOE1u9UhBFgjMIxztTHyi)"><g id="Group"><clipPath id="_clipPath_6vtlKmQskr1zdI0Z6HzrG0ikJFm7dpTT"><path d=" M 47.585 10.386 L 45.763 8.564 L 47.585 6.741 L 49.408 8.564 L 47.585 10.386 Z " fill="rgb(255,255,255)"/></clipPath><g clip-path="url(#_clipPath_6vtlKmQskr1zdI0Z6HzrG0ikJFm7dpTT)"><g id="Group"><path d=" M 47.585 6.741 L 49.408 8.564 L 47.585 10.386 L 47.585 6.741 Z " fill="rgb(55,201,239)" vector-effect="non-scaling-stroke" stroke-width="1.333" stroke="rgb(55,201,239)" stroke-linejoin="miter" stroke-linecap="butt" stroke-miterlimit="4"/></g></g></g></g></g></g></g></svg>