<?xml version="1.0" standalone="no"?><!-- Generator: Gravit.io --><svg xmlns="http://www.w3.org/2000/svg" xmlns:xlink="http://www.w3.org/1999/xlink" style="isolation:isolate" viewBox="0 0 33.687 19.146" width="33.687" height="19.146"><defs><clipPath id="_clipPath_Cpl7Z1UlDao1BNexImYmW33heQTSGfaA"><rect width="33.687" height="19.146"/></clipPath></defs><g clip-path="url(#_clipPath_Cpl7Z1UlDao1BNexImYmW33heQTSGfaA)"><g style="isolation:isolate" id="background"/><g style="isolation:isolate" id="service-web"/><g style="isolation:isolate" id="Layer 5"><g id="Group"><path d=" M 28.955 19.146 L 0 19.146 L 4.74 9.573 L 0 0 L 28.955 0 L 33.687 9.573 L 28.955 19.146 Z " fill="rgb(62,218,216)"/><path d=" M 20.019 6.499 C 19.953 6.499 19.898 6.444 19.898 6.378 L 19.898 5.724 L 20.629 6.499 L 20.019 6.499 Z  M 20.823 6.398 L 20.029 5.574 C 19.929 5.47 19.737 5.389 19.592 5.389 L 14.747 5.389 C 14.575 5.389 14.435 5.529 14.435 5.701 L 14.435 7.956 C 14.435 8.009 14.478 8.051 14.53 8.051 C 14.583 8.051 14.626 8.009 14.626 7.956 L 14.626 5.701 C 14.626 5.634 14.681 5.58 14.747 5.58 L 19.592 5.58 C 19.63 5.58 19.676 5.59 19.721 5.606 C 19.712 5.632 19.707 5.664 19.707 5.701 L 19.707 6.378 C 19.707 6.55 19.848 6.69 20.019 6.69 L 20.634 6.69 C 20.693 6.69 20.735 6.676 20.765 6.659 C 20.792 6.719 20.809 6.786 20.809 6.837 L 20.809 13.447 C 20.809 13.514 20.755 13.568 20.688 13.568 L 14.747 13.568 C 14.681 13.568 14.626 13.514 14.626 13.447 L 14.626 10.645 C 14.626 10.593 14.583 10.55 14.53 10.55 C 14.478 10.55 14.435 10.593 14.435 10.645 L 14.435 13.447 C 14.435 13.62 14.575 13.76 14.747 13.76 L 20.688 13.76 C 20.86 13.76 21.001 13.62 21.001 13.447 L 21.001 6.837 C 21.001 6.694 20.923 6.502 20.823 6.398 Z " fill="rgb(2,3,1)"/><path d=" M 16.543 8.399 C 16.426 8.399 16.314 8.373 16.212 8.328 L 16.569 7.673 L 17.348 7.673 C 17.306 8.08 16.962 8.399 16.543 8.399 Z  M 15.734 7.59 C 15.734 7.322 15.866 7.083 16.068 6.936 L 16.395 7.592 L 16.049 8.229 C 15.858 8.081 15.734 7.85 15.734 7.59 Z  M 17.344 7.481 L 16.553 7.481 L 16.236 6.843 C 16.331 6.803 16.434 6.781 16.543 6.781 C 16.952 6.781 17.291 7.087 17.344 7.481 Z  M 16.543 6.59 C 16.373 6.59 16.213 6.633 16.073 6.708 C 16.07 6.709 16.067 6.71 16.064 6.711 C 16.057 6.714 16.052 6.719 16.046 6.723 C 15.746 6.896 15.543 7.22 15.543 7.59 C 15.543 8.142 15.991 8.59 16.543 8.59 C 17.095 8.59 17.544 8.142 17.544 7.59 C 17.544 7.038 17.095 6.59 16.543 6.59 Z " fill="rgb(2,3,1)"/><path d=" M 19.05 8.393 L 19.05 7.692 L 19.739 7.692 C 19.701 8.057 19.413 8.348 19.05 8.393 Z  M 18.169 7.692 L 18.859 7.692 L 18.859 8.393 C 18.495 8.348 18.207 8.057 18.169 7.692 Z  M 18.859 6.826 L 18.859 7.501 L 18.172 7.501 C 18.221 7.148 18.503 6.869 18.859 6.826 Z  M 19.735 7.501 L 19.05 7.501 L 19.05 6.826 C 19.404 6.869 19.687 7.148 19.735 7.501 Z  M 18.954 6.628 C 18.413 6.628 17.973 7.068 17.973 7.61 C 17.973 8.15 18.413 8.59 18.954 8.59 C 19.495 8.59 19.935 8.15 19.935 7.61 C 19.935 7.068 19.495 6.628 18.954 6.628 Z " fill="rgb(2,3,1)"/><path d=" M 19.739 9.266 L 16.476 9.266 C 16.423 9.266 16.381 9.223 16.381 9.171 C 16.381 9.118 16.423 9.075 16.476 9.075 L 19.739 9.075 C 19.792 9.075 19.835 9.118 19.835 9.171 C 19.835 9.223 19.792 9.266 19.739 9.266 Z " fill="rgb(2,3,1)"/><path d=" M 19.739 9.814 L 16.476 9.814 C 16.423 9.814 16.381 9.771 16.381 9.719 C 16.381 9.666 16.423 9.623 16.476 9.623 L 19.739 9.623 C 19.792 9.623 19.835 9.666 19.835 9.719 C 19.835 9.771 19.792 9.814 19.739 9.814 Z " fill="rgb(2,3,1)"/><path d=" M 19.739 10.362 L 15.953 10.362 C 15.901 10.362 15.858 10.319 15.858 10.267 C 15.858 10.215 15.901 10.171 15.953 10.171 L 19.739 10.171 C 19.792 10.171 19.835 10.215 19.835 10.267 C 19.835 10.319 19.792 10.362 19.739 10.362 Z " fill="rgb(2,3,1)"/><path d=" M 19.739 10.91 L 15.953 10.91 C 15.901 10.91 15.858 10.868 15.858 10.815 C 15.858 10.762 15.901 10.72 15.953 10.72 L 19.739 10.72 C 19.792 10.72 19.835 10.762 19.835 10.815 C 19.835 10.868 19.792 10.91 19.739 10.91 Z " fill="rgb(2,3,1)"/><path d=" M 16.005 12.79 L 16.489 12.79 L 16.489 11.401 L 16.005 11.401 L 16.005 12.79 Z  M 16.585 12.982 L 15.909 12.982 C 15.857 12.982 15.814 12.939 15.814 12.886 L 15.814 11.306 C 15.814 11.253 15.857 11.21 15.909 11.21 L 16.585 11.21 C 16.637 11.21 16.68 11.253 16.68 11.306 L 16.68 12.886 C 16.68 12.939 16.637 12.982 16.585 12.982 Z " fill="rgb(2,3,1)"/><path d=" M 19.134 12.79 L 19.619 12.79 L 19.619 12.29 L 19.134 12.29 L 19.134 12.79 Z  M 19.714 12.982 L 19.038 12.982 C 18.985 12.982 18.943 12.939 18.943 12.886 L 18.943 12.194 C 18.943 12.142 18.985 12.099 19.038 12.099 L 19.714 12.099 C 19.766 12.099 19.809 12.142 19.809 12.194 L 19.809 12.886 C 19.809 12.939 19.766 12.982 19.714 12.982 Z " fill="rgb(2,3,1)"/><path d=" M 17.048 12.79 L 17.532 12.79 L 17.532 11.764 L 17.048 11.764 L 17.048 12.79 Z  M 17.628 12.982 L 16.952 12.982 C 16.9 12.982 16.856 12.939 16.856 12.886 L 16.856 11.669 C 16.856 11.616 16.9 11.574 16.952 11.574 L 17.628 11.574 C 17.68 11.574 17.723 11.616 17.723 11.669 L 17.723 12.886 C 17.723 12.939 17.68 12.982 17.628 12.982 Z " fill="rgb(2,3,1)"/><path d=" M 18.091 12.79 L 18.575 12.79 L 18.575 11.43 L 18.091 11.43 L 18.091 12.79 Z  M 18.671 12.982 L 17.995 12.982 C 17.942 12.982 17.899 12.939 17.899 12.886 L 17.899 11.334 C 17.899 11.281 17.942 11.238 17.995 11.238 L 18.671 11.238 C 18.723 11.238 18.766 11.281 18.766 11.334 L 18.766 12.886 C 18.766 12.939 18.723 12.982 18.671 12.982 Z " fill="rgb(2,3,1)"/><path d=" M 15.722 9.76 C 15.533 10.19 15.107 10.468 14.637 10.468 C 14.475 10.468 14.317 10.435 14.167 10.37 L 14.155 10.365 C 13.869 10.237 13.648 10.006 13.534 9.713 C 13.419 9.418 13.427 9.096 13.554 8.806 C 13.743 8.377 14.168 8.099 14.638 8.099 C 14.803 8.099 14.963 8.132 15.115 8.199 C 15.712 8.462 15.985 9.162 15.722 9.76 Z  M 14.143 10.568 L 14.119 10.623 L 14.012 10.576 L 14.036 10.522 L 14.078 10.54 C 14.08 10.541 14.082 10.542 14.084 10.543 C 14.086 10.544 14.088 10.544 14.09 10.545 L 14.143 10.568 Z  M 14.193 10.977 C 14.18 11.005 14.145 11.024 14.105 11.024 C 14.084 11.024 14.064 11.02 14.045 11.011 L 13.776 10.893 C 13.745 10.879 13.719 10.856 13.706 10.828 C 13.7 10.814 13.691 10.787 13.703 10.761 C 13.715 10.732 13.749 10.713 13.791 10.713 C 13.81 10.713 13.831 10.718 13.85 10.726 L 14.118 10.844 C 14.15 10.858 14.176 10.882 14.189 10.909 C 14.195 10.923 14.205 10.95 14.193 10.977 Z  M 13.937 11.317 L 13.165 13.074 C 13.145 13.118 13.101 13.146 13.053 13.146 C 13.036 13.146 13.02 13.143 13.005 13.136 L 12.914 13.096 C 12.853 13.069 12.825 12.997 12.852 12.936 L 13.624 11.179 C 13.644 11.135 13.687 11.107 13.735 11.107 C 13.752 11.107 13.769 11.11 13.784 11.117 L 13.875 11.157 C 13.904 11.17 13.927 11.194 13.939 11.224 C 13.951 11.255 13.95 11.288 13.937 11.317 Z  M 15.191 8.024 C 15.015 7.947 14.829 7.907 14.638 7.907 C 14.093 7.907 13.598 8.23 13.379 8.73 C 13.23 9.066 13.223 9.44 13.356 9.782 C 13.459 10.048 13.638 10.269 13.87 10.424 L 13.826 10.523 C 13.814 10.522 13.803 10.522 13.791 10.522 C 13.674 10.522 13.57 10.585 13.527 10.684 C 13.496 10.754 13.499 10.837 13.533 10.91 C 13.543 10.93 13.554 10.948 13.567 10.965 C 13.516 10.998 13.474 11.045 13.449 11.102 L 12.677 12.86 C 12.607 13.017 12.679 13.202 12.837 13.271 L 12.928 13.311 C 12.968 13.329 13.01 13.338 13.053 13.338 C 13.177 13.338 13.29 13.264 13.34 13.151 L 14.112 11.394 C 14.137 11.337 14.145 11.274 14.134 11.213 C 14.238 11.203 14.328 11.144 14.368 11.053 C 14.399 10.983 14.396 10.901 14.361 10.828 C 14.343 10.789 14.316 10.754 14.283 10.725 L 14.328 10.624 C 14.429 10.647 14.532 10.659 14.637 10.659 C 15.183 10.659 15.677 10.336 15.897 9.837 C 16.202 9.142 15.886 8.329 15.191 8.024 Z " fill="rgb(2,3,1)"/><path d=" M 15.386 9.612 C 15.256 9.909 14.962 10.101 14.637 10.101 C 14.524 10.101 14.413 10.077 14.309 10.031 C 13.897 9.85 13.709 9.367 13.89 8.955 C 14.02 8.658 14.314 8.467 14.638 8.467 C 14.751 8.467 14.862 8.489 14.966 8.536 C 15.379 8.717 15.567 9.2 15.386 9.612 Z  M 15.043 8.36 C 14.914 8.304 14.778 8.275 14.638 8.275 C 14.239 8.275 13.876 8.511 13.715 8.878 C 13.492 9.386 13.724 9.982 14.232 10.206 C 14.361 10.263 14.498 10.291 14.637 10.291 C 15.037 10.291 15.4 10.055 15.56 9.689 C 15.784 9.18 15.552 8.584 15.043 8.36 Z " fill="rgb(2,3,1)"/></g></g></g></svg>