<?xml version="1.0" standalone="no"?><!-- Generator: Gravit.io --><svg xmlns="http://www.w3.org/2000/svg" xmlns:xlink="http://www.w3.org/1999/xlink" style="isolation:isolate" viewBox="0 0 327.983 88.5" width="327.983" height="88.5"><defs><clipPath id="_clipPath_3SzHqDXnKVmQD2PdenSDs9XZvfrQJWGu"><rect width="327.983" height="88.5"/></clipPath></defs><g clip-path="url(#_clipPath_3SzHqDXnKVmQD2PdenSDs9XZvfrQJWGu)"><g style="isolation:isolate" id="Antapp_正規色"><g id="Group"><g id="Group"><g id="Group"><path d=" M 62.451 52.44 L 51.745 52.44 L 37.244 13.805 L 18.271 62.74 L 12.702 77.102 L 1.5 77.005 L 31.194 1.5 L 43.697 1.5 L 62.451 52.44 Z " fill="rgb(13,62,72)" vector-effect="non-scaling-stroke" stroke-width="1" stroke="rgb(0,0,0)" stroke-linejoin="miter" stroke-linecap="square" stroke-miterlimit="3"/><path d=" M 12.702 77.102 L 2.281 77.005 L 44.113 32.946 L 47.604 42.134 L 12.702 77.102 Z " fill="rgb(13,62,72)" vector-effect="non-scaling-stroke" stroke-width="1" stroke="rgb(0,0,0)" stroke-linejoin="miter" stroke-linecap="square" stroke-miterlimit="3"/><path d=" M 55.521 33.315 L 68.755 19.782 L 61.357 14.784 L 52.16 24.471 L 55.521 33.315 L 55.521 33.315 Z " fill="rgb(13,62,72)" vector-effect="non-scaling-stroke" stroke-width="1" stroke="rgb(0,0,0)" stroke-linejoin="miter" stroke-linecap="square" stroke-miterlimit="3"/></g><path d=" M 119.985 64.919 L 112.197 64.919 L 112.197 31.657 L 112.197 31.657 Q 112.197 25.371 109.335 22.274 L 109.335 22.274 L 109.335 22.274 Q 106.473 19.178 100.375 19.178 L 100.375 19.178 L 100.375 19.178 Q 92.306 19.178 88.553 23.541 L 88.553 23.541 L 88.553 23.541 Q 84.799 27.904 84.799 37.943 L 84.799 37.943 L 84.799 64.919 L 77.012 64.919 L 77.012 13.501 L 83.345 13.501 L 84.612 20.539 L 84.987 20.539 L 84.987 20.539 Q 87.38 16.739 91.696 14.651 L 91.696 14.651 L 91.696 14.651 Q 96.012 12.563 101.313 12.563 L 101.313 12.563 L 101.313 12.563 Q 110.602 12.563 115.293 17.043 L 115.293 17.043 L 115.293 17.043 Q 119.985 21.524 119.985 31.376 L 119.985 31.376 L 119.985 64.919 Z  M 152.589 59.43 L 152.589 59.43 L 152.589 59.43 Q 154.654 59.43 156.577 59.125 L 156.577 59.125 L 156.577 59.125 Q 158.5 58.82 159.626 58.491 L 159.626 58.491 L 159.626 64.449 L 159.626 64.449 Q 158.36 65.059 155.897 65.458 L 155.897 65.458 L 155.897 65.458 Q 153.434 65.857 151.463 65.857 L 151.463 65.857 L 151.463 65.857 Q 136.545 65.857 136.545 50.141 L 136.545 50.141 L 136.545 19.553 L 129.18 19.553 L 129.18 15.8 L 136.545 12.563 L 139.829 1.585 L 144.333 1.585 L 144.333 13.501 L 159.251 13.501 L 159.251 19.553 L 144.333 19.553 L 144.333 49.812 L 144.333 49.812 Q 144.333 54.457 146.538 56.943 L 146.538 56.943 L 146.538 56.943 Q 148.742 59.43 152.589 59.43 Z  M 207.29 64.919 L 201.52 64.919 L 199.972 57.6 L 199.597 57.6 L 199.597 57.6 Q 195.75 62.432 191.926 64.145 L 191.926 64.145 L 191.926 64.145 Q 188.103 65.857 182.379 65.857 L 182.379 65.857 L 182.379 65.857 Q 174.732 65.857 170.393 61.916 L 170.393 61.916 L 170.393 61.916 Q 166.054 57.975 166.054 50.704 L 166.054 50.704 L 166.054 50.704 Q 166.054 35.129 190.965 34.378 L 190.965 34.378 L 199.69 34.096 L 199.69 30.906 L 199.69 30.906 Q 199.69 24.855 197.087 21.969 L 197.087 21.969 L 197.087 21.969 Q 194.483 19.084 188.76 19.084 L 188.76 19.084 L 188.76 19.084 Q 182.332 19.084 174.216 23.025 L 174.216 23.025 L 171.824 17.067 L 171.824 17.067 Q 175.624 15.003 180.151 13.83 L 180.151 13.83 L 180.151 13.83 Q 184.678 12.657 189.229 12.657 L 189.229 12.657 L 189.229 12.657 Q 198.424 12.657 202.857 16.739 L 202.857 16.739 L 202.857 16.739 Q 207.29 20.82 207.29 29.827 L 207.29 29.827 L 207.29 64.919 Z  M 183.928 59.43 L 183.928 59.43 L 183.928 59.43 Q 191.199 59.43 195.351 55.442 L 195.351 55.442 L 195.351 55.442 Q 199.503 51.454 199.503 44.277 L 199.503 44.277 L 199.503 39.632 L 191.715 39.961 L 191.715 39.961 Q 182.426 40.289 178.321 42.846 L 178.321 42.846 L 178.321 42.846 Q 174.216 45.403 174.216 50.798 L 174.216 50.798 L 174.216 50.798 Q 174.216 55.02 176.773 57.225 L 176.773 57.225 L 176.773 57.225 Q 179.33 59.43 183.928 59.43 Z  M 247.261 65.857 L 247.261 65.857 L 247.261 65.857 Q 242.241 65.857 238.089 64.004 L 238.089 64.004 L 238.089 64.004 Q 233.937 62.151 231.122 58.304 L 231.122 58.304 L 230.559 58.304 L 230.559 58.304 Q 231.122 62.807 231.122 66.842 L 231.122 66.842 L 231.122 88 L 223.335 88 L 223.335 13.501 L 229.668 13.501 L 230.747 20.539 L 231.122 20.539 L 231.122 20.539 Q 234.125 16.316 238.113 14.44 L 238.113 14.44 L 238.113 14.44 Q 242.1 12.563 247.261 12.563 L 247.261 12.563 L 247.261 12.563 Q 257.488 12.563 263.047 19.553 L 263.047 19.553 L 263.047 19.553 Q 268.606 26.543 268.606 39.163 L 268.606 39.163 L 268.606 39.163 Q 268.606 51.83 262.953 58.843 L 262.953 58.843 L 262.953 58.843 Q 257.3 65.857 247.261 65.857 Z  M 246.135 19.178 L 246.135 19.178 L 246.135 19.178 Q 238.253 19.178 234.735 23.541 L 234.735 23.541 L 234.735 23.541 Q 231.216 27.904 231.122 37.427 L 231.122 37.427 L 231.122 39.163 L 231.122 39.163 Q 231.122 50 234.735 54.668 L 234.735 54.668 L 234.735 54.668 Q 238.347 59.336 246.322 59.336 L 246.322 59.336 L 246.322 59.336 Q 252.984 59.336 256.761 53.941 L 256.761 53.941 L 256.761 53.941 Q 260.537 48.546 260.537 39.069 L 260.537 39.069 L 260.537 39.069 Q 260.537 29.452 256.761 24.315 L 256.761 24.315 L 256.761 24.315 Q 252.984 19.178 246.135 19.178 Z  M 306.137 65.857 L 306.137 65.857 L 306.137 65.857 Q 301.117 65.857 296.965 64.004 L 296.965 64.004 L 296.965 64.004 Q 292.814 62.151 289.999 58.304 L 289.999 58.304 L 289.436 58.304 L 289.436 58.304 Q 289.999 62.807 289.999 66.842 L 289.999 66.842 L 289.999 88 L 282.211 88 L 282.211 13.501 L 288.544 13.501 L 289.623 20.539 L 289.999 20.539 L 289.999 20.539 Q 293.001 16.316 296.989 14.44 L 296.989 14.44 L 296.989 14.44 Q 300.977 12.563 306.137 12.563 L 306.137 12.563 L 306.137 12.563 Q 316.364 12.563 321.923 19.553 L 321.923 19.553 L 321.923 19.553 Q 327.483 26.543 327.483 39.163 L 327.483 39.163 L 327.483 39.163 Q 327.483 51.83 321.83 58.843 L 321.83 58.843 L 321.83 58.843 Q 316.176 65.857 306.137 65.857 Z  M 305.011 19.178 L 305.011 19.178 L 305.011 19.178 Q 297.13 19.178 293.611 23.541 L 293.611 23.541 L 293.611 23.541 Q 290.093 27.904 289.999 37.427 L 289.999 37.427 L 289.999 39.163 L 289.999 39.163 Q 289.999 50 293.611 54.668 L 293.611 54.668 L 293.611 54.668 Q 297.223 59.336 305.199 59.336 L 305.199 59.336 L 305.199 59.336 Q 311.86 59.336 315.637 53.941 L 315.637 53.941 L 315.637 53.941 Q 319.413 48.546 319.413 39.069 L 319.413 39.069 L 319.413 39.069 Q 319.413 29.452 315.637 24.315 L 315.637 24.315 L 315.637 24.315 Q 311.86 19.178 305.011 19.178 Z " fill-rule="evenodd" fill="rgb(13,62,72)" vector-effect="non-scaling-stroke" stroke-width="1" stroke="rgb(0,0,0)" stroke-linejoin="miter" stroke-linecap="square" stroke-miterlimit="3"/></g></g></g></g></svg>