<?xml version="1.0" standalone="no"?><!-- Generator: Gravit.io --><svg xmlns="http://www.w3.org/2000/svg" xmlns:xlink="http://www.w3.org/1999/xlink" style="isolation:isolate" viewBox="0 0 664.966 195" width="664.966" height="195"><defs><clipPath id="_clipPath_UVYBli8l1qBhzeqSESJELoLN8CXGibyw"><rect width="664.966" height="195"/></clipPath></defs><g clip-path="url(#_clipPath_UVYBli8l1qBhzeqSESJELoLN8CXGibyw)"><g style="isolation:isolate" id="background"><clipPath id="_clipPath_UnMkB7T4dTzg73QShLogiWOG4ouXBmBP"><path d=" M 0 0 L 664.966 0 L 664.966 195 L 0 195 L 0 0 Z " fill="rgb(255,255,255)"/></clipPath><g clip-path="url(#_clipPath_UnMkB7T4dTzg73QShLogiWOG4ouXBmBP)"><g id="Group"><clipPath id="_clipPath_K4av3q2cIdLxoxna6ZgHhgmDoIyZhxOf"><path d=" M 49.262 46.413 C 44.686 47.333 61.801 39.589 54.444 42.129 L 49.116 44.985 L 43.72 48.032 C 45.873 45.589 41.177 46.921 41.418 48.565 C 43.745 48.082 41.298 49.389 38.804 50.839 C 36.31 52.292 33.842 53.766 36.19 53.187 C 37.376 52.217 38.733 51.372 40.111 50.622 C 41.468 49.897 42.846 49.29 44.107 48.761 C 46.622 47.695 48.707 46.97 49.262 46.413 Z  M 322.317 60.76 C 323.844 58.025 328.928 58.604 332.799 55.776 C 331.155 58.749 326.434 59.257 322.317 60.76 Z  M 539.987 62.451 C 539.891 62.571 539.671 62.863 539.333 63.275 C 539.117 63.516 539.042 63.637 538.921 63.783 C 538.8 63.928 538.655 64.095 538.488 64.266 C 538.243 64.507 538.001 64.774 537.76 65.015 L 537.71 65.065 C 538.729 64.12 535.437 67.143 539.987 62.984 L 539.987 62.959 L 539.816 62.742 L 539.504 62.305 C 539.067 61.726 538.63 61.193 538.221 60.636 C 537.809 60.106 537.397 59.598 537.01 59.112 C 536.648 58.653 536.282 58.241 535.945 57.854 C 537.301 58.703 538.776 60.152 540.228 61.797 L 540.495 62.113 L 540.64 62.284 L 540.665 62.33 C 539.358 63.541 543.617 59.645 537.71 65.04 L 537.856 64.895 L 538.026 64.703 C 538.705 64.095 538.996 63.687 539.987 62.451 Z  M 103.244 22.51 C 103.802 20.407 108.473 20.045 110.362 19.366 C 109.442 21.931 105.471 21.107 103.244 22.51 Z  M 306.293 67.967 C 304.744 68.621 303.849 66.902 304.599 65.403 C 305.444 65.427 305.735 65.694 305.906 66.177 C 306.052 66.66 306.098 67.388 306.293 67.967 Z  M 368.456 42.832 C 363.082 43.411 368.818 41.308 373.056 40.243 C 377.315 39.131 380.004 38.839 368.456 42.832 Z  M 213.507 1.318 C 212.15 2.117 209.127 2.092 205.518 1.922 C 201.913 1.78 197.7 1.535 194.116 1.705 C 194.627 1.318 197.65 0.664 201.5 0.472 C 205.351 0.231 209.972 0.448 213.507 1.318 Z  M 217.912 5.989 C 217.137 6.593 214.789 6.302 212.079 5.914 C 209.393 5.502 206.317 5.094 204.285 5.165 C 205.98 4.536 208.253 4.366 210.676 4.486 C 213.095 4.707 215.663 5.165 217.912 5.989 Z  M 536.065 69.274 C 535.628 69.807 535.341 69.999 535.12 70.049 C 534.929 70.074 534.758 69.974 534.758 69.733 C 534.733 69.516 534.733 69.25 534.662 69.104 C 534.566 68.958 534.612 68.766 534.346 68.838 C 534.566 68.596 534.783 68.425 534.953 68.354 C 535.025 68.305 535.096 68.305 535.17 68.305 C 535.266 68.305 535.362 68.283 535.437 68.305 C 535.607 68.33 535.653 68.5 535.799 68.671 C 535.945 68.791 536.04 69.008 536.065 69.274 Z  M 548.725 72.347 C 546.377 73.242 545.07 72.88 545.045 72.493 C 545.02 72.127 546.065 71.789 548.725 72.347 Z  M 100.825 33.76 C 105.908 34.318 101.162 38.914 107.698 37.22 C 106.657 39.518 102.011 38.889 100.05 39.18 C 89.785 48.952 75.551 49.219 60.98 58.92 C 63.133 57.154 65.722 55.243 68.532 53.478 C 71.363 51.663 74.439 49.872 77.537 48.299 C 79.086 47.5 80.684 46.725 82.258 46.001 C 83.806 45.301 85.38 44.647 86.904 44.04 C 89.98 42.807 92.907 41.866 95.546 41.212 C 89.834 42.008 95.401 40.363 97.436 38.165 C 91.625 38.573 84.606 43.606 79.594 45.01 C 82.062 42.857 85.426 40.971 89.181 39.06 C 92.882 37.269 96.999 35.479 100.825 33.76 Z  M 66.596 51.492 C 67.346 50.26 69.427 49.123 71.75 48.032 C 74.073 46.97 76.617 45.976 78.382 44.889 C 77.608 46.097 75.576 47.162 73.274 48.203 C 70.951 49.269 68.386 50.356 66.596 51.492 Z  M 17.747 85.7 C 19.366 84.829 19.803 86.765 22.222 83.984 C 21.86 86.183 16.003 88.893 13.534 91.579 C 11.935 92.111 13.363 90.9 14.987 89.426 C 16.631 87.952 18.496 86.328 17.747 85.7 Z  M 211.23 15.061 C 209.61 16.003 206.196 15.956 201.742 15.665 C 201.088 14.454 202.662 14.237 204.793 14.383 C 206.921 14.553 209.585 15.036 211.23 15.061 Z  M 181.772 18.517 C 179.665 19.366 176.713 20.116 174.266 20.745 C 173.033 21.036 171.726 21.349 170.369 21.665 C 169.037 21.956 167.634 22.244 166.206 22.56 C 166.668 21.182 169.595 20.212 172.817 19.608 C 173.637 19.462 174.436 19.342 175.261 19.221 C 176.131 19.1 176.98 18.979 177.875 18.905 C 179.594 18.763 180.997 18.642 181.772 18.517 Z  M 546.04 94.118 C 540.786 93.756 535.774 92.499 531.515 90.659 C 530.4 90.271 529.48 89.643 528.464 89.184 C 527.473 88.676 526.648 88.048 525.704 87.54 C 524.929 86.886 524.034 86.353 523.309 85.7 C 522.631 85.021 521.782 84.492 521.228 83.764 C 522.51 82.602 522.848 82.798 523.309 83.281 C 523.526 83.522 523.721 83.885 523.963 84.226 C 524.205 84.563 524.496 84.9 525.004 85.046 C 525.462 84.25 525.899 83.959 526.311 84.005 C 526.769 84.03 527.085 84.538 527.664 85.096 C 528.705 86.257 530.183 88.264 532.339 89.401 C 534.687 90.804 537.614 90.683 539.962 91 C 541.198 91.046 542.31 91.266 543.326 91.749 C 544.392 92.136 545.287 92.886 546.04 94.118 Z  M 520.233 81.927 C 520.088 81.927 519.942 81.902 519.821 81.853 C 519.654 81.782 519.654 81.853 519.121 81.224 C 518.297 80.283 517.328 79.121 516.532 77.935 C 514.859 75.54 513.164 72.88 511.978 70.869 C 510.792 68.862 510.092 67.53 510.575 67.751 C 511.037 67.967 512.681 69.733 515.853 74.258 C 517.306 76.315 518.152 78.055 519.001 79.604 C 519.192 79.991 519.413 80.354 519.58 80.691 C 519.75 81.007 520.017 81.441 519.967 81.465 C 520.017 81.661 520.088 81.807 520.233 81.927 Z  M 504.259 66.685 C 504.039 64.337 502.103 62.163 499.609 60.252 C 497.116 58.316 494.114 56.572 491.67 54.711 C 493.535 54.952 497.478 56.813 500.48 59.378 C 503.506 61.918 505.566 65.04 504.259 66.685 Z  M 27.501 96.612 C 29.17 93.635 42.292 84.805 42.459 86.062 C 40.402 87.419 38.925 88.481 37.738 89.376 C 36.555 90.246 35.657 90.925 34.762 91.579 C 33.891 92.232 33.021 92.836 31.881 93.586 C 30.769 94.385 29.412 95.33 27.501 96.612 Z  M 8.255 119.57 C 6.827 122.955 3.534 127.139 0 131.398 C 0.874 129.562 1.939 127.647 3.268 125.64 C 3.946 124.649 4.65 123.608 5.47 122.593 C 6.319 121.601 7.239 120.586 8.255 119.57 Z  M 47.471 113.158 M 58.824 111.005 C 51.975 117.488 44.59 121.019 39.603 125.086 C 41.784 122.06 45.39 119.278 48.949 116.763 C 52.604 114.415 56.21 112.313 58.824 111.005 Z  M 69.669 105.031 C 68.724 107.354 65.797 108.924 62.746 110.06 C 62.117 107.279 67.271 106.505 69.669 105.031 Z  M 76.059 102.878 C 78.19 100.313 81.554 99.223 84.339 98.353 C 84.073 99.223 82.403 100.359 80.609 101.255 C 78.794 102.15 76.883 102.878 76.059 102.878 Z  M 156.789 66.589 C 160.178 64.291 167.854 61.943 171.073 61.63 C 167.488 64.703 160.59 67.047 156.789 66.589 Z  M 162.068 67.655 C 159.937 69.299 154.949 72.226 151.756 71.935 C 155.653 69.225 158.825 68.088 162.068 67.655 Z  M 168.82 67.726 C 170.298 67.314 171.776 66.926 173.25 66.564 C 173.396 67.193 172.284 67.339 171.652 67.655 C 173.737 68.525 173.541 67.822 172.163 69.566 C 171.218 68.717 169.112 69.37 168.82 67.726 Z  M 85.451 108.27 C 82.524 109.19 80.222 110.618 75.526 113.108 C 73.445 113.545 84.581 105.706 85.451 108.27 Z  M 92.474 103.794 M 218.711 76.29 C 213.049 74.354 207.433 72.901 201.38 72.322 C 198.353 72.031 195.256 71.935 192.059 72.106 C 190.46 72.177 188.841 72.347 187.192 72.564 C 186.372 72.685 185.548 72.78 184.702 72.951 C 183.804 73.121 182.884 73.313 181.967 73.484 C 183.491 73.001 185.04 72.514 186.539 72.152 C 187.317 71.96 188.091 71.789 188.89 71.644 C 189.686 71.498 190.51 71.331 191.359 71.232 C 194.698 70.749 198.232 70.603 201.671 70.869 C 205.106 71.111 208.449 71.789 211.354 72.78 C 214.281 73.725 216.775 75.033 218.711 76.29 Z  M 51.755 135.704 C 54.877 134.446 55.726 131.594 59.165 130.89 C 57.712 133.867 54.298 137.252 51.755 135.704 Z  M 64.248 127.335 C 67.175 123.15 73.736 122.326 77.462 118.142 C 76.375 120.632 79.231 118.504 79.91 120.536 C 71.896 123.125 70.347 126.269 64.248 127.335 Z  M 186.105 74.137 C 184.99 75.782 179.52 75.466 176.593 76.652 C 176.422 75.999 178.333 75.299 180.56 74.837 C 181.676 74.596 182.837 74.425 183.878 74.304 C 184.894 74.208 185.644 74.162 186.105 74.137 Z  M 65.697 138.464 C 66.863 137.664 68.024 136.84 69.161 136.045 C 71.146 137.373 67.612 138.389 66.475 139.526 C 66.209 139.163 65.943 138.801 65.697 138.464 Z  M 191.38 92.207 C 191.526 90.95 192.521 90.634 193.707 90.634 C 194.893 90.612 196.222 90.925 197.217 90.758 C 198.304 91.507 197.046 91.387 195.423 91.387 C 193.778 91.362 191.746 91.507 191.38 92.207 Z  M 82.645 139.842 C 81.87 141.003 80.901 141.97 79.764 142.84 C 78.602 143.714 77.295 144.509 75.938 145.383 C 74.56 146.229 73.011 147.099 71.438 148.14 C 69.91 149.205 68.29 150.413 66.667 151.841 C 68.07 147.898 75.913 144.946 82.645 139.842 Z  M 191.892 93.514 C 192.808 91.87 195.714 93.078 197.408 92.79 C 196.297 94.214 193.608 92.911 191.892 93.514 Z  M 212.029 107.45 C 211.109 107.666 210.892 107.013 210.601 106.213 C 210.335 105.418 209.972 104.448 209.006 104.256 C 209.077 103.603 209.997 104.015 210.797 104.86 C 211.621 105.659 212.274 106.867 212.029 107.45 Z  M 215.08 110.739 C 213.748 111.343 213.24 110.764 212.949 109.965 C 212.683 109.165 212.637 108.149 212.491 108.029 C 213.969 107.45 214.185 110.014 215.08 110.739 Z  M 189.253 100.48 C 189.785 98.885 192.229 99.852 193.561 99.393 C 193.341 100.459 192.496 100.555 191.551 100.505 C 190.631 100.459 189.615 100.264 189.253 100.48 Z  M 123.555 126.198 C 126.17 125.64 126.265 125.594 128.372 123.946 C 130.379 125.278 123.31 128.617 123.555 126.198 Z  M 163.3 109.407 C 166.835 109.648 172.767 105.634 175.914 106.384 C 175.648 108.778 173.47 109.989 170.611 110.956 C 167.755 111.901 164.22 112.6 161.56 113.641 C 161.027 112.892 165.336 111.659 163.3 109.407 Z  M 192.833 102.779 C 193.728 101.184 196.005 102.466 197.458 102.224 C 197.021 103.361 196.101 103.652 195.181 103.578 C 194.261 103.528 193.295 103.141 192.833 102.779 Z  M 110.288 136.407 C 109.393 138.51 104.285 139.867 101.766 141.657 C 101.212 139.43 108.157 136.503 110.288 136.407 Z  M 119.559 134.013 C 120.188 138.414 110.046 139.504 103.752 143.614 C 107.528 138.609 115.929 137.689 119.559 134.013 Z  M 194.261 114.756 C 194.723 114.003 195.302 114.003 195.86 114.174 C 196.417 114.369 196.925 114.732 197.483 114.732 C 196.829 115.286 196.343 115.24 195.835 115.044 C 195.327 114.827 194.769 114.561 194.261 114.756 Z  M 124.401 141.994 C 127.015 139.284 135.537 135.608 138.272 136.94 C 135.974 137.956 134.013 138.73 131.881 139.48 C 129.75 140.229 127.356 140.979 124.401 141.994 Z  M 133.768 139.746 C 135.608 139.188 137.522 138.414 139.629 137.519 C 141.71 136.624 144.08 135.583 146.96 134.471 C 145 136.744 136.627 140.446 133.768 139.746 Z  M 182.788 120.269 C 178.962 121.893 172.863 124.237 166.327 126.948 C 162.867 128.351 159.478 129.729 156.477 130.965 C 153.013 132.343 149.962 133.455 147.785 134.109 C 151.102 132.631 154.683 131.061 158.317 129.462 C 161.535 128.034 164.707 126.681 167.709 125.473 C 173.737 123.029 179.037 121.239 182.788 120.269 Z  M 416.46 150.875 C 419.195 149.326 420.211 150.704 422.971 149.227 C 422.872 150.221 416.46 153.294 416.46 150.875 Z  M 425.536 149.01 C 426.385 147.124 431.468 146.687 434.008 145.454 C 433.113 147.316 428.054 147.728 425.536 149.01 Z  M 449.137 142.552 C 448.412 143.568 448.096 143.859 447.829 143.735 C 447.588 143.639 447.396 143.277 447.13 143.035 C 446.863 142.794 446.522 142.698 446.234 143.085 C 446.838 141.582 447.638 141.703 448.316 142.069 C 448.582 142.236 448.849 142.407 449.137 142.552 Z  M 222.32 163.645 C 218.856 159.702 215.663 155.471 212.637 151.017 C 213.557 151.891 216.317 154.576 218.711 157.162 C 221.059 159.802 223.119 162.316 222.32 163.645 Z  M 179.132 125.544 C 179.52 123.825 183.296 123.946 184.823 123.15 C 184.482 124.795 180.901 124.528 179.132 125.544 Z  M 519.775 38.648 C 517.498 37.728 512.585 34.438 511.495 32.744 C 510.429 31.849 508.689 30.637 506.653 29.405 C 504.646 28.172 502.345 26.915 500.238 25.824 C 496.004 23.697 492.516 22.293 494.068 22.148 C 500.046 24.496 504.668 27.277 508.689 30.083 C 512.706 32.936 516.191 35.746 519.775 38.648 Z  M 133.43 26.382 C 133.114 25.149 137.181 25.799 139.771 24.059 C 138.563 23.164 136.407 24.762 138.03 22.56 C 132.318 23.334 126.965 24.979 121.594 26.89 C 118.955 27.831 116.266 28.826 113.485 29.842 C 110.966 30.737 108.327 31.607 105.542 32.382 C 104.43 32.165 106.174 31.27 108.473 30.3 C 110.821 29.309 113.556 28.268 115.08 27.448 C 112.224 28.485 109.126 29.6 105.954 30.737 C 102.807 31.874 99.564 33.106 96.417 34.364 C 93.223 35.671 90.147 37.003 87.291 38.406 C 84.41 39.83 81.846 41.283 79.689 42.761 C 79.594 41.791 81.75 41.163 83.078 40.413 C 73.153 44.935 62.213 50.185 49.286 55.51 C 58.703 49.46 69.573 42.374 80.514 36.445 C 85.984 33.469 91.454 30.783 96.782 28.584 C 99.418 27.494 102.082 26.478 104.626 25.657 C 107.215 24.808 109.609 24.18 112.249 23.601 C 113.41 22.922 112.71 21.956 111.716 22.389 C 117.165 18.422 124.546 15.228 132.485 12.859 C 140.403 10.486 148.875 8.916 156.21 7.921 C 157.081 9.133 155.798 9.832 155.653 10.802 C 158.121 10.173 160.59 9.545 163.155 8.962 C 164.075 10.22 161.585 10.585 159.67 11.14 C 162.455 10.728 165.261 10.319 168.142 9.957 C 169.57 9.761 171.023 9.591 172.525 9.449 C 173.929 9.303 175.744 9.083 177.584 8.916 C 184.869 8.213 192.155 7.946 199.369 8.213 C 213.823 8.721 228.128 11.552 241.37 17.214 C 254.634 22.826 266.69 31.391 276.544 42.274 C 281.481 47.72 285.936 53.67 289.928 59.986 C 290.919 61.58 291.889 63.154 292.88 64.774 L 294.237 67.097 L 295.182 68.766 L 296.027 70.29 C 296.102 70.386 296.148 70.507 296.198 70.628 L 296.514 71.306 C 296.489 70.944 296.489 70.582 296.439 70.266 C 296.414 70.17 296.439 70.17 296.368 69.974 L 295.86 68.912 C 295.494 68.209 295.157 67.509 294.82 66.806 L 294.116 65.477 L 293.246 63.904 C 292.663 62.913 292.106 61.943 291.527 60.977 C 290.39 59.041 289.179 57.154 287.967 55.314 C 283.055 48.008 277.606 41.55 271.652 35.962 C 259.646 24.808 246.237 16.681 231.008 9.69 C 229.389 9.229 227.765 8.745 226.121 8.358 C 218.906 6.763 226.167 7.101 229.58 8.6 C 234.326 9.786 239.384 11.768 244.031 13.8 C 246.357 14.841 248.606 15.857 250.641 16.873 C 252.723 17.818 254.609 18.738 256.303 19.437 C 256.524 18.858 255.312 18.01 254.005 17.164 C 252.673 16.365 251.22 15.569 250.979 14.916 C 255.845 16.827 262.065 20.308 268.264 25.22 C 274.558 29.987 280.682 36.325 285.957 43.024 C 288.596 46.388 291.044 49.823 293.246 53.212 C 294.358 54.902 295.399 56.551 296.414 58.195 C 297.434 59.815 298.354 61.339 299.345 63.008 C 299.974 64.049 300.581 65.065 301.135 65.985 C 301.281 66.202 301.402 66.418 301.523 66.635 C 301.643 66.831 301.839 67.143 301.814 67.072 L 301.959 67.168 C 302.155 67.289 302.371 67.339 302.613 67.289 C 302.709 69.179 304.719 71.232 306.851 70.894 C 306.872 69.37 306.559 69.058 306.098 68.791 C 306.68 67.967 307.092 67.751 307.334 67.918 C 307.6 68.063 307.746 68.671 307.792 69.566 C 307.43 71.186 307.38 69.853 307.163 70.194 C 307.334 71.331 307.892 71.864 308.545 72.006 C 309.199 72.152 309.923 71.91 310.602 71.523 C 311.28 71.161 311.934 70.678 312.609 70.315 L 312.875 70.17 L 312.975 70.12 L 313.095 70.049 L 313.387 69.903 C 314.982 69.129 316.58 68.33 318.204 67.53 C 321.472 66.031 324.761 64.507 328.174 63.154 C 324.303 62.934 327.716 61.218 332.629 59.357 C 335.098 58.462 337.954 57.517 340.447 56.718 C 342.966 55.943 345.122 55.29 346.234 54.881 C 359.718 49.872 374.509 41.841 381.674 42.203 C 387.386 39.955 393.389 37.752 399.587 35.746 C 402.685 34.705 405.807 33.76 408.979 32.794 L 411.569 32.019 L 415.54 30.904 C 418.176 30.154 420.84 29.43 423.479 28.705 C 426.118 27.977 428.779 27.373 431.393 26.695 L 435.34 25.728 C 436.647 25.412 437.954 25.025 439.262 24.858 C 441.851 24.421 444.441 23.988 447.034 23.551 C 448.316 23.334 449.598 23.114 450.881 22.922 C 452.163 22.727 453.399 22.656 454.657 22.56 C 464.606 21.832 473.998 22.727 482.761 25.171 C 488.186 26.936 492.445 28.485 496.27 30.517 C 492.615 29.455 487.894 28.076 482.399 26.478 C 475.064 24.638 466.471 23.38 457.246 23.622 C 454.923 23.697 452.6 23.746 450.177 24.109 C 447.758 24.471 445.339 24.833 442.917 25.196 C 438.075 25.778 433.209 27.156 428.466 28.339 C 424.445 29.334 420.066 30.783 415.561 32.186 C 414.45 32.552 413.313 32.914 412.173 33.252 C 411.519 33.447 411.206 33.568 410.844 33.71 L 409.825 34.076 C 408.471 34.559 407.139 35.042 405.807 35.525 C 406.656 36.325 407.889 36.662 409.391 36.662 C 410.141 36.662 410.965 36.591 411.835 36.445 C 412.102 36.396 412.222 36.374 412.634 36.3 C 412.997 36.229 413.359 36.129 413.721 36.058 C 414.45 35.888 415.224 35.696 415.973 35.5 C 419.05 34.726 422.364 33.71 425.682 32.719 C 428.999 31.778 432.338 30.833 435.365 29.963 C 433.113 29.987 430.061 30.542 426.843 31.245 C 423.625 31.92 420.236 32.89 417.21 33.493 C 419.533 32.694 421.93 31.92 424.374 31.17 C 426.843 30.446 429.362 29.767 431.951 29.092 C 433.233 28.751 434.541 28.414 435.848 28.076 C 437.155 27.71 438.487 27.398 439.819 27.203 C 442.48 26.744 445.215 26.286 447.975 25.824 C 449.357 25.632 450.76 25.291 452.138 25.196 C 453.52 25.05 454.923 24.954 456.305 24.883 C 459.086 24.737 461.896 24.712 464.727 24.833 C 470.368 25.075 476.154 25.899 481.987 27.423 C 482.616 27.59 483.223 27.785 483.852 27.956 C 484.431 28.243 485.085 28.389 485.692 28.606 C 486.949 28.993 488.186 29.455 489.443 29.888 C 490.701 30.3 491.937 30.858 493.148 31.391 C 494.381 31.898 495.567 32.502 496.778 33.081 C 504.597 33.905 513.044 40.147 520.041 49.29 C 523.576 53.84 526.794 59.09 529.845 64.241 C 530.57 65.498 531.465 66.855 532.289 68.163 L 532.918 69.129 L 533.064 69.37 L 533.064 69.395 L 533.039 69.441 L 532.968 69.686 C 532.822 70.049 532.993 70.216 533.064 70.436 C 533.184 70.724 533.984 69.612 534.08 69.612 C 534.929 69.491 535.291 70.049 536.381 70.724 C 537.397 71.402 538.655 72.514 540.591 73.288 C 544.246 74.958 549.695 75.636 552.963 73.022 C 553.592 72.926 554.245 72.855 554.924 72.78 C 555.577 72.66 556.252 72.564 556.956 72.443 C 557.659 72.372 558.337 72.152 559.012 72.031 C 559.378 71.96 559.716 71.885 560.078 71.814 C 560.515 71.693 560.952 71.598 561.36 71.477 C 564.849 70.582 568.696 69.321 572.884 67.509 C 581.235 63.953 590.868 58.096 599.972 50.864 C 599.148 53.719 596.267 53.137 594.403 55.726 C 598.303 55.702 600.797 50.814 605.709 48.832 C 603.628 52.92 608.348 51.396 610.767 51.904 C 611.396 55.702 613.311 59.765 613.091 62.209 C 612.05 63.129 610.622 64.049 609.098 64.991 C 607.595 65.911 606 66.831 604.619 67.751 C 601.859 69.566 599.876 71.402 600.892 73.434 C 602.441 76.773 611.833 73.022 614.764 68.209 C 619.605 69.321 624.468 63.587 629.48 65.935 C 630.859 67.63 628.077 69.104 628.173 70.724 C 632.265 71.04 637.711 71.065 639.114 73.942 C 638.339 77.618 636.816 78.201 639.576 81.54 C 637.711 82.723 637.881 83.984 635.217 85.121 C 635.725 88.193 638.581 85.458 640.155 85.895 C 642.044 88.435 638.364 91.362 642.165 92.474 C 640.929 94.41 637.107 96.225 636.862 98.207 C 638.606 99.66 641.703 97.94 643.352 99.585 C 643.714 105.031 641.487 110.423 638.727 115.794 C 643.689 115.794 641.416 112.48 643.011 111.584 C 646.474 109.528 643.423 111.851 643.714 112.7 C 646.861 114.923 650.928 106.192 653.301 109.773 C 655.695 105.826 651.411 104.739 649.525 100.384 C 655.454 100.288 656.303 107.279 654.388 111.439 C 652.381 112.48 650.808 112.504 648.339 114.511 C 652.548 115.215 655.937 119.328 659.326 120.877 C 659.184 122.159 657.223 123.367 655.916 124.624 C 661.144 124.479 658.963 133.018 664.942 131.448 C 660.612 137.881 660.757 141.366 655.624 147.415 C 656.228 148.069 657.489 147.486 658.747 146.833 C 660.004 146.179 661.265 145.454 662.039 145.792 C 663.151 149.713 660.079 153.631 659.255 157.599 C 656.69 159.123 654.171 160.622 651.486 162.121 C 651.266 161.347 653.056 160.597 654.122 159.848 C 651.944 160.26 649.259 161.446 646.378 162.945 C 643.423 164.444 640.275 166.284 636.936 168 C 630.375 171.435 623.331 174.291 618.877 173.104 C 625.221 171.581 632.628 166.188 636.887 164.711 C 630.471 166.355 623.09 168.749 614.664 171.364 C 606.288 173.978 596.875 176.784 586.609 178.983 C 585.302 179.25 584.091 179.566 582.712 179.807 C 581.309 180.049 579.927 180.315 578.524 180.557 C 575.715 181.09 572.908 181.452 570.052 181.814 C 567.221 182.226 564.362 182.443 561.506 182.638 C 558.65 182.905 555.794 182.951 552.913 183.026 C 541.44 183.242 529.892 182.177 518.78 179.687 C 522.727 179.566 521.757 179.058 519.242 178.429 C 517.96 178.088 516.312 177.8 514.617 177.363 C 512.923 176.927 511.229 176.468 509.921 176.081 C 511.424 178.355 506.628 177.047 500.409 174.17 C 499.634 173.808 498.835 173.445 498.036 173.083 C 497.237 172.671 496.412 172.234 495.567 171.801 C 493.922 170.927 492.274 170.032 490.701 169.186 C 487.532 167.421 484.626 165.606 482.495 164.64 C 481.525 165.776 487.699 167.808 489.78 169.186 C 487.674 168.774 484.793 167.542 481.55 165.822 C 479.93 164.977 478.211 163.815 476.442 162.654 C 474.677 161.421 472.837 160.26 471.046 158.736 C 469.252 157.283 467.437 155.734 465.672 154.21 C 463.903 152.687 462.233 150.921 460.614 149.301 C 458.99 147.657 457.417 146.083 456.014 144.438 C 455.31 143.639 454.61 142.84 453.957 142.09 L 453.712 141.824 L 453.712 141.778 C 453.424 142.044 453.325 142.165 453.303 142.211 L 453.303 142.236 C 453.278 142.236 453.445 142.431 453.52 142.502 C 453.712 142.719 453.907 142.939 454.124 143.156 C 454.511 143.593 454.923 144.051 455.285 144.463 C 454.973 144.68 454.486 144.438 453.857 143.93 C 453.545 143.664 453.204 143.348 452.841 142.964 L 452.671 142.794 C 452.671 142.794 452.671 142.769 452.696 142.769 C 452.721 142.719 452.817 142.698 452.792 142.598 C 452.77 142.502 452.721 142.453 452.625 142.478 C 453.058 142.019 453.108 142.236 453.254 142.211 C 453.932 141.511 453.158 141.703 453.907 140.908 C 453.108 139.892 453.254 139.575 453.666 139.771 C 453.882 139.867 454.149 140.083 454.44 140.375 C 454.536 140.495 454.777 140.712 454.753 140.787 L 454.777 140.908 C 455.456 141.657 456.109 142.407 456.713 143.085 C 456.497 142.648 456.255 142.19 456.014 141.728 C 455.893 141.487 455.772 141.27 455.626 141.028 L 455.431 140.666 C 455.385 140.567 455.26 140.375 455.31 140.4 C 455.456 140.204 455.602 140.012 455.722 139.817 C 455.939 139.405 455.868 138.922 455.843 138.51 C 455.722 137.664 455.36 136.915 454.852 136.261 C 453.833 134.954 452.238 134.18 450.735 133.771 C 450.373 133.672 450.057 133.551 449.744 133.43 C 450.01 133.867 450.252 134.205 450.518 134.521 C 451.218 135.316 451.946 135.824 452.405 136.599 C 452.866 137.373 453.058 138.389 452.454 140.083 C 451.705 138.751 450.589 137.714 449.645 137.494 C 448.437 137.206 447.346 137.494 446.401 137.689 C 445.435 137.881 444.561 138.052 443.766 138.197 C 443.691 138.222 443.45 137.906 443.183 137.64 C 443.037 137.494 442.892 137.373 442.771 137.277 C 442.7 137.227 442.7 137.181 442.554 137.206 C 442.359 137.227 442.192 137.277 442.022 137.327 C 438.558 138.631 433.063 143.302 428.779 142.939 C 427.667 143.472 429.141 144.921 427.834 145.358 C 420.282 145.092 415.441 150.051 405.832 153.461 C 407.963 154.985 413.771 150.196 415.37 152.64 C 408.059 152.928 401.061 159.485 395.52 157.017 C 394.454 161.979 386.153 162.075 380.317 166.018 C 378.622 167.155 374.58 168.874 369.763 171.002 C 368.552 171.534 367.319 172.113 366.058 172.696 C 363.398 174 360.684 175.332 357.974 176.66 C 355.288 178.017 352.553 179.25 349.889 180.507 C 347.203 181.669 344.564 182.926 341.996 183.967 C 325.173 191.153 306.584 195.604 287.193 193.888 C 285.982 193.838 284.774 193.597 283.563 193.476 C 282.351 193.281 281.14 193.21 279.932 192.943 C 277.535 192.435 275.091 191.977 272.693 191.37 C 271.482 191.082 270.274 190.791 269.063 190.45 C 267.876 190.062 266.69 189.654 265.503 189.267 C 263.131 188.418 260.758 187.597 258.46 186.532 C 253.835 184.5 249.359 182.056 245.05 179.275 C 240.763 176.468 236.674 173.3 232.799 169.79 C 225.03 162.8 218.107 154.356 212.029 144.875 C 208.956 140.179 206.101 135.221 203.291 130.212 C 202.058 128.013 200.797 125.811 199.565 123.608 L 198.669 122.109 L 198.57 121.939 C 198.549 121.893 198.57 121.939 198.549 121.914 L 198.549 121.939 C 198.57 121.964 198.524 121.914 198.499 121.893 C 197.796 120.923 197.071 119.982 196.055 119.253 C 195.956 119.229 195.884 119.207 195.789 119.133 C 195.714 119.087 195.593 119.087 195.522 119.037 C 195.956 118.358 196.297 118.408 196.513 118.65 C 196.78 118.841 196.876 119.253 197.241 119.182 C 198.161 118.674 198.836 119.786 199.344 120.561 C 200.556 119.57 200.556 119.108 200.364 118.721 C 200.168 118.333 199.806 118.117 200.193 117.271 C 201.259 116.522 201.888 116.81 202.325 117.438 C 202.541 117.754 202.712 118.142 202.857 118.529 C 202.928 118.721 202.999 118.916 203.099 119.087 C 203.124 119.133 203.124 119.133 203.124 119.158 L 203.22 119.349 C 203.436 119.715 203.653 120.102 203.873 120.465 C 203.799 120.053 203.678 119.595 203.607 119.229 L 203.532 118.966 L 203.582 118.916 L 203.653 118.795 C 203.703 118.554 203.632 118.333 203.582 118.092 C 203.461 117.659 203.145 117.296 202.808 116.98 C 202.079 116.327 201.184 115.843 200.46 114.803 C 200.193 115.406 200.097 115.819 200.023 116.231 C 198.645 117.73 199.756 115.552 200.314 114.707 C 198.378 112.867 195.714 112.238 193.27 112.384 C 192.641 112.384 192.034 112.504 191.455 112.579 C 191.334 112.554 189.032 112.987 187.388 113.35 C 183.757 114.174 179.761 115.311 175.477 116.763 C 171.218 118.191 166.714 119.907 162.018 121.818 L 158.459 123.296 L 154.683 124.891 C 151.923 126.052 149.166 127.214 146.406 128.4 C 135.899 132.777 125.2 137.252 114.039 141.923 C 112.032 142.915 110.096 143.955 108.206 144.971 C 106.874 146.229 103.294 146.808 106.462 145.163 C 107.94 144.147 110.021 143.227 112.007 142.311 C 113.993 141.391 115.758 140.421 116.412 139.238 C 117.477 140.133 120.6 136.986 121.57 138.172 C 124.209 134.521 131.153 134.762 133.867 131.64 C 131.686 131.011 129.992 131.278 128.152 131.906 C 126.312 132.535 124.28 133.526 121.665 134.446 C 124.617 130.553 132.173 128.013 137.085 125.811 C 133.214 126.39 129.121 127.189 126.045 129.438 C 126.457 128.084 127.765 126.923 129.072 125.736 C 130.429 124.578 131.832 123.417 132.439 122.085 C 127.91 121.385 120.6 125.907 115.275 127.239 C 115.154 127.722 116.994 127.335 117.14 127.068 C 116.17 128.979 113.918 130.553 111.137 132.002 C 109.73 132.73 108.157 133.384 106.487 134.034 C 104.867 134.688 103.148 135.341 101.404 135.945 C 99.638 136.553 97.919 137.206 96.225 137.835 C 94.555 138.489 92.861 139.092 91.383 139.792 C 88.428 141.195 85.813 142.577 84.435 144.197 C 84.144 143.302 85.813 142.623 86.808 141.923 C 83.902 142.09 83.199 144.63 79.668 145.696 C 80.03 144.122 82.208 142.744 84.144 141.316 C 86.154 139.938 87.97 138.535 87.557 136.819 C 93.902 132.73 97.145 131.302 104.622 127.36 C 106.441 127.892 98.136 131.182 95.862 132.777 C 98.814 133.189 103.752 129.342 109.393 127.164 C 108.981 125.594 106.054 129.295 106.174 126.585 C 120.674 120.319 130.162 113.304 144.808 107.087 C 135.054 109.698 123.093 116.497 113.119 120.877 C 114.938 118.699 118.302 116.81 122.223 115.069 C 117.065 114.028 109.464 121.285 104.817 122.035 C 96.999 125.328 106.15 120.657 110.846 118.287 C 113.606 116.884 116.703 115.431 119.388 114.124 C 122.053 112.821 124.28 111.634 125.225 110.764 C 125.321 112.313 119.971 109.457 122.731 109.698 C 116.12 109.14 108.473 115.044 98.452 119.328 C 100.313 116.447 105.567 113.012 111.378 109.894 C 114.284 108.32 117.332 106.842 120.092 105.464 C 122.877 104.111 125.392 102.878 127.21 101.837 C 124.038 101.596 118.468 105.563 114.426 107.013 C 112.323 108.029 113.218 107.038 113.023 106.192 C 109.975 107.617 107.02 109.094 103.993 110.544 C 101.791 112.167 96.25 113.762 101.283 111.176 C 106.583 107.496 115.396 103.265 122.44 102.537 C 124.425 101.642 124.425 100.359 127.21 99.635 C 118.714 101.208 103.194 107.762 92.982 114.707 C 92.737 113.545 91.77 113.932 90.776 114.391 C 89.785 110.377 95.546 110.085 98.694 108.029 C 110.504 100.214 120.77 92.594 139.604 86.161 C 140.936 86.57 127.015 92.836 138.442 88.119 C 140.112 89.572 137.014 90.03 135.562 90.854 C 141.153 91.458 147.88 86.304 152.456 86.545 C 154.104 88.46 149.575 88.701 148.026 89.788 C 149.166 90.296 151.127 89.426 152.044 90.296 C 151.003 91.046 148.463 92.303 145.437 93.706 C 142.485 95.109 138.684 96.804 135.682 98.061 C 144.225 95.159 151.269 92.669 158.171 90.467 C 164.995 88.289 171.385 86.328 177.584 84.854 C 179.132 84.467 180.656 84.126 182.184 83.813 C 182.933 83.668 183.708 83.476 184.457 83.355 L 186.588 82.968 C 189.032 82.556 191.551 82.215 194.116 82.048 C 199.273 81.732 204.818 81.973 210.455 83.885 C 208.74 82.602 206.438 81.707 203.969 81.153 C 201.5 80.595 198.911 80.329 196.513 80.038 C 197.916 79.217 199.078 79.121 200.289 79.096 C 201.525 79.071 202.808 79.121 204.673 78.759 C 201.476 77.498 198.549 76.99 195.448 76.944 C 192.35 76.894 189.153 77.306 185.16 78.297 C 185.21 78.926 185.573 79.242 186.009 79.387 C 186.443 79.53 187.001 79.508 187.58 79.434 C 188.766 79.267 190.098 79.022 190.705 79.604 C 189.64 79.917 188.5 80.162 187.292 80.499 C 185.96 80.837 184.557 81.178 183.104 81.54 C 179.957 82.314 176.493 83.21 172.984 84.176 C 165.94 86.087 158.558 88.193 152.626 89.376 C 160.132 86.957 165.94 84.297 175.236 81.807 C 169.449 81.927 165.94 83.813 160.324 85.046 C 159.5 85.288 161.439 83.959 163.421 82.918 C 165.407 81.853 167.393 81.128 166.643 82.215 C 170.71 80.304 176.01 77.864 181.239 76.29 C 182.521 75.878 183.878 75.54 185.065 75.249 C 186.226 75.008 187.317 74.766 188.379 74.645 C 190.535 74.379 192.496 74.379 194.069 74.741 C 193.995 74.716 193.803 75.057 193.657 75.395 C 193.487 75.732 193.366 76.095 193.341 76.095 C 196.417 75.636 200.144 73.725 203.678 73.821 C 208.615 73.942 213.578 75.033 218.153 77.331 C 222.728 79.554 226.82 83.014 230.163 87.298 C 231.179 85.579 228.998 83.426 226.554 81.686 C 224.11 79.942 221.496 78.563 222.028 76.652 C 222.341 77.064 222.948 77.547 223.723 78.126 C 224.11 78.418 224.547 78.709 225.03 79.022 C 225.488 79.363 225.975 79.7 226.483 80.062 C 228.54 81.49 230.767 83.256 232.511 84.879 C 229.872 80.304 226.65 77.498 223.215 75.274 C 219.727 73.072 216.071 71.281 211.376 69.129 C 211.255 69.058 213.482 68.45 213.99 69.179 C 212.175 66.514 206.413 65.186 199.977 65.378 C 196.755 65.427 193.366 65.765 190.123 66.127 C 186.83 66.514 183.804 66.88 180.706 66.926 C 182.642 65.356 180.415 64.461 185.619 64.12 C 183.345 63.904 181.434 63.975 179.761 64.145 C 178.092 64.337 176.639 64.628 175.115 64.991 C 172.088 65.74 168.845 66.71 163.084 67.942 C 167.101 64.991 172.33 63.442 177.779 62.284 C 183.296 61.122 188.816 60.323 194.457 58.653 C 194.02 59.257 193.608 59.865 192.567 60.057 C 197.749 59.865 201.984 59.478 206.246 59.598 C 210.455 59.74 214.743 60.444 219.244 63.008 C 219.414 62.234 217.865 61.847 216.846 61.435 C 219.414 61.339 223.02 62.838 226.216 64.703 C 229.435 66.539 232.34 68.596 234.518 68.813 C 231.129 66.006 226.941 63.225 222.295 61.243 C 217.67 59.232 212.587 58.145 207.962 58 C 207.82 56.551 209.635 56.934 211.159 57.201 C 204.381 55.435 195.11 54.615 185.452 55.677 C 175.818 56.671 166.377 59.211 158.388 62.426 C 158.945 63.179 160.832 62.234 162.235 61.897 C 157.443 64.195 151.053 66.418 145.025 68.791 C 138.996 71.136 133.359 73.605 129.992 75.807 C 130.112 77.693 132.294 76.194 133.38 76.482 C 131.736 78.467 125.441 79.192 121.349 81.828 C 126.312 82.29 136.236 74.546 138.684 79.242 C 139.409 77.935 142.119 77.039 144.421 76.095 C 142.605 74.912 137.568 79 136.503 76.556 C 140.499 74.741 146.332 72.926 150.907 74.933 C 154.321 70.869 162.551 70.29 166.689 70.241 C 164.778 72.152 161.318 72.709 158.025 73.409 C 154.757 74.088 151.656 74.933 150.761 77.135 C 152.843 77.739 154.15 77.064 156.111 75.828 C 153.908 77.764 150.616 79.7 146.744 81.707 C 142.872 83.693 138.417 85.749 133.672 87.806 C 124.255 91.845 114.451 95.497 108.256 98.086 C 104.746 97.457 110.629 95.738 112.732 94.53 C 108.714 94.722 112.465 93.127 115.566 91.749 C 108.302 94.53 102.132 97.287 95.546 100.58 C 88.939 103.819 81.966 107.666 73.253 112.821 C 70.539 114.778 71.534 112.433 73.711 111.78 C 75.018 110.98 76.35 110.206 77.707 109.457 C 80.03 108.27 78.166 106.601 81.892 105.563 C 83.977 104.402 83.128 105.464 83.345 106.288 C 85.646 104.182 82.499 104.789 84.531 102.633 C 93.198 97.774 100.75 95.596 109.925 90.733 C 100.846 94.072 92.882 97.528 85.259 101.208 C 77.608 104.86 70.273 108.778 62.575 113.229 C 66.863 109.94 73.565 105.343 80.563 100.942 C 87.582 96.612 94.942 92.545 100.313 90.151 C 103.34 89.813 96.903 92.474 95.521 93.223 C 97.749 94.481 102.469 91.021 106.27 89.522 C 103.194 86.716 114.451 85.82 119.921 83.231 C 119.488 81.853 116.753 84.321 115.371 84.563 C 112.323 84.829 118.834 82.336 120.237 81.636 C 113.893 81.878 108.498 86.112 100.026 89.547 C 102.761 87.465 105.858 83.934 111.716 81.128 C 104.601 83.281 96.005 87.756 87.412 92.644 C 78.794 97.507 70.202 102.779 62.575 106.118 C 62.213 101.908 69.644 100.384 74.485 96.054 C 67.708 96.708 58.22 104.544 54.394 105.901 C 61.076 100.072 69.548 94.918 78.698 89.838 C 87.874 84.758 97.774 79.846 107.578 74.304 C 103.414 73.409 101.695 76.556 98.04 76.556 C 98.232 78.031 99.83 77.111 101.212 76.532 C 100.338 79.363 95.983 77.064 92.836 79.071 C 92.52 79.267 91.309 82.023 91.117 82.119 C 89.156 83.16 84.364 85 81.238 85.966 C 78.141 87.007 76.713 87.128 81.579 84.709 C 76.979 86.716 73.47 88.556 70.056 90.563 C 68.337 91.529 66.642 92.499 64.852 93.514 C 63.062 94.555 61.172 95.596 59.019 96.658 C 57.613 97.166 58.895 95.738 57.979 94.967 C 56.426 96.225 54.078 97.628 51.876 99.031 C 50.789 99.756 49.723 100.48 48.874 101.255 C 48.029 102.054 47.35 102.878 46.963 103.723 C 46.889 102.271 47.663 100.942 48.924 99.78 C 50.182 98.619 51.901 97.578 53.691 96.562 C 57.25 94.481 61.101 92.765 62.067 90.151 C 61.318 88.968 59.573 89.838 57.613 91.12 C 56.646 91.795 55.606 92.523 54.636 93.198 C 53.67 93.902 52.75 94.506 51.926 94.822 C 56.547 96.491 45.461 96.441 41.393 101.109 C 42.171 99.827 44.203 98.015 46.48 96.37 C 48.778 94.797 51.272 93.319 52.917 92.594 C 50.11 92.136 45.51 95.33 41.081 98.885 C 39.965 99.756 38.854 100.601 37.763 101.45 C 36.697 102.295 35.657 103.095 34.641 103.773 C 32.655 105.127 30.815 105.997 29.366 105.901 C 37.571 99.006 44.807 93.248 53.354 87.199 C 61.875 81.178 71.75 74.958 85.209 67.992 C 83.902 65.477 80.926 65.815 76.567 68.596 C 77.512 69.541 80.272 67.289 80.442 69.587 C 78.602 69.104 75.576 70.724 73.274 71.015 C 77.608 68.766 70.393 69.612 77.753 66.493 C 71.679 67.314 64.223 73.242 56.742 77.064 C 58.412 74.887 60.98 73.143 63.349 71.765 C 65.697 70.461 67.854 69.541 68.749 68.912 C 69.814 68.138 68.919 67.143 68.12 67.726 C 72.962 64.145 70.951 66.735 81.096 61.822 C 82.957 60.493 79.544 61.435 81.117 59.598 C 83.298 58.678 85.209 57.709 86.954 56.742 C 88.694 55.798 90.293 54.831 91.866 53.865 C 95.038 51.904 98.065 50.039 102.082 48.299 C 101.621 47.67 100.217 48.54 99.13 48.928 C 102.711 46.775 105.205 44.935 110.362 43.148 C 109.442 41.138 105.084 44.768 103.365 44.09 C 105.809 42.516 108.423 41.092 111.062 39.784 C 112.369 39.131 113.726 38.502 115.08 37.898 L 117.14 36.978 C 117.889 36.662 118.639 36.349 119.388 36.008 C 125.491 33.447 132.073 31.05 138.975 28.389 C 139.629 29.284 138.393 29.817 138.634 30.637 C 144.104 28.655 145.92 28.464 145.12 28.972 C 144.346 29.479 141.078 30.762 136.819 32.019 C 137.522 34.751 141.199 34.122 145.412 32.769 C 149.6 31.391 154.491 29.334 156.885 28.851 C 153.837 28.098 147.081 31.557 142.847 32.648 C 141.344 32.382 141.877 31.195 142.63 32.019 C 150.303 29.067 157.709 26.574 165.94 24.638 C 167.975 24.155 170.103 23.721 172.284 23.309 C 173.346 23.093 174.511 22.922 175.623 22.752 C 176.252 22.656 176.859 22.56 177.488 22.464 C 178.166 22.364 178.841 22.293 179.545 22.198 C 185.015 21.519 190.776 21.157 196.851 21.373 C 200.556 21.253 200.314 22.922 202.541 23.48 C 208.086 23.576 211.4 23.746 214.356 24.155 C 217.308 24.567 219.897 25.171 223.769 26.744 C 226.675 27.906 227.62 28.51 227.524 28.559 C 227.403 28.631 226.216 28.197 224.618 27.735 C 221.471 26.695 216.725 25.558 216.654 25.753 C 216.388 26.503 220.625 27.348 225.659 28.68 C 230.692 29.987 236.433 32.041 239.505 33.398 C 238.198 32.115 237.665 31.511 238.173 31.486 C 238.656 31.486 240.159 32.115 242.652 33.543 C 242.336 32.527 240.375 31.341 237.981 30.375 C 235.633 29.309 232.848 28.51 231.079 27.615 C 233.331 27.519 233.839 27.203 233.26 26.695 C 232.678 26.187 230.983 25.583 228.877 25.05 C 226.795 24.496 224.256 24.155 222.053 23.913 C 219.847 23.746 217.961 23.672 217.091 23.792 C 215.905 22.585 213.191 21.665 210.143 21.082 C 208.615 20.745 207.042 20.503 205.518 20.262 C 204.019 19.995 202.591 19.729 201.38 19.413 C 196.563 19.05 194.769 19.075 195.036 18.93 C 195.281 18.858 197.554 18.688 200.751 18.763 C 202.346 18.784 204.186 18.858 206.101 19.004 C 208.036 19.125 210.043 19.366 212.004 19.608 C 215.951 20.116 219.68 20.89 222.195 21.494 C 227.353 22.752 232.266 24.421 236.82 26.382 C 241.37 28.389 245.604 30.591 249.43 33.01 C 257.152 37.799 263.422 43.024 268.821 47.429 C 268.239 47.841 269.883 50.039 272.21 53.233 C 274.558 56.426 277.606 60.589 280.199 64.653 C 281.506 66.685 282.714 68.596 283.779 70.361 C 284.241 71.136 284.675 71.885 285.062 72.514 C 285.353 73.022 285.595 73.484 285.815 73.871 C 286.61 75.395 286.61 75.707 285.111 73.917 L 284.021 72.006 L 282.447 69.345 C 281.407 67.63 280.366 65.935 279.279 64.266 C 274.508 58.462 268.7 50.792 262.431 45.589 C 265.454 50.114 268.942 54.927 272.523 60.081 C 274.316 62.671 276.132 65.356 277.972 68.113 C 279.641 70.653 281.336 73.217 283.03 75.828 C 283.9 77.16 283.996 77.135 284.383 77.597 L 285.378 78.684 C 286.031 79.387 286.66 80.062 287.314 80.766 C 288.571 82.094 289.712 83.355 290.632 84.684 C 290.266 82.798 289.25 81.153 288.305 79.434 C 287.847 78.588 287.41 77.718 287.143 76.869 C 286.998 76.436 286.902 75.999 286.877 75.587 L 286.856 75.274 L 286.856 75.128 L 286.731 74.766 C 286.564 74.258 286.419 73.775 286.323 73.288 C 286.856 73.555 287.339 73.917 287.797 74.354 C 287.847 74.404 287.918 74.475 287.967 74.5 L 288.063 74.525 C 288.113 74.546 288.184 74.571 288.234 74.596 C 288.33 74.645 288.429 74.716 288.5 74.812 C 288.816 75.128 289.008 75.565 289.154 76.048 C 289.47 76.99 289.687 78.08 290.582 78.201 C 290.532 76.944 290.124 75.807 289.637 74.692 C 289.516 74.404 289.395 74.137 289.275 73.871 C 288.838 73.072 288.404 72.248 287.992 71.452 C 287.385 70.337 286.781 69.25 286.202 68.163 C 285.524 66.951 284.87 65.765 284.241 64.603 C 285.424 65.427 286.515 66.372 287.509 67.434 C 288.017 67.992 288.525 68.596 288.983 69.179 C 289.346 69.587 289.687 69.999 289.999 70.411 C 290.315 70.823 290.607 71.257 290.873 71.693 L 291.477 72.685 C 291.623 72.926 291.697 73.217 291.768 73.509 C 292.06 74.67 292.155 76.169 293.488 76.556 C 293.995 75.199 294.045 74.088 293.825 73.097 C 293.704 72.613 293.534 72.127 293.292 71.669 C 292.834 70.845 292.351 70.024 291.864 69.2 C 291.115 67.942 290.34 66.685 289.591 65.427 C 286.152 59.865 282.376 54.515 278.721 49.897 C 275.066 45.251 271.578 41.308 269.038 38.115 C 269.496 37.657 270.803 39.081 271.773 39.88 C 272.356 38.211 266.207 34.097 263.784 31.778 C 263.227 32.019 263.251 32.502 263.663 33.01 C 264.026 33.568 264.729 34.218 265.454 34.872 C 263.568 33.518 261.557 32.14 259.646 30.616 C 257.685 29.138 255.7 27.689 253.739 26.307 C 251.753 24.979 249.842 23.647 247.931 22.631 C 246.986 22.098 246.066 21.615 245.192 21.182 C 244.297 20.77 243.427 20.429 242.603 20.141 C 243.16 19.558 245.533 20.841 247.228 21.665 C 243.256 18.738 237.907 15.978 231.637 13.946 C 225.392 11.889 218.253 10.511 210.797 9.882 C 203.34 9.229 195.593 9.349 188.041 9.882 C 184.265 10.149 180.536 10.511 176.859 10.898 C 175.211 11.069 173.612 11.236 172.017 11.406 C 170.589 11.527 169.158 11.672 167.78 11.793 C 167.488 13.317 169.836 12.663 171.918 12.351 C 169.911 13.342 168.192 14.045 166.544 14.454 C 164.949 14.891 163.446 15.083 161.968 15.083 C 163.688 15.519 166.085 15.278 169.016 14.891 C 170.465 14.674 172.039 14.429 173.662 14.166 C 174.557 14.02 175.477 13.875 176.397 13.754 C 177.413 13.633 178.454 13.488 179.473 13.367 C 187.679 12.326 195.81 12.592 198.645 15.324 C 191.284 14.553 184.07 14.937 177.246 15.931 C 175.477 16.173 174.099 16.439 172.742 16.681 C 171.339 16.923 170.057 17.235 168.725 17.526 C 166.085 18.13 163.542 18.763 161.123 19.462 C 151.269 22.414 142.701 25.341 133.43 26.382 Z  M 658.697 142.407 C 658.164 141.778 657.61 141.22 656.253 142.357 C 648.992 146.616 640.883 151.283 631.853 155.93 C 622.824 160.551 612.849 165.148 601.883 168.92 C 599.123 169.865 596.413 170.785 593.532 171.581 C 592.104 171.993 590.701 172.405 589.273 172.792 C 587.82 173.154 586.368 173.516 584.915 173.879 C 582.13 174.607 578.841 175.186 575.764 175.79 C 572.667 176.372 569.545 176.71 566.443 177.122 C 554.075 178.475 541.852 178.188 530.233 176.419 C 527.618 178.45 535.195 177.534 534.421 178.962 C 522.968 178.283 525.075 176.639 519.942 174.582 C 511.811 173.492 500.65 169.961 488.839 163.624 C 485.884 162.025 482.907 160.381 479.93 158.398 C 478.453 157.429 476.954 156.462 475.476 155.493 L 471.093 152.253 C 468.141 150.147 465.331 147.703 462.55 145.309 L 460.468 143.518 L 458.457 141.632 C 457.804 141.003 457.125 140.375 456.472 139.746 C 456.255 139.526 456.28 139.575 456.255 139.575 L 456.109 139.575 C 456.134 139.575 456.181 139.575 456.205 139.575 L 456.28 139.575 L 456.497 139.817 C 457.125 140.471 457.708 141.099 458.241 141.703 C 459.306 142.915 460.152 143.98 460.685 144.68 C 461.725 146.108 461.193 146.591 457.974 144.463 C 459.74 146.083 461.654 147.703 463.615 149.422 C 464.606 150.268 465.576 151.188 466.617 152.012 C 467.658 152.832 468.698 153.656 469.764 154.477 C 473.973 157.89 478.502 160.864 482.882 163.549 C 485.085 164.807 487.241 165.968 489.322 167.034 C 491.404 168.075 493.414 168.849 495.301 169.574 C 499.077 171.073 502.298 171.68 504.693 171.701 C 512.852 176.252 522.631 178.887 531.952 179.903 C 541.319 180.944 550.299 180.607 557.876 180.266 C 557.705 181.065 555.336 181.839 557.972 182.251 C 560.394 181.718 562.863 181.21 565.332 180.749 C 567.8 180.241 570.319 179.733 572.859 179.225 C 577.921 178.188 583.295 177.026 588.037 175.84 C 597.816 173.492 607.549 170.735 616.579 167.517 C 634.684 161.059 649.863 152.832 658.697 142.407 Z  M 322.438 68.113 C 326.601 65.211 332.242 65.644 334.664 62.234 C 333.307 62.596 329.869 63.854 326.942 65.09 C 324.036 66.372 321.663 67.676 322.438 68.113 Z  M 470.659 25.799 C 465.018 25.1 462.187 25.366 461.313 25.558 C 460.443 25.799 461.534 26.066 463.637 26.357 C 465.743 26.624 468.865 27.011 472.112 27.423 C 475.38 27.785 478.744 28.339 481.479 28.439 C 478.357 28.197 474.748 26.286 470.659 25.799 Z  M 293.271 68.283 C 293.534 68.813 293.8 69.299 294.045 69.782 C 294.166 70.024 294.287 70.266 294.408 70.482 C 294.503 70.678 294.699 71.04 294.649 71.015 C 294.699 71.232 294.72 71.452 294.72 71.669 C 294.745 72.106 294.745 72.514 294.82 72.88 C 294.94 73.605 295.328 74.233 296.66 74.258 C 296.393 73.896 296.248 72.805 296.006 71.91 C 295.885 71.477 295.715 71.04 295.494 70.749 C 295.423 70.653 295.399 70.678 295.253 70.482 C 295.011 70.145 294.795 69.829 294.578 69.541 C 294.091 69.033 293.658 68.596 293.271 68.283 Z  M 298.183 77.864 C 299.441 79.675 300.581 79.796 301.864 81.103 C 302.105 79.508 301.501 78.684 300.702 78.226 C 299.928 77.739 298.887 77.597 298.183 77.864 Z  M 305.785 81.37 C 306.993 81.199 307.746 81.586 308.495 81.686 C 309.22 81.757 309.948 81.49 310.627 79.796 C 309.973 80.258 308.858 80.354 307.913 80.425 C 306.947 80.499 306.098 80.57 305.785 81.37 Z  M 310.723 84.854 C 311.231 84.513 310.506 83.739 310.893 83.355 C 311.522 83.185 314.328 82.144 312.804 81.853 C 311.909 82.627 310.868 82.702 309.973 82.723 C 309.053 82.773 308.254 82.723 307.504 83.476 C 307.359 82.481 306.73 82.144 306.123 82.094 C 305.519 82.048 304.865 82.314 304.744 82.773 C 306.439 84.03 308.446 84.925 310.723 84.854 Z  M 381.116 55.776 C 380.754 54.735 383.635 54.444 383.539 53.453 C 381.72 53.791 383.706 52.629 384.047 51.855 C 375.113 55.339 364.343 56.718 357.757 60.71 C 360.929 58.774 363.011 60.081 361.629 61.968 C 367.657 60.493 366.882 57.662 372.548 56.163 C 373.273 56.888 374.097 56.767 373.273 58.025 C 379.01 57.25 380.171 53.84 381.116 55.776 Z  M 301.064 82.361 C 300.215 82.194 299.491 81.345 298.862 80.595 C 298.208 79.846 297.626 79.217 296.731 79.363 C 297.384 79.871 297.942 80.862 298.642 81.611 C 299.32 82.386 300.169 82.869 301.064 82.361 Z  M 422.197 40.267 C 419.17 41.358 416.968 41.841 414.862 42.203 L 414.112 42.324 L 413.554 42.395 C 413.213 42.445 412.876 42.495 412.514 42.541 C 411.81 42.662 411.086 42.807 410.286 43.049 C 410.045 43.944 409.679 44.814 408.93 45.567 C 409.1 43.074 405.395 45.468 404.841 46.171 C 405.495 43.798 400.919 43.486 400.312 45.542 C 402.056 45.251 400.387 46.413 400.941 47.429 C 404.042 45.954 402.926 48.228 402.539 49.002 C 403.921 49.485 406.098 49.123 408.567 48.395 C 409.803 48.032 411.111 47.599 412.439 47.112 L 414.4 46.363 L 415.49 45.954 C 415.973 45.784 416.481 45.613 416.968 45.446 C 420.84 44.114 424.399 42.882 426.722 42.299 C 429.045 41.766 430.111 41.887 429.07 43.123 C 430.91 42.495 434.516 41.987 437.301 41.525 C 438.704 41.258 439.89 41.113 440.569 40.921 C 441.247 40.726 441.439 40.484 440.81 40.172 C 440.253 40.243 439.649 40.363 439.02 40.484 C 438.391 40.655 437.784 40.825 437.205 40.946 C 436.068 41.212 435.123 41.308 434.857 40.921 C 438.945 39.639 442.892 39.01 446.693 38.211 C 450.493 37.365 454.099 36.857 457.466 36.47 C 464.194 35.621 470.077 35.163 475.185 33.76 C 472.233 33.227 469.252 32.89 466.251 32.769 C 465.963 34.726 462.841 35.138 459.498 35.333 C 456.159 35.479 452.454 35.454 451.197 35.5 C 451.243 34.584 453.836 34.559 454.245 33.785 C 453.374 33.689 452.238 33.76 450.906 33.977 C 449.573 34.268 448.05 34.68 446.426 35.163 C 444.828 35.646 443.133 36.204 441.439 36.761 C 440.594 37.024 439.769 37.316 438.945 37.582 C 438.125 37.898 437.301 38.236 436.526 38.552 C 430.232 41.017 425.319 42.516 426.818 38.914 C 422.147 39.447 421.856 43.631 419.508 42.374 C 421.131 41.816 421.664 41.042 422.197 40.267 Z  M 467.15 36.204 C 468.116 36.253 469.086 36.349 470.052 36.445 C 470.368 37.39 468.698 37.074 467.025 36.882 C 465.356 36.662 463.661 36.541 464.024 37.436 C 468.553 37.777 473.54 38.427 478.382 39.784 L 480.122 40.317 C 480.68 40.605 481.262 40.751 481.817 40.971 C 482.957 41.358 484.044 41.816 485.109 42.274 C 486.2 42.711 487.191 43.269 488.161 43.798 C 489.152 44.306 490.047 44.935 490.942 45.493 C 494.43 47.887 497.07 50.551 498.544 53.112 C 501.378 53.865 500.504 52.05 502.053 52.533 C 505.421 55.581 508.976 59.041 512.585 62.984 C 514.376 64.969 516.216 67.047 518.056 69.225 C 519.921 71.427 521.636 73.605 523.721 75.999 L 524.471 76.894 L 524.638 77.089 L 524.688 77.111 L 524.762 77.185 L 525.075 77.452 C 525.245 77.643 525.537 77.789 525.778 77.935 C 526.286 78.226 526.648 78.634 527.206 78.926 C 527.714 79.242 528.126 79.654 528.684 79.991 C 529.213 80.329 529.6 80.812 530.183 81.199 C 530.545 81.515 530.812 81.902 531.053 82.361 C 531.32 82.822 531.586 83.256 531.852 83.693 C 532.144 84.151 532.435 84.659 532.868 85.046 C 533.33 85.408 533.913 85.749 534.612 85.991 C 535.241 86.233 536.016 86.183 536.694 86.161 C 537.397 86.137 538.076 86.062 538.8 85.941 C 539.529 85.845 540.228 85.796 540.957 85.916 C 541.731 85.941 542.481 86.137 543.326 86.57 C 543.592 85.966 544.441 85.217 545.312 84.879 C 546.207 84.538 547.105 84.684 547.709 85.604 C 546.885 85.749 545.773 85.192 545.532 86.112 C 546.619 85.87 549.088 87.103 549.329 85.654 C 547.081 85.483 549.233 85.217 549.354 84.321 C 545.773 83.522 542.697 83.934 539.479 83.813 C 536.332 83.739 532.893 82.968 530.812 80.016 C 532.289 80.741 532.073 80.304 531.54 79.53 C 530.908 78.855 530.233 77.764 530.183 77.306 C 529.892 77.476 529.6 77.668 529.288 77.885 C 529.021 78.08 528.73 78.272 528.439 78.443 C 527.86 78.78 527.302 79.022 526.744 78.926 C 526.457 78.588 526.382 78.126 526.212 77.764 C 526.091 77.377 525.899 77.089 525.899 76.677 C 525.874 76.482 525.874 76.315 525.849 76.119 L 525.849 75.999 C 525.824 75.928 525.899 75.999 525.753 75.732 C 525.537 75.37 525.316 75.008 525.1 74.645 C 524.663 73.917 524.251 73.192 523.842 72.493 C 523.455 71.789 523.089 71.111 522.727 70.436 C 519.775 65.015 517.04 59.865 512.923 54.394 C 509.801 52.629 507.428 49.436 508.156 53.499 C 507.136 51.567 504.451 49.29 503.24 47.5 C 503.506 49.848 501.329 49.123 498.86 47.62 C 496.366 46.146 493.461 43.969 492.59 42.782 C 493.581 42.058 496.803 44.622 496.245 41.841 C 492.565 41.067 491.208 37.969 488.015 38.331 C 489.635 39.372 490.484 40.413 489.976 41.454 C 487.191 40.871 483.244 39.06 479.056 37.461 C 474.893 36.108 470.489 35.284 467.15 36.204 Z  M 442.022 33.202 C 434.299 35.113 422.122 37.34 417.281 40.317 C 421.106 39.01 426.044 37.752 430.619 36.687 C 432.921 36.129 435.123 35.575 437.059 34.946 C 439.02 34.268 440.714 33.881 442.022 33.202 Z  M 347.104 69.662 C 349.452 68.354 352.091 67.097 353.107 65.548 C 350.713 66.88 343.015 67.655 345.363 68.259 C 346.5 67.871 346.816 68.766 347.104 69.662 Z  M 533.209 77.547 C 532.023 77.16 530.932 76.336 530.183 75.587 C 529.991 75.42 529.771 75.249 529.554 75.128 C 529.384 74.958 529.213 74.812 529.021 74.716 C 528.826 74.62 528.609 74.549 528.368 74.5 C 528.172 74.425 527.956 74.379 527.714 74.404 C 527.906 74.525 528.005 74.692 528.197 74.837 C 528.393 74.983 528.584 75.128 528.755 75.32 C 529.021 75.757 529.554 76.048 529.916 76.46 C 530.329 76.844 530.932 77.111 531.419 77.377 C 532.023 77.572 532.652 77.643 533.209 77.547 Z  M 546.935 80.886 C 546.328 80.933 545.653 80.862 544.924 80.766 C 544.225 80.691 543.546 80.425 542.868 80.329 C 542.53 80.258 542.189 80.208 541.877 80.183 C 541.585 80.112 541.294 80.062 541.003 80.062 C 540.445 80.038 539.916 80.162 539.454 80.45 C 540.616 80.425 541.898 81.007 543.305 81.224 C 544.658 81.611 546.111 81.54 546.935 80.886 Z  M 553.496 81.565 C 553.034 81.661 552.309 81.274 551.556 81.128 C 550.807 80.982 550.032 81.032 549.404 81.636 C 550.178 81.661 550.807 81.973 551.436 82.169 C 552.068 82.314 552.721 82.386 553.496 81.565 Z  M 554.295 85.508 C 557.464 84.758 565.211 82.893 569.711 81.807 C 569.132 81.394 567.751 81.249 566.056 81.394 C 565.211 81.465 564.291 81.49 563.346 81.636 C 562.355 81.807 561.506 81.902 560.685 82.048 C 559.037 82.435 557.368 82.702 556.181 83.355 C 554.97 83.838 554.196 84.563 554.295 85.508 Z  M 295.74 85.675 C 297.505 87.298 298.958 88.772 300.702 89.667 C 302.418 90.563 304.524 90.779 306.993 89.376 C 304.84 89.184 302.684 88.747 300.773 88.023 C 298.837 87.319 297.192 86.378 295.74 85.675 Z  M 576.901 79.966 C 576.056 78.418 580.801 79.046 578.741 77.064 C 577.7 77.111 576.684 77.814 576.201 78.514 C 575.739 79.192 575.789 79.871 576.901 79.966 Z  M 496.778 53.478 C 499.538 55.46 501.012 57.396 501.353 59.041 C 497.723 55.655 493.897 52.991 489.805 50.792 C 487.724 49.752 485.642 48.736 483.415 47.937 C 481.213 47.112 478.936 46.438 476.613 45.734 C 472.716 44.743 468.673 44.019 464.436 43.411 C 469.277 42.857 473.32 43.461 477 44.427 C 483.319 46.363 488.619 49.194 495.688 52.629 C 495.034 51.08 493.048 48.881 489.951 46.75 C 489.177 46.217 488.353 45.663 487.433 45.18 C 486.537 44.672 485.592 44.114 484.552 43.702 C 482.52 42.761 480.268 41.962 477.945 41.212 C 473.806 40.097 469.352 39.518 465.114 39.447 C 464.148 40.992 466.762 40.971 469.665 41.113 C 472.57 41.212 475.767 41.646 475.813 42.736 C 468.578 41.599 461.8 41.5 455.31 41.912 C 453.69 42.008 452.067 42.178 450.493 42.374 C 448.895 42.662 447.321 42.928 445.748 43.194 C 442.65 43.798 439.624 44.26 436.743 45.276 C 439.578 44.693 442.117 44.693 444.782 44.427 C 447.442 44.235 450.227 43.752 453.57 43.34 C 453.57 44.26 452.817 44.914 452.067 45.542 C 460.226 44.427 468.382 44.285 476.442 46.292 C 478.815 46.992 481.163 47.766 483.44 48.686 C 484.577 49.148 485.667 49.727 486.779 50.235 C 487.845 50.839 488.935 51.372 489.976 52.025 C 488.04 53.162 490.047 54.494 492.374 56.039 C 494.722 57.566 497.382 59.453 497.261 60.735 C 495.979 59.886 494.285 58.17 492.59 56.888 C 490.921 55.581 489.322 54.661 488.594 55.073 C 490.146 57.25 492.033 59.549 493.656 62.017 C 491.429 60.856 489.006 59.765 486.054 58.483 C 485.305 58.195 484.53 57.879 483.731 57.542 C 482.907 57.225 482.037 56.913 481.138 56.597 C 480.222 56.305 479.252 56.018 478.236 55.702 C 477.22 55.435 476.154 55.123 475.039 54.831 C 474.797 54.76 474.435 54.661 473.998 54.565 C 472.474 54.203 470.077 53.695 468.457 53.599 C 466.809 53.478 465.963 53.62 467.512 54.178 C 469.86 54.298 472.087 54.686 473.853 55.023 C 477.195 55.897 480.318 56.888 483.078 58.337 C 485.884 59.765 488.427 61.435 490.871 63.3 C 495.737 67.097 500.213 71.765 505.25 78.08 C 506.749 76.723 505.176 74.088 502.927 71.377 C 500.7 68.671 497.819 66.031 496.824 63.928 C 501.837 68.138 505.492 72.88 508.93 77.111 C 510.671 79.242 512.269 81.224 514.109 83.064 C 516.482 85.529 516.724 85.071 517.935 85.288 C 517.619 84.805 518.226 84.588 518.855 84.346 C 518.589 84.03 518.418 83.668 518.201 83.401 C 517.669 82.723 517.136 82.094 516.653 81.465 C 515.2 79.725 514.06 78.251 512.877 76.798 C 510.55 73.896 508.468 71.331 506.461 68.113 C 508.834 70.724 511.157 73.53 513.456 76.46 C 514.642 77.935 515.683 79.387 516.965 80.933 L 517.885 82.094 L 518.347 82.677 L 518.514 82.869 L 519.072 83.522 C 520.72 85.121 522.436 86.812 524.713 88.264 C 529.117 91.241 535.074 93.781 541.706 94.989 C 542.53 95.184 543.351 95.305 544.2 95.401 C 545.045 95.497 545.869 95.667 546.74 95.717 C 548.459 95.813 550.153 95.983 551.872 95.933 C 555.286 95.983 558.65 95.596 561.847 95.038 C 563.442 94.676 564.944 94.41 566.614 93.877 C 567.438 93.635 568.237 93.419 569.012 93.152 C 569.811 92.861 570.585 92.57 571.36 92.282 C 572.908 91.749 574.411 90.975 575.86 90.321 C 577.313 89.596 578.72 88.797 580.027 88.023 C 577.921 88.822 575.573 90.08 575.207 87.685 C 580.169 86.137 583.295 85.508 588.037 81.661 C 583.703 83.984 580.315 85.021 577.146 85.796 C 573.974 86.669 571.044 87.224 567.509 88.652 C 567.438 87.781 568.163 87.078 566.543 87.515 L 564.607 88.023 L 563.637 88.289 L 562.767 88.46 C 561.605 88.652 560.465 88.989 559.279 89.088 C 558.117 89.231 556.956 89.451 555.769 89.497 C 554.608 89.572 553.446 89.717 552.285 89.692 C 547.66 89.813 543.205 89.355 539.213 88.481 C 535.195 87.611 531.661 86.328 528.684 84.879 C 528.318 84.684 527.931 84.513 527.544 84.346 C 527.206 84.126 526.89 83.934 526.553 83.739 L 525.512 83.185 C 525.221 82.968 524.904 82.748 524.592 82.556 C 524.3 82.336 523.938 82.194 523.647 81.973 C 523.38 81.757 523.089 81.54 522.801 81.32 C 522.535 81.103 522.169 80.958 521.928 80.691 L 521.54 80.354 L 521.349 80.183 C 521.299 80.137 521.299 80.162 521.228 80.087 L 520.862 79.654 L 521.082 79.966 C 521.153 80.062 521.228 80.183 521.228 80.183 L 521.299 80.354 C 521.349 80.474 521.374 80.57 521.395 80.691 C 521.445 80.933 521.469 81.178 521.469 81.441 C 521.516 81.927 521.494 82.435 521.349 83.039 C 521.228 82.581 521.008 82.194 520.912 81.686 C 520.862 81.441 520.791 81.199 520.741 80.958 L 520.695 80.791 C 520.67 80.741 520.695 80.716 520.525 80.45 C 520.283 80.062 520.017 79.654 519.75 79.242 C 518.759 77.668 517.715 75.999 516.653 74.329 C 515.587 72.685 514.472 70.99 513.285 69.345 C 508.614 62.742 502.877 56.813 496.778 53.478 Z  M 370.488 67.676 C 371.628 67.314 373.102 66.514 373.539 67.193 C 381.649 64.024 387.144 61.776 378.914 64.387 C 377.582 64.848 374.942 66.539 373.976 65.598 C 376.179 64.944 377.436 64.074 377.269 62.888 C 373.273 64.095 372.548 66.006 370.488 67.676 Z  M 409.97 55.655 C 411.498 54.902 413.579 54.203 415.902 53.549 C 416.531 53.378 417.185 53.212 417.838 53.016 C 418.687 52.799 419.558 52.583 420.453 52.363 C 422.197 51.929 423.987 51.492 425.731 51.059 C 429.216 50.139 432.63 49.411 435.557 48.54 C 437.009 48.128 438.342 47.67 439.528 47.233 C 440.689 46.85 441.705 46.462 442.505 46.001 C 441.343 46.146 439.94 46.338 438.487 46.8 C 437.034 47.233 435.51 47.695 434.033 48.128 C 431.102 48.977 428.466 49.581 427.134 49.194 C 432.313 47.961 433.233 47.549 431.734 47.574 C 430.981 47.599 429.653 47.741 427.934 47.986 C 426.239 48.274 424.158 48.686 421.977 49.148 C 420.89 49.411 419.774 49.656 418.638 49.919 C 418.08 50.064 417.522 50.21 416.968 50.356 C 416.531 50.476 416.119 50.597 415.682 50.718 C 414.208 51.155 412.826 51.638 411.739 52.171 C 409.558 53.233 408.517 54.444 409.97 55.655 Z  M 155.095 30.954 C 149.213 33.614 142.872 32.794 139.458 36.179 C 140.815 36.204 145.778 34.68 149.941 33.348 C 154.104 31.97 157.517 30.783 155.095 30.954 Z  M 238.006 36.541 C 238.781 37.024 240.983 38.165 242.482 38.96 C 243.984 39.784 244.88 40.097 243.16 38.598 C 234.422 33.447 224.689 30.009 214.668 28.293 C 214.764 27.252 215.372 26.066 212.32 25.899 C 207.745 25.558 201.33 25.27 193.899 25.583 C 192.737 25.608 190.269 25.704 187.388 25.92 C 184.507 26.14 181.214 26.503 178.408 26.915 C 177.026 27.131 175.914 27.348 175.019 27.519 C 174.124 27.689 173.421 27.856 173.009 28.002 C 172.209 28.293 172.501 28.389 174.728 28.293 C 175.719 28.439 176.98 28.318 178.624 28.098 C 180.269 27.906 182.063 27.639 183.708 27.494 C 187.001 27.227 189.761 27.398 189.761 29.092 C 187.921 29.259 182.596 29.501 177.534 30.35 C 172.937 31.099 168.796 32.357 167.538 33.831 C 169.304 33.614 168.629 35.067 167.996 35.767 C 170.103 35.479 172.184 35.213 174.245 34.971 C 176.326 34.726 178.262 34.509 180.61 34.293 C 185.136 33.831 189.494 33.639 193.682 33.568 C 202.083 33.469 209.923 34.051 217.453 35.575 C 225.005 37.049 232.22 39.518 239.168 43.123 C 246.066 46.825 252.673 51.688 258.651 58.145 C 259.33 57.733 260.445 58.849 261.486 59.79 C 262.527 60.735 263.472 61.531 264.004 60.373 C 263.06 58.483 261.17 56.234 259.284 54.178 C 258.339 53.137 257.394 52.121 256.57 51.201 C 255.774 50.26 255.071 49.389 254.634 48.59 C 255.65 48.445 257.419 50.185 259.113 51.929 C 260.758 53.719 262.331 55.51 263.301 55.389 C 261.22 52.387 257.369 48.178 254.392 46.025 C 251.391 43.898 249.746 43.486 252.14 47.358 C 247.398 43.486 241.708 40.438 236.528 38.044 C 231.349 35.621 226.65 33.881 223.698 31.753 C 229.097 33.323 234.205 35.55 238.006 36.541 Z  M 103.219 60.348 C 105.109 58.629 109.126 57.321 108.281 55.147 C 104.842 57.3 103.581 55.872 100.679 57.13 C 101.599 60.152 105.833 56.451 103.219 60.348 Z  M 534.588 95.617 C 535.653 95.738 536.573 96.005 537.301 96.537 C 538.051 97.045 538.655 97.774 539.308 98.353 C 540.591 99.514 541.777 100.747 543.642 99.901 C 542.672 99.127 540.761 97.507 538.971 96.491 C 537.202 95.305 535.483 94.722 534.588 95.617 Z  M 133.285 46.388 C 137.618 45.493 146.04 42.736 145.945 41.575 C 143.064 42.058 133.48 43.049 133.285 46.388 Z  M 531.707 94.772 C 530.787 94.385 530.133 94.747 529.604 95.426 C 530.595 95.788 531.419 96.175 532.193 96.392 C 532.968 96.612 533.597 96.758 534.104 96.878 C 535.096 97.12 535.628 97.12 535.728 96.974 C 535.849 96.758 534.275 95.884 531.707 94.772 Z  M 517.644 91.142 C 517.839 91.749 518.127 92.403 518.493 93.078 C 518.88 93.706 519.413 94.264 519.942 94.797 C 520.961 95.884 522.34 96.441 523.309 96.296 C 523.068 94.651 521.903 94.168 520.766 93.564 C 520.187 93.273 519.509 93.031 518.951 92.69 C 518.393 92.282 517.935 91.795 517.644 91.142 Z  M 547.539 104.135 C 547.976 104.111 548.388 104.061 548.288 103.507 C 547.418 103.336 547.88 102.757 548.338 102.175 C 541.077 101.088 536.332 100.047 528.076 97.699 C 528.634 99.972 532.627 101.862 537.035 102.537 C 541.39 103.286 545.82 103.141 546.86 103.457 C 546.111 103.482 546.232 104.302 547.539 104.135 Z  M 190.269 44.356 C 187.338 44.839 185.256 44.839 183.2 44.864 C 182.184 44.889 181.118 44.864 180.077 44.96 C 179.012 45.059 177.971 45.18 176.738 45.468 C 177.463 45.663 178.575 45.905 179.932 46.05 C 181.264 46.196 182.933 46.338 184.411 46.363 C 187.363 46.388 190.002 46.025 190.269 44.356 Z  M 167.659 52.242 C 170.057 51.879 172.621 51.467 175.356 51.059 C 178.092 50.647 180.923 50.21 184.191 49.848 C 190.56 49.073 197.362 48.761 204.14 49.148 C 210.917 49.606 217.645 50.864 223.627 53.066 C 229.63 55.194 234.834 58.217 238.852 61.314 C 234.834 57.588 229.968 54.444 224.618 52.242 C 219.293 50.018 213.581 48.615 207.965 47.937 C 202.325 47.258 196.755 47.233 191.551 47.5 C 188.936 47.62 186.418 47.841 184.024 48.057 C 181.676 48.299 179.449 48.516 177.342 48.711 C 177.147 47.62 180.102 47.866 180.223 46.871 C 178.092 47.599 173.275 47.308 173.154 48.881 C 176.738 49.048 175.356 49.485 173.104 50.114 C 170.806 50.718 167.709 51.567 167.659 52.242 Z  M 200.751 53.428 C 195.98 52.92 188.379 52.412 180.901 53.307 C 173.687 54.107 166.885 56.089 163.35 58.92 C 170.032 57.225 176.397 56.089 182.596 55.169 C 188.936 54.323 194.94 53.741 200.751 53.428 Z  M 144.953 67.434 C 140.815 67.509 136.528 70.628 133.892 70.603 C 136.723 72.685 141.057 69.299 144.953 67.434 Z  M 114.209 88.843 C 117.431 86.62 122.394 87.611 122.49 84.371 C 120.433 84.588 114.355 87.248 114.209 88.843 Z  M 186.397 62.717 C 186.517 64.532 187.97 63.879 186.663 65.356 C 189.615 64.362 191.189 64.241 192.496 64.145 C 193.803 64.074 194.869 63.975 197.046 63.346 C 197.629 65.257 200.63 65.232 204.381 65.378 C 208.108 65.477 212.661 65.839 215.564 67.53 C 215.322 66.347 214.668 65.573 213.773 65.065 C 212.878 64.603 211.763 64.412 210.601 64.316 C 208.253 64.195 205.76 64.532 204.065 63.687 C 204.768 63.587 205.784 63.854 205.955 63.225 C 198.716 61.289 192.18 61.485 186.397 62.717 Z  M 465.455 93.877 C 464.414 93.49 463.47 93.177 462.717 93.031 C 461.072 92.715 459.96 92.69 459.328 92.74 C 458.699 92.765 458.507 92.861 458.653 92.932 C 458.941 93.127 460.564 93.369 462.379 94.168 C 462.766 94.36 463.203 94.555 463.59 94.797 C 463.129 94.772 462.67 94.772 462.209 94.722 C 458.749 94.555 455.506 94.072 452.429 93.998 C 449.382 93.951 446.451 94.289 444.274 96.054 C 448.05 95.013 446.668 95.738 445.023 97.241 C 447.346 96.587 450.057 96.029 452.916 95.717 C 455.772 95.401 458.869 95.401 461.8 96.054 C 465.818 96.974 469.157 99.077 472.037 100.239 C 470.126 97.894 466.471 93.951 469.036 98.473 C 467.15 97.07 466.23 95.546 465.455 93.877 Z  M 420.84 105.127 C 425.852 102.878 427.909 102.004 427.593 101.862 C 427.28 101.716 424.591 102.295 420.236 103.24 C 418.734 103.699 418.176 104.448 418.034 105.343 C 419.075 105.102 420.453 104.423 420.84 105.127 Z  M 416.918 110.618 C 418.421 109.14 420.961 108.004 424.037 107.087 C 425.561 106.626 427.205 106.263 428.925 105.926 C 429.774 105.78 430.644 105.634 431.514 105.489 L 432.821 105.297 C 433.233 105.247 433.5 105.247 433.841 105.222 L 433.308 103.311 C 432.58 103.361 430.91 103.674 429.312 103.965 C 427.692 104.281 425.898 104.668 424.229 105.222 C 420.865 106.334 417.838 107.982 416.918 110.618 Z  M 457.101 97.674 C 456.593 96.878 455.14 96.9 453.57 97.241 C 451.996 97.578 450.302 98.207 449.09 98.281 C 448.774 98.257 442.288 99.489 441.151 101.063 C 443.933 100.821 446.38 100.58 448.678 100.288 C 450.977 100.022 453.158 99.805 455.36 99.901 C 455.772 98.136 454.124 98.328 452.358 98.885 C 450.589 99.418 448.774 100.214 448.412 99.152 C 451.243 98.448 454.149 97.774 457.101 97.674 Z  M 527.423 145.671 C 526.648 145.913 525.05 145.625 523.114 144.971 C 521.178 144.243 518.901 143.277 516.699 142.236 C 514.497 141.099 512.365 140.059 510.671 139.309 C 508.976 138.51 507.694 138.101 507.136 138.51 C 507.236 138.123 507.282 137.735 506.316 137.423 C 507.136 138.172 508.639 139.213 510.504 140.35 C 512.365 141.391 514.617 142.453 516.869 143.422 C 519.121 144.268 521.395 144.971 523.285 145.429 C 525.149 145.817 526.673 145.913 527.423 145.671 Z  M 558.625 149.01 C 559.474 148.939 561.847 148.84 563.516 148.598 C 565.186 148.332 566.181 148.044 564.316 147.824 C 562.596 148.069 560.877 148.14 559.158 148.31 L 556.568 148.502 L 553.979 148.577 C 552.864 147.994 550.977 147.994 548.871 147.923 C 546.764 147.848 544.416 147.944 542.456 147.703 C 540.957 147.969 539.067 148.332 537.323 148.332 C 535.582 148.332 534.009 147.848 533.209 146.666 C 534.588 146.762 536.477 147.245 536.769 146.495 C 528.101 146.058 519.7 144.85 511.836 143.252 C 516.482 145.067 520.596 146.158 524.421 146.978 C 526.336 147.341 528.172 147.703 529.966 147.994 C 531.757 148.211 533.522 148.406 535.266 148.598 C 542.285 149.252 549.258 149.447 558.625 149.01 Z  M 201.38 85.071 C 201.913 84.346 200.314 84.151 198.474 84.08 C 196.634 83.984 194.552 84.105 193.924 83.401 C 193.874 84.492 192.279 83.838 192.158 84.829 C 195.256 84.613 198.328 84.634 201.38 85.071 Z  M 152.772 96.466 C 149.287 99.514 146.914 96.587 143.888 100.264 C 147.689 101.862 155.798 96.779 159.358 94.58 C 155.724 97.482 148.438 94.58 152.772 96.466 Z  M 164.512 94.118 C 163.933 91.87 169.549 91.941 170.078 90.151 C 167.297 89.984 160.615 90.854 158.096 93.635 C 161.972 92.403 159.524 96.417 164.512 94.118 Z  M 189.615 88.385 C 189.153 88.506 188.67 88.676 188.212 88.747 C 187.75 88.822 187.242 88.893 186.638 88.968 C 185.306 89.11 183.974 89.231 182.717 89.376 C 180.127 89.692 177.68 90.08 176.156 91.142 C 177.076 91 178.237 90.492 178.553 91.216 C 174.678 91.87 173.808 94.143 171.897 95.862 C 175.044 95.28 178.529 94.264 180.393 95.546 C 174.653 96.417 167.126 100.359 161.752 100.772 C 165.116 99.439 172.33 97.12 170.202 95.692 C 165.915 97.94 160.253 100.093 158.413 103.507 C 167.03 100.288 174.607 97.894 181.313 96.246 C 182.134 96.054 182.958 95.862 183.782 95.667 C 184.578 95.497 185.377 95.33 186.152 95.159 C 186.88 95.013 187.604 94.893 188.333 94.747 C 188.841 94.676 189.348 94.601 189.856 94.481 C 191.892 94.168 193.949 93.927 196.005 93.852 C 200.122 93.706 204.381 94.168 208.544 95.862 C 210.601 96.708 212.637 97.845 214.548 99.297 C 216.437 100.772 218.228 102.562 219.922 104.619 C 219.098 101.375 216.508 98.424 213.436 96.491 C 211.883 95.521 210.289 94.722 208.761 93.998 C 207.212 93.298 205.76 92.669 204.527 91.87 C 206.463 92.474 208.207 93.344 209.731 92.403 C 207.987 91.287 205.639 90.683 203.412 90.271 C 201.163 89.838 199.057 89.596 197.529 88.747 C 199.344 89.088 200.797 89.014 202.3 89.014 C 203.777 88.989 205.301 89.064 206.971 89.788 C 206.317 88.168 205.252 87.66 204.477 87.199 C 203.703 86.716 203.17 86.282 203.34 84.684 C 199.781 85.991 196.151 85.604 192.35 85.458 C 190.439 85.362 188.574 85.387 186.759 85.554 C 185.764 85.7 184.603 85.87 183.612 86.183 C 182.596 86.474 181.651 86.812 180.781 87.298 C 181.701 87.177 182.571 87.103 182.546 88.264 C 181.53 87.973 179.616 87.756 177.633 88.023 C 175.673 88.264 173.662 88.918 172.646 90.104 C 175.186 89.763 178.188 89.184 181.289 88.747 C 182.837 88.531 184.411 88.36 185.96 88.264 C 186.784 88.215 187.388 88.193 187.97 88.239 C 188.478 88.289 189.057 88.314 189.615 88.385 Z  M 394.6 130.191 C 390.654 130.649 388.089 132.052 385.766 133.405 C 383.414 134.737 381.262 136.091 378.043 136.478 C 383.901 137.348 393.705 130.262 394.6 130.191 Z  M 438.633 114.877 C 437.954 115.069 437.276 115.406 436.622 115.819 C 436.43 115.939 436.381 115.989 436.043 116.16 L 435.148 116.618 C 434.541 116.93 433.937 117.247 433.354 117.538 C 430.981 118.746 428.683 119.811 426.602 119.982 C 428.733 119.811 432.122 118.891 435.631 117.826 C 436.718 117.488 437.858 117.151 438.899 116.834 C 439.794 116.568 440.64 116.327 441.318 116.181 C 443.595 115.673 445.993 115.14 448.508 114.561 C 451.001 114.003 453.737 113.474 456.546 114.003 C 459.257 114.536 461.605 116.231 463.47 118.238 C 465.356 120.245 466.929 122.497 468.624 124.578 C 469.036 125.086 469.498 125.64 469.885 126.077 L 470.56 126.802 C 471.263 127.551 471.941 128.28 472.645 129.004 C 473.998 130.478 475.522 131.736 476.954 133.043 C 478.403 134.35 479.831 135.633 481.333 136.72 C 482.836 137.835 484.285 138.947 485.738 140.034 C 487.216 141.05 488.694 141.97 490.122 142.89 C 492.977 144.801 495.858 146.204 498.544 147.682 C 495.833 145.987 493.002 144.389 490.193 142.311 C 488.789 141.295 487.337 140.325 485.909 139.213 C 484.506 138.076 483.078 136.89 481.65 135.704 C 480.197 134.567 478.84 133.189 477.437 131.86 C 476.055 130.503 474.606 129.221 473.32 127.697 C 472.691 126.997 472.087 126.294 471.458 125.594 L 470.926 124.866 C 470.514 124.312 470.126 123.729 469.714 123.175 C 468.091 120.852 466.517 118.333 464.581 116.135 C 462.67 113.932 460.177 112.071 457.321 111.488 C 453.857 110.789 450.444 111.705 447.346 112.504 C 444.224 113.353 441.293 114.149 438.633 114.877 Z  M 501.037 148.889 C 503.339 149.76 505.346 150.704 507.211 151.525 C 509.076 152.349 510.792 153.099 512.511 153.848 C 514.23 154.598 515.949 155.13 517.814 155.614 C 518.734 155.859 519.7 156.05 520.72 156.221 C 521.736 156.342 522.777 156.413 523.888 156.438 C 522.702 155.205 517.839 153.461 512.898 151.816 C 510.429 150.921 507.914 150.243 505.808 149.614 C 503.677 149.01 501.957 148.673 501.037 148.889 Z  M 214.718 111.417 C 216.05 110.689 214.764 110.085 215.784 109.336 C 213.557 106.7 211.28 103.819 208.157 101.617 C 205.106 99.368 201.305 97.94 197.433 97.386 C 195.497 97.12 193.512 97.045 191.576 97.141 C 191.093 97.191 190.606 97.216 190.123 97.266 C 189.64 97.337 189.178 97.386 188.695 97.433 C 187.992 97.553 187.292 97.674 186.613 97.774 C 185.864 97.916 185.111 98.086 184.361 98.232 C 178.287 99.585 172.039 101.862 166.593 104.643 C 168.991 104.402 171.822 103.336 174.365 102.803 C 176.905 102.271 179.108 102.246 180.319 103.773 C 174.582 105.539 169.087 106.626 163.641 107.883 C 160.931 108.512 158.192 109.215 155.436 110.06 C 154.054 110.497 152.676 110.98 151.269 111.538 C 150.594 111.805 149.82 112.117 149.046 112.458 C 148.268 112.796 147.493 113.158 146.719 113.52 C 148.026 113.062 149.77 111.925 150.374 112.625 C 151.198 114.827 145.511 115.673 146.623 117.925 C 147.809 117.705 149.504 116.593 150.957 115.893 C 151.706 115.527 152.335 115.286 152.822 115.311 C 153.305 115.311 153.667 115.577 153.813 116.231 C 153.159 117.342 151.077 118.333 148.85 119.229 C 146.598 120.149 144.104 120.998 142.41 122.014 C 146.236 120.777 150.495 119.278 154.271 117.9 C 157.805 116.668 161.364 115.385 164.973 114.124 C 171.918 111.73 178.575 109.627 184.386 108.245 L 186.517 107.762 L 188.549 107.354 L 190.244 107.062 C 190.56 107.038 190.851 106.988 191.164 106.942 C 192.4 106.796 193.608 106.721 194.794 106.771 C 197.167 106.892 199.444 107.546 201.113 108.828 C 202.857 107.716 205.035 109.165 206.513 111.101 C 207.287 112.071 207.916 113.087 208.619 113.907 C 208.981 114.32 209.294 114.682 209.731 114.948 C 209.972 115.14 210.047 115.094 210.335 115.264 C 210.701 115.602 211.088 115.964 211.475 116.255 C 211.28 115.868 211.088 115.431 210.892 115.094 C 210.821 114.923 210.722 114.778 210.651 114.611 C 210.48 114.295 210.264 114.003 210.068 113.716 C 209.635 113.133 209.148 112.554 208.69 111.996 C 207.82 110.86 207.092 109.794 207.312 108.125 C 209.972 108.391 211.013 110.327 211.788 111.925 C 212.008 112.334 212.15 112.746 212.37 113.108 C 212.661 113.616 212.587 113.449 213.315 114.536 C 213.603 114.973 213.919 115.385 214.235 115.794 L 214.477 116.11 L 214.864 116.689 L 215.734 117.925 C 216.92 119.545 218.178 121.118 219.535 122.617 C 218.711 121.069 217.89 119.52 217.091 118.046 C 216.704 117.296 216.338 116.568 215.976 115.843 C 215.759 115.406 215.709 115.286 215.613 115.094 L 215.372 114.511 C 215.201 114.124 215.056 113.762 214.935 113.4 C 214.814 113.087 214.644 112.625 214.693 112.554 C 214.668 112.192 214.668 111.78 214.718 111.417 Z  M 435.873 126.102 C 436.43 126.077 437.009 126.027 437.617 125.981 C 437.905 125.956 438.221 125.932 438.537 125.882 C 438.825 125.861 439.212 125.786 439.286 125.836 C 439.844 125.907 440.398 125.932 440.956 125.861 C 442.071 125.736 443.158 125.328 444.249 124.287 C 442.892 124.841 442.796 123.779 441.901 124.941 C 441.755 124.092 442.192 123.9 441.926 122.859 C 440.981 123.317 440.11 123.317 439.333 123.537 C 439.141 123.584 438.97 123.658 438.778 123.754 C 438.487 123.925 438.196 124.07 437.929 124.237 C 437.18 124.72 436.501 125.303 435.873 126.102 Z  M 444.877 122.788 C 445.893 122.834 447.396 123.367 448.483 123.537 C 449.573 123.683 450.398 123.417 450.277 121.527 C 451.801 120.898 453.133 121.406 454.245 121.939 C 455.36 122.497 456.28 122.93 457.633 122.134 C 456.884 121.165 455.868 120.511 454.777 120.124 C 453.037 119.595 451.097 119.907 449.403 120.536 C 447.687 121.165 446.135 122.014 444.877 122.788 Z  M 478.573 146.421 C 477.412 144.438 474.726 141.824 471.529 138.243 C 470.705 137.373 469.86 136.478 468.965 135.537 C 468.07 134.592 467.221 133.526 466.301 132.489 L 465.622 131.69 L 465.31 131.327 L 465.26 131.228 L 465.064 130.866 C 464.969 130.649 464.702 130.311 464.51 130.02 C 462.912 127.601 461.022 125.157 459.619 123.85 C 460.901 127.093 461.725 129.075 462.887 130.819 C 463.178 131.228 463.445 131.64 463.736 132.077 L 463.903 132.318 L 463.978 132.439 L 464.024 132.51 L 464.315 132.851 C 465.139 133.746 465.938 134.666 466.784 135.583 C 470.272 139.092 474.073 142.769 478.573 146.421 Z  M 433.596 127.505 C 433.329 125.761 431.806 125.761 429.699 126.656 C 429.99 128.4 431.493 128.326 433.596 127.505 Z  M 547.855 167.833 C 556.036 167.904 564.628 167.858 573.029 166.817 C 575.136 166.501 577.217 166.188 579.274 165.801 C 581.334 165.435 583.149 164.927 585.036 164.444 C 586.925 163.961 588.691 163.357 590.435 162.729 C 592.154 162.075 593.848 161.396 595.397 160.597 C 592.516 161.446 589.54 162.146 586.634 162.824 C 585.131 163.116 583.657 163.428 582.18 163.72 L 579.952 164.156 L 577.604 164.519 L 572.884 165.194 C 571.31 165.389 569.736 165.51 568.163 165.656 C 565.015 165.993 561.872 166.068 558.7 166.188 C 555.528 166.259 552.334 166.21 549.088 166.114 C 545.844 165.922 542.576 165.822 539.237 165.414 C 532.581 164.831 525.657 163.624 518.393 162 C 521.42 165.535 526.457 167.179 531.806 167.712 C 537.227 168.291 542.893 167.808 547.855 167.833 Z  M 289.129 177.534 C 290.124 177.534 291.743 177.655 293.534 177.8 C 295.328 177.896 297.313 177.896 299.029 177.896 C 302.443 177.655 304.719 177.243 302.276 176.323 C 301.984 176.71 301.089 176.856 299.878 176.88 C 298.667 176.927 297.168 176.685 295.665 176.589 C 292.663 176.323 289.736 176.01 289.129 177.534 Z  M 195.085 108.078 C 196.488 107.521 195.181 110.689 194.869 111.417 C 195.884 111.03 196.684 111.222 197.433 111.368 C 198.208 111.538 198.911 111.659 200.073 111.368 C 199.756 110.739 198.911 110.643 198.112 110.618 C 197.288 110.568 196.538 110.497 196.055 109.506 C 196.538 108.103 197.362 109.119 197.941 107.762 C 197.167 107.812 194.769 106.721 195.085 108.078 Z  M 176.06 114.003 C 176.98 114.852 179.207 114.586 181.289 114.003 C 183.395 113.424 185.402 112.554 186.201 111.876 C 182.088 112.916 178.092 111.538 176.06 114.003 Z  M 162.093 119.182 C 161.318 119.133 158.558 119.836 156.356 120.756 C 155.798 120.973 155.29 121.214 154.853 121.456 C 154.416 121.697 153.983 121.964 153.717 122.205 C 153.184 122.688 153.159 123.1 154.054 123.342 C 154.37 123.054 158.825 121.165 161.993 119.861 C 165.116 118.554 166.98 117.73 162.093 119.182 Z  M 203.799 113.328 C 203.245 113.304 203.245 111.609 202.25 112.796 C 201.838 113.957 202.712 114.224 203.799 113.328 Z  M 193.753 110.06 C 193.608 110.909 192.787 110.86 192.084 110.885 C 191.38 110.86 190.872 110.909 191.505 111.563 C 191.988 111.318 192.641 111.417 193.199 111.488 C 193.778 111.538 194.311 111.488 194.748 110.739 C 194.24 111.005 194.407 109.506 193.753 110.06 Z  M 445.435 133.647 C 444.853 134.229 443.474 133.309 443.474 134.883 C 444.032 134.3 445.24 135.27 445.435 133.647 Z  M 437.979 138.631 C 435.656 139.771 430.79 140.059 430.161 141.849 C 432.459 140.666 437.301 140.4 437.979 138.631 Z  M 288.451 190.791 L 288.138 192.773 C 292.276 192.627 297.747 192.748 303.171 192.46 C 308.566 191.998 313.916 191.224 317.525 189.679 C 314.861 190.066 312.126 190.258 309.44 190.499 C 308.083 190.574 306.751 190.62 305.423 190.695 C 304.769 190.716 304.116 190.766 303.462 190.791 C 302.808 190.791 302.176 190.791 301.523 190.791 C 300.24 190.816 299.008 190.816 297.821 190.837 C 296.61 190.791 295.473 190.791 294.358 190.766 C 292.106 190.791 290.124 190.67 288.451 190.791 Z  M 374.797 164.299 C 372.403 165.872 370.101 166.963 367.973 167.979 C 366.907 168.487 365.913 168.995 364.947 169.524 C 364.122 169.986 363.323 170.444 362.524 170.906 C 361.604 171.46 360.709 172.017 359.814 172.596 C 360.517 172.55 361.412 172.355 362.428 172.017 C 362.911 171.847 363.494 171.655 364.098 171.435 C 364.389 171.314 364.705 171.193 365.018 171.073 C 365.163 171.026 365.334 170.977 365.504 170.927 C 366.737 170.54 368.069 169.89 369.351 169.137 C 371.919 167.687 374.193 165.751 374.797 164.299 Z  M 643.231 159.173 C 649.596 155.663 656.107 152.108 660.079 148.598 C 657.656 147.582 654.367 149.372 651.074 151.891 C 649.475 153.148 647.877 154.551 646.474 155.859 C 645.092 157.137 643.98 158.349 643.231 159.173 Z  M 570.028 89.984 C 570.631 89.184 569.108 88.36 572.326 87.902 C 572.205 88.556 572.084 89.255 571.385 89.596 C 571.722 90.321 572.788 89.739 573.612 89.572 C 573.345 91.287 569.399 91.142 567.68 91.991 C 570.344 90.25 567.609 90.271 565.598 90.371 C 564.582 90.442 563.733 90.563 563.783 90.538 C 563.783 90.538 563.975 90.538 564.532 90.467 C 565.065 90.392 565.935 90.25 567.197 90.055 C 567.363 90.08 569.012 88.314 570.028 89.984 Z  M 46.672 115.385 C 44.59 116.472 41.347 119.037 40.498 120.053 C 37.909 120.369 45.39 113.691 46.672 115.385 Z  M 177.655 73.7 C 177.559 73.7 179.182 73.821 177.8 74.354 C 174.653 75.54 170.565 76.482 168.529 76.798 C 166.497 77.111 166.547 76.627 171.797 75.153 C 173.275 74.741 175.236 73.942 177.655 73.7 Z  M 47.496 170.806 C 47.35 170.419 48.246 169.623 49.336 168.654 C 50.423 167.662 51.659 166.476 52.434 165.435 C 53.67 167.421 49.166 169.524 47.496 170.806 Z  M 88.794 112.504 C 92.399 112.213 87.17 115.069 85.476 115.843 C 86.034 117.175 88.382 114.536 89.735 114.245 C 89.518 115.019 89.348 115.794 90.367 115.406 C 88.382 115.914 80.322 121.893 80.101 117.342 C 79.377 117.609 79.498 117.996 79.668 118.358 C 78.769 115.527 84.797 117.005 88.794 112.504 Z " fill="rgb(255,255,255)"/></clipPath><g clip-path="url(#_clipPath_K4av3q2cIdLxoxna6ZgHhgmDoIyZhxOf)"><g id="Group"><linearGradient id="_lgradient_4" x1="0.00019287902328635198%" y1="49.70392289564518%" x2="100.00027503801454%" y2="49.70392289564518%"><stop offset="0%" stop-opacity="1" style="stop-color:rgb(134,234,233)"/><stop offset="0.78125%" stop-opacity="1" style="stop-color:rgb(134,234,233)"/><stop offset="1.5625%" stop-opacity="1" style="stop-color:rgb(135,234,232)"/><stop offset="2.34375%" stop-opacity="1" style="stop-color:rgb(136,234,232)"/><stop offset="3.125%" stop-opacity="1" style="stop-color:rgb(137,234,232)"/><stop offset="3.90625%" stop-opacity="1" style="stop-color:rgb(138,234,231)"/><stop offset="4.6875%" stop-opacity="1" style="stop-color:rgb(139,235,231)"/><stop offset="5.46875%" stop-opacity="1" style="stop-color:rgb(140,235,230)"/><stop offset="6.25%" stop-opacity="1" style="stop-color:rgb(140,235,230)"/><stop offset="7.03125%" stop-opacity="1" style="stop-color:rgb(141,235,230)"/><stop offset="7.8125%" stop-opacity="1" style="stop-color:rgb(142,235,229)"/><stop offset="8.59375%" stop-opacity="1" style="stop-color:rgb(143,235,229)"/><stop offset="9.375%" stop-opacity="1" style="stop-color:rgb(144,235,229)"/><stop offset="10.1563%" stop-opacity="1" style="stop-color:rgb(145,235,228)"/><stop offset="10.9375%" stop-opacity="1" style="stop-color:rgb(146,235,228)"/><stop offset="11.7188%" stop-opacity="1" style="stop-color:rgb(146,235,227)"/><stop offset="12.5%" stop-opacity="1" style="stop-color:rgb(147,235,227)"/><stop offset="13.281299999999998%" stop-opacity="1" style="stop-color:rgb(148,236,227)"/><stop offset="14.0625%" stop-opacity="1" style="stop-color:rgb(149,236,226)"/><stop offset="14.843799999999998%" stop-opacity="1" style="stop-color:rgb(150,236,226)"/><stop offset="15.625%" stop-opacity="1" style="stop-color:rgb(151,236,225)"/><stop offset="16.406299999999998%" stop-opacity="1" style="stop-color:rgb(152,236,225)"/><stop offset="17.1875%" stop-opacity="1" style="stop-color:rgb(153,236,225)"/><stop offset="17.968799999999998%" stop-opacity="1" style="stop-color:rgb(153,236,224)"/><stop offset="18.75%" stop-opacity="1" style="stop-color:rgb(154,236,224)"/><stop offset="19.531299999999998%" stop-opacity="1" style="stop-color:rgb(155,236,223)"/><stop offset="20.3125%" stop-opacity="1" style="stop-color:rgb(156,236,223)"/><stop offset="21.093799999999998%" stop-opacity="1" style="stop-color:rgb(157,236,223)"/><stop offset="21.875%" stop-opacity="1" style="stop-color:rgb(158,237,222)"/><stop offset="22.656299999999998%" stop-opacity="1" style="stop-color:rgb(159,237,222)"/><stop offset="23.4375%" stop-opacity="1" style="stop-color:rgb(159,237,221)"/><stop offset="24.218799999999998%" stop-opacity="1" style="stop-color:rgb(160,237,221)"/><stop offset="25%" stop-opacity="1" style="stop-color:rgb(161,237,221)"/><stop offset="25.7812%" stop-opacity="1" style="stop-color:rgb(162,237,220)"/><stop offset="26.5625%" stop-opacity="1" style="stop-color:rgb(163,237,220)"/><stop offset="27.3438%" stop-opacity="1" style="stop-color:rgb(164,237,219)"/><stop offset="28.125%" stop-opacity="1" style="stop-color:rgb(165,237,219)"/><stop offset="28.9062%" stop-opacity="1" style="stop-color:rgb(166,237,219)"/><stop offset="29.6875%" stop-opacity="1" style="stop-color:rgb(166,237,218)"/><stop offset="30.4688%" stop-opacity="1" style="stop-color:rgb(167,238,218)"/><stop offset="31.25%" stop-opacity="1" style="stop-color:rgb(168,238,217)"/><stop offset="32.0313%" stop-opacity="1" style="stop-color:rgb(169,238,217)"/><stop offset="32.8125%" stop-opacity="1" style="stop-color:rgb(170,238,217)"/><stop offset="33.5938%" stop-opacity="1" style="stop-color:rgb(171,238,216)"/><stop offset="34.375%" stop-opacity="1" style="stop-color:rgb(172,238,216)"/><stop offset="35.1563%" stop-opacity="1" style="stop-color:rgb(173,238,215)"/><stop offset="35.9375%" stop-opacity="1" style="stop-color:rgb(173,238,215)"/><stop offset="36.7188%" stop-opacity="1" style="stop-color:rgb(174,238,215)"/><stop offset="37.5%" stop-opacity="1" style="stop-color:rgb(175,238,214)"/><stop offset="38.2813%" stop-opacity="1" style="stop-color:rgb(176,238,214)"/><stop offset="39.0625%" stop-opacity="1" style="stop-color:rgb(177,238,213)"/><stop offset="39.8438%" stop-opacity="1" style="stop-color:rgb(178,239,213)"/><stop offset="40.625%" stop-opacity="1" style="stop-color:rgb(179,239,213)"/><stop offset="41.4063%" stop-opacity="1" style="stop-color:rgb(179,239,212)"/><stop offset="42.1875%" stop-opacity="1" style="stop-color:rgb(180,239,212)"/><stop offset="42.9688%" stop-opacity="1" style="stop-color:rgb(181,239,212)"/><stop offset="43.75%" stop-opacity="1" style="stop-color:rgb(182,239,211)"/><stop offset="44.5313%" stop-opacity="1" style="stop-color:rgb(183,239,211)"/><stop offset="45.3125%" stop-opacity="1" style="stop-color:rgb(184,239,210)"/><stop offset="46.0938%" stop-opacity="1" style="stop-color:rgb(185,239,210)"/><stop offset="46.875%" stop-opacity="1" style="stop-color:rgb(186,239,210)"/><stop offset="47.6563%" stop-opacity="1" style="stop-color:rgb(186,239,209)"/><stop offset="48.4375%" stop-opacity="1" style="stop-color:rgb(187,240,209)"/><stop offset="49.2188%" stop-opacity="1" style="stop-color:rgb(188,240,208)"/><stop offset="50%" stop-opacity="1" style="stop-color:rgb(189,240,208)"/><stop offset="50.781299999999995%" stop-opacity="1" style="stop-color:rgb(190,240,208)"/><stop offset="51.5625%" stop-opacity="1" style="stop-color:rgb(190,240,207)"/><stop offset="51.9531%" stop-opacity="1" style="stop-color:rgb(189,240,207)"/><stop offset="52.343799999999995%" stop-opacity="1" style="stop-color:rgb(188,239,208)"/><stop offset="52.7344%" stop-opacity="1" style="stop-color:rgb(187,239,208)"/><stop offset="53.125%" stop-opacity="1" style="stop-color:rgb(186,239,208)"/><stop offset="53.5156%" stop-opacity="1" style="stop-color:rgb(185,238,208)"/><stop offset="53.906299999999995%" stop-opacity="1" style="stop-color:rgb(184,238,209)"/><stop offset="54.2969%" stop-opacity="1" style="stop-color:rgb(183,238,209)"/><stop offset="54.6875%" stop-opacity="1" style="stop-color:rgb(182,237,209)"/><stop offset="55.0781%" stop-opacity="1" style="stop-color:rgb(181,237,209)"/><stop offset="55.468799999999995%" stop-opacity="1" style="stop-color:rgb(180,237,210)"/><stop offset="55.8594%" stop-opacity="1" style="stop-color:rgb(179,236,210)"/><stop offset="56.25%" stop-opacity="1" style="stop-color:rgb(177,236,210)"/><stop offset="56.6406%" stop-opacity="1" style="stop-color:rgb(176,236,210)"/><stop offset="57.031299999999995%" stop-opacity="1" style="stop-color:rgb(175,235,211)"/><stop offset="57.4219%" stop-opacity="1" style="stop-color:rgb(174,235,211)"/><stop offset="57.8125%" stop-opacity="1" style="stop-color:rgb(173,235,211)"/><stop offset="58.2031%" stop-opacity="1" style="stop-color:rgb(172,234,212)"/><stop offset="58.593799999999995%" stop-opacity="1" style="stop-color:rgb(171,234,212)"/><stop offset="58.9844%" stop-opacity="1" style="stop-color:rgb(170,234,212)"/><stop offset="59.375%" stop-opacity="1" style="stop-color:rgb(169,234,212)"/><stop offset="59.7656%" stop-opacity="1" style="stop-color:rgb(168,233,213)"/><stop offset="60.156299999999995%" stop-opacity="1" style="stop-color:rgb(166,233,213)"/><stop offset="60.5469%" stop-opacity="1" style="stop-color:rgb(165,233,213)"/><stop offset="60.9375%" stop-opacity="1" style="stop-color:rgb(164,232,213)"/><stop offset="61.3281%" stop-opacity="1" style="stop-color:rgb(163,232,214)"/><stop offset="61.718799999999995%" stop-opacity="1" style="stop-color:rgb(162,232,214)"/><stop offset="62.1094%" stop-opacity="1" style="stop-color:rgb(161,231,214)"/><stop offset="62.5%" stop-opacity="1" style="stop-color:rgb(160,231,214)"/><stop offset="62.8906%" stop-opacity="1" style="stop-color:rgb(159,231,215)"/><stop offset="63.281299999999995%" stop-opacity="1" style="stop-color:rgb(158,230,215)"/><stop offset="63.6719%" stop-opacity="1" style="stop-color:rgb(157,230,215)"/><stop offset="64.0625%" stop-opacity="1" style="stop-color:rgb(156,230,215)"/><stop offset="64.45309999999999%" stop-opacity="1" style="stop-color:rgb(154,229,216)"/><stop offset="64.8438%" stop-opacity="1" style="stop-color:rgb(153,229,216)"/><stop offset="65.23440000000001%" stop-opacity="1" style="stop-color:rgb(152,229,216)"/><stop offset="65.625%" stop-opacity="1" style="stop-color:rgb(151,229,216)"/><stop offset="66.01559999999999%" stop-opacity="1" style="stop-color:rgb(150,228,217)"/><stop offset="66.4063%" stop-opacity="1" style="stop-color:rgb(149,228,217)"/><stop offset="66.79690000000001%" stop-opacity="1" style="stop-color:rgb(148,228,217)"/><stop offset="67.1875%" stop-opacity="1" style="stop-color:rgb(147,227,217)"/><stop offset="67.57809999999999%" stop-opacity="1" style="stop-color:rgb(146,227,218)"/><stop offset="67.9688%" stop-opacity="1" style="stop-color:rgb(145,227,218)"/><stop offset="68.35940000000001%" stop-opacity="1" style="stop-color:rgb(144,226,218)"/><stop offset="68.75%" stop-opacity="1" style="stop-color:rgb(142,226,218)"/><stop offset="69.14059999999999%" stop-opacity="1" style="stop-color:rgb(141,226,219)"/><stop offset="69.5313%" stop-opacity="1" style="stop-color:rgb(140,225,219)"/><stop offset="69.92190000000001%" stop-opacity="1" style="stop-color:rgb(139,225,219)"/><stop offset="70.3125%" stop-opacity="1" style="stop-color:rgb(138,225,219)"/><stop offset="70.70309999999999%" stop-opacity="1" style="stop-color:rgb(137,224,220)"/><stop offset="71.0938%" stop-opacity="1" style="stop-color:rgb(136,224,220)"/><stop offset="71.48440000000001%" stop-opacity="1" style="stop-color:rgb(135,224,220)"/><stop offset="71.875%" stop-opacity="1" style="stop-color:rgb(134,224,220)"/><stop offset="72.26559999999999%" stop-opacity="1" style="stop-color:rgb(133,223,221)"/><stop offset="72.6563%" stop-opacity="1" style="stop-color:rgb(132,223,221)"/><stop offset="73.04690000000001%" stop-opacity="1" style="stop-color:rgb(130,223,221)"/><stop offset="73.4375%" stop-opacity="1" style="stop-color:rgb(129,222,222)"/><stop offset="73.82809999999999%" stop-opacity="1" style="stop-color:rgb(128,222,222)"/><stop offset="74.2188%" stop-opacity="1" style="stop-color:rgb(127,222,222)"/><stop offset="74.60940000000001%" stop-opacity="1" style="stop-color:rgb(126,221,222)"/><stop offset="75%" stop-opacity="1" style="stop-color:rgb(125,221,223)"/><stop offset="75.39059999999999%" stop-opacity="1" style="stop-color:rgb(124,221,223)"/><stop offset="75.7813%" stop-opacity="1" style="stop-color:rgb(123,220,223)"/><stop offset="76.17190000000001%" stop-opacity="1" style="stop-color:rgb(122,220,223)"/><stop offset="76.5625%" stop-opacity="1" style="stop-color:rgb(121,220,224)"/><stop offset="76.95309999999999%" stop-opacity="1" style="stop-color:rgb(120,219,224)"/><stop offset="77.3438%" stop-opacity="1" style="stop-color:rgb(118,219,224)"/><stop offset="77.73440000000001%" stop-opacity="1" style="stop-color:rgb(117,219,224)"/><stop offset="78.125%" stop-opacity="1" style="stop-color:rgb(116,218,225)"/><stop offset="78.51559999999999%" stop-opacity="1" style="stop-color:rgb(115,218,225)"/><stop offset="78.9063%" stop-opacity="1" style="stop-color:rgb(114,218,225)"/><stop offset="79.29690000000001%" stop-opacity="1" style="stop-color:rgb(113,218,225)"/><stop offset="79.6875%" stop-opacity="1" style="stop-color:rgb(112,217,226)"/><stop offset="80.07809999999999%" stop-opacity="1" style="stop-color:rgb(111,217,226)"/><stop offset="80.4688%" stop-opacity="1" style="stop-color:rgb(110,217,226)"/><stop offset="80.85940000000001%" stop-opacity="1" style="stop-color:rgb(109,216,226)"/><stop offset="81.25%" stop-opacity="1" style="stop-color:rgb(108,216,227)"/><stop offset="81.64059999999999%" stop-opacity="1" style="stop-color:rgb(106,216,227)"/><stop offset="82.0313%" stop-opacity="1" style="stop-color:rgb(105,215,227)"/><stop offset="82.42190000000001%" stop-opacity="1" style="stop-color:rgb(104,215,227)"/><stop offset="82.8125%" stop-opacity="1" style="stop-color:rgb(103,215,228)"/><stop offset="83.20309999999999%" stop-opacity="1" style="stop-color:rgb(102,214,228)"/><stop offset="83.5938%" stop-opacity="1" style="stop-color:rgb(101,214,228)"/><stop offset="83.98440000000001%" stop-opacity="1" style="stop-color:rgb(100,214,228)"/><stop offset="84.375%" stop-opacity="1" style="stop-color:rgb(99,213,229)"/><stop offset="84.76559999999999%" stop-opacity="1" style="stop-color:rgb(98,213,229)"/><stop offset="85.1563%" stop-opacity="1" style="stop-color:rgb(97,213,229)"/><stop offset="85.54690000000001%" stop-opacity="1" style="stop-color:rgb(95,213,229)"/><stop offset="85.9375%" stop-opacity="1" style="stop-color:rgb(94,212,230)"/><stop offset="86.32809999999999%" stop-opacity="1" style="stop-color:rgb(93,212,230)"/><stop offset="86.7188%" stop-opacity="1" style="stop-color:rgb(92,212,230)"/><stop offset="87.10940000000001%" stop-opacity="1" style="stop-color:rgb(91,211,230)"/><stop offset="87.5%" stop-opacity="1" style="stop-color:rgb(90,211,231)"/><stop offset="87.89059999999999%" stop-opacity="1" style="stop-color:rgb(89,211,231)"/><stop offset="88.2813%" stop-opacity="1" style="stop-color:rgb(88,210,231)"/><stop offset="88.67190000000001%" stop-opacity="1" style="stop-color:rgb(87,210,232)"/><stop offset="89.0625%" stop-opacity="1" style="stop-color:rgb(86,210,232)"/><stop offset="89.45309999999999%" stop-opacity="1" style="stop-color:rgb(85,209,232)"/><stop offset="89.8438%" stop-opacity="1" style="stop-color:rgb(83,209,232)"/><stop offset="90.23440000000001%" stop-opacity="1" style="stop-color:rgb(82,209,233)"/><stop offset="90.625%" stop-opacity="1" style="stop-color:rgb(81,208,233)"/><stop offset="91.01559999999999%" stop-opacity="1" style="stop-color:rgb(80,208,233)"/><stop offset="91.4063%" stop-opacity="1" style="stop-color:rgb(79,208,233)"/><stop offset="91.79690000000001%" stop-opacity="1" style="stop-color:rgb(78,208,234)"/><stop offset="92.1875%" stop-opacity="1" style="stop-color:rgb(77,207,234)"/><stop offset="92.57809999999999%" stop-opacity="1" style="stop-color:rgb(76,207,234)"/><stop offset="92.9688%" stop-opacity="1" style="stop-color:rgb(75,207,234)"/><stop offset="93.35940000000001%" stop-opacity="1" style="stop-color:rgb(74,206,235)"/><stop offset="93.75%" stop-opacity="1" style="stop-color:rgb(73,206,235)"/><stop offset="94.14059999999999%" stop-opacity="1" style="stop-color:rgb(71,206,235)"/><stop offset="94.5313%" stop-opacity="1" style="stop-color:rgb(70,205,235)"/><stop offset="94.92190000000001%" stop-opacity="1" style="stop-color:rgb(69,205,236)"/><stop offset="95.3125%" stop-opacity="1" style="stop-color:rgb(68,205,236)"/><stop offset="95.70309999999999%" stop-opacity="1" style="stop-color:rgb(67,204,236)"/><stop offset="96.0938%" stop-opacity="1" style="stop-color:rgb(66,204,236)"/><stop offset="96.48440000000001%" stop-opacity="1" style="stop-color:rgb(65,204,237)"/><stop offset="96.875%" stop-opacity="1" style="stop-color:rgb(64,203,237)"/><stop offset="97.26559999999999%" stop-opacity="1" style="stop-color:rgb(63,203,237)"/><stop offset="97.6563%" stop-opacity="1" style="stop-color:rgb(62,203,237)"/><stop offset="98.04690000000001%" stop-opacity="1" style="stop-color:rgb(61,203,238)"/><stop offset="98.4375%" stop-opacity="1" style="stop-color:rgb(59,202,238)"/><stop offset="98.82809999999999%" stop-opacity="1" style="stop-color:rgb(58,202,238)"/><stop offset="99.2188%" stop-opacity="1" style="stop-color:rgb(57,202,238)"/><stop offset="99.60940000000001%" stop-opacity="1" style="stop-color:rgb(56,201,239)"/><stop offset="100%" stop-opacity="1" style="stop-color:rgb(55,201,239)"/></linearGradient><path d=" M 0 0.231 L 0 195.604 L 664.942 195.604 L 664.942 0.231 L 0 0.231 Z " fill="url(#_lgradient_4)"/></g></g></g></g></g></g></svg>