<?xml version="1.0" standalone="no"?><!-- Generator: Gravit.io --><svg xmlns="http://www.w3.org/2000/svg" xmlns:xlink="http://www.w3.org/1999/xlink" style="isolation:isolate" viewBox="0 0 533.418 177.209" width="533.418" height="177.209"><defs><clipPath id="_clipPath_i20TipAge5RBoeDoyQHfuG16I78XiJXW"><rect width="533.418" height="177.209"/></clipPath></defs><g clip-path="url(#_clipPath_i20TipAge5RBoeDoyQHfuG16I78XiJXW)"><g style="isolation:isolate" id="background"/><g style="isolation:isolate" id="いつでも相談室"><g id="Group"><path d=" M 135.592 108.925 C 134.701 108.925 133.976 109.65 133.976 110.544 L 133.976 112.989 C 133.976 113.88 134.701 114.605 135.592 114.605 C 136.485 114.605 137.208 113.88 137.208 112.989 L 137.208 110.544 C 137.208 109.65 136.485 108.925 135.592 108.925 Z  M 264.898 115.348 C 264.008 115.348 263.283 116.073 263.283 116.966 L 263.283 119.412 C 263.283 120.303 264.008 121.028 264.898 121.028 C 265.789 121.028 266.514 120.303 266.514 119.412 L 266.514 116.966 C 266.514 116.073 265.789 115.348 264.898 115.348 Z  M 135.592 117.896 C 134.701 117.896 133.976 118.621 133.976 119.514 L 133.976 121.96 C 133.976 122.851 134.701 123.576 135.592 123.576 C 136.485 123.576 137.208 122.851 137.208 121.96 L 137.208 119.514 C 137.208 118.621 136.485 117.896 135.592 117.896 Z  M 264.898 124.319 C 264.008 124.319 263.283 125.044 263.283 125.937 L 263.283 128.383 C 263.283 129.274 264.008 129.999 264.898 129.999 C 265.789 129.999 266.514 129.274 266.514 128.383 L 266.514 125.937 C 266.514 125.044 265.789 124.319 264.898 124.319 Z  M 135.592 126.866 C 134.701 126.866 133.976 127.591 133.976 128.485 L 133.976 130.93 C 133.976 131.821 134.701 132.546 135.592 132.546 C 136.485 132.546 137.208 131.821 137.208 130.93 L 137.208 128.485 C 137.208 127.591 136.485 126.866 135.592 126.866 Z  M 264.896 133.289 C 264.008 133.289 263.285 134.009 263.28 134.9 C 263.277 135.681 263.249 136.47 263.201 137.246 C 263.145 138.137 263.819 138.908 264.71 138.964 C 265.603 139.02 266.369 138.346 266.425 137.453 C 266.479 136.613 266.507 135.758 266.512 134.915 C 266.517 134.022 265.797 133.294 264.904 133.292 C 264.901 133.289 264.901 133.289 264.896 133.289 Z  M 135.684 135.834 C 135.648 135.834 135.612 135.834 135.576 135.837 C 134.686 135.895 134.012 136.666 134.07 137.557 C 134.126 138.4 134.208 139.25 134.315 140.087 C 134.428 140.973 135.234 141.601 136.12 141.489 C 137.006 141.374 137.634 140.567 137.519 139.679 C 137.422 138.905 137.346 138.122 137.295 137.343 C 137.238 136.49 136.529 135.834 135.684 135.834 Z  M 263.88 142.178 C 263.142 142.178 262.476 142.686 262.305 143.436 C 262.131 144.195 261.935 144.958 261.713 145.706 C 261.462 146.564 261.953 147.462 262.81 147.712 C 263.665 147.965 264.564 147.475 264.814 146.617 C 265.052 145.805 265.266 144.978 265.455 144.156 C 265.654 143.286 265.113 142.418 264.24 142.219 C 264.117 142.191 263.997 142.178 263.88 142.178 Z  M 137.256 144.641 C 137.106 144.641 136.95 144.662 136.799 144.708 C 135.942 144.963 135.454 145.862 135.707 146.719 C 135.947 147.529 136.215 148.34 136.503 149.134 C 136.807 149.974 137.736 150.408 138.573 150.102 C 139.411 149.795 139.845 148.869 139.538 148.031 C 139.273 147.299 139.025 146.548 138.806 145.8 C 138.596 145.098 137.953 144.641 137.256 144.641 Z  M 260.931 150.63 C 260.329 150.63 259.752 150.967 259.474 151.549 C 259.137 152.251 258.774 152.953 258.394 153.635 C 257.96 154.416 258.241 155.401 259.019 155.835 C 259.798 156.269 260.783 155.989 261.217 155.207 C 261.628 154.47 262.021 153.709 262.387 152.948 C 262.775 152.141 262.435 151.176 261.631 150.791 C 261.404 150.681 261.166 150.63 260.931 150.63 Z  M 140.728 152.884 C 140.46 152.884 140.189 152.951 139.942 153.091 C 139.163 153.528 138.885 154.513 139.321 155.292 C 139.73 156.029 140.172 156.762 140.626 157.472 C 141.108 158.225 142.107 158.442 142.86 157.959 C 143.61 157.477 143.83 156.476 143.347 155.726 C 142.926 155.07 142.52 154.393 142.142 153.711 C 141.844 153.183 141.292 152.884 140.728 152.884 Z  M 256.193 158.225 C 255.716 158.225 255.244 158.437 254.925 158.84 C 254.442 159.453 253.934 160.058 253.416 160.637 C 252.821 161.306 252.88 162.327 253.546 162.922 C 254.212 163.517 255.234 163.458 255.828 162.792 C 256.387 162.164 256.936 161.508 257.46 160.846 C 258.014 160.144 257.894 159.128 257.194 158.572 C 256.898 158.34 256.546 158.225 256.193 158.225 Z  M 145.925 160.162 C 145.54 160.162 145.157 160.298 144.848 160.576 C 144.184 161.173 144.128 162.194 144.723 162.858 C 145.285 163.486 145.872 164.109 146.472 164.701 C 147.105 165.332 148.129 165.324 148.757 164.691 C 149.385 164.055 149.379 163.032 148.746 162.404 C 148.192 161.855 147.649 161.283 147.128 160.701 C 146.809 160.344 146.37 160.162 145.925 160.162 Z  M 249.914 164.599 C 249.554 164.599 249.194 164.717 248.895 164.962 C 248.29 165.454 247.665 165.934 247.031 166.386 C 246.306 166.907 246.143 167.918 246.661 168.643 C 247.182 169.37 248.193 169.536 248.918 169.015 C 249.602 168.523 250.281 168.005 250.937 167.471 C 251.629 166.909 251.734 165.891 251.17 165.196 C 250.848 164.803 250.383 164.599 249.914 164.599 Z  M 152.588 166.133 C 152.083 166.133 151.588 166.371 151.271 166.812 C 150.753 167.537 150.921 168.548 151.646 169.069 C 152.333 169.559 153.043 170.037 153.757 170.483 C 154.513 170.958 155.511 170.731 155.984 169.973 C 156.458 169.215 156.231 168.219 155.473 167.744 C 154.814 167.331 154.158 166.889 153.523 166.435 C 153.242 166.23 152.915 166.133 152.588 166.133 Z  M 242.401 169.444 C 242.158 169.444 241.911 169.498 241.681 169.613 C 240.984 169.96 240.269 170.289 239.554 170.593 C 238.732 170.943 238.349 171.892 238.699 172.714 C 239.046 173.536 239.996 173.922 240.815 173.572 C 241.591 173.243 242.365 172.885 243.121 172.508 C 243.92 172.112 244.244 171.139 243.848 170.34 C 243.567 169.771 242.996 169.444 242.401 169.444 Z  M 160.395 170.504 C 159.764 170.504 159.167 170.876 158.906 171.494 C 158.559 172.316 158.945 173.263 159.767 173.613 C 160.545 173.94 161.344 174.249 162.141 174.529 C 162.983 174.826 163.905 174.381 164.201 173.539 C 164.497 172.697 164.053 171.772 163.213 171.476 C 162.478 171.218 161.74 170.933 161.02 170.629 C 160.816 170.545 160.604 170.504 160.395 170.504 Z  M 234.01 172.518 C 233.882 172.518 233.754 172.531 233.627 172.564 C 232.869 172.748 232.098 172.911 231.332 173.051 C 230.454 173.21 229.869 174.05 230.03 174.93 C 230.188 175.811 231.031 176.393 231.906 176.235 C 232.738 176.084 233.573 175.908 234.393 175.706 C 235.261 175.494 235.789 174.619 235.577 173.751 C 235.398 173.013 234.737 172.518 234.01 172.518 Z  M 168.97 173.041 C 168.199 173.041 167.52 173.59 167.382 174.376 C 167.223 175.254 167.811 176.094 168.689 176.253 C 169.518 176.398 170.363 176.523 171.201 176.623 C 172.087 176.725 172.888 176.089 172.993 175.201 C 173.095 174.315 172.462 173.511 171.573 173.409 C 170.8 173.317 170.019 173.202 169.253 173.067 C 169.158 173.049 169.061 173.041 168.97 173.041 Z  M 225.144 173.664 L 225.113 173.664 C 224.866 173.669 224.623 173.669 224.37 173.669 L 222.698 173.669 C 221.807 173.669 221.082 174.394 221.082 175.288 C 221.082 176.181 221.807 176.906 222.698 176.906 L 224.368 176.906 C 224.638 176.906 224.904 176.904 225.172 176.896 C 226.063 176.881 226.773 176.143 226.757 175.249 C 226.742 174.366 226.022 173.664 225.144 173.664 Z  M 216.181 173.669 L 213.738 173.669 C 212.847 173.669 212.122 174.394 212.122 175.288 C 212.122 176.181 212.847 176.906 213.738 176.906 L 216.181 176.906 C 217.074 176.906 217.797 176.181 217.797 175.288 C 217.797 174.394 217.074 173.669 216.181 173.669 Z  M 207.221 173.669 L 204.778 173.669 C 203.884 173.669 203.162 174.394 203.162 175.288 C 203.162 176.181 203.884 176.906 204.778 176.906 L 207.221 176.906 C 208.112 176.906 208.837 176.181 208.837 175.288 C 208.837 174.394 208.112 173.669 207.221 173.669 Z  M 198.258 173.669 L 195.815 173.669 C 194.921 173.669 194.199 174.394 194.199 175.288 C 194.199 176.181 194.921 176.906 195.815 176.906 L 198.258 176.906 C 199.151 176.906 199.874 176.181 199.874 175.288 C 199.874 174.394 199.151 173.669 198.258 173.669 Z  M 189.297 173.669 L 186.854 173.669 C 185.964 173.669 185.239 174.394 185.239 175.288 C 185.239 176.181 185.964 176.906 186.854 176.906 L 189.297 176.906 C 190.188 176.906 190.913 176.181 190.913 175.288 C 190.913 174.394 190.191 173.669 189.297 173.669 Z  M 180.337 173.669 L 177.894 173.669 C 177.001 173.669 176.278 174.394 176.278 175.288 C 176.278 176.181 177.001 176.906 177.894 176.906 L 180.337 176.906 C 181.228 176.906 181.953 176.181 181.953 175.288 C 181.953 174.394 181.231 173.669 180.337 173.669 Z " fill="rgb(25,25,25)"/><path d=" M 135.592 101.444 C 134.701 101.444 133.976 102.169 133.976 103.063 L 133.976 104.275 C 133.976 105.169 134.701 105.894 135.592 105.894 C 136.485 105.894 137.208 105.169 137.208 104.275 L 137.208 103.063 C 137.208 102.167 136.485 101.444 135.592 101.444 Z " fill="rgb(25,25,25)"/><path d=" M 257.659 106.205 L 264.041 99.818 C 264.503 99.356 265.292 99.356 265.754 99.818 L 272.136 106.205 C 273.238 107.311 271.526 109.026 270.42 107.923 L 264.041 101.536 L 265.754 101.536 L 259.374 107.923 C 258.269 109.026 256.553 107.313 257.659 106.205 Z " fill="rgb(25,25,25)"/><path d=" M 137.997 103.872 C 137.997 103.553 137.935 103.244 137.813 102.95 C 137.69 102.657 137.517 102.396 137.292 102.169 C 137.067 101.945 136.807 101.771 136.513 101.648 C 136.217 101.526 135.911 101.465 135.592 101.465 C 135.275 101.465 134.966 101.526 134.673 101.648 C 134.379 101.771 134.119 101.945 133.894 102.169 C 133.67 102.396 133.496 102.657 133.373 102.95 C 133.251 103.244 133.19 103.553 133.19 103.872 C 133.19 104.188 133.251 104.497 133.373 104.791 C 133.496 105.087 133.67 105.345 133.894 105.572 C 134.119 105.797 134.379 105.97 134.673 106.093 C 134.966 106.215 135.275 106.277 135.592 106.277 C 135.911 106.277 136.217 106.215 136.513 106.093 C 136.807 105.97 137.067 105.797 137.292 105.572 C 137.517 105.345 137.69 105.087 137.813 104.791 C 137.935 104.497 137.997 104.188 137.997 103.872 Z " fill="rgb(25,25,25)"/><path d=" M 136.784 103.872 C 136.715 102.338 134.4 102.317 134.4 103.872 C 134.402 105.424 136.715 105.406 136.784 103.872 C 136.853 102.317 139.275 102.307 139.207 103.872 C 139.12 105.832 137.621 107.489 135.592 107.489 C 133.618 107.489 131.99 105.835 131.977 103.872 C 131.964 101.906 133.641 100.252 135.592 100.252 C 137.621 100.252 139.12 101.909 139.207 103.872 C 139.278 105.432 136.855 105.429 136.784 103.872 Z " fill="rgb(25,25,25)"/><path d=" M 264.898 107.916 C 264.008 107.916 263.283 108.638 263.283 109.531 L 263.283 110.744 C 263.283 111.638 264.008 112.363 264.898 112.363 C 265.789 112.363 266.514 111.638 266.514 110.744 L 266.514 109.531 C 266.514 108.638 265.789 107.916 264.898 107.916 Z " fill="rgb(25,25,25)"/></g><g id="Group"><path d=" M 393.845 69.596 C 392.954 69.596 392.229 68.873 392.229 67.98 L 392.229 66.767 C 392.229 65.874 392.954 65.149 393.845 65.149 C 394.739 65.149 395.461 65.874 395.461 66.767 L 395.461 67.98 C 395.461 68.873 394.739 69.596 393.845 69.596 Z " fill="rgb(25,25,25)"/><path d=" M 264.541 67.981 C 263.648 67.981 262.925 67.256 262.925 66.362 L 262.925 63.917 C 262.925 63.026 263.648 62.301 264.541 62.301 C 265.432 62.301 266.157 63.026 266.157 63.917 L 266.157 66.362 C 266.157 67.256 265.432 67.981 264.541 67.981 Z  M 393.845 61.558 C 392.954 61.558 392.229 60.833 392.229 59.94 L 392.229 57.494 C 392.229 56.603 392.954 55.878 393.845 55.878 C 394.739 55.878 395.461 56.603 395.461 57.494 L 395.461 59.94 C 395.461 60.833 394.739 61.558 393.845 61.558 Z  M 264.541 59.01 C 263.648 59.01 262.925 58.285 262.925 57.392 L 262.925 54.946 C 262.925 54.055 263.648 53.33 264.541 53.33 C 265.432 53.33 266.157 54.055 266.157 54.946 L 266.157 57.392 C 266.157 58.285 265.432 59.01 264.541 59.01 Z  M 393.845 52.588 C 392.954 52.588 392.229 51.863 392.229 50.969 L 392.229 48.524 C 392.229 47.633 392.954 46.908 393.845 46.908 C 394.739 46.908 395.461 47.633 395.461 48.524 L 395.461 50.969 C 395.461 51.863 394.739 52.588 393.845 52.588 Z  M 264.541 50.04 C 263.648 50.04 262.925 49.315 262.925 48.421 L 262.925 45.976 C 262.925 45.085 263.648 44.36 264.541 44.36 C 265.432 44.36 266.157 45.085 266.157 45.976 L 266.157 48.421 C 266.157 49.315 265.432 50.04 264.541 50.04 Z  M 393.845 43.617 C 392.954 43.617 392.234 42.897 392.229 42.006 C 392.224 41.225 392.199 40.436 392.148 39.66 C 392.091 38.767 392.765 37.998 393.656 37.942 C 394.55 37.886 395.316 38.56 395.372 39.451 C 395.425 40.293 395.456 41.146 395.461 41.991 C 395.464 42.884 394.744 43.612 393.85 43.614 C 393.848 43.617 393.848 43.617 393.845 43.617 Z  M 264.633 41.072 C 264.597 41.072 264.559 41.072 264.523 41.069 C 263.632 41.011 262.961 40.24 263.017 39.349 C 263.073 38.506 263.155 37.656 263.262 36.819 C 263.374 35.933 264.184 35.305 265.07 35.417 C 265.953 35.532 266.581 36.339 266.468 37.227 C 266.369 38.001 266.292 38.785 266.241 39.563 C 266.188 40.416 265.475 41.072 264.633 41.072 Z  M 392.827 34.728 C 392.089 34.728 391.423 34.22 391.252 33.47 C 391.081 32.712 390.881 31.948 390.662 31.2 C 390.412 30.343 390.899 29.444 391.757 29.194 C 392.612 28.941 393.511 29.431 393.761 30.289 C 393.998 31.101 394.215 31.928 394.404 32.75 C 394.601 33.62 394.06 34.488 393.189 34.687 C 393.067 34.715 392.944 34.728 392.827 34.728 Z  M 266.206 32.265 C 266.052 32.265 265.897 32.244 265.746 32.198 C 264.888 31.943 264.401 31.045 264.656 30.187 C 264.893 29.378 265.161 28.566 265.45 27.772 C 265.756 26.932 266.683 26.498 267.52 26.804 C 268.358 27.108 268.792 28.037 268.485 28.875 C 268.22 29.607 267.972 30.358 267.753 31.103 C 267.543 31.808 266.9 32.265 266.206 32.265 Z  M 389.878 26.276 C 389.276 26.276 388.699 25.939 388.421 25.357 C 388.084 24.655 387.721 23.953 387.343 23.271 C 386.907 22.49 387.188 21.505 387.969 21.071 C 388.747 20.637 389.733 20.918 390.164 21.696 C 390.575 22.437 390.971 23.197 391.336 23.958 C 391.721 24.765 391.382 25.73 390.578 26.115 C 390.35 26.225 390.113 26.276 389.878 26.276 Z  M 269.675 24.022 C 269.409 24.022 269.136 23.955 268.889 23.815 C 268.11 23.378 267.832 22.393 268.268 21.615 C 268.679 20.877 269.118 20.144 269.573 19.434 C 270.055 18.681 271.056 18.464 271.806 18.947 C 272.557 19.429 272.776 20.43 272.294 21.181 C 271.875 21.837 271.469 22.513 271.089 23.195 C 270.79 23.723 270.241 24.022 269.675 24.022 Z  M 385.14 18.681 C 384.663 18.681 384.191 18.469 383.874 18.066 C 383.389 17.453 382.884 16.848 382.363 16.266 C 381.768 15.6 381.827 14.579 382.493 13.984 C 383.159 13.389 384.18 13.446 384.775 14.112 C 385.334 14.742 385.886 15.398 386.409 16.06 C 386.96 16.762 386.84 17.778 386.141 18.334 C 385.845 18.566 385.493 18.681 385.14 18.681 Z  M 274.872 16.744 C 274.489 16.744 274.104 16.608 273.795 16.33 C 273.131 15.733 273.075 14.712 273.67 14.048 C 274.232 13.42 274.819 12.797 275.419 12.205 C 276.052 11.574 277.078 11.582 277.703 12.215 C 278.334 12.851 278.326 13.874 277.693 14.502 C 277.139 15.051 276.595 15.623 276.075 16.205 C 275.758 16.563 275.316 16.744 274.872 16.744 Z  M 378.86 12.307 C 378.503 12.307 378.14 12.19 377.842 11.945 C 377.239 11.452 376.611 10.972 375.981 10.52 C 375.253 9.999 375.09 8.988 375.611 8.263 C 376.129 7.536 377.14 7.37 377.865 7.891 C 378.549 8.383 379.228 8.902 379.884 9.433 C 380.576 9.997 380.68 11.015 380.119 11.71 C 379.797 12.103 379.33 12.307 378.86 12.307 Z  M 281.535 10.77 C 281.032 10.77 280.534 10.535 280.218 10.094 C 279.7 9.369 279.868 8.358 280.593 7.837 C 281.28 7.347 281.992 6.87 282.704 6.423 C 283.462 5.945 284.458 6.175 284.933 6.933 C 285.405 7.689 285.178 8.687 284.422 9.162 C 283.761 9.576 283.105 10.017 282.472 10.472 C 282.189 10.673 281.862 10.77 281.535 10.77 Z  M 371.347 7.462 C 371.105 7.462 370.86 7.408 370.628 7.293 C 369.931 6.946 369.216 6.617 368.501 6.313 C 367.682 5.963 367.296 5.014 367.646 4.192 C 367.993 3.37 368.943 2.984 369.765 3.334 C 370.538 3.663 371.314 4.021 372.067 4.396 C 372.866 4.794 373.193 5.764 372.795 6.566 C 372.514 7.135 371.942 7.462 371.347 7.462 Z  M 289.344 6.402 C 288.714 6.402 288.114 6.03 287.853 5.412 C 287.506 4.59 287.892 3.643 288.714 3.293 C 289.492 2.966 290.294 2.657 291.088 2.377 C 291.93 2.081 292.852 2.525 293.148 3.367 C 293.444 4.21 293.002 5.134 292.16 5.43 C 291.425 5.688 290.687 5.974 289.967 6.277 C 289.765 6.362 289.551 6.402 289.344 6.402 Z  M 362.959 4.388 C 362.831 4.388 362.704 4.375 362.574 4.342 C 361.818 4.159 361.044 3.995 360.279 3.855 C 359.4 3.696 358.816 2.857 358.977 1.976 C 359.135 1.095 359.977 0.513 360.853 0.671 C 361.685 0.822 362.52 0.998 363.339 1.2 C 364.207 1.412 364.736 2.287 364.526 3.155 C 364.345 3.893 363.684 4.388 362.959 4.388 Z  M 297.916 3.865 C 297.148 3.865 296.466 3.316 296.328 2.53 C 296.17 1.652 296.757 0.812 297.636 0.654 C 298.465 0.508 299.31 0.383 300.147 0.283 C 301.033 0.181 301.837 0.817 301.94 1.705 C 302.044 2.591 301.409 3.395 300.52 3.497 C 299.747 3.589 298.966 3.704 298.2 3.839 C 298.105 3.857 298.011 3.865 297.916 3.865 Z  M 354.091 3.242 L 354.06 3.242 C 353.812 3.237 353.572 3.237 353.317 3.237 L 351.645 3.237 C 350.754 3.237 350.029 2.512 350.029 1.618 C 350.029 0.725 350.754 0 351.645 0 L 353.317 0 C 353.585 0 353.851 0.003 354.119 0.01 C 355.012 0.026 355.722 0.763 355.704 1.657 C 355.689 2.537 354.969 3.242 354.091 3.242 Z  M 345.128 3.237 L 342.685 3.237 C 341.794 3.237 341.069 2.512 341.069 1.618 C 341.069 0.725 341.794 0 342.685 0 L 345.128 0 C 346.021 0 346.744 0.725 346.744 1.618 C 346.744 2.512 346.021 3.237 345.128 3.237 Z  M 336.167 3.237 L 333.724 3.237 C 332.833 3.237 332.108 2.512 332.108 1.618 C 332.108 0.725 332.833 0 333.724 0 L 336.167 0 C 337.058 0 337.783 0.725 337.783 1.618 C 337.783 2.512 337.058 3.237 336.167 3.237 Z  M 327.207 3.237 L 324.762 3.237 C 323.871 3.237 323.146 2.512 323.146 1.618 C 323.146 0.725 323.871 0 324.762 0 L 327.207 0 C 328.098 0 328.823 0.725 328.823 1.618 C 328.823 2.512 328.098 3.237 327.207 3.237 Z  M 318.244 3.237 L 315.801 3.237 C 314.91 3.237 314.185 2.512 314.185 1.618 C 314.185 0.725 314.91 0 315.801 0 L 318.244 0 C 319.138 0 319.86 0.725 319.86 1.618 C 319.86 2.512 319.138 3.237 318.244 3.237 Z  M 309.284 3.237 L 306.841 3.237 C 305.947 3.237 305.225 2.512 305.225 1.618 C 305.225 0.725 305.947 0 306.841 0 L 309.284 0 C 310.175 0 310.9 0.725 310.9 1.618 C 310.9 2.512 310.177 3.237 309.284 3.237 Z " fill="rgb(25,25,25)"/><path d=" M 264.541 76.067 C 263.648 76.067 262.925 75.342 262.925 74.448 L 262.925 73.236 C 262.925 72.342 263.648 71.617 264.541 71.617 C 265.432 71.617 266.157 72.342 266.157 73.236 L 266.157 74.448 C 266.157 75.344 265.432 76.067 264.541 76.067 Z " fill="rgb(25,25,25)"/><path d=" M 386.608 71.303 L 392.988 77.693 C 393.45 78.155 394.238 78.155 394.703 77.693 L 401.082 71.303 C 402.188 70.201 400.475 68.483 399.369 69.588 L 392.988 75.975 L 394.703 75.975 L 388.321 69.588 C 387.216 68.483 385.503 70.198 386.608 71.303 Z " fill="rgb(25,25,25)"/><path d=" M 266.943 73.639 C 266.943 73.958 266.882 74.267 266.759 74.561 C 266.637 74.854 266.463 75.115 266.239 75.342 C 266.014 75.567 265.754 75.74 265.46 75.863 C 265.164 75.985 264.858 76.046 264.541 76.046 C 264.222 76.046 263.916 75.985 263.62 75.863 C 263.326 75.74 263.066 75.567 262.841 75.342 C 262.616 75.115 262.443 74.854 262.32 74.561 C 262.198 74.267 262.136 73.958 262.136 73.639 C 262.136 73.32 262.198 73.014 262.32 72.72 C 262.443 72.424 262.616 72.166 262.841 71.939 C 263.066 71.714 263.326 71.541 263.62 71.418 C 263.916 71.296 264.222 71.234 264.541 71.234 C 264.858 71.234 265.164 71.296 265.46 71.418 C 265.754 71.541 266.014 71.714 266.239 71.939 C 266.463 72.166 266.637 72.424 266.759 72.72 C 266.882 73.014 266.943 73.32 266.943 73.639 Z " fill="rgb(25,25,25)"/><path d=" M 265.731 73.639 C 265.662 75.173 263.346 75.194 263.346 73.639 C 263.349 72.087 265.662 72.102 265.731 73.639 C 265.8 75.194 268.225 75.204 268.153 73.639 C 268.067 71.679 266.568 70.022 264.541 70.022 C 262.568 70.022 260.939 71.676 260.926 73.639 C 260.911 75.605 262.591 77.259 264.541 77.259 C 266.568 77.259 268.067 75.602 268.153 73.639 C 268.225 72.079 265.802 72.082 265.731 73.639 Z " fill="rgb(25,25,25)"/></g><g id="Group"><path d=" M 525.825 107.916 C 524.931 107.916 524.209 108.638 524.209 109.531 L 524.209 110.744 C 524.209 111.638 524.931 112.363 525.825 112.363 C 526.716 112.363 527.441 111.638 527.441 110.744 L 527.441 109.531 C 527.441 108.638 526.716 107.916 525.825 107.916 Z " fill="rgb(25,25,25)"/><path d=" M 396.518 109.228 C 395.627 109.228 394.902 109.953 394.902 110.846 L 394.902 113.292 C 394.902 114.183 395.627 114.908 396.518 114.908 C 397.409 114.908 398.134 114.183 398.134 113.292 L 398.134 110.846 C 398.134 109.953 397.409 109.228 396.518 109.228 Z  M 525.825 115.651 C 524.931 115.651 524.209 116.376 524.209 117.269 L 524.209 119.715 C 524.209 120.606 524.931 121.33 525.825 121.33 C 526.716 121.33 527.441 120.606 527.441 119.715 L 527.441 117.269 C 527.441 116.376 526.716 115.651 525.825 115.651 Z  M 396.518 118.198 C 395.627 118.198 394.902 118.923 394.902 119.817 L 394.902 122.262 C 394.902 123.153 395.627 123.878 396.518 123.878 C 397.409 123.878 398.134 123.153 398.134 122.262 L 398.134 119.817 C 398.134 118.923 397.409 118.198 396.518 118.198 Z  M 525.825 124.621 C 524.931 124.621 524.209 125.346 524.209 126.24 L 524.209 128.685 C 524.209 129.576 524.931 130.301 525.825 130.301 C 526.716 130.301 527.441 129.576 527.441 128.685 L 527.441 126.24 C 527.441 125.346 526.716 124.621 525.825 124.621 Z  M 396.518 127.169 C 395.627 127.169 394.902 127.894 394.902 128.787 L 394.902 131.233 C 394.902 132.124 395.627 132.849 396.518 132.849 C 397.409 132.849 398.134 132.124 398.134 131.233 L 398.134 128.787 C 398.134 127.894 397.409 127.169 396.518 127.169 Z  M 525.822 133.592 C 524.934 133.592 524.211 134.311 524.206 135.202 C 524.204 135.984 524.176 136.772 524.127 137.548 C 524.068 138.439 524.745 139.21 525.636 139.266 C 526.529 139.323 527.295 138.649 527.351 137.755 C 527.405 136.915 527.433 136.06 527.438 135.218 C 527.441 134.324 526.723 133.597 525.83 133.594 C 525.827 133.592 525.825 133.592 525.822 133.592 Z  M 396.61 136.137 C 396.574 136.137 396.538 136.137 396.503 136.139 C 395.612 136.198 394.938 136.969 394.997 137.86 C 395.053 138.702 395.134 139.552 395.239 140.39 C 395.354 141.275 396.161 141.903 397.046 141.791 C 397.932 141.676 398.56 140.87 398.445 139.981 C 398.348 139.208 398.272 138.424 398.221 137.645 C 398.165 136.793 397.455 136.137 396.61 136.137 Z  M 524.804 142.48 C 524.068 142.48 523.402 142.988 523.231 143.739 C 523.057 144.497 522.858 145.26 522.639 146.008 C 522.389 146.866 522.879 147.765 523.734 148.015 C 524.592 148.268 525.49 147.777 525.74 146.92 C 525.978 146.108 526.192 145.281 526.381 144.459 C 526.58 143.588 526.037 142.72 525.166 142.521 C 525.044 142.493 524.924 142.48 524.804 142.48 Z  M 398.182 144.944 C 398.032 144.944 397.876 144.964 397.723 145.01 C 396.868 145.265 396.38 146.164 396.633 147.022 C 396.873 147.831 397.141 148.643 397.427 149.437 C 397.733 150.277 398.66 150.711 399.497 150.404 C 400.337 150.098 400.768 149.171 400.465 148.334 C 400.197 147.601 399.949 146.851 399.729 146.103 C 399.523 145.401 398.879 144.944 398.182 144.944 Z  M 521.858 150.933 C 521.255 150.933 520.678 151.27 520.4 151.852 C 520.063 152.554 519.701 153.256 519.32 153.937 C 518.886 154.718 519.167 155.704 519.946 156.138 C 520.724 156.572 521.71 156.291 522.144 155.51 C 522.555 154.772 522.948 154.011 523.313 153.251 C 523.698 152.444 523.359 151.479 522.555 151.094 C 522.33 150.984 522.093 150.933 521.858 150.933 Z  M 401.654 153.187 C 401.386 153.187 401.116 153.253 400.865 153.394 C 400.087 153.83 399.809 154.816 400.245 155.594 C 400.656 156.332 401.095 157.065 401.552 157.774 C 402.032 158.527 403.033 158.744 403.786 158.262 C 404.536 157.779 404.753 156.779 404.273 156.028 C 403.852 155.372 403.446 154.696 403.066 154.014 C 402.767 153.485 402.218 153.187 401.654 153.187 Z  M 517.12 158.527 C 516.642 158.527 516.17 158.739 515.851 159.142 C 515.368 159.755 514.86 160.36 514.342 160.94 C 513.747 161.608 513.806 162.63 514.472 163.224 C 515.136 163.819 516.157 163.76 516.752 163.094 C 517.314 162.466 517.863 161.81 518.386 161.149 C 518.94 160.447 518.82 159.431 518.12 158.874 C 517.824 158.642 517.469 158.527 517.12 158.527 Z  M 406.852 160.465 C 406.466 160.465 406.083 160.6 405.774 160.878 C 405.111 161.476 405.052 162.497 405.647 163.161 C 406.211 163.789 406.798 164.411 407.398 165.004 C 408.031 165.634 409.055 165.627 409.683 164.993 C 410.311 164.358 410.306 163.334 409.67 162.706 C 409.116 162.157 408.575 161.586 408.054 161.003 C 407.735 160.646 407.293 160.465 406.852 160.465 Z  M 510.84 164.902 C 510.48 164.902 510.12 165.019 509.821 165.264 C 509.216 165.757 508.591 166.237 507.958 166.689 C 507.233 167.209 507.067 168.22 507.588 168.945 C 508.108 169.673 509.119 169.839 509.844 169.318 C 510.528 168.825 511.205 168.307 511.861 167.773 C 512.555 167.212 512.66 166.193 512.096 165.499 C 511.774 165.106 511.31 164.902 510.84 164.902 Z  M 413.515 166.436 C 413.009 166.436 412.514 166.673 412.197 167.115 C 411.679 167.84 411.845 168.851 412.573 169.372 C 413.259 169.862 413.969 170.339 414.684 170.786 C 415.439 171.261 416.437 171.033 416.91 170.275 C 417.385 169.517 417.155 168.521 416.399 168.047 C 415.741 167.633 415.085 167.191 414.449 166.737 C 414.168 166.533 413.839 166.436 413.515 166.436 Z  M 503.324 169.747 C 503.082 169.747 502.837 169.8 502.607 169.915 C 501.91 170.262 501.195 170.592 500.481 170.896 C 499.659 171.245 499.276 172.195 499.623 173.017 C 499.973 173.839 500.922 174.224 501.742 173.875 C 502.515 173.545 503.291 173.188 504.047 172.81 C 504.843 172.414 505.17 171.442 504.774 170.643 C 504.491 170.074 503.919 169.747 503.324 169.747 Z  M 421.321 170.806 C 420.69 170.806 420.091 171.179 419.83 171.797 C 419.486 172.619 419.871 173.566 420.693 173.916 C 421.472 174.242 422.271 174.551 423.067 174.832 C 423.907 175.128 424.831 174.684 425.127 173.841 C 425.421 172.999 424.979 172.075 424.137 171.779 C 423.402 171.521 422.666 171.235 421.946 170.931 C 421.742 170.847 421.53 170.806 421.321 170.806 Z  M 494.936 172.82 C 494.808 172.82 494.681 172.833 494.55 172.866 C 493.795 173.05 493.024 173.213 492.258 173.354 C 491.38 173.512 490.795 174.352 490.954 175.233 C 491.112 176.113 491.954 176.696 492.832 176.537 C 493.662 176.387 494.499 176.21 495.316 176.009 C 496.184 175.797 496.715 174.921 496.503 174.053 C 496.325 173.316 495.663 172.82 494.936 172.82 Z  M 429.896 173.344 C 429.125 173.344 428.446 173.893 428.305 174.679 C 428.15 175.557 428.737 176.397 429.612 176.555 C 430.445 176.701 431.29 176.826 432.127 176.925 C 433.01 177.027 433.814 176.392 433.919 175.503 C 434.021 174.618 433.385 173.813 432.5 173.711 C 431.726 173.619 430.945 173.505 430.179 173.369 C 430.085 173.351 429.988 173.344 429.896 173.344 Z  M 486.068 173.967 L 486.037 173.967 C 485.792 173.972 485.549 173.972 485.297 173.972 L 483.624 173.972 C 482.731 173.972 482.009 174.697 482.009 175.59 C 482.009 176.484 482.731 177.209 483.624 177.209 L 485.294 177.209 C 485.565 177.209 485.83 177.206 486.098 177.198 C 486.989 177.183 487.699 176.445 487.683 175.552 C 487.668 174.669 486.948 173.967 486.068 173.967 Z  M 477.107 173.972 L 474.664 173.972 C 473.773 173.972 473.048 174.697 473.048 175.59 C 473.048 176.484 473.773 177.209 474.664 177.209 L 477.107 177.209 C 477.998 177.209 478.723 176.484 478.723 175.59 C 478.723 174.697 477.998 173.972 477.107 173.972 Z  M 468.147 173.972 L 465.704 173.972 C 464.81 173.972 464.088 174.697 464.088 175.59 C 464.088 176.484 464.81 177.209 465.704 177.209 L 468.147 177.209 C 469.038 177.209 469.763 176.484 469.763 175.59 C 469.763 174.697 469.038 173.972 468.147 173.972 Z  M 459.184 173.972 L 456.741 173.972 C 455.848 173.972 455.125 174.697 455.125 175.59 C 455.125 176.484 455.848 177.209 456.741 177.209 L 459.184 177.209 C 460.078 177.209 460.8 176.484 460.8 175.59 C 460.8 174.697 460.078 173.972 459.184 173.972 Z  M 450.224 173.972 L 447.781 173.972 C 446.887 173.972 446.165 174.697 446.165 175.59 C 446.165 176.484 446.887 177.209 447.781 177.209 L 450.224 177.209 C 451.115 177.209 451.84 176.484 451.84 175.59 C 451.84 174.697 451.117 173.972 450.224 173.972 Z  M 441.261 173.972 L 438.818 173.972 C 437.927 173.972 437.202 174.697 437.202 175.59 C 437.202 176.484 437.927 177.209 438.818 177.209 L 441.261 177.209 C 442.154 177.209 442.877 176.484 442.877 175.59 C 442.877 174.697 442.154 173.972 441.261 173.972 Z " fill="rgb(25,25,25)"/><path d=" M 396.518 101.444 C 395.627 101.444 394.902 102.169 394.902 103.063 L 394.902 104.275 C 394.902 105.169 395.627 105.894 396.518 105.894 C 397.409 105.894 398.134 105.169 398.134 104.275 L 398.134 103.063 C 398.134 102.167 397.409 101.444 396.518 101.444 Z " fill="rgb(25,25,25)"/><path d=" M 518.585 106.205 L 524.967 99.818 C 525.429 99.356 526.218 99.356 526.68 99.818 L 533.062 106.205 C 534.165 107.311 532.452 109.026 531.346 107.923 L 524.967 101.536 L 526.68 101.536 L 520.3 107.923 C 519.195 109.026 517.48 107.313 518.585 106.205 Z " fill="rgb(25,25,25)"/><path d=" M 398.92 103.872 C 398.92 103.553 398.859 103.244 398.739 102.95 C 398.616 102.657 398.443 102.396 398.218 102.169 C 397.991 101.945 397.733 101.771 397.437 101.648 C 397.143 101.526 396.837 101.465 396.518 101.465 C 396.199 101.465 395.893 101.526 395.599 101.648 C 395.305 101.771 395.045 101.945 394.82 102.169 C 394.593 102.396 394.42 102.657 394.3 102.95 C 394.177 103.244 394.116 103.553 394.116 103.872 C 394.116 104.188 394.177 104.497 394.3 104.791 C 394.42 105.087 394.593 105.345 394.82 105.572 C 395.045 105.797 395.305 105.97 395.599 106.093 C 395.893 106.215 396.199 106.277 396.518 106.277 C 396.837 106.277 397.143 106.215 397.437 106.093 C 397.733 105.97 397.991 105.797 398.218 105.572 C 398.443 105.345 398.616 105.087 398.739 104.791 C 398.859 104.497 398.92 104.188 398.92 103.872 Z " fill="rgb(25,25,25)"/><path d=" M 397.71 103.872 C 397.639 102.338 395.326 102.317 395.326 103.872 C 395.328 105.424 397.641 105.406 397.71 103.872 C 397.779 102.317 400.202 102.307 400.133 103.872 C 400.046 105.832 398.545 107.489 396.518 107.489 C 394.545 107.489 392.916 105.835 392.903 103.872 C 392.888 101.906 394.568 100.252 396.518 100.252 C 398.545 100.252 400.046 101.909 400.133 103.872 C 400.204 105.432 397.779 105.429 397.71 103.872 Z " fill="rgb(25,25,25)"/></g><g id="Group"><path d=" M 125.682 71.303 L 132.061 77.693 C 132.523 78.155 133.312 78.155 133.777 77.693 L 140.156 71.303 C 141.262 70.201 139.549 68.483 138.443 69.588 L 132.061 75.975 L 133.777 75.975 L 127.395 69.588 C 126.289 68.483 124.576 70.198 125.682 71.303 Z " fill="rgb(25,25,25)"/><path d=" M 132.919 69.596 C 132.028 69.596 131.303 68.873 131.303 67.98 L 131.303 66.767 C 131.303 65.874 132.028 65.149 132.919 65.149 C 133.812 65.149 134.535 65.874 134.535 66.767 L 134.535 67.98 C 134.535 68.873 133.812 69.596 132.919 69.596 Z " fill="rgb(25,25,25)"/><path d=" M 6.017 73.639 C 6.017 73.958 5.956 74.267 5.833 74.561 C 5.713 74.854 5.54 75.115 5.312 75.342 C 5.088 75.567 4.827 75.74 4.534 75.863 C 4.24 75.985 3.934 76.046 3.615 76.046 C 3.296 76.046 2.989 75.985 2.696 75.863 C 2.4 75.74 2.142 75.567 1.915 75.342 C 1.69 75.115 1.516 74.854 1.394 74.561 C 1.271 74.267 1.213 73.958 1.213 73.639 C 1.213 73.32 1.271 73.014 1.394 72.72 C 1.516 72.424 1.69 72.166 1.915 71.939 C 2.142 71.714 2.4 71.541 2.696 71.418 C 2.989 71.296 3.296 71.234 3.615 71.234 C 3.934 71.234 4.24 71.296 4.534 71.418 C 4.827 71.541 5.088 71.714 5.312 71.939 C 5.54 72.166 5.713 72.424 5.833 72.72 C 5.956 73.014 6.017 73.32 6.017 73.639 Z " fill="rgb(25,25,25)"/><path d=" M 4.804 73.639 C 4.736 75.173 2.423 75.194 2.423 73.639 C 2.423 72.087 4.738 72.102 4.804 73.639 C 4.873 75.194 7.299 75.204 7.23 73.639 C 7.143 71.679 5.642 70.022 3.615 70.022 C 1.642 70.022 0.013 71.676 0 73.639 C -0.015 75.605 1.665 77.259 3.615 77.259 C 5.642 77.259 7.143 75.602 7.23 73.639 C 7.301 72.079 4.876 72.082 4.804 73.639 Z " fill="rgb(25,25,25)"/><path d=" M 3.615 68.283 C 2.721 68.283 1.999 67.558 1.999 66.665 L 1.999 64.219 C 1.999 63.328 2.721 62.603 3.615 62.603 C 4.506 62.603 5.231 63.328 5.231 64.219 L 5.231 66.665 C 5.231 67.558 4.506 68.283 3.615 68.283 Z  M 132.919 61.861 C 132.028 61.861 131.303 61.136 131.303 60.242 L 131.303 57.797 C 131.303 56.906 132.028 56.181 132.919 56.181 C 133.812 56.181 134.535 56.906 134.535 57.797 L 134.535 60.242 C 134.535 61.136 133.812 61.861 132.919 61.861 Z  M 3.615 59.313 C 2.721 59.313 1.999 58.588 1.999 57.694 L 1.999 55.249 C 1.999 54.358 2.721 53.633 3.615 53.633 C 4.506 53.633 5.231 54.358 5.231 55.249 L 5.231 57.694 C 5.231 58.588 4.506 59.313 3.615 59.313 Z  M 132.919 52.89 C 132.028 52.89 131.303 52.165 131.303 51.272 L 131.303 48.826 C 131.303 47.935 132.028 47.21 132.919 47.21 C 133.812 47.21 134.535 47.935 134.535 48.826 L 134.535 51.272 C 134.535 52.165 133.812 52.89 132.919 52.89 Z  M 3.615 50.342 C 2.721 50.342 1.999 49.617 1.999 48.724 L 1.999 46.278 C 1.999 45.387 2.721 44.662 3.615 44.662 C 4.506 44.662 5.231 45.387 5.231 46.278 L 5.231 48.724 C 5.231 49.617 4.506 50.342 3.615 50.342 Z  M 132.919 43.92 C 132.031 43.92 131.308 43.2 131.303 42.309 C 131.301 41.528 131.272 40.739 131.221 39.963 C 131.165 39.069 131.842 38.301 132.73 38.245 C 133.624 38.189 134.389 38.862 134.448 39.753 C 134.499 40.596 134.53 41.448 134.535 42.293 C 134.537 43.187 133.818 43.914 132.924 43.917 C 132.924 43.92 132.922 43.92 132.919 43.92 Z  M 3.707 41.374 C 3.671 41.374 3.633 41.374 3.597 41.372 C 2.709 41.313 2.035 40.542 2.093 39.651 C 2.15 38.809 2.229 37.959 2.336 37.121 C 2.448 36.236 3.257 35.608 4.143 35.72 C 5.029 35.835 5.655 36.642 5.542 37.53 C 5.443 38.303 5.369 39.087 5.315 39.866 C 5.261 40.718 4.549 41.374 3.707 41.374 Z  M 131.9 35.031 C 131.163 35.031 130.499 34.523 130.328 33.772 C 130.154 33.014 129.955 32.251 129.736 31.503 C 129.486 30.645 129.976 29.746 130.831 29.496 C 131.686 29.244 132.585 29.734 132.837 30.591 C 133.075 31.403 133.289 32.23 133.478 33.052 C 133.677 33.923 133.133 34.791 132.263 34.99 C 132.14 35.018 132.018 35.031 131.9 35.031 Z  M 5.279 32.567 C 5.126 32.567 4.97 32.547 4.82 32.501 C 3.965 32.246 3.474 31.347 3.73 30.489 C 3.967 29.68 4.235 28.868 4.524 28.074 C 4.83 27.234 5.757 26.801 6.594 27.107 C 7.431 27.411 7.865 28.34 7.559 29.177 C 7.293 29.91 7.046 30.66 6.826 31.406 C 6.617 32.11 5.976 32.567 5.279 32.567 Z  M 128.955 26.578 C 128.35 26.578 127.773 26.241 127.497 25.659 C 127.157 24.957 126.797 24.255 126.417 23.574 C 125.983 22.793 126.264 21.807 127.042 21.373 C 127.821 20.939 128.806 21.22 129.24 21.999 C 129.649 22.739 130.045 23.5 130.41 24.26 C 130.795 25.067 130.456 26.032 129.651 26.418 C 129.424 26.527 129.187 26.578 128.955 26.578 Z  M 8.749 24.324 C 8.483 24.324 8.212 24.258 7.962 24.118 C 7.184 23.681 6.905 22.696 7.342 21.917 C 7.753 21.179 8.192 20.447 8.646 19.737 C 9.129 18.984 10.13 18.767 10.88 19.249 C 11.633 19.732 11.85 20.733 11.368 21.483 C 10.949 22.139 10.543 22.816 10.163 23.497 C 9.864 24.026 9.315 24.324 8.749 24.324 Z  M 124.217 18.984 C 123.737 18.984 123.267 18.772 122.948 18.369 C 122.465 17.756 121.957 17.151 121.439 16.569 C 120.844 15.903 120.9 14.882 121.567 14.287 C 122.233 13.692 123.254 13.748 123.849 14.414 C 124.411 15.045 124.959 15.701 125.483 16.362 C 126.034 17.064 125.917 18.08 125.215 18.637 C 124.921 18.869 124.566 18.984 124.217 18.984 Z  M 13.949 17.046 C 13.563 17.046 13.178 16.911 12.869 16.633 C 12.205 16.035 12.149 15.014 12.744 14.351 C 13.305 13.723 13.895 13.1 14.495 12.507 C 15.128 11.877 16.152 11.885 16.78 12.518 C 17.408 13.153 17.4 14.177 16.767 14.805 C 16.213 15.354 15.669 15.926 15.148 16.508 C 14.832 16.865 14.39 17.046 13.949 17.046 Z  M 117.934 12.61 C 117.577 12.61 117.217 12.492 116.918 12.247 C 116.313 11.754 115.685 11.274 115.055 10.823 C 114.33 10.302 114.164 9.291 114.684 8.566 C 115.205 7.838 116.214 7.672 116.939 8.193 C 117.623 8.686 118.302 9.204 118.958 9.735 C 119.652 10.299 119.757 11.318 119.193 12.012 C 118.871 12.405 118.406 12.61 117.934 12.61 Z  M 20.609 11.073 C 20.106 11.073 19.608 10.838 19.292 10.396 C 18.773 9.671 18.942 8.66 19.667 8.14 C 20.354 7.649 21.066 7.172 21.781 6.725 C 22.536 6.248 23.532 6.478 24.007 7.236 C 24.479 7.992 24.252 8.99 23.496 9.464 C 22.835 9.878 22.181 10.32 21.546 10.774 C 21.265 10.976 20.936 11.073 20.609 11.073 Z  M 110.421 7.764 C 110.179 7.764 109.934 7.711 109.701 7.596 C 109.007 7.249 108.29 6.919 107.575 6.616 C 106.755 6.266 106.37 5.316 106.72 4.494 C 107.069 3.672 108.017 3.287 108.839 3.636 C 109.612 3.966 110.388 4.323 111.141 4.698 C 111.94 5.097 112.267 6.067 111.869 6.868 C 111.588 7.438 111.016 7.764 110.421 7.764 Z  M 28.418 6.705 C 27.787 6.705 27.187 6.332 26.927 5.714 C 26.582 4.892 26.965 3.945 27.79 3.596 C 28.568 3.269 29.367 2.96 30.161 2.679 C 31.004 2.383 31.928 2.827 32.221 3.67 C 32.518 4.512 32.076 5.436 31.234 5.732 C 30.498 5.99 29.761 6.276 29.043 6.58 C 28.839 6.664 28.625 6.705 28.418 6.705 Z  M 102.033 4.691 C 101.905 4.691 101.777 4.678 101.647 4.645 C 100.892 4.461 100.118 4.298 99.352 4.157 C 98.477 3.999 97.89 3.159 98.05 2.278 C 98.209 1.398 99.051 0.816 99.929 0.974 C 100.759 1.125 101.594 1.301 102.413 1.502 C 103.281 1.714 103.812 2.59 103.6 3.458 C 103.419 4.196 102.76 4.691 102.033 4.691 Z  M 36.99 4.167 C 36.222 4.167 35.54 3.619 35.402 2.832 C 35.247 1.954 35.831 1.114 36.709 0.956 C 37.539 0.811 38.384 0.685 39.221 0.586 C 40.107 0.484 40.911 1.119 41.013 2.008 C 41.118 2.894 40.482 3.698 39.597 3.8 C 38.82 3.892 38.042 4.007 37.276 4.142 C 37.179 4.16 37.085 4.167 36.99 4.167 Z  M 93.164 3.545 L 93.134 3.545 C 92.886 3.539 92.646 3.539 92.393 3.539 L 90.719 3.539 C 89.828 3.539 89.103 2.814 89.103 1.921 C 89.103 1.027 89.828 0.303 90.719 0.303 L 92.391 0.303 C 92.661 0.303 92.924 0.305 93.192 0.313 C 94.086 0.328 94.796 1.066 94.778 1.959 C 94.765 2.84 94.043 3.545 93.164 3.545 Z  M 84.204 3.539 L 81.761 3.539 C 80.868 3.539 80.145 2.814 80.145 1.921 C 80.145 1.027 80.868 0.303 81.761 0.303 L 84.204 0.303 C 85.095 0.303 85.82 1.027 85.82 1.921 C 85.82 2.814 85.095 3.539 84.204 3.539 Z  M 75.241 3.539 L 72.798 3.539 C 71.907 3.539 71.182 2.814 71.182 1.921 C 71.182 1.027 71.907 0.303 72.798 0.303 L 75.241 0.303 C 76.135 0.303 76.857 1.027 76.857 1.921 C 76.857 2.814 76.135 3.539 75.241 3.539 Z  M 66.281 3.539 L 63.835 3.539 C 62.944 3.539 62.219 2.814 62.219 1.921 C 62.219 1.027 62.944 0.303 63.835 0.303 L 66.281 0.303 C 67.172 0.303 67.897 1.027 67.897 1.921 C 67.897 2.814 67.172 3.539 66.281 3.539 Z  M 57.318 3.539 L 54.875 3.539 C 53.984 3.539 53.259 2.814 53.259 1.921 C 53.259 1.027 53.984 0.303 54.875 0.303 L 57.318 0.303 C 58.211 0.303 58.934 1.027 58.934 1.921 C 58.934 2.814 58.214 3.539 57.318 3.539 Z  M 48.358 3.539 L 45.915 3.539 C 45.024 3.539 44.299 2.814 44.299 1.921 C 44.299 1.027 45.024 0.303 45.915 0.303 L 48.358 0.303 C 49.249 0.303 49.974 1.027 49.974 1.921 C 49.974 2.814 49.251 3.539 48.358 3.539 Z " fill="rgb(25,25,25)"/></g><g id="Group"><clipPath id="_clipPath_PWgX0QZ0dPjN32Vjkv3fPBbkCJncEBt8"><path d=" M 24.548 26.16 L 115.713 26.16 L 115.713 117.325 L 24.548 117.325 L 24.548 26.16 Z " fill="rgb(255,255,255)"/></clipPath><g clip-path="url(#_clipPath_PWgX0QZ0dPjN32Vjkv3fPBbkCJncEBt8)"><g id="Group"><path d=" M 115.713 71.742 C 115.713 72.488 115.695 73.233 115.66 73.979 C 115.621 74.724 115.568 75.47 115.494 76.21 C 115.422 76.953 115.33 77.693 115.22 78.431 C 115.111 79.169 114.983 79.904 114.838 80.636 C 114.692 81.366 114.529 82.094 114.347 82.819 C 114.166 83.541 113.967 84.261 113.75 84.974 C 113.536 85.688 113.301 86.396 113.048 87.1 C 112.798 87.802 112.53 88.496 112.244 89.186 C 111.958 89.875 111.657 90.557 111.338 91.233 C 111.019 91.907 110.684 92.573 110.332 93.229 C 109.98 93.888 109.612 94.536 109.229 95.177 C 108.846 95.818 108.445 96.446 108.032 97.066 C 107.618 97.687 107.187 98.297 106.743 98.897 C 106.298 99.496 105.842 100.084 105.367 100.661 C 104.894 101.237 104.407 101.802 103.907 102.353 C 103.404 102.907 102.89 103.448 102.362 103.974 C 101.836 104.502 101.295 105.016 100.744 105.518 C 100.19 106.019 99.625 106.506 99.049 106.979 C 98.472 107.451 97.884 107.91 97.285 108.355 C 96.685 108.799 96.075 109.228 95.457 109.644 C 94.836 110.057 94.206 110.456 93.565 110.841 C 92.924 111.224 92.276 111.592 91.62 111.944 C 90.961 112.294 90.295 112.631 89.621 112.95 C 88.947 113.269 88.263 113.57 87.574 113.856 C 86.884 114.142 86.19 114.41 85.488 114.66 C 84.786 114.913 84.076 115.145 83.364 115.362 C 82.649 115.579 81.929 115.778 81.207 115.959 C 80.482 116.141 79.755 116.304 79.024 116.45 C 78.292 116.595 77.557 116.723 76.819 116.832 C 76.081 116.942 75.341 117.032 74.598 117.106 C 73.858 117.18 73.112 117.233 72.367 117.272 C 71.624 117.307 70.876 117.325 70.13 117.325 C 69.385 117.325 68.64 117.307 67.894 117.272 C 67.149 117.233 66.406 117.18 65.663 117.106 C 64.92 117.032 64.18 116.942 63.442 116.832 C 62.704 116.723 61.969 116.595 61.239 116.45 C 60.506 116.304 59.779 116.141 59.056 115.959 C 58.331 115.778 57.614 115.579 56.899 115.362 C 56.185 115.145 55.477 114.913 54.775 114.66 C 54.073 114.41 53.376 114.142 52.687 113.856 C 51.998 113.57 51.316 113.269 50.642 112.95 C 49.969 112.631 49.302 112.294 48.644 111.944 C 47.985 111.592 47.337 111.224 46.696 110.841 C 46.058 110.456 45.427 110.057 44.807 109.644 C 44.186 109.228 43.576 108.799 42.976 108.355 C 42.379 107.91 41.789 107.451 41.215 106.979 C 40.638 106.506 40.071 106.019 39.52 105.518 C 38.966 105.016 38.427 104.502 37.899 103.974 C 37.373 103.448 36.857 102.907 36.357 102.353 C 35.857 101.802 35.369 101.237 34.894 100.661 C 34.422 100.084 33.962 99.496 33.518 98.897 C 33.074 98.297 32.645 97.687 32.232 97.066 C 31.816 96.446 31.417 95.818 31.034 95.177 C 30.649 94.536 30.281 93.888 29.932 93.229 C 29.579 92.573 29.245 91.907 28.926 91.233 C 28.607 90.557 28.303 89.875 28.017 89.186 C 27.734 88.496 27.463 87.802 27.213 87.1 C 26.963 86.396 26.728 85.688 26.511 84.974 C 26.294 84.261 26.095 83.541 25.914 82.819 C 25.732 82.094 25.569 81.366 25.423 80.636 C 25.278 79.904 25.15 79.169 25.043 78.431 C 24.933 77.693 24.841 76.953 24.767 76.21 C 24.696 75.47 24.64 74.724 24.604 73.979 C 24.566 73.233 24.548 72.488 24.548 71.742 C 24.548 70.997 24.566 70.252 24.604 69.506 C 24.64 68.761 24.696 68.018 24.767 67.275 C 24.841 66.532 24.933 65.792 25.043 65.054 C 25.15 64.316 25.278 63.581 25.423 62.851 C 25.569 62.118 25.732 61.391 25.914 60.666 C 26.095 59.943 26.294 59.224 26.511 58.511 C 26.728 57.797 26.963 57.089 27.213 56.387 C 27.463 55.683 27.734 54.988 28.017 54.299 C 28.303 53.61 28.607 52.928 28.926 52.254 C 29.245 51.58 29.579 50.914 29.932 50.256 C 30.281 49.597 30.649 48.949 31.034 48.308 C 31.417 47.67 31.816 47.039 32.232 46.419 C 32.645 45.798 33.074 45.188 33.518 44.588 C 33.962 43.991 34.422 43.401 34.894 42.824 C 35.369 42.25 35.857 41.683 36.357 41.132 C 36.857 40.578 37.373 40.039 37.899 39.511 C 38.427 38.982 38.966 38.469 39.52 37.969 C 40.071 37.466 40.638 36.981 41.215 36.506 C 41.789 36.034 42.379 35.574 42.976 35.13 C 43.576 34.686 44.186 34.257 44.807 33.841 C 45.427 33.428 46.058 33.029 46.696 32.646 C 47.337 32.261 47.985 31.893 48.644 31.544 C 49.302 31.191 49.969 30.854 50.642 30.535 C 51.316 30.219 51.998 29.915 52.687 29.629 C 53.376 29.346 54.073 29.075 54.775 28.825 C 55.477 28.572 56.185 28.34 56.899 28.123 C 57.614 27.906 58.331 27.707 59.056 27.526 C 59.779 27.344 60.506 27.181 61.239 27.035 C 61.969 26.89 62.704 26.762 63.442 26.652 C 64.18 26.545 64.92 26.453 65.663 26.379 C 66.406 26.305 67.149 26.252 67.894 26.216 C 68.64 26.178 69.385 26.16 70.13 26.16 C 70.876 26.16 71.624 26.178 72.367 26.216 C 73.112 26.252 73.858 26.305 74.598 26.379 C 75.341 26.453 76.081 26.545 76.819 26.652 C 77.557 26.762 78.292 26.89 79.024 27.035 C 79.755 27.181 80.482 27.344 81.207 27.526 C 81.929 27.707 82.649 27.906 83.364 28.123 C 84.076 28.34 84.786 28.572 85.488 28.825 C 86.19 29.075 86.884 29.346 87.574 29.629 C 88.263 29.915 88.947 30.219 89.621 30.535 C 90.295 30.854 90.961 31.191 91.62 31.544 C 92.276 31.893 92.924 32.261 93.565 32.646 C 94.206 33.029 94.836 33.428 95.457 33.841 C 96.075 34.257 96.685 34.686 97.285 35.13 C 97.884 35.574 98.472 36.034 99.049 36.506 C 99.625 36.981 100.19 37.466 100.744 37.969 C 101.295 38.469 101.836 38.982 102.362 39.511 C 102.89 40.039 103.404 40.578 103.907 41.132 C 104.407 41.683 104.894 42.25 105.367 42.824 C 105.842 43.401 106.298 43.991 106.743 44.588 C 107.187 45.188 107.618 45.798 108.032 46.419 C 108.445 47.039 108.846 47.67 109.229 48.308 C 109.612 48.949 109.98 49.597 110.332 50.256 C 110.684 50.914 111.019 51.58 111.338 52.254 C 111.657 52.928 111.958 53.61 112.244 54.299 C 112.53 54.988 112.798 55.683 113.048 56.387 C 113.301 57.089 113.536 57.797 113.75 58.511 C 113.967 59.224 114.166 59.943 114.347 60.666 C 114.529 61.391 114.692 62.118 114.838 62.851 C 114.983 63.581 115.111 64.316 115.22 65.054 C 115.33 65.792 115.422 66.532 115.494 67.275 C 115.568 68.018 115.621 68.761 115.66 69.506 C 115.695 70.252 115.713 70.997 115.713 71.742 Z " fill="rgb(134,234,233)"/></g></g><path d=" M 52.118 92.047 L 53.782 92.047 L 53.782 83.317 L 52.118 83.317 L 52.118 92.047 Z  M 54.382 93.247 L 51.521 93.247 C 51.189 93.247 50.921 92.979 50.921 92.647 L 50.921 82.719 C 50.921 82.388 51.189 82.12 51.521 82.12 L 54.382 82.12 C 54.717 82.12 54.982 82.388 54.982 82.719 L 54.982 92.647 C 54.982 92.979 54.717 93.247 54.382 93.247 Z " fill="rgb(2,3,1)"/><path d=" M 56.874 92.047 L 58.538 92.047 L 58.538 85.946 L 56.874 85.946 L 56.874 92.047 Z  M 59.136 93.247 L 56.274 93.247 C 55.939 93.247 55.674 92.979 55.674 92.647 L 55.674 85.346 C 55.674 85.014 55.939 84.746 56.274 84.746 L 59.136 84.746 C 59.467 84.746 59.735 85.014 59.735 85.346 L 59.735 92.647 C 59.735 92.979 59.467 93.247 59.136 93.247 Z " fill="rgb(2,3,1)"/><path d=" M 61.625 92.047 L 63.292 92.047 L 63.292 88.435 L 61.625 88.435 L 61.625 92.047 Z  M 63.891 93.247 L 61.027 93.247 C 60.695 93.247 60.427 92.979 60.427 92.647 L 60.427 87.835 C 60.427 87.503 60.695 87.235 61.027 87.235 L 63.891 87.235 C 64.221 87.235 64.491 87.503 64.491 87.835 L 64.491 92.647 C 64.491 92.979 64.221 93.247 63.891 93.247 Z " fill="rgb(2,3,1)"/><path d=" M 57.4 63.821 L 57.4 59.706 L 61.454 59.706 C 61.216 61.845 59.529 63.548 57.4 63.821 Z  M 52.151 59.706 L 56.202 59.706 L 56.202 63.821 C 54.073 63.548 52.389 61.845 52.151 59.706 Z  M 56.202 54.542 L 56.202 58.506 L 52.174 58.506 C 52.473 56.441 54.124 54.81 56.202 54.542 Z  M 61.428 58.506 L 57.4 58.506 L 57.4 54.542 C 59.478 54.81 61.129 56.441 61.428 58.506 Z  M 56.807 53.299 L 56.8 53.299 C 53.558 53.301 50.921 55.938 50.921 59.18 C 50.921 62.425 53.56 65.062 56.802 65.062 C 60.044 65.062 62.684 62.425 62.684 59.18 C 62.684 55.938 60.044 53.301 56.807 53.299 Z " fill="rgb(2,3,1)"/><path d=" M 51.521 79.431 C 51.408 79.431 51.299 79.401 51.202 79.337 C 50.921 79.161 50.836 78.791 51.013 78.51 L 53.591 74.436 C 53.701 74.262 53.892 74.157 54.096 74.157 L 56.486 74.157 L 58.357 70.412 C 58.459 70.208 58.666 70.081 58.893 70.081 L 61.829 70.081 C 62.161 70.081 62.429 70.349 62.429 70.68 C 62.429 71.01 62.161 71.28 61.829 71.28 L 59.263 71.28 L 57.392 75.025 C 57.287 75.227 57.083 75.355 56.853 75.355 L 54.428 75.355 L 52.029 79.153 C 51.914 79.332 51.717 79.431 51.521 79.431 Z " fill="rgb(2,3,1)"/><path d=" M 60.111 73.407 C 59.94 73.407 59.769 73.333 59.651 73.192 C 59.439 72.94 59.473 72.559 59.725 72.347 L 61.801 70.606 L 59.677 68.927 C 59.414 68.72 59.37 68.345 59.575 68.087 C 59.781 67.826 60.159 67.781 60.42 67.987 L 63.121 70.121 C 63.261 70.234 63.345 70.402 63.348 70.583 C 63.353 70.765 63.274 70.936 63.133 71.051 L 60.496 73.264 C 60.384 73.358 60.246 73.407 60.111 73.407 Z " fill="rgb(2,3,1)"/><path d=" M 80.441 56.275 L 67.973 56.275 C 67.644 56.275 67.376 56.007 67.376 55.675 C 67.376 55.343 67.644 55.075 67.973 55.075 L 80.441 55.075 C 80.773 55.075 81.041 55.343 81.041 55.675 C 81.041 56.007 80.773 56.275 80.441 56.275 Z " fill="rgb(2,3,1)"/><path d=" M 80.441 59.78 L 67.973 59.78 C 67.644 59.78 67.376 59.515 67.376 59.18 C 67.376 58.851 67.644 58.58 67.973 58.58 L 80.441 58.58 C 80.773 58.58 81.041 58.851 81.041 59.18 C 81.041 59.515 80.773 59.78 80.441 59.78 Z " fill="rgb(2,3,1)"/><path d=" M 80.441 63.288 L 67.973 63.288 C 67.644 63.288 67.376 63.02 67.376 62.688 C 67.376 62.358 67.644 62.088 67.973 62.088 L 80.441 62.088 C 80.773 62.088 81.041 62.358 81.041 62.688 C 81.041 63.02 80.773 63.288 80.441 63.288 Z " fill="rgb(2,3,1)"/><path d=" M 80.441 70.737 L 67.973 70.737 C 67.644 70.737 67.376 70.469 67.376 70.137 C 67.376 69.807 67.644 69.539 67.973 69.539 L 80.441 69.539 C 80.773 69.539 81.041 69.807 81.041 70.137 C 81.041 70.469 80.773 70.737 80.441 70.737 Z " fill="rgb(2,3,1)"/><path d=" M 80.441 74.242 L 67.973 74.242 C 67.644 74.242 67.376 73.976 67.376 73.644 C 67.376 73.312 67.644 73.044 67.973 73.044 L 80.441 73.044 C 80.773 73.044 81.041 73.312 81.041 73.644 C 81.041 73.976 80.773 74.242 80.441 74.242 Z " fill="rgb(2,3,1)"/><path d=" M 80.441 77.752 L 67.973 77.752 C 67.644 77.752 67.376 77.481 67.376 77.152 C 67.376 76.82 67.644 76.552 67.973 76.552 L 80.441 76.552 C 80.773 76.552 81.041 76.82 81.041 77.152 C 81.041 77.481 80.773 77.752 80.441 77.752 Z " fill="rgb(2,3,1)"/><path d=" M 80.441 86.235 L 67.973 86.235 C 67.644 86.235 67.376 85.964 67.376 85.635 C 67.376 85.303 67.644 85.035 67.973 85.035 L 80.441 85.035 C 80.773 85.035 81.041 85.303 81.041 85.635 C 81.041 85.964 80.773 86.235 80.441 86.235 Z " fill="rgb(2,3,1)"/><path d=" M 80.441 89.742 L 67.973 89.742 C 67.644 89.742 67.376 89.469 67.376 89.142 C 67.376 88.808 67.644 88.542 67.973 88.542 L 80.441 88.542 C 80.773 88.542 81.041 88.808 81.041 89.142 C 81.041 89.469 80.773 89.742 80.441 89.742 Z " fill="rgb(2,3,1)"/><path d=" M 80.441 93.247 L 67.973 93.247 C 67.644 93.247 67.376 92.979 67.376 92.647 C 67.376 92.315 67.644 92.047 67.973 92.047 L 80.441 92.047 C 80.773 92.047 81.041 92.315 81.041 92.647 C 81.041 92.979 80.773 93.247 80.441 93.247 Z " fill="rgb(2,3,1)"/><path d=" M 85.197 98.759 L 47.26 98.759 C 46.18 98.759 45.302 97.878 45.302 96.801 L 45.302 47.029 C 45.302 45.952 46.18 45.071 47.26 45.071 L 78.208 45.071 C 79.114 45.071 80.316 45.584 80.942 46.237 L 86.047 51.565 C 86.67 52.214 87.155 53.424 87.155 54.322 L 87.155 68.015 C 87.155 68.347 86.887 68.615 86.555 68.615 C 86.223 68.615 85.958 68.347 85.958 68.015 L 85.958 54.322 C 85.958 53.725 85.595 52.826 85.182 52.395 L 80.076 47.067 C 79.668 46.643 78.795 46.268 78.208 46.268 L 47.26 46.268 C 46.841 46.268 46.502 46.613 46.502 47.029 L 46.502 96.801 C 46.502 97.219 46.841 97.559 47.26 97.559 L 85.197 97.559 C 85.616 97.559 85.958 97.219 85.958 96.801 L 85.958 78.566 C 85.958 78.234 86.223 77.966 86.555 77.966 C 86.887 77.966 87.155 78.234 87.155 78.566 L 87.155 96.801 C 87.155 97.878 86.277 98.759 85.197 98.759 Z " fill="rgb(2,3,1)"/><path d=" M 80.472 47.527 L 80.472 51.777 C 80.472 52.193 80.811 52.535 81.23 52.535 L 85.172 52.535 L 80.472 47.527 Z  M 85.197 53.732 L 81.23 53.732 C 80.15 53.732 79.272 52.857 79.272 51.777 L 79.272 47.371 C 79.272 46.419 79.803 46.082 80.255 46.082 C 80.589 46.082 80.919 46.253 81.238 46.59 L 86.062 51.734 C 86.632 52.339 86.54 52.839 86.435 53.082 C 86.328 53.327 86.027 53.732 85.197 53.732 Z " fill="rgb(2,3,1)"/><path d=" M 84.845 80.473 L 82.085 79.199 L 93.943 53.523 L 96.703 54.794 L 84.845 80.473 Z  M 82.192 82.579 L 82.019 80.514 L 83.872 81.372 L 82.192 82.579 Z  M 95.607 51.818 C 95.827 51.818 96.069 51.879 96.33 51.997 C 96.738 52.186 96.996 52.441 97.114 52.773 C 97.221 53.079 97.2 53.408 97.142 53.681 L 96.036 53.168 L 94.499 52.459 C 94.729 52.152 95.099 51.818 95.607 51.818 Z  M 98.247 52.382 C 98.022 51.736 97.547 51.238 96.833 50.909 C 96.417 50.718 96.003 50.618 95.607 50.618 C 93.93 50.618 93.185 52.288 93.103 52.484 L 80.748 79.24 C 80.679 79.383 80.674 79.549 80.727 79.697 C 80.732 79.715 80.742 79.725 80.748 79.74 L 81.085 83.733 C 81.105 83.947 81.235 84.139 81.432 84.228 C 81.513 84.264 81.598 84.284 81.684 84.284 C 81.807 84.284 81.929 84.246 82.034 84.169 L 85.256 81.852 C 85.437 81.813 85.598 81.698 85.682 81.52 L 98.035 54.764 C 98.091 54.654 98.638 53.503 98.247 52.382 Z " fill="rgb(2,3,1)"/></g><g id="Group"><clipPath id="_clipPath_MaSuLSSU8wvNuud9wUCJ1rwxQvNf0EIO"><path d=" M 156.527 67.781 L 247.693 67.781 L 247.693 158.946 L 156.527 158.946 L 156.527 67.781 Z " fill="rgb(255,255,255)"/></clipPath><g clip-path="url(#_clipPath_MaSuLSSU8wvNuud9wUCJ1rwxQvNf0EIO)"><g id="Group"><path d=" M 247.693 113.363 C 247.693 114.109 247.675 114.854 247.636 115.599 C 247.601 116.345 247.545 117.088 247.473 117.831 C 247.399 118.573 247.307 119.314 247.2 120.052 C 247.09 120.789 246.963 121.525 246.817 122.257 C 246.672 122.987 246.508 123.715 246.327 124.44 C 246.146 125.162 245.947 125.882 245.73 126.594 C 245.513 127.309 245.278 128.016 245.028 128.721 C 244.777 129.423 244.507 130.117 244.223 130.806 C 243.937 131.496 243.634 132.177 243.315 132.851 C 242.996 133.528 242.661 134.194 242.309 134.85 C 241.959 135.509 241.591 136.157 241.206 136.798 C 240.823 137.439 240.425 138.067 240.011 138.687 C 239.595 139.307 239.166 139.917 238.722 140.517 C 238.278 141.117 237.818 141.704 237.346 142.281 C 236.871 142.858 236.384 143.422 235.883 143.974 C 235.383 144.528 234.87 145.069 234.342 145.595 C 233.813 146.123 233.274 146.636 232.721 147.137 C 232.169 147.64 231.602 148.127 231.028 148.599 C 230.451 149.072 229.861 149.531 229.264 149.975 C 228.664 150.42 228.054 150.848 227.434 151.265 C 226.813 151.678 226.183 152.076 225.545 152.462 C 224.904 152.845 224.255 153.212 223.597 153.565 C 222.938 153.914 222.272 154.251 221.598 154.57 C 220.924 154.89 220.242 155.191 219.553 155.477 C 218.864 155.763 218.167 156.031 217.465 156.281 C 216.763 156.534 216.056 156.766 215.341 156.983 C 214.626 157.2 213.909 157.399 213.184 157.58 C 212.462 157.761 211.734 157.925 211.001 158.07 C 210.271 158.216 209.536 158.343 208.798 158.453 C 208.061 158.563 207.32 158.652 206.577 158.726 C 205.834 158.8 205.092 158.854 204.346 158.892 C 203.601 158.928 202.855 158.946 202.11 158.946 C 201.365 158.946 200.619 158.928 199.874 158.892 C 199.128 158.854 198.383 158.8 197.643 158.726 C 196.9 158.652 196.159 158.563 195.422 158.453 C 194.684 158.343 193.949 158.216 193.216 158.07 C 192.486 157.925 191.758 157.761 191.033 157.58 C 190.311 157.399 189.591 157.2 188.876 156.983 C 188.164 156.766 187.454 156.534 186.752 156.281 C 186.05 156.031 185.356 155.763 184.667 155.477 C 183.977 155.191 183.296 154.89 182.619 154.57 C 181.945 154.251 181.279 153.914 180.623 153.565 C 179.964 153.212 179.316 152.845 178.675 152.462 C 178.035 152.076 177.407 151.678 176.786 151.265 C 176.166 150.848 175.556 150.42 174.956 149.975 C 174.356 149.531 173.769 149.072 173.192 148.599 C 172.615 148.127 172.051 147.64 171.497 147.137 C 170.945 146.636 170.404 146.123 169.878 145.595 C 169.35 145.069 168.837 144.528 168.334 143.974 C 167.834 143.422 167.346 142.858 166.874 142.281 C 166.401 141.704 165.942 141.117 165.498 140.517 C 165.054 139.917 164.622 139.307 164.209 138.687 C 163.795 138.067 163.394 137.439 163.011 136.798 C 162.628 136.157 162.261 135.509 161.909 134.85 C 161.556 134.194 161.222 133.528 160.903 132.851 C 160.584 132.177 160.282 131.496 159.997 130.806 C 159.711 130.117 159.443 129.423 159.192 128.721 C 158.94 128.016 158.705 127.309 158.49 126.594 C 158.273 125.882 158.074 125.162 157.893 124.44 C 157.712 123.715 157.548 122.987 157.403 122.257 C 157.257 121.525 157.13 120.789 157.02 120.052 C 156.91 119.314 156.818 118.573 156.747 117.831 C 156.673 117.088 156.619 116.345 156.581 115.599 C 156.545 114.854 156.527 114.109 156.527 113.363 C 156.527 112.618 156.545 111.872 156.581 111.127 C 156.619 110.382 156.673 109.639 156.747 108.896 C 156.818 108.153 156.91 107.413 157.02 106.675 C 157.13 105.937 157.257 105.202 157.403 104.472 C 157.548 103.739 157.712 103.012 157.893 102.287 C 158.074 101.564 158.273 100.844 158.49 100.132 C 158.705 99.417 158.94 98.71 159.192 98.008 C 159.443 97.304 159.711 96.609 159.997 95.92 C 160.282 95.231 160.584 94.549 160.903 93.875 C 161.222 93.199 161.556 92.535 161.909 91.876 C 162.261 91.218 162.628 90.569 163.011 89.929 C 163.394 89.29 163.795 88.66 164.209 88.04 C 164.622 87.419 165.054 86.809 165.498 86.209 C 165.942 85.612 166.401 85.022 166.874 84.445 C 167.346 83.868 167.834 83.304 168.334 82.753 C 168.837 82.199 169.35 81.66 169.878 81.132 C 170.404 80.603 170.945 80.09 171.497 79.59 C 172.051 79.087 172.615 78.602 173.192 78.127 C 173.769 77.655 174.356 77.195 174.956 76.751 C 175.556 76.307 176.166 75.878 176.786 75.462 C 177.407 75.048 178.035 74.65 178.675 74.265 C 179.316 73.882 179.964 73.514 180.623 73.162 C 181.279 72.812 181.945 72.475 182.619 72.156 C 183.296 71.837 183.977 71.536 184.667 71.25 C 185.356 70.964 186.05 70.696 186.752 70.446 C 187.454 70.193 188.164 69.961 188.876 69.744 C 189.591 69.527 190.311 69.328 191.033 69.146 C 191.758 68.965 192.486 68.802 193.216 68.656 C 193.949 68.511 194.684 68.383 195.422 68.273 C 196.159 68.163 196.9 68.074 197.643 68 C 198.383 67.926 199.128 67.872 199.874 67.837 C 200.619 67.798 201.365 67.781 202.11 67.781 C 202.855 67.781 203.601 67.798 204.346 67.837 C 205.092 67.872 205.834 67.926 206.577 68 C 207.32 68.074 208.061 68.163 208.798 68.273 C 209.536 68.383 210.271 68.511 211.001 68.656 C 211.734 68.802 212.462 68.965 213.184 69.146 C 213.909 69.328 214.626 69.527 215.341 69.744 C 216.056 69.961 216.763 70.193 217.465 70.446 C 218.167 70.696 218.864 70.964 219.553 71.25 C 220.242 71.536 220.924 71.837 221.598 72.156 C 222.272 72.475 222.938 72.812 223.597 73.162 C 224.255 73.514 224.904 73.882 225.545 74.265 C 226.183 74.65 226.813 75.048 227.434 75.462 C 228.054 75.878 228.664 76.307 229.264 76.751 C 229.861 77.195 230.451 77.655 231.028 78.127 C 231.602 78.602 232.169 79.087 232.721 79.59 C 233.274 80.09 233.813 80.603 234.342 81.132 C 234.87 81.66 235.383 82.199 235.883 82.753 C 236.384 83.304 236.871 83.868 237.346 84.445 C 237.818 85.022 238.278 85.612 238.722 86.209 C 239.166 86.809 239.595 87.419 240.011 88.04 C 240.425 88.66 240.823 89.29 241.206 89.929 C 241.591 90.569 241.959 91.218 242.309 91.876 C 242.661 92.535 242.996 93.199 243.315 93.875 C 243.634 94.549 243.937 95.231 244.223 95.92 C 244.507 96.609 244.777 97.304 245.028 98.008 C 245.278 98.71 245.513 99.417 245.73 100.132 C 245.947 100.844 246.146 101.564 246.327 102.287 C 246.508 103.012 246.672 103.739 246.817 104.472 C 246.963 105.202 247.09 105.937 247.2 106.675 C 247.307 107.413 247.399 108.153 247.473 108.896 C 247.545 109.639 247.601 110.382 247.636 111.127 C 247.675 111.872 247.693 112.618 247.693 113.363 Z " fill="rgb(62,218,216)"/></g></g><path d=" M 215.578 95.08 C 215.18 95.08 214.856 94.756 214.856 94.358 L 214.856 90.46 L 219.216 95.08 L 215.578 95.08 Z  M 220.375 94.48 L 215.632 89.561 C 215.035 88.941 213.891 88.453 213.028 88.453 L 184.11 88.453 C 183.081 88.453 182.247 89.29 182.247 90.319 L 182.247 103.777 C 182.247 104.091 182.502 104.347 182.816 104.347 C 183.132 104.347 183.388 104.091 183.388 103.777 L 183.388 90.319 C 183.388 89.921 183.712 89.594 184.11 89.594 L 213.028 89.594 C 213.258 89.594 213.529 89.655 213.799 89.752 C 213.746 89.908 213.715 90.097 213.715 90.319 L 213.715 94.358 C 213.715 95.384 214.552 96.224 215.578 96.224 L 219.247 96.224 C 219.599 96.224 219.849 96.14 220.031 96.035 C 220.186 96.395 220.294 96.793 220.294 97.102 L 220.294 136.555 C 220.294 136.954 219.967 137.278 219.571 137.278 L 184.11 137.278 C 183.712 137.278 183.388 136.954 183.388 136.555 L 183.388 119.829 C 183.388 119.515 183.132 119.258 182.816 119.258 C 182.502 119.258 182.247 119.515 182.247 119.829 L 182.247 136.555 C 182.247 137.582 183.081 138.419 184.11 138.419 L 219.571 138.419 C 220.597 138.419 221.435 137.582 221.435 136.555 L 221.435 97.102 C 221.435 96.247 220.97 95.095 220.375 94.48 Z " fill="rgb(2,3,1)"/><path d=" M 194.829 106.422 C 194.127 106.422 193.459 106.266 192.856 105.996 L 194.985 102.085 L 199.634 102.085 C 199.386 104.518 197.326 106.422 194.829 106.422 Z  M 189.999 101.592 C 189.999 99.992 190.788 98.57 191.996 97.689 L 193.946 101.608 L 191.878 105.406 C 190.74 104.523 189.999 103.144 189.999 101.592 Z  M 199.608 100.944 L 194.891 100.944 L 192.994 97.13 C 193.561 96.895 194.178 96.765 194.829 96.765 C 197.272 96.765 199.292 98.59 199.608 100.944 Z  M 194.829 95.624 C 193.813 95.624 192.859 95.879 192.019 96.328 C 192.003 96.334 191.986 96.339 191.968 96.349 C 191.929 96.369 191.894 96.392 191.86 96.418 C 190.068 97.449 188.858 99.382 188.858 101.592 C 188.858 104.885 191.539 107.563 194.829 107.563 C 198.12 107.563 200.8 104.885 200.8 101.592 C 200.8 98.302 198.12 95.624 194.829 95.624 Z " fill="rgb(2,3,1)"/><path d=" M 209.791 106.384 L 209.791 102.202 L 213.906 102.202 C 213.677 104.382 211.959 106.121 209.791 106.384 Z  M 204.533 102.202 L 208.65 102.202 L 208.65 106.384 C 206.478 106.121 204.76 104.382 204.533 102.202 Z  M 208.65 97.033 L 208.65 101.061 L 204.556 101.061 C 204.847 98.955 206.529 97.291 208.65 97.033 Z  M 213.883 101.061 L 209.791 101.061 L 209.791 97.033 C 211.905 97.291 213.592 98.955 213.883 101.061 Z  M 209.219 95.854 C 205.99 95.854 203.363 98.48 203.363 101.71 C 203.363 104.936 205.99 107.563 209.219 107.563 C 212.446 107.563 215.073 104.936 215.073 101.71 C 215.073 98.48 212.446 95.854 209.219 95.854 Z " fill="rgb(2,3,1)"/><path d=" M 213.906 111.599 L 194.431 111.599 C 194.115 111.599 193.859 111.344 193.859 111.027 C 193.859 110.711 194.115 110.458 194.431 110.458 L 213.906 110.458 C 214.223 110.458 214.476 110.711 214.476 111.027 C 214.476 111.344 214.223 111.599 213.906 111.599 Z " fill="rgb(2,3,1)"/><path d=" M 213.906 114.869 L 194.431 114.869 C 194.115 114.869 193.859 114.614 193.859 114.3 C 193.859 113.984 194.115 113.728 194.431 113.728 L 213.906 113.728 C 214.223 113.728 214.476 113.984 214.476 114.3 C 214.476 114.614 214.223 114.869 213.906 114.869 Z " fill="rgb(2,3,1)"/><path d=" M 213.906 118.14 L 191.309 118.14 C 190.998 118.14 190.74 117.884 190.74 117.57 C 190.74 117.256 190.998 116.998 191.309 116.998 L 213.906 116.998 C 214.223 116.998 214.476 117.256 214.476 117.57 C 214.476 117.884 214.223 118.14 213.906 118.14 Z " fill="rgb(2,3,1)"/><path d=" M 213.906 121.412 L 191.309 121.412 C 190.998 121.412 190.74 121.157 190.74 120.843 C 190.74 120.526 190.998 120.271 191.309 120.271 L 213.906 120.271 C 214.223 120.271 214.476 120.526 214.476 120.843 C 214.476 121.157 214.223 121.412 213.906 121.412 Z " fill="rgb(2,3,1)"/><path d=" M 191.615 132.634 L 194.508 132.634 L 194.508 124.343 L 191.615 124.343 L 191.615 132.634 Z  M 195.077 133.775 L 191.046 133.775 C 190.73 133.775 190.474 133.52 190.474 133.204 L 190.474 123.771 C 190.474 123.457 190.73 123.199 191.046 123.199 L 195.077 123.199 C 195.394 123.199 195.649 123.457 195.649 123.771 L 195.649 133.204 C 195.649 133.52 195.394 133.775 195.077 133.775 Z " fill="rgb(2,3,1)"/><path d=" M 210.292 132.634 L 213.184 132.634 L 213.184 129.648 L 210.292 129.648 L 210.292 132.634 Z  M 213.756 133.775 L 209.722 133.775 C 209.406 133.775 209.151 133.52 209.151 133.204 L 209.151 129.078 C 209.151 128.762 209.406 128.506 209.722 128.506 L 213.756 128.506 C 214.07 128.506 214.325 128.762 214.325 129.078 L 214.325 133.204 C 214.325 133.52 214.07 133.775 213.756 133.775 Z " fill="rgb(2,3,1)"/><path d=" M 197.839 132.634 L 200.731 132.634 L 200.731 126.51 L 197.839 126.51 L 197.839 132.634 Z  M 201.303 133.775 L 197.27 133.775 C 196.956 133.775 196.698 133.52 196.698 133.204 L 196.698 125.938 C 196.698 125.624 196.956 125.369 197.27 125.369 L 201.303 125.369 C 201.617 125.369 201.873 125.624 201.873 125.938 L 201.873 133.204 C 201.873 133.52 201.617 133.775 201.303 133.775 Z " fill="rgb(2,3,1)"/><path d=" M 204.065 132.634 L 206.958 132.634 L 206.958 124.514 L 204.065 124.514 L 204.065 132.634 Z  M 207.53 133.775 L 203.496 133.775 C 203.18 133.775 202.924 133.52 202.924 133.204 L 202.924 123.942 C 202.924 123.628 203.18 123.373 203.496 123.373 L 207.53 123.373 C 207.844 123.373 208.099 123.628 208.099 123.942 L 208.099 133.204 C 208.099 133.52 207.844 133.775 207.53 133.775 Z " fill="rgb(2,3,1)"/><path d=" M 189.928 114.545 C 188.8 117.113 186.257 118.773 183.452 118.773 C 182.484 118.773 181.542 118.573 180.644 118.185 L 180.575 118.155 C 178.867 117.392 177.55 116.013 176.87 114.264 C 176.184 112.505 176.225 110.583 176.985 108.855 C 178.114 106.287 180.656 104.628 183.462 104.628 C 184.442 104.628 185.397 104.829 186.303 105.23 C 189.869 106.797 191.498 110.976 189.928 114.545 Z  M 180.506 119.37 L 180.363 119.697 L 179.719 119.416 L 179.865 119.089 L 180.115 119.199 C 180.125 119.204 180.141 119.212 180.151 119.217 C 180.166 119.222 180.179 119.227 180.189 119.232 L 180.506 119.37 Z  M 180.799 121.805 C 180.725 121.979 180.516 122.091 180.273 122.091 C 180.153 122.091 180.033 122.063 179.919 122.015 L 178.313 121.308 C 178.126 121.226 177.973 121.085 177.894 120.917 C 177.858 120.835 177.802 120.677 177.874 120.519 C 177.948 120.348 178.155 120.235 178.4 120.235 C 178.517 120.235 178.64 120.261 178.754 120.312 L 180.358 121.017 C 180.544 121.098 180.697 121.239 180.776 121.407 C 180.815 121.489 180.871 121.647 180.799 121.805 Z  M 179.275 123.84 L 174.665 134.327 C 174.547 134.587 174.287 134.758 173.999 134.758 C 173.899 134.758 173.805 134.738 173.713 134.697 L 173.166 134.457 C 172.801 134.296 172.635 133.867 172.796 133.502 L 177.407 123.015 C 177.521 122.755 177.782 122.584 178.073 122.584 C 178.17 122.584 178.269 122.604 178.359 122.645 L 178.905 122.885 C 179.079 122.962 179.216 123.105 179.285 123.286 C 179.357 123.467 179.352 123.664 179.275 123.84 Z  M 186.76 104.183 C 185.711 103.721 184.6 103.486 183.462 103.486 C 180.204 103.486 177.251 105.414 175.941 108.398 C 175.058 110.402 175.009 112.636 175.806 114.678 C 176.421 116.261 177.491 117.586 178.874 118.512 L 178.611 119.104 C 178.543 119.097 178.471 119.094 178.4 119.094 C 177.703 119.094 177.085 119.472 176.827 120.059 C 176.643 120.48 176.656 120.971 176.865 121.41 C 176.919 121.525 176.988 121.634 177.067 121.736 C 176.761 121.93 176.513 122.211 176.36 122.556 L 171.752 133.045 C 171.336 133.987 171.765 135.09 172.709 135.504 L 173.251 135.741 C 173.488 135.848 173.741 135.899 173.999 135.899 C 174.739 135.899 175.41 135.46 175.709 134.786 L 180.317 124.299 C 180.47 123.955 180.513 123.582 180.447 123.22 C 181.07 123.161 181.608 122.803 181.846 122.265 C 182.03 121.844 182.017 121.353 181.805 120.914 C 181.695 120.685 181.537 120.478 181.34 120.307 L 181.608 119.699 C 182.211 119.837 182.826 119.914 183.452 119.914 C 186.709 119.914 189.663 117.986 190.972 115.005 C 192.792 110.859 190.906 106.006 186.76 104.183 Z " fill="rgb(2,3,1)"/><path d=" M 187.922 113.662 C 187.143 115.434 185.389 116.577 183.454 116.577 C 182.778 116.577 182.119 116.437 181.496 116.164 C 179.035 115.081 177.912 112.199 178.994 109.738 C 179.773 107.967 181.524 106.823 183.459 106.823 C 184.133 106.823 184.794 106.961 185.417 107.237 C 187.881 108.319 189.001 111.201 187.922 113.662 Z  M 185.877 106.192 C 185.108 105.855 184.294 105.682 183.459 105.682 C 181.072 105.682 178.91 107.094 177.948 109.281 C 176.613 112.317 177.999 115.873 181.034 117.208 C 181.805 117.547 182.619 117.718 183.454 117.718 C 185.841 117.718 188.006 116.307 188.963 114.124 C 190.298 111.086 188.915 107.528 185.877 106.192 Z " fill="rgb(2,3,1)"/></g><g id="Group"><clipPath id="_clipPath_bZJeZfsit1b0D32751T3qH2q4wzaBZk2"><path d=" M 284.652 26.16 L 375.817 26.16 L 375.817 117.325 L 284.652 117.325 L 284.652 26.16 Z " fill="rgb(255,255,255)"/></clipPath><g clip-path="url(#_clipPath_bZJeZfsit1b0D32751T3qH2q4wzaBZk2)"><g id="Group"><path d=" M 375.817 71.742 C 375.817 72.488 375.8 73.233 375.761 73.979 C 375.726 74.724 375.672 75.47 375.598 76.21 C 375.524 76.953 375.434 77.693 375.325 78.431 C 375.215 79.169 375.087 79.904 374.942 80.636 C 374.796 81.366 374.633 82.094 374.452 82.819 C 374.27 83.541 374.071 84.261 373.854 84.974 C 373.637 85.688 373.405 86.396 373.152 87.1 C 372.902 87.802 372.634 88.496 372.348 89.186 C 372.062 89.875 371.758 90.557 371.442 91.233 C 371.123 91.907 370.786 92.573 370.436 93.229 C 370.084 93.888 369.716 94.536 369.333 95.177 C 368.948 95.818 368.55 96.446 368.136 97.066 C 367.72 97.687 367.291 98.297 366.847 98.897 C 366.403 99.496 365.943 100.084 365.471 100.661 C 364.996 101.237 364.511 101.802 364.008 102.353 C 363.508 102.907 362.995 103.448 362.466 103.974 C 361.938 104.502 361.399 105.016 360.845 105.518 C 360.294 106.019 359.73 106.506 359.153 106.979 C 358.576 107.451 357.986 107.91 357.389 108.355 C 356.789 108.799 356.179 109.228 355.558 109.644 C 354.938 110.057 354.308 110.456 353.669 110.841 C 353.029 111.224 352.38 111.592 351.722 111.944 C 351.063 112.294 350.399 112.631 349.723 112.95 C 349.049 113.269 348.367 113.57 347.678 113.856 C 346.989 114.142 346.294 114.41 345.59 114.66 C 344.888 114.913 344.181 115.145 343.466 115.362 C 342.754 115.579 342.034 115.778 341.311 115.959 C 340.586 116.141 339.859 116.304 339.126 116.45 C 338.396 116.595 337.661 116.723 336.923 116.832 C 336.185 116.942 335.445 117.032 334.702 117.106 C 333.959 117.18 333.216 117.233 332.471 117.272 C 331.726 117.307 330.98 117.325 330.235 117.325 C 329.489 117.325 328.744 117.307 327.998 117.272 C 327.253 117.233 326.51 117.18 325.767 117.106 C 325.024 117.032 324.284 116.942 323.546 116.832 C 322.809 116.723 322.073 116.595 321.341 116.45 C 320.611 116.304 319.883 116.141 319.158 115.959 C 318.436 115.778 317.716 115.579 317.004 115.362 C 316.289 115.145 315.582 114.913 314.877 114.66 C 314.175 114.41 313.481 114.142 312.791 113.856 C 312.102 113.57 311.421 113.269 310.744 112.95 C 310.07 112.631 309.404 112.294 308.748 111.944 C 308.089 111.592 307.441 111.224 306.8 110.841 C 306.159 110.456 305.531 110.057 304.911 109.644 C 304.291 109.228 303.681 108.799 303.081 108.355 C 302.481 107.91 301.894 107.451 301.317 106.979 C 300.74 106.506 300.176 106.019 299.624 105.518 C 299.07 105.016 298.529 104.502 298.003 103.974 C 297.475 103.448 296.962 102.907 296.459 102.353 C 295.958 101.802 295.471 101.237 294.998 100.661 C 294.526 100.084 294.067 99.496 293.623 98.897 C 293.178 98.297 292.749 97.687 292.333 97.066 C 291.92 96.446 291.522 95.818 291.136 95.177 C 290.753 94.536 290.386 93.888 290.033 93.229 C 289.684 92.573 289.347 91.907 289.028 91.233 C 288.708 90.557 288.407 89.875 288.121 89.186 C 287.835 88.496 287.567 87.802 287.317 87.1 C 287.064 86.396 286.832 85.688 286.615 84.974 C 286.398 84.261 286.199 83.541 286.018 82.819 C 285.837 82.094 285.673 81.366 285.528 80.636 C 285.382 79.904 285.254 79.169 285.145 78.431 C 285.035 77.693 284.946 76.953 284.872 76.21 C 284.798 75.47 284.744 74.724 284.706 73.979 C 284.67 73.233 284.652 72.488 284.652 71.742 C 284.652 70.997 284.67 70.252 284.706 69.506 C 284.744 68.761 284.798 68.018 284.872 67.275 C 284.946 66.532 285.035 65.792 285.145 65.054 C 285.254 64.316 285.382 63.581 285.528 62.851 C 285.673 62.118 285.837 61.391 286.018 60.666 C 286.199 59.943 286.398 59.224 286.615 58.511 C 286.832 57.797 287.064 57.089 287.317 56.387 C 287.567 55.683 287.835 54.988 288.121 54.299 C 288.407 53.61 288.708 52.928 289.028 52.254 C 289.347 51.58 289.684 50.914 290.033 50.256 C 290.386 49.597 290.753 48.949 291.136 48.308 C 291.522 47.67 291.92 47.039 292.333 46.419 C 292.749 45.798 293.178 45.188 293.623 44.588 C 294.067 43.991 294.526 43.401 294.998 42.824 C 295.471 42.25 295.958 41.683 296.459 41.132 C 296.962 40.578 297.475 40.039 298.003 39.511 C 298.529 38.982 299.07 38.469 299.624 37.969 C 300.176 37.466 300.74 36.981 301.317 36.506 C 301.894 36.034 302.481 35.574 303.081 35.13 C 303.681 34.686 304.291 34.257 304.911 33.841 C 305.531 33.428 306.159 33.029 306.8 32.646 C 307.441 32.261 308.089 31.893 308.748 31.544 C 309.404 31.191 310.07 30.854 310.744 30.535 C 311.421 30.219 312.102 29.915 312.791 29.629 C 313.481 29.346 314.175 29.075 314.877 28.825 C 315.582 28.572 316.289 28.34 317.004 28.123 C 317.716 27.906 318.436 27.707 319.158 27.526 C 319.883 27.344 320.611 27.181 321.341 27.035 C 322.073 26.89 322.809 26.762 323.546 26.652 C 324.284 26.545 325.024 26.453 325.767 26.379 C 326.51 26.305 327.253 26.252 327.998 26.216 C 328.744 26.178 329.489 26.16 330.235 26.16 C 330.98 26.16 331.726 26.178 332.471 26.216 C 333.216 26.252 333.959 26.305 334.702 26.379 C 335.445 26.453 336.185 26.545 336.923 26.652 C 337.661 26.762 338.396 26.89 339.126 27.035 C 339.859 27.181 340.586 27.344 341.311 27.526 C 342.034 27.707 342.754 27.906 343.466 28.123 C 344.181 28.34 344.888 28.572 345.59 28.825 C 346.294 29.075 346.989 29.346 347.678 29.629 C 348.367 29.915 349.049 30.219 349.723 30.535 C 350.399 30.854 351.063 31.191 351.722 31.544 C 352.38 31.893 353.029 32.261 353.669 32.646 C 354.308 33.029 354.938 33.428 355.558 33.841 C 356.179 34.257 356.789 34.686 357.389 35.13 C 357.986 35.574 358.576 36.034 359.153 36.506 C 359.73 36.981 360.294 37.466 360.845 37.969 C 361.399 38.469 361.938 38.982 362.466 39.511 C 362.995 40.039 363.508 40.578 364.008 41.132 C 364.511 41.683 364.996 42.25 365.471 42.824 C 365.943 43.401 366.403 43.991 366.847 44.588 C 367.291 45.188 367.72 45.798 368.136 46.419 C 368.55 47.039 368.948 47.67 369.333 48.308 C 369.716 48.949 370.084 49.597 370.436 50.256 C 370.786 50.914 371.123 51.58 371.442 52.254 C 371.758 52.928 372.062 53.61 372.348 54.299 C 372.634 54.988 372.902 55.683 373.152 56.387 C 373.405 57.089 373.637 57.797 373.854 58.511 C 374.071 59.224 374.27 59.943 374.452 60.666 C 374.633 61.391 374.796 62.118 374.942 62.851 C 375.087 63.581 375.215 64.316 375.325 65.054 C 375.434 65.792 375.524 66.532 375.598 67.275 C 375.672 68.018 375.726 68.761 375.761 69.506 C 375.8 70.252 375.817 70.997 375.817 71.742 Z " fill="rgb(55,201,239)"/></g></g><path d=" M 313.131 70.711 L 307.709 70.711 C 307.408 70.711 307.165 70.469 307.165 70.167 C 307.165 69.866 307.408 69.624 307.709 69.624 L 313.131 69.624 C 313.432 69.624 313.677 69.866 313.677 70.167 C 313.677 70.469 313.432 70.711 313.131 70.711 Z " fill="rgb(2,3,1)"/><path d=" M 353.077 70.844 L 347.655 70.844 C 347.354 70.844 347.109 70.599 347.109 70.298 C 347.109 69.999 347.354 69.754 347.655 69.754 L 353.077 69.754 C 353.378 69.754 353.621 69.999 353.621 70.298 C 353.621 70.599 353.378 70.844 353.077 70.844 Z " fill="rgb(2,3,1)"/><path d=" M 345.618 62.647 C 345.426 62.647 345.235 62.542 345.14 62.361 C 344.998 62.095 345.097 61.766 345.36 61.623 L 350.134 59.05 C 350.399 58.907 350.729 59.004 350.872 59.27 C 351.014 59.532 350.915 59.864 350.652 60.01 L 345.876 62.58 C 345.794 62.626 345.707 62.647 345.618 62.647 Z " fill="rgb(2,3,1)"/><path d=" M 338.61 55.599 C 338.524 55.599 338.437 55.578 338.353 55.535 C 338.087 55.392 337.988 55.06 338.131 54.794 L 340.694 50.018 C 340.836 49.753 341.166 49.651 341.431 49.796 C 341.697 49.936 341.796 50.268 341.653 50.531 L 339.09 55.313 C 338.993 55.494 338.804 55.599 338.61 55.599 Z " fill="rgb(2,3,1)"/><path d=" M 314.318 62.149 C 314.229 62.149 314.142 62.129 314.06 62.085 L 309.286 59.512 C 309.021 59.369 308.921 59.04 309.064 58.777 C 309.207 58.509 309.537 58.409 309.802 58.552 L 314.576 61.125 C 314.841 61.271 314.941 61.6 314.798 61.866 C 314.698 62.047 314.51 62.149 314.318 62.149 Z " fill="rgb(2,3,1)"/><path d=" M 321.325 55.103 C 321.131 55.103 320.945 54.999 320.846 54.815 L 318.285 50.036 C 318.14 49.771 318.242 49.441 318.507 49.298 C 318.77 49.158 319.102 49.255 319.242 49.52 L 321.808 54.302 C 321.948 54.567 321.849 54.897 321.583 55.04 C 321.502 55.083 321.415 55.103 321.325 55.103 Z " fill="rgb(2,3,1)"/><path d=" M 330.508 53.516 C 330.207 53.516 329.964 53.273 329.964 52.972 L 329.979 47.547 C 329.982 47.248 330.222 47.003 330.523 47.003 L 330.526 47.003 C 330.827 47.006 331.069 47.251 331.069 47.552 L 331.054 52.974 C 331.054 53.276 330.809 53.516 330.508 53.516 Z " fill="rgb(2,3,1)"/><path d=" M 334.562 69.437 C 334.516 70.231 334.266 70.808 333.811 71.171 C 333.635 71.028 333.472 70.872 333.324 70.701 C 332.604 69.876 332.366 68.83 332.601 67.51 C 332.826 66.223 333.163 65.963 333.242 65.963 L 333.244 65.963 C 333.717 66.019 334.661 67.735 334.562 69.437 Z  M 327.789 70.619 C 327.682 70.757 327.562 70.887 327.434 71.01 C 326.804 70.441 326.61 69.585 326.556 68.983 C 326.411 67.344 327.085 66.009 327.416 65.95 L 327.419 65.95 C 327.488 65.95 327.863 66.213 328.218 67.53 C 328.56 68.794 328.422 69.805 327.789 70.619 Z  M 339.775 72.733 C 339.749 72.733 338.212 72.779 336.558 72.391 C 336.494 72.378 336.287 72.332 336.213 72.307 C 335.718 72.171 335.22 71.998 334.758 71.768 C 335.284 71.222 335.596 70.451 335.649 69.501 C 335.764 67.556 334.733 65.041 333.372 64.883 C 332.736 64.809 331.904 65.172 331.526 67.321 C 331.235 68.962 331.565 70.341 332.502 71.418 C 332.555 71.48 332.611 71.541 332.668 71.597 C 332.548 71.61 332.422 71.617 332.29 71.617 L 329.198 71.605 C 328.923 71.605 328.675 71.577 328.453 71.525 C 328.519 71.449 328.588 71.367 328.652 71.288 C 329.494 70.198 329.701 68.84 329.27 67.247 C 328.69 65.092 327.843 64.766 327.225 64.875 C 325.992 65.095 325.31 67.265 325.471 69.077 C 325.568 70.162 325.938 71.04 326.533 71.661 C 324.458 72.817 321.397 72.807 321.348 72.807 C 321.057 72.799 320.805 73.044 320.8 73.346 C 320.797 73.647 321.037 73.892 321.338 73.894 L 321.384 73.894 C 321.647 73.894 322.895 73.879 324.338 73.573 L 327.996 87.067 C 328.06 87.309 328.282 87.468 328.522 87.468 C 328.568 87.468 328.616 87.465 328.662 87.45 C 328.953 87.371 329.124 87.072 329.048 86.781 L 325.392 73.302 C 326.122 73.078 326.855 72.769 327.493 72.345 C 327.986 72.575 328.558 72.695 329.196 72.695 L 332.287 72.705 C 332.831 72.705 333.316 72.616 333.742 72.447 C 334.317 72.799 334.95 73.06 335.588 73.256 L 331.945 86.702 C 331.866 86.993 332.034 87.292 332.328 87.371 C 332.377 87.383 332.422 87.391 332.468 87.391 C 332.708 87.391 332.928 87.23 332.997 86.988 L 336.645 73.527 C 338.284 73.866 339.706 73.823 339.813 73.818 C 340.114 73.808 340.349 73.555 340.339 73.254 C 340.328 72.958 340.071 72.718 339.775 72.733 Z " fill="rgb(2,3,1)"/><path d=" M 335.876 92.395 C 335.7 93.326 335.231 93.936 334.83 93.936 L 325.969 93.936 C 325.568 93.936 325.098 93.326 324.922 92.395 L 323.82 92.395 C 324.047 93.926 324.915 95.027 325.969 95.027 L 334.83 95.027 C 335.884 95.027 336.752 93.926 336.979 92.395 L 335.876 92.395 Z " fill="rgb(2,3,1)"/><path d=" M 336.448 91.782 L 324.455 91.782 C 324.065 91.782 323.733 91.537 323.733 91.248 L 323.733 89.934 L 337.171 89.934 L 337.171 91.248 C 337.171 91.537 336.841 91.782 336.448 91.782 Z  M 323.733 87.618 L 337.171 87.618 L 337.171 88.846 L 323.733 88.846 L 323.733 87.618 Z  M 316.483 70.078 C 316.483 62.376 322.747 56.112 330.449 56.112 C 338.151 56.112 344.418 62.376 344.418 70.078 C 344.418 75.059 341.73 79.7 337.406 82.188 C 337.237 82.286 337.132 82.467 337.132 82.661 L 337.132 86.528 L 323.768 86.528 L 323.768 82.661 C 323.768 82.467 323.664 82.286 323.493 82.188 C 319.168 79.7 316.483 75.059 316.483 70.078 Z  M 345.506 70.078 C 345.506 61.776 338.753 55.022 330.449 55.022 C 322.147 55.022 315.393 61.776 315.393 70.078 C 315.393 75.342 318.175 80.253 322.678 82.972 L 322.678 87.026 C 322.655 87.085 322.643 87.146 322.643 87.212 L 322.643 91.248 C 322.643 92.144 323.457 92.872 324.455 92.872 L 336.448 92.872 C 337.446 92.872 338.261 92.144 338.261 91.248 L 338.261 87.103 C 338.261 87.031 338.245 86.965 338.22 86.901 L 338.22 82.972 C 342.723 80.253 345.506 75.342 345.506 70.078 Z " fill="rgb(2,3,1)"/></g><g id="Group"><clipPath id="_clipPath_dmrn5SjfuSHOH1xnGcgMFVEmcBYd63QW"><path d=" M 417.453 67.781 L 508.619 67.781 L 508.619 158.946 L 417.453 158.946 L 417.453 67.781 Z " fill="rgb(255,255,255)"/></clipPath><g clip-path="url(#_clipPath_dmrn5SjfuSHOH1xnGcgMFVEmcBYd63QW)"><g id="Group"><path d=" M 508.619 113.363 C 508.619 114.109 508.598 114.854 508.563 115.599 C 508.527 116.345 508.471 117.088 508.399 117.831 C 508.325 118.573 508.233 119.314 508.124 120.052 C 508.014 120.789 507.886 121.525 507.741 122.257 C 507.595 122.987 507.432 123.715 507.251 124.44 C 507.069 125.162 506.873 125.882 506.656 126.594 C 506.439 127.309 506.204 128.016 505.954 128.721 C 505.701 129.423 505.433 130.117 505.147 130.806 C 504.864 131.496 504.56 132.177 504.241 132.851 C 503.922 133.528 503.587 134.194 503.235 134.85 C 502.883 135.509 502.515 136.157 502.132 136.798 C 501.749 137.439 501.351 138.067 500.935 138.687 C 500.521 139.307 500.093 139.917 499.648 140.517 C 499.204 141.117 498.745 141.704 498.27 142.281 C 497.798 142.858 497.31 143.422 496.81 143.974 C 496.309 144.528 495.794 145.069 495.268 145.595 C 494.739 146.123 494.198 146.636 493.647 147.137 C 493.093 147.64 492.529 148.127 491.952 148.599 C 491.375 149.072 490.788 149.531 490.188 149.975 C 489.59 150.42 488.98 150.848 488.36 151.265 C 487.74 151.678 487.109 152.076 486.468 152.462 C 485.83 152.845 485.182 153.212 484.523 153.565 C 483.864 153.914 483.198 154.251 482.524 154.57 C 481.85 154.89 481.169 155.191 480.479 155.477 C 479.79 155.763 479.093 156.031 478.391 156.281 C 477.689 156.534 476.982 156.766 476.267 156.983 C 475.553 157.2 474.835 157.399 474.11 157.58 C 473.388 157.761 472.66 157.925 471.928 158.07 C 471.195 158.216 470.462 158.343 469.725 158.453 C 468.987 158.563 468.246 158.652 467.504 158.726 C 466.761 158.8 466.018 158.854 465.272 158.892 C 464.527 158.928 463.782 158.946 463.036 158.946 C 462.288 158.946 461.543 158.928 460.797 158.892 C 460.055 158.854 459.309 158.8 458.566 158.726 C 457.826 158.652 457.086 158.563 456.348 158.453 C 455.608 158.343 454.875 158.216 454.142 158.07 C 453.41 157.925 452.682 157.761 451.96 157.58 C 451.235 157.399 450.517 157.2 449.803 156.983 C 449.09 156.766 448.381 156.534 447.679 156.281 C 446.977 156.031 446.28 155.763 445.59 155.477 C 444.901 155.191 444.22 154.89 443.546 154.57 C 442.872 154.251 442.205 153.914 441.547 153.565 C 440.891 153.212 440.24 152.845 439.602 152.462 C 438.961 152.076 438.33 151.678 437.71 151.265 C 437.09 150.848 436.479 150.42 435.882 149.975 C 435.282 149.531 434.695 149.072 434.118 148.599 C 433.541 148.127 432.977 147.64 432.423 147.137 C 431.872 146.636 431.33 146.123 430.802 145.595 C 430.276 145.069 429.761 144.528 429.26 143.974 C 428.76 143.422 428.272 142.858 427.8 142.281 C 427.325 141.704 426.868 141.117 426.421 140.517 C 425.977 139.917 425.548 139.307 425.135 138.687 C 424.719 138.067 424.321 137.439 423.938 136.798 C 423.555 136.157 423.187 135.509 422.835 134.85 C 422.482 134.194 422.148 133.528 421.829 132.851 C 421.51 132.177 421.209 131.496 420.923 130.806 C 420.637 130.117 420.369 129.423 420.116 128.721 C 419.866 128.016 419.631 127.309 419.414 126.594 C 419.2 125.882 419 125.162 418.819 124.44 C 418.638 123.715 418.475 122.987 418.329 122.257 C 418.184 121.525 418.056 120.789 417.946 120.052 C 417.836 119.314 417.745 118.573 417.673 117.831 C 417.599 117.088 417.543 116.345 417.507 115.599 C 417.471 114.854 417.453 114.109 417.453 113.363 C 417.453 112.618 417.471 111.872 417.507 111.127 C 417.543 110.382 417.599 109.639 417.673 108.896 C 417.745 108.153 417.836 107.413 417.946 106.675 C 418.056 105.937 418.184 105.202 418.329 104.472 C 418.475 103.739 418.638 103.012 418.819 102.287 C 419 101.564 419.2 100.844 419.414 100.132 C 419.631 99.417 419.866 98.71 420.116 98.008 C 420.369 97.304 420.637 96.609 420.923 95.92 C 421.209 95.231 421.51 94.549 421.829 93.875 C 422.148 93.199 422.482 92.535 422.835 91.876 C 423.187 91.218 423.555 90.569 423.938 89.929 C 424.321 89.29 424.719 88.66 425.135 88.04 C 425.548 87.419 425.977 86.809 426.421 86.209 C 426.868 85.612 427.325 85.022 427.8 84.445 C 428.272 83.868 428.76 83.304 429.26 82.753 C 429.761 82.199 430.276 81.66 430.802 81.132 C 431.33 80.603 431.872 80.09 432.423 79.59 C 432.977 79.087 433.541 78.602 434.118 78.127 C 434.695 77.655 435.282 77.195 435.882 76.751 C 436.479 76.307 437.09 75.878 437.71 75.462 C 438.33 75.048 438.961 74.65 439.602 74.265 C 440.24 73.882 440.891 73.514 441.547 73.162 C 442.205 72.812 442.872 72.475 443.546 72.156 C 444.22 71.837 444.901 71.536 445.59 71.25 C 446.28 70.964 446.977 70.696 447.679 70.446 C 448.381 70.193 449.09 69.961 449.803 69.744 C 450.517 69.527 451.235 69.328 451.96 69.146 C 452.682 68.965 453.41 68.802 454.142 68.656 C 454.875 68.511 455.608 68.383 456.348 68.273 C 457.086 68.163 457.826 68.074 458.566 68 C 459.309 67.926 460.055 67.872 460.797 67.837 C 461.543 67.798 462.288 67.781 463.036 67.781 C 463.782 67.781 464.527 67.798 465.272 67.837 C 466.018 67.872 466.761 67.926 467.504 68 C 468.246 68.074 468.987 68.163 469.725 68.273 C 470.462 68.383 471.195 68.511 471.928 68.656 C 472.66 68.802 473.388 68.965 474.11 69.146 C 474.835 69.328 475.553 69.527 476.267 69.744 C 476.982 69.961 477.689 70.193 478.391 70.446 C 479.093 70.696 479.79 70.964 480.479 71.25 C 481.169 71.536 481.85 71.837 482.524 72.156 C 483.198 72.475 483.864 72.812 484.523 73.162 C 485.182 73.514 485.83 73.882 486.468 74.265 C 487.109 74.65 487.74 75.048 488.36 75.462 C 488.98 75.878 489.59 76.307 490.188 76.751 C 490.788 77.195 491.375 77.655 491.952 78.127 C 492.529 78.602 493.093 79.087 493.647 79.59 C 494.198 80.09 494.739 80.603 495.268 81.132 C 495.794 81.66 496.309 82.199 496.81 82.753 C 497.31 83.304 497.798 83.868 498.27 84.445 C 498.745 85.022 499.204 85.612 499.648 86.209 C 500.093 86.809 500.521 87.419 500.935 88.04 C 501.351 88.66 501.749 89.29 502.132 89.929 C 502.515 90.569 502.883 91.218 503.235 91.876 C 503.587 92.535 503.922 93.199 504.241 93.875 C 504.56 94.549 504.864 95.231 505.147 95.92 C 505.433 96.609 505.701 97.304 505.954 98.008 C 506.204 98.71 506.439 99.417 506.656 100.132 C 506.873 100.844 507.069 101.564 507.251 102.287 C 507.432 103.012 507.595 103.739 507.741 104.472 C 507.886 105.202 508.014 105.937 508.124 106.675 C 508.233 107.413 508.325 108.153 508.399 108.896 C 508.471 109.639 508.527 110.382 508.563 111.127 C 508.598 111.872 508.619 112.618 508.619 113.363 Z " fill="rgb(44,146,213)"/></g></g><path d=" M 449.56 105.81 C 446.754 105.81 445.333 104.375 444.715 103.471 C 442.491 106.3 438.869 105.552 438.828 105.541 C 438.578 105.488 438.42 105.238 438.476 104.99 C 438.529 104.74 438.777 104.582 439.027 104.635 C 439.175 104.668 442.563 105.347 444.36 102.356 C 444.449 102.2 444.625 102.113 444.802 102.131 C 444.98 102.149 445.131 102.266 445.192 102.435 C 445.238 102.56 446.402 105.508 450.954 104.763 C 451.207 104.722 451.447 104.893 451.487 105.143 C 451.528 105.396 451.357 105.636 451.104 105.677 C 450.548 105.769 450.035 105.81 449.56 105.81 Z " fill="rgb(2,3,1)"/><path d=" M 444.952 99.673 C 441.82 99.673 439.275 102.34 439.275 105.618 C 439.275 108.896 441.82 111.561 444.952 111.561 C 448.082 111.561 450.63 108.896 450.63 105.618 C 450.63 102.34 448.082 99.673 444.952 99.673 Z  M 444.952 112.49 C 441.309 112.49 438.346 109.406 438.346 105.618 C 438.346 101.827 441.309 98.746 444.952 98.746 C 448.592 98.746 451.556 101.827 451.556 105.618 C 451.556 109.406 448.592 112.49 444.952 112.49 Z " fill="rgb(2,3,1)"/><path d=" M 444.587 126.809 L 443.135 124.042 L 444.472 118.094 C 444.551 118.155 444.648 118.188 444.748 118.188 C 444.835 118.188 444.919 118.162 444.988 118.117 L 446.18 124.253 L 444.587 126.809 Z  M 444.748 115.426 L 445.544 116.243 L 444.748 117.057 L 443.954 116.243 L 444.748 115.426 Z  M 447.125 124.256 L 445.782 117.328 L 446.522 116.564 C 446.698 116.386 446.698 116.1 446.522 115.919 L 445.082 114.435 C 444.906 114.257 444.592 114.257 444.416 114.435 L 442.974 115.919 C 442.8 116.1 442.8 116.386 442.974 116.564 L 443.699 117.31 L 442.193 124.008 C 442.167 124.113 442.182 124.225 442.233 124.325 L 444.143 127.958 C 444.217 128.103 444.37 128.2 444.536 128.205 L 444.551 128.205 C 444.712 128.205 444.863 128.123 444.947 127.986 L 447.063 124.588 C 447.125 124.491 447.148 124.371 447.125 124.256 Z " fill="rgb(2,3,1)"/><path d=" M 490.79 94.781 C 490.79 94.789 490.785 94.797 490.777 94.797 L 455.472 94.797 C 455.467 94.797 455.459 94.789 455.459 94.781 L 455.459 93.04 C 455.459 93.033 455.467 93.025 455.472 93.025 L 490.777 93.025 C 490.785 93.025 490.79 93.033 490.79 93.04 L 490.79 94.781 Z  M 490.777 92.098 L 455.472 92.098 C 454.951 92.098 454.53 92.52 454.53 93.04 L 454.53 94.781 C 454.53 95.3 454.951 95.723 455.472 95.723 L 455.671 95.723 C 455.671 95.729 455.669 95.734 455.669 95.739 L 455.669 110.716 C 455.669 110.971 455.876 111.181 456.133 111.181 C 456.391 111.181 456.598 110.971 456.598 110.716 L 456.598 95.739 C 456.598 95.731 456.603 95.723 456.611 95.723 L 489.636 95.723 C 489.644 95.723 489.652 95.731 489.652 95.739 L 489.652 117.887 C 489.652 117.894 489.644 117.902 489.636 117.902 L 456.611 117.902 C 456.603 117.902 456.598 117.894 456.598 117.887 L 456.598 116.776 C 456.598 116.521 456.391 116.312 456.133 116.312 C 455.876 116.312 455.669 116.521 455.669 116.776 L 455.669 117.887 C 455.669 118.408 456.093 118.829 456.611 118.829 L 489.636 118.829 C 490.157 118.829 490.581 118.408 490.581 117.887 L 490.581 95.739 C 490.581 95.734 490.578 95.729 490.578 95.723 L 490.777 95.723 C 491.296 95.723 491.719 95.3 491.719 94.781 L 491.719 93.04 C 491.719 92.52 491.296 92.098 490.777 92.098 Z " fill="rgb(2,3,1)"/><path d=" M 435.576 132.241 L 453.629 132.251 L 453.609 118.15 C 453.609 118.009 453.675 117.877 453.782 117.787 L 468.397 106.146 C 469.183 105.552 469.336 104.436 468.744 103.663 C 468.407 103.216 467.894 102.961 467.333 102.961 C 466.947 102.961 466.577 103.083 466.265 103.321 L 451.48 115.091 C 451.321 115.219 451.099 115.227 450.931 115.114 C 449.662 114.257 448.174 113.805 446.637 113.805 L 443.267 113.805 C 439.025 113.805 435.576 117.254 435.576 121.494 L 435.576 132.241 Z  M 454.094 133.178 L 435.111 133.17 C 434.856 133.17 434.647 132.964 434.647 132.706 L 434.647 121.494 C 434.647 116.741 438.514 112.876 443.267 112.876 L 446.637 112.876 C 448.248 112.876 449.805 113.32 451.163 114.16 L 465.696 102.588 C 466.179 102.223 466.74 102.031 467.333 102.031 C 468.188 102.031 468.969 102.422 469.485 103.098 C 470.383 104.285 470.151 105.981 468.966 106.879 L 454.538 118.372 L 454.558 132.713 C 454.558 132.838 454.51 132.953 454.421 133.043 C 454.336 133.132 454.219 133.178 454.094 133.178 Z " fill="rgb(2,3,1)"/><path d=" M 478.779 109.57 C 477.901 109.57 477.071 109.366 476.331 109.006 L 478.851 104.382 L 484.329 104.382 C 484.135 107.277 481.72 109.57 478.779 109.57 Z  M 473.212 104.007 C 473.212 102.082 474.192 100.385 475.68 99.387 L 477.988 104.025 L 475.537 108.526 C 474.131 107.515 473.212 105.866 473.212 104.007 Z  M 484.316 103.453 L 478.738 103.453 L 476.489 98.932 C 477.189 98.618 477.962 98.44 478.779 98.44 C 481.661 98.44 484.038 100.643 484.316 103.453 Z  M 478.779 97.51 C 477.671 97.51 476.63 97.789 475.718 98.279 C 475.701 98.286 475.68 98.292 475.66 98.302 C 475.624 98.32 475.593 98.343 475.565 98.366 C 473.607 99.486 472.285 101.595 472.285 104.007 C 472.285 107.586 475.198 110.499 478.779 110.499 C 482.358 110.499 485.271 107.586 485.271 104.007 C 485.271 100.426 482.358 97.51 478.779 97.51 Z " fill="rgb(2,3,1)"/><path d=" M 485.205 112.832 L 465.839 112.832 C 465.584 112.832 465.375 112.628 465.375 112.37 C 465.375 112.112 465.584 111.906 465.839 111.906 L 485.205 111.906 C 485.46 111.906 485.667 112.112 485.667 112.37 C 485.667 112.628 485.46 112.832 485.205 112.832 Z " fill="rgb(2,3,1)"/><path d=" M 471.425 98.978 L 460.629 98.978 C 460.371 98.978 460.164 98.769 460.164 98.514 C 460.164 98.258 460.371 98.049 460.629 98.049 L 471.425 98.049 C 471.68 98.049 471.887 98.258 471.887 98.514 C 471.887 98.769 471.68 98.978 471.425 98.978 Z " fill="rgb(2,3,1)"/><path d=" M 471.425 101.018 L 460.629 101.018 C 460.371 101.018 460.164 100.811 460.164 100.556 C 460.164 100.298 460.371 100.091 460.629 100.091 L 471.425 100.091 C 471.68 100.091 471.887 100.298 471.887 100.556 C 471.887 100.811 471.68 101.018 471.425 101.018 Z " fill="rgb(2,3,1)"/><path d=" M 485.205 115.602 L 465.839 115.602 C 465.584 115.602 465.375 115.395 465.375 115.137 C 465.375 114.882 465.584 114.675 465.839 114.675 L 485.205 114.675 C 485.46 114.675 485.667 114.882 485.667 115.137 C 485.667 115.395 485.46 115.602 485.205 115.602 Z " fill="rgb(2,3,1)"/></g></g></g></svg>