<?xml version="1.0" standalone="no"?>
<svg xmlns="http://www.w3.org/2000/svg">
    <clipPath id="svg-mask-small">
        <path d=" M 119.846 0.006 L 97.809 0.654 C 91.589 0.837 84.337 5.533 81.626 11.135 L 1.175 177.371 C -1.932 183.789 1.336 189 8.466 189 L 38.218 189 C 45.349 189 55.458 185.146 60.778 180.399 L 138.721 110.857 L 144.987 124.643 C 148.041 131.362 156.511 136.646 163.889 136.435 L 183.042 135.888 C 190.42 135.677 193.829 130.098 190.649 123.438 L 171.499 83.324 L 204.601 53.696 C 209.777 49.063 208.974 42.702 202.809 39.501 L 194.336 35.102 C 190.126 32.916 183.797 33.663 180.213 36.77 L 159.174 55.003 L 136.216 9.731 C 133.402 4.18 126.066 -0.177 119.846 0.006 Z  M 108.771 46.843 L 127.183 85.421 L 61.627 141.275 L 101.863 46.988 C 103.68 42.728 106.776 42.663 108.771 46.843 Z "/>
    </clipPath>
</svg>
