<?xml version="1.0" standalone="no"?><!-- Generator: Gravit.io --><svg xmlns="http://www.w3.org/2000/svg" xmlns:xlink="http://www.w3.org/1999/xlink" style="isolation:isolate" viewBox="0 0 526.26 195" width="526.26" height="195"><defs><clipPath id="_clipPath_Xm9X39mtaK0ikTbpSp6aqulEuWLqpHEA"><rect width="526.26" height="195"/></clipPath></defs><g clip-path="url(#_clipPath_Xm9X39mtaK0ikTbpSp6aqulEuWLqpHEA)"><g style="isolation:isolate" id="feature-service"><g style="isolation:isolate" id="Layer 8"><g id="Group"><path d=" M 76.052 146.377 L 76.052 166.325 L 455.065 166.325 L 455.065 146.377" fill="none" vector-effect="non-scaling-stroke" stroke-width="4" stroke="rgb(0,0,0)" stroke-linejoin="miter" stroke-linecap="round" stroke-miterlimit="3"/><line x1="265.558" y1="146.377" x2="265.558" y2="166.325" vector-effect="non-scaling-stroke" stroke-width="4" stroke="rgb(0,0,0)" stroke-linejoin="miter" stroke-linecap="round" stroke-miterlimit="3"/><path d=" M 6.857 77.182 C 6.857 38.992 37.862 7.987 76.052 7.987 C 114.242 7.987 145.247 38.992 145.247 77.182 C 145.247 115.371 114.242 146.377 76.052 146.377 C 37.862 146.377 6.857 115.371 6.857 77.182 Z " fill="none" vector-effect="non-scaling-stroke" stroke-width="4" stroke="rgb(0,0,0)" stroke-linejoin="miter" stroke-linecap="square" stroke-miterlimit="3"/><path d=" M 195.682 77.182 C 195.682 38.992 226.687 7.987 264.877 7.987 C 303.066 7.987 334.072 38.992 334.072 77.182 C 334.072 115.371 303.066 146.377 264.877 146.377 C 226.687 146.377 195.682 115.371 195.682 77.182 Z " fill="none" vector-effect="non-scaling-stroke" stroke-width="4" stroke="rgb(0,0,0)" stroke-linejoin="miter" stroke-linecap="square" stroke-miterlimit="3"/><path d=" M 385.87 77.182 C 385.87 38.992 416.875 7.987 455.065 7.987 C 493.255 7.987 524.26 38.992 524.26 77.182 C 524.26 115.371 493.255 146.377 455.065 146.377 C 416.875 146.377 385.87 115.371 385.87 77.182 Z " fill="none" vector-effect="non-scaling-stroke" stroke-width="4" stroke="rgb(0,0,0)" stroke-linejoin="miter" stroke-linecap="square" stroke-miterlimit="3"/><path d=" M 70.442 166.325 C 70.442 163.228 72.955 160.714 76.052 160.714 C 79.148 160.714 81.662 163.228 81.662 166.325 C 81.662 169.421 79.148 171.935 76.052 171.935 C 72.955 171.935 70.442 169.421 70.442 166.325 Z " fill="rgb(0,0,0)"/><path d=" M 259.948 166.325 C 259.948 163.228 262.462 160.714 265.558 160.714 C 268.655 160.714 271.169 163.228 271.169 166.325 C 271.169 169.421 268.655 171.935 265.558 171.935 C 262.462 171.935 259.948 169.421 259.948 166.325 Z " fill="rgb(0,0,0)"/><path d=" M 449.455 166.325 C 449.455 163.228 451.968 160.714 455.065 160.714 C 458.161 160.714 460.675 163.228 460.675 166.325 C 460.675 169.421 458.161 171.935 455.065 171.935 C 451.968 171.935 449.455 169.421 449.455 166.325 Z " fill="rgb(0,0,0)"/></g><g id="Group"><g id="Group"><path d=" M 401.742 13.848 L 411.886 4.671 C 412.296 4.301 413.076 4 413.628 4 L 506.885 4 L 512 4 C 512.552 4 513 4.448 513 5 L 513 121 C 513 121.552 512.552 122 512 122 L 466.706 122 L 402 122 C 401.448 122 401 121.552 401 121 L 401 15.519 C 401 14.967 401.332 14.219 401.742 13.848 Z " fill="rgb(255,255,255)" vector-effect="non-scaling-stroke" stroke-width="2" stroke="rgb(0,0,0)" stroke-linejoin="miter" stroke-linecap="square" stroke-miterlimit="3"/><path d=" M 413 14.287 L 413 5.013 C 413 4.454 412.661 4.302 412.244 4.675 L 401.756 14.041 C 401.339 14.414 401.453 14.737 402.012 14.764 L 412.001 15.239 C 412.552 15.266 413 14.839 413 14.287 Z " fill="rgb(255,255,255)" vector-effect="non-scaling-stroke" stroke-width="2" stroke="rgb(0,0,0)" stroke-linejoin="miter" stroke-linecap="round" stroke-miterlimit="3"/></g><g id="Group"><g id="Group"><path d=" M 406.673 29.247 L 416.548 29.247 C 416.919 29.247 417.221 29.548 417.221 29.92 L 417.221 39.794 C 417.221 40.166 416.919 40.468 416.548 40.468 L 406.673 40.468 C 406.302 40.468 406 40.166 406 39.794 L 406 29.92 C 406 29.548 406.302 29.247 406.673 29.247 Z " fill="rgb(255,255,255)" vector-effect="non-scaling-stroke" stroke-width="2" stroke="rgb(0,0,0)" stroke-linejoin="miter" stroke-linecap="square" stroke-miterlimit="3"/><path d=" M 406 31.74 L 408.992 35.73 C 409.405 36.28 410.161 36.359 410.679 35.906 L 419.714 28" fill="none" vector-effect="non-scaling-stroke" stroke-width="2" stroke="rgb(254,34,39)" stroke-linejoin="miter" stroke-linecap="round" stroke-miterlimit="3"/><g transform="matrix(1.247,0,0,1.247,423,29.247)"><text transform="matrix(1,0,0,1,0,8.12)" style="font-family:&quot;M PLUS 2 Medium&quot;;font-weight:400;font-size:7px;font-style:normal;fill:#000000;stroke:none;">メルマガ・LINE構築</text></g></g></g><g id="Group"><g id="Group"><path d=" M 406.673 45.657 L 416.548 45.657 C 416.919 45.657 417.221 45.959 417.221 46.331 L 417.221 56.205 C 417.221 56.576 416.919 56.878 416.548 56.878 L 406.673 56.878 C 406.302 56.878 406 56.576 406 56.205 L 406 46.331 C 406 45.959 406.302 45.657 406.673 45.657 Z " fill="rgb(255,255,255)" vector-effect="non-scaling-stroke" stroke-width="2" stroke="rgb(0,0,0)" stroke-linejoin="miter" stroke-linecap="square" stroke-miterlimit="3"/><path d=" M 406 49.398 L 408.992 53.387 C 409.405 53.938 410.161 54.017 410.679 53.564 L 419.714 45.657" fill="none" vector-effect="non-scaling-stroke" stroke-width="2" stroke="rgb(254,34,39)" stroke-linejoin="miter" stroke-linecap="round" stroke-miterlimit="3"/><g transform="matrix(1.247,0,0,1.247,423,46.063)"><text transform="matrix(1,0,0,1,0,8.12)" style="font-family:&quot;M PLUS 2 Medium&quot;;font-weight:400;font-size:7px;font-style:normal;fill:#000000;stroke:none;">セミナー・展示会</text></g></g></g><g id="Group"><g id="Group"><path d=" M 406.673 62.223 L 416.548 62.223 C 416.919 62.223 417.221 62.525 417.221 62.896 L 417.221 72.771 C 417.221 73.142 416.919 73.444 416.548 73.444 L 406.673 73.444 C 406.302 73.444 406 73.142 406 72.771 L 406 62.896 C 406 62.525 406.302 62.223 406.673 62.223 Z " fill="rgb(255,255,255)" vector-effect="non-scaling-stroke" stroke-width="2" stroke="rgb(0,0,0)" stroke-linejoin="miter" stroke-linecap="square" stroke-miterlimit="3"/><path d=" M 406 65.963 L 408.992 69.953 C 409.405 70.503 410.161 70.583 410.679 70.129 L 419.714 62.223" fill="none" vector-effect="non-scaling-stroke" stroke-width="2" stroke="rgb(254,34,39)" stroke-linejoin="miter" stroke-linecap="round" stroke-miterlimit="3"/><g transform="matrix(1.247,0,0,1.247,423,63.034)"><text transform="matrix(1,0,0,1,0,8.12)" style="font-family:&quot;M PLUS 2 Medium&quot;;font-weight:400;font-size:7px;font-style:normal;fill:#000000;stroke:none;">CRM・SFA導入</text></g></g></g><g id="Group"><g id="Group"><path d=" M 406.673 79.194 L 416.548 79.194 C 416.919 79.194 417.221 79.496 417.221 79.868 L 417.221 89.742 C 417.221 90.114 416.919 90.415 416.548 90.415 L 406.673 90.415 C 406.302 90.415 406 90.114 406 89.742 L 406 79.868 C 406 79.496 406.302 79.194 406.673 79.194 Z " fill="rgb(255,255,255)" vector-effect="non-scaling-stroke" stroke-width="2" stroke="rgb(0,0,0)" stroke-linejoin="miter" stroke-linecap="square" stroke-miterlimit="3"/><path d=" M 406 82.935 L 408.992 86.924 C 409.405 87.475 410.161 87.554 410.679 87.101 L 419.714 79.194" fill="none" vector-effect="non-scaling-stroke" stroke-width="2" stroke="rgb(254,34,39)" stroke-linejoin="miter" stroke-linecap="round" stroke-miterlimit="3"/><g transform="matrix(1.247,0,0,1.247,423,80.411)"><text transform="matrix(1,0,0,1,0,8.12)" style="font-family:&quot;M PLUS 2 Medium&quot;;font-weight:400;font-size:7px;font-style:normal;fill:#000000;stroke:none;">MA運用支援</text></g></g></g><g id="Group"><g id="Group"><path d=" M 406.673 96.571 L 416.548 96.571 C 416.919 96.571 417.221 96.873 417.221 97.245 L 417.221 107.119 C 417.221 107.491 416.919 107.792 416.548 107.792 L 406.673 107.792 C 406.302 107.792 406 107.491 406 107.119 L 406 97.245 C 406 96.873 406.302 96.571 406.673 96.571 Z " fill="rgb(255,255,255)" vector-effect="non-scaling-stroke" stroke-width="2" stroke="rgb(0,0,0)" stroke-linejoin="miter" stroke-linecap="square" stroke-miterlimit="3"/><path d=" M 406 100.312 L 408.992 104.301 C 409.405 104.852 410.161 104.931 410.679 104.478 L 419.714 96.571" fill="none" vector-effect="non-scaling-stroke" stroke-width="2" stroke="rgb(254,34,39)" stroke-linejoin="miter" stroke-linecap="round" stroke-miterlimit="3"/><g transform="matrix(1.247,0,0,1.247,423,98.194)"><text transform="matrix(1,0,0,1,0,8.12)" style="font-family:&quot;M PLUS 2 Medium&quot;;font-weight:400;font-size:7px;font-style:normal;fill:#000000;stroke:none;">データドリブン</text></g></g></g></g><g id="Group"><g id="Group"><path d=" M 299.01 61.616 L 221.304 61.616 C 219.687 61.616 218.373 60.303 218.373 58.685 L 218.373 5.931 C 218.373 4.313 219.687 3 221.304 3 L 304.204 3 C 305.822 3 307.135 4.313 307.135 5.931 L 307.135 21.529" fill="rgb(255,255,255)" vector-effect="non-scaling-stroke" stroke-width="2" stroke="rgb(0,0,0)" stroke-linejoin="miter" stroke-linecap="round" stroke-miterlimit="3"/><path d=" M 306.61 67.179 L 306.628 68.001 C 306.641 68.553 306.202 69.001 305.651 69.001 L 210.58 69.023 C 210.303 69.023 210.078 68.797 210.078 68.52 L 210.078 64.501 C 210.078 64.223 210.303 63.998 210.58 63.998 L 299.01 63.998" fill="rgb(255,255,255)" vector-effect="non-scaling-stroke" stroke-width="2" stroke="rgb(0,0,0)" stroke-linejoin="miter" stroke-linecap="round" stroke-miterlimit="3"/><path d=" M 303.696 24.718 L 320.778 24.718 C 321.61 24.718 322.286 25.393 322.286 26.225 L 322.286 62.491 C 322.286 63.323 321.61 63.998 320.778 63.998 L 303.696 63.998 C 302.864 63.998 302.189 63.323 302.189 62.491 L 302.189 26.225 C 302.189 25.393 302.864 24.718 303.696 24.718 Z " fill="rgb(255,255,255)" vector-effect="non-scaling-stroke" stroke-width="2" stroke="rgb(0,0,0)" stroke-linejoin="miter" stroke-linecap="square" stroke-miterlimit="3"/><path d="M 304.841 29 L 314.38 29 C 314.507 29 314.61 29.103 314.61 29.23 L 314.61 33.856 C 314.61 33.983 314.507 34.086 314.38 34.086 L 304.841 34.086 C 304.714 34.086 304.61 33.983 304.61 33.856 L 304.61 29.23 C 304.61 29.103 304.714 29 304.841 29 Z" style="stroke:none;fill:#FFFFFF;stroke-miterlimit:10;"/><path d="M 304.841 29 L 314.38 29 C 314.507 29 314.61 29.103 314.61 29.23 L 314.61 33.856 C 314.61 33.983 314.507 34.086 314.38 34.086 L 304.841 34.086 C 304.714 34.086 304.61 33.983 304.61 33.856 L 304.61 29.23 C 304.61 29.103 304.714 29 304.841 29 Z" style="fill:none;stroke:#000000;stroke-width:1;stroke-linecap:square;stroke-miterlimit:3;"/><path d="M 309.841 37 L 319.38 37 C 319.507 37 319.61 37.103 319.61 37.23 L 319.61 41.856 C 319.61 41.983 319.507 42.086 319.38 42.086 L 309.841 42.086 C 309.714 42.086 309.61 41.983 309.61 41.856 L 309.61 37.23 C 309.61 37.103 309.714 37 309.841 37 Z" style="stroke:none;fill:#FFFFFF;stroke-linecap:square;stroke-miterlimit:3;"/><path d="M 309.841 37 L 319.38 37 C 319.507 37 319.61 37.103 319.61 37.23 L 319.61 41.856 C 319.61 41.983 319.507 42.086 319.38 42.086 L 309.841 42.086 C 309.714 42.086 309.61 41.983 309.61 41.856 L 309.61 37.23 C 309.61 37.103 309.714 37 309.841 37 Z" style="fill:none;stroke:#000000;stroke-width:1;stroke-linecap:square;stroke-miterlimit:3;"/></g><g id="Group"><g transform="matrix(1.675,0,0,1.675,214.265,79.071)"><text transform="matrix(1,0,0,1,10.5,6.96)" style="font-family:&quot;M PLUS 2 Medium&quot;;font-weight:400;font-size:6px;font-style:normal;fill:#000000;stroke:none;">ホームページ</text></g><g transform="matrix(1.675,0,0,1.675,214.265,93.807)"><text transform="matrix(1,0,0,1,1.5,6.96)" style="font-family:&quot;M PLUS 2 Medium&quot;;font-weight:400;font-size:6px;font-style:normal;fill:#000000;stroke:none;">ランディングページ</text></g><g transform="matrix(1.675,0,0,1.675,214.265,108.88)"><text transform="matrix(1,0,0,1,4.5,6.96)" style="font-family:&quot;M PLUS 2 Medium&quot;;font-weight:400;font-size:6px;font-style:normal;fill:#000000;stroke:none;">（システム開発）</text></g></g></g><path d="M 224.629 6 L 297.259 6 C 298.373 6 299.277 6.904 299.277 8.018 L 299.277 54.982 C 299.277 56.096 298.373 57 297.259 57 L 224.629 57 C 223.515 57 222.61 56.096 222.61 54.982 L 222.61 8.018 C 222.61 6.904 223.515 6 224.629 6 Z" style="fill:none;stroke:#000000;stroke-width:1;stroke-linecap:square;stroke-miterlimit:3;"/><path d="M 226.982 17.928 L 293.911 17.928 C 294.455 17.928 294.896 18.369 294.896 18.913 L 294.896 30.459 C 294.896 31.002 294.455 31.443 293.911 31.443 L 226.982 31.443 C 226.438 31.443 225.997 31.002 225.997 30.459 L 225.997 18.913 C 225.997 18.369 226.438 17.928 226.982 17.928 Z" style="stroke:none;fill:#FFFFFF;stroke-linecap:square;stroke-miterlimit:3;"/><path d="M 226.982 17.928 L 293.911 17.928 C 294.455 17.928 294.896 18.369 294.896 18.913 L 294.896 30.459 C 294.896 31.002 294.455 31.443 293.911 31.443 L 226.982 31.443 C 226.438 31.443 225.997 31.002 225.997 30.459 L 225.997 18.913 C 225.997 18.369 226.438 17.928 226.982 17.928 Z" style="fill:none;stroke:#000000;stroke-width:1;stroke-linecap:square;stroke-miterlimit:3;"/><path d="M 270.204 36.629 L 294.309 36.629 C 294.633 36.629 294.896 36.892 294.896 37.216 L 294.896 49.127 C 294.896 49.451 294.633 49.714 294.309 49.714 L 270.204 49.714 C 269.88 49.714 269.617 49.451 269.617 49.127 L 269.617 37.216 C 269.617 36.892 269.88 36.629 270.204 36.629 Z" style="stroke:none;fill:#FFFFFF;stroke-linecap:square;stroke-miterlimit:3;"/><path d="M 270.204 36.629 L 294.309 36.629 C 294.633 36.629 294.896 36.892 294.896 37.216 L 294.896 49.127 C 294.896 49.451 294.633 49.714 294.309 49.714 L 270.204 49.714 C 269.88 49.714 269.617 49.451 269.617 49.127 L 269.617 37.216 C 269.617 36.892 269.88 36.629 270.204 36.629 Z" style="fill:none;stroke:#000000;stroke-width:1;stroke-linecap:square;stroke-miterlimit:3;"/><line x1="226.991" y1="40" x2="247.044" y2="40" vector-effect="non-scaling-stroke" stroke-width="2" stroke="rgb(0,0,0)" stroke-linejoin="miter" stroke-linecap="round" stroke-miterlimit="3"/><line x1="237.61" y1="11.343" x2="293.299" y2="11.343" vector-effect="non-scaling-stroke" stroke-width="3" stroke="rgb(0,0,0)" stroke-linejoin="miter" stroke-linecap="round" stroke-miterlimit="3"/><line x1="226.991" y1="49.714" x2="259.876" y2="49.714" vector-effect="non-scaling-stroke" stroke-width="2" stroke="rgb(0,0,0)" stroke-linejoin="miter" stroke-linecap="round" stroke-miterlimit="3"/><path d="M 227.69 9.562 L 227.69 9.562 C 228.624 9.562 229.383 10.34 229.383 11.298 L 229.383 11.387 C 229.383 12.346 228.624 13.124 227.69 13.124 L 227.69 13.124 C 226.755 13.124 225.997 12.346 225.997 11.387 L 225.997 11.298 C 225.997 10.34 226.755 9.562 227.69 9.562 Z" style="stroke:none;fill:#000000;stroke-linecap:square;stroke-miterlimit:3;"/><path d="M 232.769 9.562 L 232.769 9.562 C 233.704 9.562 234.463 10.34 234.463 11.298 L 234.463 11.387 C 234.463 12.346 233.704 13.124 232.769 13.124 L 232.769 13.124 C 231.835 13.124 231.076 12.346 231.076 11.387 L 231.076 11.298 C 231.076 10.34 231.835 9.562 232.769 9.562 Z" style="stroke:none;fill:#000000;stroke-linecap:square;stroke-miterlimit:3;"/><g id="Group"><g id="Group"><g id="Group"><g transform="matrix(1.511,0,0,1.511,9.974,58.923)"><text transform="matrix(1,0,0,1,4,6.96)" style="font-family:&quot;M PLUS 2 Medium&quot;;font-weight:400;font-size:6px;font-style:normal;fill:#000000;stroke:none;">コンテンツマーケティング</text></g><g transform="matrix(1.511,0,0,1.511,9.974,72.222)"><text transform="matrix(1,0,0,1,33.655,6.96)" style="font-family:&quot;M PLUS 2 Medium&quot;;font-weight:400;font-size:6px;font-style:normal;fill:#000000;stroke:none;">SEO</text></g><path d="M 43.058 43.809 L 100.827 43.809 C 101.569 43.809 102.171 44.411 102.171 45.153 L 102.171 45.487 C 102.171 46.229 101.569 46.831 100.827 46.831 L 43.058 46.831 C 42.316 46.831 41.714 46.229 41.714 45.487 L 41.714 45.153 C 41.714 44.411 42.316 43.809 43.058 43.809 Z" style="stroke:none;fill:#FFFFFF;stroke-linecap:square;stroke-miterlimit:3;"/><path d="M 43.058 43.809 L 100.827 43.809 C 101.569 43.809 102.171 44.411 102.171 45.153 L 102.171 45.487 C 102.171 46.229 101.569 46.831 100.827 46.831 L 43.058 46.831 C 42.316 46.831 41.714 46.229 41.714 45.487 L 41.714 45.153 C 41.714 44.411 42.316 43.809 43.058 43.809 Z" style="fill:none;stroke:#000000;stroke-width:1;stroke-linecap:square;stroke-miterlimit:3;"/><path d="M 43.237 3 L 99.136 3 C 99.977 3 100.66 3.683 100.66 4.523 L 100.66 39.262 C 100.66 40.103 99.977 40.786 99.136 40.786 L 43.237 40.786 C 42.397 40.786 41.714 40.103 41.714 39.262 L 41.714 4.523 C 41.714 3.683 42.397 3 43.237 3 Z" style="stroke:none;fill:#FFFFFF;stroke-linecap:square;stroke-miterlimit:3;"/><path d="M 43.237 3 L 99.136 3 C 99.977 3 100.66 3.683 100.66 4.523 L 100.66 39.262 C 100.66 40.103 99.977 40.786 99.136 40.786 L 43.237 40.786 C 42.397 40.786 41.714 40.103 41.714 39.262 L 41.714 4.523 C 41.714 3.683 42.397 3 43.237 3 Z" style="fill:none;stroke:#000000;stroke-width:1;stroke-linecap:square;stroke-miterlimit:3;"/></g><path d="M 46.059 6.023 L 96.314 6.023 C 97.044 6.023 97.637 6.615 97.637 7.345 L 97.637 36.44 C 97.637 37.17 97.044 37.763 96.314 37.763 L 46.059 37.763 C 45.329 37.763 44.737 37.17 44.737 36.44 L 44.737 7.345 C 44.737 6.615 45.329 6.023 46.059 6.023 Z" style="fill:none;stroke:#000000;stroke-width:1;stroke-linecap:square;stroke-miterlimit:3;"/><path d="M 47.719 13.446 L 93.969 13.446 C 94.325 13.446 94.614 13.735 94.614 14.092 L 94.614 21.212 C 94.614 21.568 94.325 21.858 93.969 21.858 L 47.719 21.858 C 47.363 21.858 47.073 21.568 47.073 21.212 L 47.073 14.092 C 47.073 13.735 47.363 13.446 47.719 13.446 Z" style="stroke:none;fill:#FFFFFF;stroke-linecap:square;stroke-miterlimit:3;"/><path d="M 47.719 13.446 L 93.969 13.446 C 94.325 13.446 94.614 13.735 94.614 14.092 L 94.614 21.212 C 94.614 21.568 94.325 21.858 93.969 21.858 L 47.719 21.858 C 47.363 21.858 47.073 21.568 47.073 21.212 L 47.073 14.092 C 47.073 13.735 47.363 13.446 47.719 13.446 Z" style="fill:none;stroke:#000000;stroke-width:1;stroke-linecap:square;stroke-miterlimit:3;"/><path d="M 77.556 25.085 L 94.229 25.085 C 94.442 25.085 94.614 25.257 94.614 25.469 L 94.614 32.844 C 94.614 33.056 94.442 33.229 94.229 33.229 L 77.556 33.229 C 77.344 33.229 77.171 33.056 77.171 32.844 L 77.171 25.469 C 77.171 25.257 77.344 25.085 77.556 25.085 Z" style="stroke:none;fill:#FFFFFF;stroke-linecap:square;stroke-miterlimit:3;"/><path d="M 77.556 25.085 L 94.229 25.085 C 94.442 25.085 94.614 25.257 94.614 25.469 L 94.614 32.844 C 94.614 33.056 94.442 33.229 94.229 33.229 L 77.556 33.229 C 77.344 33.229 77.171 33.056 77.171 32.844 L 77.171 25.469 C 77.171 25.257 77.344 25.085 77.556 25.085 Z" style="fill:none;stroke:#000000;stroke-width:1;stroke-linecap:square;stroke-miterlimit:3;"/><line x1="56.42" y1="9.348" x2="94.483" y2="9.348" vector-effect="non-scaling-stroke" stroke-width="2" stroke="rgb(0,0,0)" stroke-linejoin="miter" stroke-linecap="round" stroke-miterlimit="3"/><line x1="47.76" y1="27.183" x2="61.596" y2="27.183" vector-effect="non-scaling-stroke" stroke-width="1" stroke="rgb(0,0,0)" stroke-linejoin="miter" stroke-linecap="round" stroke-miterlimit="3"/><line x1="47.76" y1="33.229" x2="70.45" y2="33.229" vector-effect="non-scaling-stroke" stroke-width="1" stroke="rgb(0,0,0)" stroke-linejoin="miter" stroke-linecap="round" stroke-miterlimit="3"/><path d="M 48.211 8.24 L 48.272 8.24 C 48.9 8.24 49.41 8.736 49.41 9.348 L 49.41 9.348 C 49.41 9.96 48.9 10.456 48.272 10.456 L 48.211 10.456 C 47.583 10.456 47.073 9.96 47.073 9.348 L 47.073 9.348 C 47.073 8.736 47.583 8.24 48.211 8.24 Z" style="stroke:none;fill:#000000;stroke-linecap:square;stroke-miterlimit:3;"/><path d="M 51.716 8.24 L 51.777 8.24 C 52.405 8.24 52.915 8.736 52.915 9.348 L 52.915 9.348 C 52.915 9.96 52.405 10.456 51.777 10.456 L 51.716 10.456 C 51.088 10.456 50.578 9.96 50.578 9.348 L 50.578 9.348 C 50.578 8.736 51.088 8.24 51.716 8.24 Z" style="stroke:none;fill:#000000;stroke-linecap:square;stroke-miterlimit:3;"/></g><g id="Group"><g transform="matrix(1.511,0,0,1.511,106.328,136.895)"><text transform="matrix(1,0,0,1,2.304,6.96)" style="font-family:&quot;M PLUS 2 Medium&quot;;font-weight:400;font-size:6px;font-style:normal;fill:#000000;stroke:none;">WEB広告</text></g><path d="M 110.175 87.622 L 159.914 87.622 C 160.786 87.622 161.495 88.33 161.495 89.202 L 161.495 131.384 C 161.495 132.256 160.786 132.965 159.914 132.965 L 110.175 132.965 C 109.303 132.965 108.595 132.256 108.595 131.384 L 108.595 89.202 C 108.595 88.33 109.303 87.622 110.175 87.622 Z" style="stroke:none;fill:#FFFFFF;stroke-linecap:square;stroke-miterlimit:3;"/><path d="M 110.175 87.622 L 159.914 87.622 C 160.786 87.622 161.495 88.33 161.495 89.202 L 161.495 131.384 C 161.495 132.256 160.786 132.965 159.914 132.965 L 110.175 132.965 C 109.303 132.965 108.595 132.256 108.595 131.384 L 108.595 89.202 C 108.595 88.33 109.303 87.622 110.175 87.622 Z" style="fill:none;stroke:#000000;stroke-width:1;stroke-linecap:square;stroke-miterlimit:3;"/><line x1="110.931" y1="98.202" x2="127.602" y2="98.202" vector-effect="non-scaling-stroke" stroke-width="1" stroke="rgb(0,0,0)" stroke-linejoin="miter" stroke-linecap="round" stroke-miterlimit="3"/><line x1="110.931" y1="105.523" x2="127.417" y2="105.523" vector-effect="non-scaling-stroke" stroke-width="1" stroke="rgb(0,0,0)" stroke-linejoin="miter" stroke-linecap="round" stroke-miterlimit="3"/><line x1="110.931" y1="112.844" x2="124.095" y2="112.844" vector-effect="non-scaling-stroke" stroke-width="1" stroke="rgb(0,0,0)" stroke-linejoin="miter" stroke-linecap="round" stroke-miterlimit="3"/><line x1="110.931" y1="120.165" x2="125.756" y2="120.165" vector-effect="non-scaling-stroke" stroke-width="1" stroke="rgb(0,0,0)" stroke-linejoin="miter" stroke-linecap="round" stroke-miterlimit="3"/><line x1="110.931" y1="127.486" x2="124.279" y2="127.486" vector-effect="non-scaling-stroke" stroke-width="1" stroke="rgb(0,0,0)" stroke-linejoin="miter" stroke-linecap="round" stroke-miterlimit="3"/><path d=" M 134.362 97.127 L 155.376 97.127 C 156.668 97.127 157.716 98.175 157.716 99.467 L 157.716 127.602 C 157.716 128.893 156.668 129.942 155.376 129.942 L 134.362 129.942 C 133.07 129.942 132.022 128.893 132.022 127.602 L 132.022 99.467 C 132.022 98.175 133.07 97.127 134.362 97.127 Z " fill="none" vector-effect="non-scaling-stroke" stroke-width="1" stroke="rgb(0,0,0)" stroke-linejoin="miter" stroke-linecap="round" stroke-miterlimit="3"/><g transform="matrix(1.511,0,0,1.511,133.533,104.247)"><text transform="matrix(1,0,0,1,1.276,9.28)" style="font-family:&quot;M PLUS 2&quot;;font-weight:400;font-size:8px;font-style:normal;fill:#000000;stroke:none;">Ad</text></g><line x1="120.278" y1="90.947" x2="158.341" y2="90.947" vector-effect="non-scaling-stroke" stroke-width="2" stroke="rgb(0,0,0)" stroke-linejoin="miter" stroke-linecap="round" stroke-miterlimit="3"/><path d="M 112.069 89.838 L 112.13 89.838 C 112.758 89.838 113.268 90.335 113.268 90.947 L 113.268 90.947 C 113.268 91.559 112.758 92.055 112.13 92.055 L 112.069 92.055 C 111.441 92.055 110.931 91.559 110.931 90.947 L 110.931 90.947 C 110.931 90.335 111.441 89.838 112.069 89.838 Z" style="stroke:none;fill:#000000;stroke-linecap:square;stroke-miterlimit:3;"/><path d="M 115.574 89.838 L 115.635 89.838 C 116.263 89.838 116.773 90.335 116.773 90.947 L 116.773 90.947 C 116.773 91.559 116.263 92.055 115.635 92.055 L 115.574 92.055 C 114.946 92.055 114.436 91.559 114.436 90.947 L 114.436 90.947 C 114.436 90.335 114.946 89.838 115.574 89.838 Z" style="stroke:none;fill:#000000;stroke-linecap:square;stroke-miterlimit:3;"/></g><g id="Group"><g transform="matrix(1.511,0,0,1.511,0,136.895)"><text transform="matrix(1,0,0,1,4.874,6.96)" style="font-family:&quot;M PLUS 2 Medium&quot;;font-weight:400;font-size:6px;font-style:normal;fill:#000000;stroke:none;">SNS</text></g><g id="Group"><path d="M 7.02 89.115 L 29.255 89.115 C 31.043 89.115 32.496 90.567 32.496 92.356 L 32.496 132.728 C 32.496 134.517 31.043 135.969 29.255 135.969 L 7.02 135.969 C 5.231 135.969 3.779 134.517 3.779 132.728 L 3.779 92.356 C 3.779 90.567 5.231 89.115 7.02 89.115 Z" style="stroke:none;fill:#FFFFFF;stroke-linecap:square;stroke-miterlimit:3;"/><path d="M 7.02 89.115 L 29.255 89.115 C 31.043 89.115 32.496 90.567 32.496 92.356 L 32.496 132.728 C 32.496 134.517 31.043 135.969 29.255 135.969 L 7.02 135.969 C 5.231 135.969 3.779 134.517 3.779 132.728 L 3.779 92.356 C 3.779 90.567 5.231 89.115 7.02 89.115 Z" style="fill:none;stroke:#000000;stroke-width:1;stroke-linecap:square;stroke-miterlimit:3;"/><path d=" M 15.551 130.698 C 15.551 129.27 16.71 128.112 18.137 128.112 C 19.565 128.112 20.724 129.27 20.724 130.698 C 20.724 132.125 19.565 133.284 18.137 133.284 C 16.71 133.284 15.551 132.125 15.551 130.698 Z " fill="none" vector-effect="non-scaling-stroke" stroke-width="1" stroke="rgb(0,0,0)" stroke-linejoin="miter" stroke-linecap="butt" stroke-miterlimit="3"/><path d=" M 30.865 114.085 C 29.739 113.63 26.629 115.056 25.694 114.451 C 24.416 113.624 25.406 110.707 24.574 109.656 C 23.358 108.121 22.671 106.381 22.671 104.538 C 22.671 98.331 30.46 93.291 40.053 93.291 C 49.646 93.291 57.434 98.331 57.434 104.538 C 57.434 110.745 49.646 115.785 40.053 115.785 C 36.681 115.785 33.532 115.162 30.865 114.085 Z " fill="rgb(255,255,255)" vector-effect="non-scaling-stroke" stroke-width="1" stroke="rgb(0,0,0)" stroke-linejoin="miter" stroke-linecap="square" stroke-miterlimit="3"/><line x1="31.74" y1="98.202" x2="46.854" y2="98.202" vector-effect="non-scaling-stroke" stroke-width="1" stroke="rgb(0,0,0)" stroke-linejoin="miter" stroke-linecap="round" stroke-miterlimit="3"/><line x1="31.74" y1="109.656" x2="48.366" y2="109.656" vector-effect="non-scaling-stroke" stroke-width="1" stroke="rgb(0,0,0)" stroke-linejoin="miter" stroke-linecap="round" stroke-miterlimit="3"/><line x1="31.74" y1="104.247" x2="42.489" y2="104.247" vector-effect="non-scaling-stroke" stroke-width="1" stroke="rgb(0,0,0)" stroke-linejoin="miter" stroke-linecap="round" stroke-miterlimit="3"/></g></g></g><g id="Group"><g transform="matrix(1.247,0,0,1.247,43.891,178.792)"><text transform="matrix(1,0,0,1,1.5,11.6)" style="font-family:&quot;M PLUS 2&quot;;font-weight:400;font-size:10px;font-style:normal;fill:#000000;stroke:none;">集客戦略</text></g><g transform="matrix(1.247,0,0,1.247,210.701,178.792)"><text transform="matrix(1,0,0,1,7.445,11.6)" style="font-family:&quot;M PLUS 2&quot;;font-weight:400;font-size:10px;font-style:normal;fill:#000000;stroke:none;">WEB制作・開発</text></g><g transform="matrix(1.247,0,0,1.247,422.026,178.792)"><text transform="matrix(1,0,0,1,6.5,11.6)" style="font-family:&quot;M PLUS 2&quot;;font-weight:400;font-size:10px;font-style:normal;fill:#000000;stroke:none;">マーケ施策</text></g></g><line x1="306.61" y1="47" x2="317.61" y2="47" vector-effect="non-scaling-stroke" stroke-width="1" stroke="rgb(0,0,0)" stroke-linejoin="miter" stroke-linecap="round" stroke-miterlimit="3"/><line x1="306.61" y1="51" x2="317.61" y2="51" vector-effect="non-scaling-stroke" stroke-width="1" stroke="rgb(0,0,0)" stroke-linejoin="miter" stroke-linecap="round" stroke-miterlimit="3"/><line x1="306.61" y1="55" x2="317.61" y2="55" vector-effect="non-scaling-stroke" stroke-width="1" stroke="rgb(0,0,0)" stroke-linejoin="miter" stroke-linecap="round" stroke-miterlimit="3"/></g></g></g></svg>