<?xml version="1.0" standalone="no"?><!-- Generator: Gravit.io --><svg xmlns="http://www.w3.org/2000/svg" xmlns:xlink="http://www.w3.org/1999/xlink" style="isolation:isolate" viewBox="0 0 100.29 93.738" width="100.29" height="93.738"><defs><clipPath id="_clipPath_BrgFlbuS5bWRApPlRnFYblGRxTfefQEP"><rect width="100.29" height="93.738"/></clipPath></defs><g clip-path="url(#_clipPath_BrgFlbuS5bWRApPlRnFYblGRxTfefQEP)"><g style="isolation:isolate" id="feature-service"><g style="isolation:isolate" id="service4"><g style="isolation:isolate" id="目的に沿った"><g id="Group"><path d=" M 31.29 52 L 31.29 82.203 C 31.29 83.307 30.418 84.413 29.345 84.671 L 4.945 90.533 C 3.871 90.791 3 90.104 3 89 L 3 41.733 C 3 40.629 3.884 39.585 4.973 39.403 L 24.967 35.954" fill="none" vector-effect="non-scaling-stroke" stroke-width="2" stroke="rgb(0,0,0)" stroke-linejoin="miter" stroke-linecap="round" stroke-miterlimit="3"/><path d=" M 64.29 58.948 L 64.29 89.151 C 64.29 90.255 63.418 90.942 62.345 90.684 L 37.945 84.822 C 36.871 84.564 36 83.459 36 82.355 L 36 59" fill="none" vector-effect="non-scaling-stroke" stroke-width="2" stroke="rgb(0,0,0)" stroke-linejoin="miter" stroke-linecap="round" stroke-miterlimit="3"/><path d=" M 73.975 38.966 L 95.317 35.33 C 96.406 35.148 97.29 35.896 97.29 37 L 97.29 82.203 C 97.29 83.307 96.418 84.413 95.345 84.671 L 70.945 90.533 C 69.871 90.791 69 90.104 69 89 L 69 51.538" fill="none" vector-effect="non-scaling-stroke" stroke-width="2" stroke="rgb(0,0,0)" stroke-linejoin="miter" stroke-linecap="round" stroke-miterlimit="3"/></g><g id="Group"><path d=" M 26.645 28 C 26.645 14.202 37.175 3 50.145 3 C 63.115 3 73.645 14.202 73.645 28 C 73.645 41.798 56.086 70.361 50.145 70.361 C 44.616 70.361 26.645 41.798 26.645 28 Z " fill="none" vector-effect="non-scaling-stroke" stroke-width="2" stroke="rgb(0,0,0)" stroke-linejoin="miter" stroke-linecap="square" stroke-miterlimit="3"/><path d=" M 41.119 27.654 C 41.119 22.673 45.163 18.628 50.145 18.628 C 55.127 18.628 59.171 22.673 59.171 27.654 C 59.171 32.636 55.127 36.68 50.145 36.68 C 45.163 36.68 41.119 32.636 41.119 27.654 Z " fill="none" vector-effect="non-scaling-stroke" stroke-width="2" stroke="rgb(0,0,0)" stroke-linejoin="miter" stroke-linecap="square" stroke-miterlimit="3"/></g></g></g></g></g></svg>