<?xml version="1.0" standalone="no"?><!-- Generator: Gravit.io --><svg xmlns="http://www.w3.org/2000/svg" xmlns:xlink="http://www.w3.org/1999/xlink" style="isolation:isolate" viewBox="0 0 96.395 74.923" width="96.395" height="74.923"><defs><clipPath id="_clipPath_9oLVr5h1PE6qN15qNTxNkW6GYRTWbGUu"><rect width="96.395" height="74.923"/></clipPath></defs><g clip-path="url(#_clipPath_9oLVr5h1PE6qN15qNTxNkW6GYRTWbGUu)"><g style="isolation:isolate" id="feature-service"><g style="isolation:isolate" id="service4"><path d=" M 15.858 68.923 L 15.858 46.484 C 7.311 39.844 4.331 31.253 6.882 20.679" fill="none" vector-effect="non-scaling-stroke" stroke-width="4" stroke="rgb(0,0,0)" stroke-linejoin="miter" stroke-linecap="round" stroke-miterlimit="3"/><path d=" M 14.736 11.703 C 29.642 2.542 41.994 4.423 54.004 17.313 L 58.492 31.14 L 64.041 40.089 C 64.694 41.141 64.222 42.087 62.989 42.199 L 52.882 43.118" fill="none" vector-effect="non-scaling-stroke" stroke-width="4" stroke="rgb(0,0,0)" stroke-linejoin="miter" stroke-linecap="round" stroke-miterlimit="3"/><path d=" M 41.663 68.923 L 41.663 65.557 C 41.663 64.318 42.668 63.313 43.907 63.313 L 51.76 63.313 C 52.999 63.313 54.17 62.321 54.373 61.099 L 54.757 58.794 C 54.961 57.573 54.227 56.131 53.119 55.578 L 43.907 50.971" fill="none" vector-effect="non-scaling-stroke" stroke-width="4" stroke="rgb(0,0,0)" stroke-linejoin="miter" stroke-linecap="round" stroke-miterlimit="3"/><line x1="2.395" y1="8.337" x2="79.809" y2="71.166" vector-effect="non-scaling-stroke" stroke-width="4" stroke="rgb(0,0,0)" stroke-linejoin="miter" stroke-linecap="round" stroke-miterlimit="3"/><line x1="73.077" y1="43.118" x2="91.029" y2="34.142" vector-effect="non-scaling-stroke" stroke-width="4" stroke="rgb(0,0,0)" stroke-linejoin="miter" stroke-linecap="round" stroke-miterlimit="3"/><line x1="73.077" y1="52.935" x2="94.395" y2="52.374" vector-effect="non-scaling-stroke" stroke-width="4" stroke="rgb(0,0,0)" stroke-linejoin="miter" stroke-linecap="round" stroke-miterlimit="3"/><line x1="73.077" y1="62.191" x2="92.151" y2="67.801" vector-effect="non-scaling-stroke" stroke-width="4" stroke="rgb(0,0,0)" stroke-linejoin="miter" stroke-linecap="round" stroke-miterlimit="3"/></g></g></g></svg>