<?xml version="1.0" standalone="no"?><!-- Generator: Gravit.io --><svg xmlns="http://www.w3.org/2000/svg" xmlns:xlink="http://www.w3.org/1999/xlink" style="isolation:isolate" viewBox="0 0 94.5 98" width="94.5" height="98"><defs><clipPath id="_clipPath_HbzeLvtRdmyrx65Bb6kx7DMG7fxtaPlB"><rect width="94.5" height="98"/></clipPath></defs><g clip-path="url(#_clipPath_HbzeLvtRdmyrx65Bb6kx7DMG7fxtaPlB)"><g style="isolation:isolate" id="feature-service"><g style="isolation:isolate" id="service4"><g id="ear"><path d=" M 12.484 47.565 C 16.049 23.684 30.919 13.306 49.806 17.419 C 74.714 22.844 78.368 49.176 59.855 73.403 C 57.877 85.564 51.685 92.292 38.323 93.5" fill="none" vector-effect="non-scaling-stroke" stroke-width="3" stroke="rgb(0,0,0)" stroke-linejoin="miter" stroke-linecap="round" stroke-miterlimit="3"/><path d=" M 23.968 66.944 C 23.968 64.963 25.576 63.355 27.556 63.355 C 29.537 63.355 31.145 64.963 31.145 66.944 C 31.145 68.924 29.537 70.532 27.556 70.532 C 25.576 70.532 23.968 68.924 23.968 66.944 Z " fill="rgb(0,0,0)" vector-effect="non-scaling-stroke" stroke-width="2" stroke="rgb(0,0,0)" stroke-linejoin="miter" stroke-linecap="butt" stroke-miterlimit="3"/><path d=" M 1 89.911 C 1 87.931 2.608 86.323 4.589 86.323 C 6.569 86.323 8.177 87.931 8.177 89.911 C 8.177 91.892 6.569 93.5 4.589 93.5 C 2.608 93.5 1 91.892 1 89.911 Z " fill="rgb(0,0,0)" vector-effect="non-scaling-stroke" stroke-width="2" stroke="rgb(0,0,0)" stroke-linejoin="miter" stroke-linecap="butt" stroke-miterlimit="3"/><line x1="9.883" y1="72.238" x2="22.901" y2="85.256" vector-effect="non-scaling-stroke" stroke-width="3" stroke="rgb(0,0,0)" stroke-linejoin="miter" stroke-linecap="round" stroke-miterlimit="3"/><path d=" M 23.968 46.129 C 30.255 22.139 56.448 23.412 61.29 46.129" fill="none" vector-effect="non-scaling-stroke" stroke-width="3" stroke="rgb(0,0,0)" stroke-linejoin="miter" stroke-linecap="round" stroke-miterlimit="3"/><path d=" M 62.726 4.5 C 79.507 10.188 88.612 23.122 90 43.258" fill="none" vector-effect="non-scaling-stroke" stroke-width="3" stroke="rgb(0,0,0)" stroke-linejoin="miter" stroke-linecap="round" stroke-miterlimit="3"/></g></g></g></g></svg>