<?xml version="1.0" standalone="no"?><!-- Generator: Gravit.io --><svg xmlns="http://www.w3.org/2000/svg" xmlns:xlink="http://www.w3.org/1999/xlink" style="isolation:isolate" viewBox="0 0 105.333 105" width="105.333" height="105"><defs><clipPath id="_clipPath_PQFqGGISnBHSG3WXwQ6GNO2kRTUOzZn5"><rect width="105.333" height="105"/></clipPath></defs><g clip-path="url(#_clipPath_PQFqGGISnBHSG3WXwQ6GNO2kRTUOzZn5)"><g style="isolation:isolate" id="feature-service"><g style="isolation:isolate" id="service4"><path d=" M 37.746 40.071 C 37.746 31.911 44.371 25.286 52.532 25.286 C 60.692 25.286 67.317 31.911 67.317 40.071 C 67.317 48.232 60.692 54.857 52.532 54.857 C 44.371 54.857 37.746 48.232 37.746 40.071 Z " fill="none" vector-effect="non-scaling-stroke" stroke-width="2" stroke="rgb(0,0,0)" stroke-linejoin="miter" stroke-linecap="square" stroke-miterlimit="3"/><path d=" M 12.032 18.214 C 12.032 11.473 17.505 6 24.246 6 C 30.987 6 36.46 11.473 36.46 18.214 C 36.46 24.956 30.987 30.429 24.246 30.429 C 17.505 30.429 12.032 24.956 12.032 18.214 Z " fill="none" vector-effect="non-scaling-stroke" stroke-width="2" stroke="rgb(0,0,0)" stroke-linejoin="miter" stroke-linecap="square" stroke-miterlimit="3"/><path d=" M 71.175 18.214 C 71.175 11.473 76.648 6 83.389 6 C 90.13 6 95.603 11.473 95.603 18.214 C 95.603 24.956 90.13 30.429 83.389 30.429 C 76.648 30.429 71.175 24.956 71.175 18.214 Z " fill="none" vector-effect="non-scaling-stroke" stroke-width="2" stroke="rgb(0,0,0)" stroke-linejoin="miter" stroke-linecap="square" stroke-miterlimit="3"/><path d=" M 73.733 87 L 24.889 87 C 23.47 87 22.317 85.848 22.317 84.429 L 22.317 81.857 C 22.317 70.503 31.535 61.286 42.889 61.286 L 58.21 61.286" fill="none" vector-effect="non-scaling-stroke" stroke-width="2" stroke="rgb(0,0,0)" stroke-linejoin="miter" stroke-linecap="round" stroke-miterlimit="3"/><path d=" M 39.36 56.143 L 3.803 56.143 C 2.668 56.143 1.746 55.221 1.746 54.086 L 1.746 52.029 C 1.746 42.946 9.12 35.571 18.203 35.571 C 27.408 35.531 32.221 35.543 32.603 35.571" fill="none" vector-effect="non-scaling-stroke" stroke-width="2" stroke="rgb(0,0,0)" stroke-linejoin="miter" stroke-linecap="round" stroke-miterlimit="3"/><path d=" M 72.46 36.5 C 74.009 35.89 74.295 35.571 76.06 35.571 L 88.66 35.571 C 96.608 35.571 103.06 42.024 103.06 49.971" fill="none" vector-effect="non-scaling-stroke" stroke-width="2" stroke="rgb(0,0,0)" stroke-linejoin="miter" stroke-linecap="round" stroke-miterlimit="3"/><g id="Group"><g id="Group"><path d=" M 71.62 66.612 C 71.62 60.148 76.868 54.901 83.331 54.901 C 89.795 54.901 95.043 60.148 95.043 66.612 C 95.043 73.076 89.795 78.323 83.331 78.323 C 76.868 78.323 71.62 73.076 71.62 66.612 Z " fill="none" vector-effect="non-scaling-stroke" stroke-width="5" stroke="rgb(0,0,0)" stroke-linejoin="miter" stroke-linecap="butt" stroke-miterlimit="3"/><path d="M 79.717 47.816 L 87.813 47.816 C 88.611 47.816 89.259 48.464 89.259 49.262 L 89.259 52.009 C 89.259 52.807 88.611 53.455 87.813 53.455 L 79.717 53.455 C 78.919 53.455 78.271 52.807 78.271 52.009 L 78.271 49.262 C 78.271 48.464 78.919 47.816 79.717 47.816 Z" style="stroke:none;fill:#000000;stroke-miterlimit:10;"/><path d="M 79.785 79.514 L 87.88 79.708 C 88.677 79.727 89.31 80.39 89.291 81.188 L 89.225 83.934 C 89.206 84.732 88.543 85.364 87.745 85.345 L 79.651 85.152 C 78.853 85.133 78.221 84.469 78.24 83.672 L 78.305 80.925 C 78.324 80.128 78.988 79.495 79.785 79.514 Z" style="stroke:none;fill:#000000;stroke-miterlimit:10;"/><path d="M 64.925 60.382 L 68.829 53.288 C 69.213 52.589 70.093 52.334 70.792 52.719 L 73.199 54.043 C 73.898 54.428 74.154 55.308 73.769 56.007 L 69.865 63.1 C 69.481 63.799 68.601 64.055 67.902 63.67 L 65.495 62.346 C 64.796 61.961 64.541 61.081 64.925 60.382 Z" style="stroke:none;fill:#000000;stroke-miterlimit:10;"/><path d="M 91.547 76.594 L 96.207 69.973 C 96.666 69.32 97.569 69.163 98.221 69.622 L 100.468 71.204 C 101.12 71.663 101.277 72.566 100.818 73.218 L 96.158 79.839 C 95.699 80.492 94.796 80.649 94.143 80.189 L 91.897 78.608 C 91.244 78.149 91.088 77.246 91.547 76.594 Z" style="stroke:none;fill:#000000;stroke-miterlimit:10;"/><path d="M 97.775 53.26 L 101.837 60.264 C 102.237 60.954 102.002 61.84 101.311 62.24 L 98.935 63.618 C 98.245 64.019 97.359 63.783 96.959 63.093 L 92.897 56.089 C 92.497 55.398 92.732 54.513 93.422 54.113 L 95.799 52.735 C 96.489 52.334 97.375 52.57 97.775 53.26 Z" style="stroke:none;fill:#000000;stroke-miterlimit:10;"/><path d="M 70.071 69.512 L 74.123 76.522 C 74.523 77.213 74.286 78.098 73.595 78.497 L 71.217 79.872 C 70.526 80.272 69.641 80.035 69.242 79.344 L 65.189 72.335 C 64.79 71.644 65.026 70.759 65.717 70.36 L 68.095 68.985 C 68.786 68.585 69.671 68.822 70.071 69.512 Z" style="stroke:none;fill:#000000;stroke-miterlimit:10;"/></g></g></g></g></g></svg>