<?xml version="1.0" standalone="no"?><!-- Generator: Gravit.io --><svg xmlns="http://www.w3.org/2000/svg" xmlns:xlink="http://www.w3.org/1999/xlink" style="isolation:isolate" viewBox="0 0 105.333 105" width="105.333" height="105"><defs><clipPath id="_clipPath_cidG0B6QoMMCEvl0RLRqMvQl1UXydYxM"><rect width="105.333" height="105"/></clipPath></defs><g clip-path="url(#_clipPath_cidG0B6QoMMCEvl0RLRqMvQl1UXydYxM)"><g style="isolation:isolate" id="feature-service"><g style="isolation:isolate" id="service4"><g id="update"><path d=" M 15 49 C 17.153 29.872 33.406 15 53.105 15 C 64.224 15 74.244 19.738 81.256 27.304" fill="none" vector-effect="non-scaling-stroke" stroke-width="10" stroke="rgb(0,0,0)" stroke-linejoin="miter" stroke-linecap="round" stroke-miterlimit="3"/><path d=" M 95.722 16.448 L 69.226 42.944 C 68.661 43.509 68.851 43.968 69.65 43.968 L 94.273 43.968 C 95.073 43.968 95.722 43.319 95.722 42.52 L 95.722 16.448" fill="rgb(0,0,0)" vector-effect="non-scaling-stroke" stroke-width="3" stroke="rgb(0,0,0)" stroke-linejoin="miter" stroke-linecap="round" stroke-miterlimit="3"/></g><g id="update"><path d=" M 90.333 56 C 88.18 75.128 71.927 90 52.228 90 C 41.109 90 31.088 85.262 24.077 77.696" fill="none" vector-effect="non-scaling-stroke" stroke-width="10" stroke="rgb(0,0,0)" stroke-linejoin="miter" stroke-linecap="round" stroke-miterlimit="3"/><path d=" M 9.611 88.552 L 36.107 62.056 C 36.672 61.491 36.482 61.032 35.682 61.032 L 11.059 61.032 C 10.26 61.032 9.611 61.681 9.611 62.48 L 9.611 88.552" fill="rgb(0,0,0)" vector-effect="non-scaling-stroke" stroke-width="3" stroke="rgb(0,0,0)" stroke-linejoin="miter" stroke-linecap="round" stroke-miterlimit="3"/></g></g></g></g></svg>