<?xml version="1.0" standalone="no"?><!-- Generator: Gravit.io --><svg xmlns="http://www.w3.org/2000/svg" xmlns:xlink="http://www.w3.org/1999/xlink" style="isolation:isolate" viewBox="0 0 111.333 73.714" width="111.333" height="73.714"><defs><clipPath id="_clipPath_XTS4GEX5HXzYSPdrasrD8qwk8ShbkUOH"><rect width="111.333" height="73.714"/></clipPath></defs><g clip-path="url(#_clipPath_XTS4GEX5HXzYSPdrasrD8qwk8ShbkUOH)"><g style="isolation:isolate" id="feature-service"><g style="isolation:isolate" id="service4"><g id="社員証"><path d="M 5 11.276 L 106.333 11.276 C 107.437 11.276 108.333 12.172 108.333 13.276 L 108.333 68.714 C 108.333 69.818 107.437 70.714 106.333 70.714 L 5 70.714 C 3.896 70.714 3 69.818 3 68.714 L 3 13.276 C 3 12.172 3.896 11.276 5 11.276 Z" style="stroke:none;fill:#FFFFFF;stroke-miterlimit:10;"/><path d="M 5 11.276 L 106.333 11.276 C 107.437 11.276 108.333 12.172 108.333 13.276 L 108.333 68.714 C 108.333 69.818 107.437 70.714 106.333 70.714 L 5 70.714 C 3.896 70.714 3 69.818 3 68.714 L 3 13.276 C 3 12.172 3.896 11.276 5 11.276 Z" style="fill:none;stroke:#000000;stroke-width:2;stroke-linecap:square;stroke-miterlimit:3;"/><path d="M 12.148 26.79 L 39.747 26.79 C 40.851 26.79 41.747 27.686 41.747 28.79 L 41.747 56.39 C 41.747 57.494 40.851 58.39 39.747 58.39 L 12.148 58.39 C 11.044 58.39 10.148 57.494 10.148 56.39 L 10.148 28.79 C 10.148 27.686 11.044 26.79 12.148 26.79 Z" style="fill:none;stroke:#000000;stroke-width:2;stroke-linecap:square;stroke-miterlimit:3;"/><g id="Group"><path d=" M 18.094 37.186 C 18.094 32.852 21.613 29.333 25.948 29.333 C 30.282 29.333 33.801 32.852 33.801 37.186 C 33.801 41.521 30.282 45.039 25.948 45.039 C 21.613 45.039 18.094 41.521 18.094 37.186 Z " fill="none" vector-effect="non-scaling-stroke" stroke-width="2" stroke="rgb(0,0,0)" stroke-linejoin="miter" stroke-linecap="square" stroke-miterlimit="3"/><path d=" M 21.201 47.349 L 30.694 47.349 C 34.008 47.349 36.699 50.04 36.699 53.355 L 36.699 58.39 L 15.658 58.39 C 15.403 58.39 15.196 58.183 15.196 57.928 L 15.196 53.355 C 15.196 50.04 17.887 47.349 21.201 47.349 Z " fill="none" vector-effect="non-scaling-stroke" stroke-width="2" stroke="rgb(0,0,0)" stroke-linejoin="miter" stroke-linecap="square" stroke-miterlimit="3"/></g><line x1="54.538" y1="30.838" x2="83.616" y2="30.838" vector-effect="non-scaling-stroke" stroke-width="3" stroke="rgb(0,0,0)" stroke-linejoin="miter" stroke-linecap="round" stroke-miterlimit="3"/><line x1="54.538" y1="40.368" x2="96.295" y2="40.368" vector-effect="non-scaling-stroke" stroke-width="3" stroke="rgb(0,0,0)" stroke-linejoin="miter" stroke-linecap="round" stroke-miterlimit="3"/><line x1="54.538" y1="49.898" x2="96.295" y2="49.898" vector-effect="non-scaling-stroke" stroke-width="3" stroke="rgb(0,0,0)" stroke-linejoin="miter" stroke-linecap="round" stroke-miterlimit="3"/><line x1="54.538" y1="59.428" x2="96.295" y2="59.428" vector-effect="non-scaling-stroke" stroke-width="3" stroke="rgb(0,0,0)" stroke-linejoin="miter" stroke-linecap="round" stroke-miterlimit="3"/><path d=" M 48.826 3 L 62.507 3 C 63.611 3 64.507 3.896 64.507 5 L 64.507 20.562 C 64.507 21.666 63.611 22.562 62.507 22.562 L 48.826 22.562 C 47.722 22.562 46.826 21.666 46.826 20.562 L 46.826 5 C 46.826 3.896 47.722 3 48.826 3 Z " fill="rgb(255,255,255)" vector-effect="non-scaling-stroke" stroke-width="2" stroke="rgb(0,0,0)" stroke-linejoin="miter" stroke-linecap="round" stroke-miterlimit="3"/><path d=" M 52.281 14.386 C 52.281 12.517 53.798 11 55.666 11 C 57.535 11 59.052 12.517 59.052 14.386 C 59.052 16.254 57.535 17.771 55.666 17.771 C 53.798 17.771 52.281 16.254 52.281 14.386 Z " fill="none" vector-effect="non-scaling-stroke" stroke-width="2" stroke="rgb(0,0,0)" stroke-linejoin="miter" stroke-linecap="square" stroke-miterlimit="3"/></g></g></g></g></svg>