<?xml version="1.0" standalone="no"?><!-- Generator: Gravit.io --><svg xmlns="http://www.w3.org/2000/svg" xmlns:xlink="http://www.w3.org/1999/xlink" style="isolation:isolate" viewBox="0 0 311.091 308.582" width="311.091" height="308.582"><defs><clipPath id="_clipPath_oVg5FKgwnPsKOfaBwMGbuBu1NjkbU1gF"><rect width="311.091" height="308.582"/></clipPath></defs><g clip-path="url(#_clipPath_oVg5FKgwnPsKOfaBwMGbuBu1NjkbU1gF)"><g style="isolation:isolate" id="feature-service"><g id="Group"><path d=" M 18 154.002 C 18 78.39 79.388 17.002 155 17.002 C 230.612 17.002 292 78.39 292 154.002 C 292 229.615 230.612 291.002 155 291.002 C 79.388 291.002 18 229.615 18 154.002 Z " fill="rgb(91,91,91)"/><path d=" M 87.72 154.002 C 87.72 116.869 117.867 86.722 155 86.722 C 192.133 86.722 222.28 116.869 222.28 154.002 C 222.28 191.136 192.133 221.283 155 221.283 C 117.867 221.283 87.72 191.136 87.72 154.002 Z " fill="rgb(235,235,235)"/><g transform="matrix(1,0,0,1,91.5,126.791)"><text transform="matrix(1,0,0,1,42.412,20.88)" style="font-family:&quot;M PLUS 2 Medium&quot;;font-weight:400;font-size:18px;font-style:normal;fill:#000000;stroke:none;">WEB</text><text transform="matrix(1,0,0,1,7.465,46.944)" style="font-family:&quot;M PLUS 2 Medium&quot;;font-weight:400;font-size:18px;font-style:normal;fill:#000000;stroke:none;">MARKETING</text></g><defs><filter id="sWMvB48gy1cIRdKKhXHShIU6mFcBpkpo" x="-200%" y="-200%" width="400%" height="400%"><feOffset xmlns="http://www.w3.org/2000/svg" in="SourceAlpha" result="offOut" dx="0" dy="0"/><feGaussianBlur xmlns="http://www.w3.org/2000/svg" in="offOut" result="blurOut" stdDeviation="2.5"/><feComponentTransfer xmlns="http://www.w3.org/2000/svg" in="blurOut" result="opacOut"><feFuncA xmlns="http://www.w3.org/2000/svg" type="table" tableValues="0 0.5"/></feComponentTransfer><feBlend xmlns="http://www.w3.org/2000/svg" in="SourceGraphic" in2="opacOut" mode="normal" result="_out_d2ZQWVYljaukmxHwed43K374B3m2mPDJ"/><feOffset xmlns="http://www.w3.org/2000/svg" in="_out_d2ZQWVYljaukmxHwed43K374B3m2mPDJ" result="offOut" dx="0" dy="0"/><feGaussianBlur xmlns="http://www.w3.org/2000/svg" in="offOut" result="blurOut" stdDeviation="2.5"/><feComponentTransfer xmlns="http://www.w3.org/2000/svg" in="blurOut" result="opacOut"><feFuncA xmlns="http://www.w3.org/2000/svg" type="table" tableValues="0 0.5"/></feComponentTransfer><feBlend xmlns="http://www.w3.org/2000/svg" in="_out_d2ZQWVYljaukmxHwed43K374B3m2mPDJ" in2="opacOut" mode="normal"/></filter></defs><g filter="url(#sWMvB48gy1cIRdKKhXHShIU6mFcBpkpo)"><path d=" M 113 215 C 88.089 196.74 88.695 184.28 85 182 C 81.305 179.72 76.932 182.525 52 191 C 20.231 201.955 18.165 201.081 16 205 C 13.835 208.919 29.446 245.624 58 268 C 107.004 306.401 145.252 304.309 151 302 C 153.332 301.063 153.038 295.909 153 268 C 152.88 232.257 153.277 231.365 150 229 C 146.723 226.635 133.67 230.151 113 215 Z " fill="rgb(237,171,70)"/></g><g transform="matrix(1,0,0,1,71.032,253.561)"><text transform="matrix(1,0,0,1,1.912,20.88)" style="font-family:&quot;M PLUS 2 Medium&quot;;font-weight:400;font-size:18px;font-style:normal;fill:#ffffff;stroke:none;">WEB制作</text></g><defs><filter id="oX2rlbnUgh67DdTM1thJGzFdmFC00Uqs" x="-200%" y="-200%" width="400%" height="400%"><feOffset xmlns="http://www.w3.org/2000/svg" in="SourceAlpha" result="offOut" dx="0" dy="0"/><feGaussianBlur xmlns="http://www.w3.org/2000/svg" in="offOut" result="blurOut" stdDeviation="2.5"/><feComponentTransfer xmlns="http://www.w3.org/2000/svg" in="blurOut" result="opacOut"><feFuncA xmlns="http://www.w3.org/2000/svg" type="table" tableValues="0 0.5"/></feComponentTransfer><feBlend xmlns="http://www.w3.org/2000/svg" in="SourceGraphic" in2="opacOut" mode="normal" result="_out_pBozB2Q6j8Ep8bbDA8AlXwnhMh9bAHvI"/><feOffset xmlns="http://www.w3.org/2000/svg" in="_out_pBozB2Q6j8Ep8bbDA8AlXwnhMh9bAHvI" result="offOut" dx="0" dy="0"/><feGaussianBlur xmlns="http://www.w3.org/2000/svg" in="offOut" result="blurOut" stdDeviation="2.5"/><feComponentTransfer xmlns="http://www.w3.org/2000/svg" in="blurOut" result="opacOut"><feFuncA xmlns="http://www.w3.org/2000/svg" type="table" tableValues="0 0.5"/></feComponentTransfer><feBlend xmlns="http://www.w3.org/2000/svg" in="_out_pBozB2Q6j8Ep8bbDA8AlXwnhMh9bAHvI" in2="opacOut" mode="normal"/></filter></defs><g filter="url(#oX2rlbnUgh67DdTM1thJGzFdmFC00Uqs)"><path d=" M 200.187 213.287 C 175.157 231.383 163.485 226.978 160.18 229.793 C 156.875 232.608 158.201 237.632 158.606 263.962 C 159.27 297.56 157.803 299.258 160.868 302.522 C 163.932 305.787 203.658 302.208 233.725 281.91 C 285.325 247.075 295.086 210.034 294.654 203.855 C 294.479 201.348 289.484 200.044 262.913 191.505 C 228.862 180.637 228.135 179.986 224.878 182.378 C 221.62 184.769 220.955 198.271 200.187 213.287 Z " fill="rgb(114,131,142)"/></g><g transform="matrix(1,0,0,1,161,253.561)"><text transform="matrix(1,0,0,1,2.896,20.88)" style="font-family:&quot;M PLUS 2 Medium&quot;;font-weight:400;font-size:18px;font-style:normal;fill:#ffffff;stroke:none;">WEB解析</text></g><defs><filter id="tfZINB4opsqGwSHeGklke9GnXH7bh0HG" x="-200%" y="-200%" width="400%" height="400%"><feOffset xmlns="http://www.w3.org/2000/svg" in="SourceAlpha" result="offOut" dx="0" dy="0"/><feGaussianBlur xmlns="http://www.w3.org/2000/svg" in="offOut" result="blurOut" stdDeviation="2.5"/><feComponentTransfer xmlns="http://www.w3.org/2000/svg" in="blurOut" result="opacOut"><feFuncA xmlns="http://www.w3.org/2000/svg" type="table" tableValues="0 0.5"/></feComponentTransfer><feBlend xmlns="http://www.w3.org/2000/svg" in="SourceGraphic" in2="opacOut" mode="normal" result="_out_CHju9U9hyOZPgCUN3LJ8XVQ4KSV5LQLH"/><feOffset xmlns="http://www.w3.org/2000/svg" in="_out_CHju9U9hyOZPgCUN3LJ8XVQ4KSV5LQLH" result="offOut" dx="0" dy="0"/><feGaussianBlur xmlns="http://www.w3.org/2000/svg" in="offOut" result="blurOut" stdDeviation="2.5"/><feComponentTransfer xmlns="http://www.w3.org/2000/svg" in="blurOut" result="opacOut"><feFuncA xmlns="http://www.w3.org/2000/svg" type="table" tableValues="0 0.5"/></feComponentTransfer><feBlend xmlns="http://www.w3.org/2000/svg" in="_out_CHju9U9hyOZPgCUN3LJ8XVQ4KSV5LQLH" in2="opacOut" mode="normal"/></filter></defs><g filter="url(#tfZINB4opsqGwSHeGklke9GnXH7bh0HG)"><path d=" M 225.979 129.718 C 235.317 159.159 227.476 168.861 229.113 172.882 C 230.751 176.904 235.937 177.219 261.067 185.088 C 293.18 194.989 294.332 196.913 298.393 195.027 C 302.453 193.14 311.507 154.295 301.657 119.381 C 284.752 59.462 252.637 38.582 246.633 37.055 C 244.198 36.436 241.394 40.77 224.957 63.326 C 203.963 92.254 203.117 92.74 204.367 96.583 C 205.617 100.426 218.23 105.29 225.979 129.718 Z " fill="rgb(77,169,190)"/></g><g transform="matrix(1,0,0,1,229,138.417)"><text transform="matrix(1,0,0,1,2.054,20.88)" style="font-family:&quot;M PLUS 2 Medium&quot;;font-weight:400;font-size:18px;font-style:normal;fill:#ffffff;stroke:none;">SEO対策</text></g><defs><filter id="xZkbcbPWm4EbV0U8emEL88ji9CO1Z0pR" x="-200%" y="-200%" width="400%" height="400%"><feOffset xmlns="http://www.w3.org/2000/svg" in="SourceAlpha" result="offOut" dx="0" dy="0"/><feGaussianBlur xmlns="http://www.w3.org/2000/svg" in="offOut" result="blurOut" stdDeviation="2.5"/><feComponentTransfer xmlns="http://www.w3.org/2000/svg" in="blurOut" result="opacOut"><feFuncA xmlns="http://www.w3.org/2000/svg" type="table" tableValues="0 0.5"/></feComponentTransfer><feBlend xmlns="http://www.w3.org/2000/svg" in="SourceGraphic" in2="opacOut" mode="normal" result="_out_dQNtUNcAshILcd5bLUWKPg43Sia58DHK"/><feOffset xmlns="http://www.w3.org/2000/svg" in="_out_dQNtUNcAshILcd5bLUWKPg43Sia58DHK" result="offOut" dx="0" dy="0"/><feGaussianBlur xmlns="http://www.w3.org/2000/svg" in="offOut" result="blurOut" stdDeviation="2.5"/><feComponentTransfer xmlns="http://www.w3.org/2000/svg" in="blurOut" result="opacOut"><feFuncA xmlns="http://www.w3.org/2000/svg" type="table" tableValues="0 0.5"/></feComponentTransfer><feBlend xmlns="http://www.w3.org/2000/svg" in="_out_dQNtUNcAshILcd5bLUWKPg43Sia58DHK" in2="opacOut" mode="normal"/></filter></defs><g filter="url(#xZkbcbPWm4EbV0U8emEL88ji9CO1Z0pR)"><path d=" M 154.169 80.353 C 185.056 80.494 191.886 90.932 196.215 90.607 C 200.545 90.282 202.436 85.442 217.632 63.936 C 236.903 36.407 239.089 35.9 238.538 31.457 C 237.988 27.013 203.791 6.483 167.538 5.152 C 105.322 2.867 75.6 27.032 72.305 32.277 C 70.969 34.405 74.234 38.404 90.662 60.966 C 111.759 89.819 111.962 90.774 116.003 90.762 C 120.044 90.751 128.542 80.237 154.169 80.353 Z " fill="rgb(88,185,158)"/></g><g transform="matrix(1,0,0,1,114.911,47.131)"><text transform="matrix(1,0,0,1,1.001,20.88)" style="font-family:&quot;M PLUS 2 Medium&quot;;font-weight:400;font-size:18px;font-style:normal;fill:#ffffff;stroke:none;">WEB広告</text></g><defs><filter id="bEjnsP6w27UX0ASJ35gKJ0IqemgfBQIF" x="-200%" y="-200%" width="400%" height="400%"><feOffset xmlns="http://www.w3.org/2000/svg" in="SourceAlpha" result="offOut" dx="0" dy="0"/><feGaussianBlur xmlns="http://www.w3.org/2000/svg" in="offOut" result="blurOut" stdDeviation="2.5"/><feComponentTransfer xmlns="http://www.w3.org/2000/svg" in="blurOut" result="opacOut"><feFuncA xmlns="http://www.w3.org/2000/svg" type="table" tableValues="0 0.5"/></feComponentTransfer><feBlend xmlns="http://www.w3.org/2000/svg" in="SourceGraphic" in2="opacOut" mode="normal" result="_out_ReQe3FZKvOMH92WCyKipBF6LEWvOCvNJ"/><feOffset xmlns="http://www.w3.org/2000/svg" in="_out_ReQe3FZKvOMH92WCyKipBF6LEWvOCvNJ" result="offOut" dx="0" dy="0"/><feGaussianBlur xmlns="http://www.w3.org/2000/svg" in="offOut" result="blurOut" stdDeviation="2.5"/><feComponentTransfer xmlns="http://www.w3.org/2000/svg" in="blurOut" result="opacOut"><feFuncA xmlns="http://www.w3.org/2000/svg" type="table" tableValues="0 0.5"/></feComponentTransfer><feBlend xmlns="http://www.w3.org/2000/svg" in="_out_ReQe3FZKvOMH92WCyKipBF6LEWvOCvNJ" in2="opacOut" mode="normal"/></filter></defs><g filter="url(#bEjnsP6w27UX0ASJ35gKJ0IqemgfBQIF)"><path d=" M 84.167 132.456 C 93.968 103.165 106.02 99.946 107.066 95.732 C 108.113 91.518 104.108 88.207 88.439 67.044 C 68.326 40.123 68.529 37.889 64.136 37.021 C 59.743 36.153 29.541 62.205 16.929 96.22 C -4.715 154.594 8.931 190.386 12.882 195.157 C 14.485 197.093 19.304 195.243 45.875 186.703 C 79.882 175.698 80.852 175.804 82.106 171.962 C 83.361 168.12 76.035 156.759 84.167 132.456 Z " fill="rgb(213,86,46)"/></g><g transform="matrix(1,0,0,1,3,138.417)"><text transform="matrix(1,0,0,1,2.711,20.88)" style="font-family:&quot;M PLUS 2 Medium&quot;;font-weight:400;font-size:18px;font-style:normal;fill:#ffffff;stroke:none;">SNS運用</text></g></g></g></g></svg>