<?xml version="1.0" standalone="no"?><!-- Generator: Gravit.io --><svg xmlns="http://www.w3.org/2000/svg" xmlns:xlink="http://www.w3.org/1999/xlink" style="isolation:isolate" viewBox="0 0 125.061 134" width="125.061" height="134"><defs><clipPath id="_clipPath_9yAI6n2jU9biEjt08K1xbHKH5G5oVnFu"><rect width="125.061" height="134"/></clipPath></defs><g clip-path="url(#_clipPath_9yAI6n2jU9biEjt08K1xbHKH5G5oVnFu)"><g style="isolation:isolate" id="Service"><g id="service-web-flow"><g id="Group"><path d=" M 65.617 132.5 L 123.561 113.667 L 123.561 1.5 L 65.617 20.61 L 1.5 1.5 L 1.5 113.667 L 65.617 132.5 Z " fill="none" vector-effect="non-scaling-stroke" stroke-width="1" stroke="rgb(0,0,0)" stroke-linejoin="miter" stroke-linecap="round" stroke-miterlimit="3"/><g id="Group"><rect x="25.683" y="76.923" width="18.424" height="25.661" transform="matrix(1,0,0,1,0,0)" fill="none" vector-effect="non-scaling-stroke" stroke-width="1" stroke="rgb(0,0,0)" stroke-linejoin="round" stroke-linecap="round" stroke-miterlimit="3"/><rect x="80.954" y="48.918" width="18.424" height="53.75" transform="matrix(1,0,0,1,0,0)" fill="none" vector-effect="non-scaling-stroke" stroke-width="1" stroke="rgb(0,0,0)" stroke-linejoin="round" stroke-linecap="round" stroke-miterlimit="3"/><rect x="62.531" y="57.944" width="18.424" height="44.093" transform="matrix(1,0,0,1,0,0)" fill="none" vector-effect="non-scaling-stroke" stroke-width="1" stroke="rgb(0,0,0)" stroke-linejoin="round" stroke-linecap="round" stroke-miterlimit="3"/><rect x="44.107" y="67.156" width="18.424" height="35.429" transform="matrix(1,0,0,1,0,0)" fill="none" vector-effect="non-scaling-stroke" stroke-width="1" stroke="rgb(0,0,0)" stroke-linejoin="round" stroke-linecap="round" stroke-miterlimit="3"/><line x1="89.143" y1="48.732" x2="89.143" y2="33.379" vector-effect="non-scaling-stroke" stroke-width="1" stroke="rgb(0,0,0)" stroke-linejoin="round" stroke-linecap="round" stroke-miterlimit="3"/><path d=" M 97.331 33.379 L 89.143 37.473 L 89.143 31.332 L 97.331 33.379 Z " fill="none" vector-effect="non-scaling-stroke" stroke-width="1" stroke="rgb(0,0,0)" stroke-linejoin="round" stroke-linecap="round" stroke-miterlimit="3"/><line x1="27.73" y1="66.211" x2="68.672" y2="45.661" vector-effect="non-scaling-stroke" stroke-width="1" stroke="rgb(0,0,0)" stroke-linejoin="round" stroke-linecap="round" stroke-miterlimit="3"/><path d=" M 62.531 41.567 L 68.672 45.661 L 68.672 52.858" fill="none" vector-effect="non-scaling-stroke" stroke-width="1" stroke="rgb(0,0,0)" stroke-linejoin="round" stroke-linecap="round" stroke-miterlimit="3"/></g></g></g></g><g style="isolation:isolate" id="mobile_home"/></g></svg>