<?xml version="1.0" standalone="no"?><!-- Generator: Gravit.io --><svg xmlns="http://www.w3.org/2000/svg" xmlns:xlink="http://www.w3.org/1999/xlink" style="isolation:isolate" viewBox="0 0 126.459 135.5" width="126.459" height="135.5"><defs><clipPath id="_clipPath_nBF1J2CCNEksgyDlPg8vfU0bXFeDZ2Zh"><rect width="126.459" height="135.5"/></clipPath></defs><g clip-path="url(#_clipPath_nBF1J2CCNEksgyDlPg8vfU0bXFeDZ2Zh)"><g style="isolation:isolate" id="Service"><g id="service-web-flow"><g id="Group"><path d=" M 66.352 134 L 124.959 114.951 L 124.959 1.5 L 66.352 20.829 L 1.5 1.5 L 1.5 114.951 L 66.352 134 Z " fill="none" vector-effect="non-scaling-stroke" stroke-width="1" stroke="rgb(0,0,0)" stroke-linejoin="miter" stroke-linecap="round" stroke-miterlimit="3"/><g id="Group"><path d=" M 48.809 98.22 L 21.77 98.22 L 21.77 78.246 Q 25.19 70.014 34.388 69.727 Q 43.586 69.44 45.204 71.529 L 65.604 55.169 Q 68.707 52.367 70.44 53.503 Q 72.321 54.738 70.44 58.911 L 48.809 78.74 L 48.809 98.22 Z " fill="none" vector-effect="non-scaling-stroke" stroke-width="1" stroke="rgb(0,0,0)" stroke-linejoin="round" stroke-linecap="round" stroke-miterlimit="3"/><path d=" M 25.375 58.01 C 25.375 52.538 29.818 48.096 35.289 48.096 C 40.761 48.096 45.204 52.538 45.204 58.01 C 45.204 63.482 40.761 67.924 35.289 67.924 C 29.818 67.924 25.375 63.482 25.375 58.01 Z " fill="none" vector-effect="non-scaling-stroke" stroke-width="1" stroke="rgb(0,0,0)" stroke-linejoin="miter" stroke-linecap="square" stroke-miterlimit="3"/><path d=" M 45.204 57.109 Q 41.651 57.615 39.796 57.109 Q 37.554 56.497 34.388 53.503 Q 32.47 56.386 30.783 57.109 Q 28.988 57.878 25.375 57.109" fill="none" vector-effect="non-scaling-stroke" stroke-width="1" stroke="rgb(0,0,0)" stroke-linejoin="round" stroke-linecap="round" stroke-miterlimit="3"/><path d=" M 52.414 75.134 L 52.414 76.937 L 102.886 76.937 L 102.886 42.688 L 52.414 42.688 L 52.414 65.193" fill="none" vector-effect="non-scaling-stroke" stroke-width="1" stroke="rgb(0,0,0)" stroke-linejoin="round" stroke-linecap="round" stroke-miterlimit="3"/><path d=" M 35.144 75.698 L 33.342 73.895 L 35.144 72.092 L 37.237 73.895 L 35.144 75.698 Z " fill="none" vector-effect="non-scaling-stroke" stroke-width="1" stroke="rgb(0,0,0)" stroke-linejoin="round" stroke-linecap="round" stroke-miterlimit="3"/><path d=" M 35.099 75.624 L 33.342 86.439 L 35.099 91.847 L 37 86.439 L 35.099 75.624 Z " fill="none" vector-effect="non-scaling-stroke" stroke-width="1" stroke="rgb(0,0,0)" stroke-linejoin="round" stroke-linecap="round" stroke-miterlimit="3"/><path d=" M 77.65 55.498 C 77.65 50.423 81.771 46.302 86.847 46.302 C 91.922 46.302 96.043 50.423 96.043 55.498 C 96.043 60.574 91.922 64.695 86.847 64.695 C 81.771 64.695 77.65 60.574 77.65 55.498 Z " fill="none" vector-effect="non-scaling-stroke" stroke-width="1" stroke="rgb(0,0,0)" stroke-linejoin="round" stroke-linecap="butt" stroke-miterlimit="3"/><path d=" M 81.255 48.096 L 86.663 55.169 L 83.058 62.516" fill="none" vector-effect="non-scaling-stroke" stroke-width="1" stroke="rgb(0,0,0)" stroke-linejoin="round" stroke-linecap="round" stroke-miterlimit="3"/><line x1="86.663" y1="55.169" x2="95.676" y2="55.169" vector-effect="non-scaling-stroke" stroke-width="1" stroke="rgb(0,0,0)" stroke-linejoin="round" stroke-linecap="round" stroke-miterlimit="3"/><path d=" M 50.611 37.28 L 104.689 37.28 L 104.689 42.688 L 50.611 42.688 L 50.611 37.28 Z " fill="none" vector-effect="non-scaling-stroke" stroke-width="1" stroke="rgb(0,0,0)" stroke-linejoin="round" stroke-linecap="round" stroke-miterlimit="3"/><line x1="57.822" y1="46.293" x2="75.848" y2="46.293" vector-effect="non-scaling-stroke" stroke-width="1" stroke="rgb(0,0,0)" stroke-linejoin="round" stroke-linecap="round" stroke-miterlimit="3"/><line x1="57.822" y1="49.898" x2="75.848" y2="49.898" vector-effect="non-scaling-stroke" stroke-width="1" stroke="rgb(0,0,0)" stroke-linejoin="round" stroke-linecap="round" stroke-miterlimit="3"/><line x1="66.835" y1="67.924" x2="95.676" y2="67.924" vector-effect="non-scaling-stroke" stroke-width="1" stroke="rgb(0,0,0)" stroke-linejoin="round" stroke-linecap="round" stroke-miterlimit="3"/><line x1="95.676" y1="72.092" x2="66.835" y2="72.092" vector-effect="non-scaling-stroke" stroke-width="1" stroke="rgb(0,0,0)" stroke-linejoin="round" stroke-linecap="round" stroke-miterlimit="3"/></g></g></g></g><g style="isolation:isolate" id="mobile_home"/></g></svg>