<?xml version="1.0" standalone="no"?><!-- Generator: Gravit.io --><svg xmlns="http://www.w3.org/2000/svg" xmlns:xlink="http://www.w3.org/1999/xlink" style="isolation:isolate" viewBox="0 0 126.459 135.5" width="126.459" height="135.5"><defs><clipPath id="_clipPath_KWAiXf7uGdtmlm54pSkzzTtN38m9L6HF"><rect width="126.459" height="135.5"/></clipPath></defs><g clip-path="url(#_clipPath_KWAiXf7uGdtmlm54pSkzzTtN38m9L6HF)"><g id="Group"><path d=" M 66.352 134 L 124.959 114.951 L 124.959 1.5 L 66.352 20.829 L 1.5 1.5 L 1.5 114.951 L 66.352 134 Z " fill="none" vector-effect="non-scaling-stroke" stroke-width="1" stroke="rgb(0,0,0)" stroke-linejoin="miter" stroke-linecap="round" stroke-miterlimit="3"/><g id="Group"><path d=" M 26.754 100.207 L 23.149 98.404 L 30.359 80.378 C 30.173 78.889 30.859 77.518 32.162 76.773 C 33.313 76.116 34.275 76.276 35.767 76.773 C 36.866 77.334 36.676 77.714 35.767 80.378 C 35.473 81.241 34.78 81.773 33.965 82.181 L 26.754 100.207 Z " fill="none" vector-effect="non-scaling-stroke" stroke-width="1" stroke="rgb(0,0,0)" stroke-linejoin="round" stroke-linecap="round" stroke-miterlimit="3"/><path d=" M 28.557 66.027 C 28.557 59.561 33.807 54.311 40.274 54.311 C 46.74 54.311 51.99 59.561 51.99 66.027 C 51.99 72.494 46.74 77.744 40.274 77.744 C 33.807 77.744 28.557 72.494 28.557 66.027 Z " fill="none" vector-effect="non-scaling-stroke" stroke-width="1" stroke="rgb(0,0,0)" stroke-linejoin="miter" stroke-linecap="butt" stroke-miterlimit="3"/><path d=" M 32.324 66.027 C 32.324 61.64 35.886 58.078 40.274 58.078 C 44.661 58.078 48.223 61.64 48.223 66.027 C 48.223 70.415 44.661 73.977 40.274 73.977 C 35.886 73.977 32.324 70.415 32.324 66.027 Z " fill="none" vector-effect="non-scaling-stroke" stroke-width="1" stroke="rgb(0,0,0)" stroke-linejoin="miter" stroke-linecap="butt" stroke-miterlimit="3"/><path d=" M 37.57 78.082 L 37.57 103.812 L 95.252 103.812 L 95.252 42.524 L 84.626 31.709 L 37.57 31.709 L 37.57 53.34" fill="none" vector-effect="non-scaling-stroke" stroke-width="1" stroke="rgb(0,0,0)" stroke-linejoin="round" stroke-linecap="round" stroke-miterlimit="3"/><path d=" M 84.437 42.524 L 84.437 31.709 L 95.252 42.524 L 84.437 42.524 Z " fill="none" vector-effect="non-scaling-stroke" stroke-width="1" stroke="rgb(0,0,0)" stroke-linejoin="round" stroke-linecap="round" stroke-miterlimit="3"/><path d=" M 48.385 50.148 C 48.385 45.671 52.02 42.036 56.497 42.036 C 60.974 42.036 64.609 45.671 64.609 50.148 C 64.609 54.625 60.974 58.259 56.497 58.259 C 52.02 58.259 48.385 54.625 48.385 50.148 Z " fill="none" vector-effect="non-scaling-stroke" stroke-width="1" stroke="rgb(0,0,0)" stroke-linejoin="round" stroke-linecap="butt" stroke-miterlimit="3"/><path d=" M 70.016 50.636 C 70.016 46.159 73.651 42.524 78.128 42.524 C 82.605 42.524 86.24 46.159 86.24 50.636 C 86.24 55.113 82.605 58.747 78.128 58.747 C 73.651 58.747 70.016 55.113 70.016 50.636 Z " fill="none" vector-effect="non-scaling-stroke" stroke-width="1" stroke="rgb(0,0,0)" stroke-linejoin="round" stroke-linecap="butt" stroke-miterlimit="3"/><path d=" M 50.188 83.983 L 57.398 83.983 L 57.398 98.056 L 50.28 98.056 L 50.188 83.983 Z " fill="none" vector-effect="non-scaling-stroke" stroke-width="1" stroke="rgb(0,0,0)" stroke-linejoin="round" stroke-linecap="round" stroke-miterlimit="3"/><path d=" M 79.029 91.683 L 83.536 91.683 L 83.536 98.056 L 79.087 98.056 L 79.029 91.683 Z " fill="none" vector-effect="non-scaling-stroke" stroke-width="1" stroke="rgb(0,0,0)" stroke-linejoin="round" stroke-linecap="round" stroke-miterlimit="3"/><path d=" M 70.016 83.983 L 75.424 83.983 L 75.424 98.056 L 70.086 98.056 L 70.016 83.983 Z " fill="none" vector-effect="non-scaling-stroke" stroke-width="1" stroke="rgb(0,0,0)" stroke-linejoin="round" stroke-linecap="round" stroke-miterlimit="3"/><path d=" M 61.003 86.275 L 66.411 86.275 L 66.411 98.056 L 61.073 98.056 L 61.003 86.275 Z " fill="none" vector-effect="non-scaling-stroke" stroke-width="1" stroke="rgb(0,0,0)" stroke-linejoin="round" stroke-linecap="round" stroke-miterlimit="3"/><path d=" M 51.99 56.457 L 57.398 51.049 L 51.99 43.839" fill="none" vector-effect="non-scaling-stroke" stroke-width="1" stroke="rgb(0,0,0)" stroke-linejoin="round" stroke-linecap="round" stroke-miterlimit="3"/><line x1="64.609" y1="51.049" x2="57.398" y2="51.049" vector-effect="non-scaling-stroke" stroke-width="1" stroke="rgb(0,0,0)" stroke-linejoin="round" stroke-linecap="round" stroke-miterlimit="3"/><line x1="70.016" y1="51.049" x2="86.24" y2="51.049" vector-effect="non-scaling-stroke" stroke-width="1" stroke="rgb(0,0,0)" stroke-linejoin="round" stroke-linecap="round" stroke-miterlimit="3"/><line x1="77.227" y1="42.524" x2="77.227" y2="58.747" vector-effect="non-scaling-stroke" stroke-width="1" stroke="rgb(0,0,0)" stroke-linejoin="round" stroke-linecap="round" stroke-miterlimit="3"/><line x1="55.596" y1="64.155" x2="84.437" y2="64.155" vector-effect="non-scaling-stroke" stroke-width="1" stroke="rgb(0,0,0)" stroke-linejoin="round" stroke-linecap="round" stroke-miterlimit="3"/><line x1="84.626" y1="69.563" x2="55.596" y2="69.563" vector-effect="non-scaling-stroke" stroke-width="1" stroke="rgb(0,0,0)" stroke-linejoin="miter" stroke-linecap="round" stroke-miterlimit="3"/><line x1="51.99" y1="74.971" x2="84.437" y2="74.971" vector-effect="non-scaling-stroke" stroke-width="1" stroke="rgb(0,0,0)" stroke-linejoin="miter" stroke-linecap="round" stroke-miterlimit="3"/><line x1="84.626" y1="78.576" x2="51.99" y2="78.576" vector-effect="non-scaling-stroke" stroke-width="1" stroke="rgb(0,0,0)" stroke-linejoin="miter" stroke-linecap="round" stroke-miterlimit="3"/></g></g><g style="isolation:isolate" id="Service"><g id="service-web-flow"/></g><g style="isolation:isolate" id="mobile_home"/></g></svg>