<?xml version="1.0" standalone="no"?><!-- Generator: Gravit.io --><svg xmlns="http://www.w3.org/2000/svg" xmlns:xlink="http://www.w3.org/1999/xlink" style="isolation:isolate" viewBox="0 0 126.459 135.5" width="126.459" height="135.5"><defs><clipPath id="_clipPath_b7OH5xePjDyhf1LaoCAWOxGoQy5Oabbu"><rect width="126.459" height="135.5"/></clipPath></defs><g clip-path="url(#_clipPath_b7OH5xePjDyhf1LaoCAWOxGoQy5Oabbu)"><g style="isolation:isolate" id="Service"><g id="service-web-flow"><g id="Group"><path d=" M 65.973 133 L 124.027 114.131 L 124.027 1.75 L 65.973 20.896 L 1.733 1.75 L 1.733 114.131 L 65.973 133 Z " fill="none" vector-effect="non-scaling-stroke" stroke-width="1" stroke="rgb(0,0,0)" stroke-linejoin="miter" stroke-linecap="round" stroke-miterlimit="3"/><g id="Group"><rect x="51.858" y="89.255" width="22.044" height="10.353" transform="matrix(1,0,0,1,0,0)" fill="none" vector-effect="non-scaling-stroke" stroke-width="1" stroke="rgb(0,0,0)" stroke-linejoin="round" stroke-linecap="round" stroke-miterlimit="3"/><rect x="42.971" y="99.608" width="39.818" height="3.839" transform="matrix(1,0,0,1,0,0)" fill="none" vector-effect="non-scaling-stroke" stroke-width="1" stroke="rgb(0,0,0)" stroke-linejoin="round" stroke-linecap="round" stroke-miterlimit="3"/><path d=" M 30.397 36.55 L 30.397 89.255 L 95.363 89.255 L 95.363 36.55 L 30.397 36.55 Z " fill="none" vector-effect="non-scaling-stroke" stroke-width="1" stroke="rgb(0,0,0)" stroke-linejoin="round" stroke-linecap="round" stroke-miterlimit="3"/><rect x="30.397" y="40.903" width="64.966" height="45.095" transform="matrix(1,0,0,1,0,0)" fill="none" vector-effect="non-scaling-stroke" stroke-width="1" stroke="rgb(0,0,0)" stroke-linejoin="round" stroke-linecap="round" stroke-miterlimit="3"/><rect x="45.067" y="48.295" width="4.191" height="27.042" transform="matrix(1,0,0,1,0,0)" fill="none" vector-effect="non-scaling-stroke" stroke-width="1" stroke="rgb(0,0,0)" stroke-linejoin="round" stroke-linecap="round" stroke-miterlimit="3"/><rect x="78.598" y="46.519" width="4.191" height="28.819" transform="matrix(1,0,0,1,0,0)" fill="none" vector-effect="non-scaling-stroke" stroke-width="1" stroke="rgb(0,0,0)" stroke-linejoin="round" stroke-linecap="round" stroke-miterlimit="3"/><rect x="70.215" y="55.205" width="4.191" height="20.133" transform="matrix(1,0,0,1,0,0)" fill="none" vector-effect="non-scaling-stroke" stroke-width="1" stroke="rgb(0,0,0)" stroke-linejoin="round" stroke-linecap="round" stroke-miterlimit="3"/><rect x="61.832" y="46.321" width="4.191" height="29.016" transform="matrix(1,0,0,1,0,0)" fill="none" vector-effect="non-scaling-stroke" stroke-width="1" stroke="rgb(0,0,0)" stroke-linejoin="round" stroke-linecap="round" stroke-miterlimit="3"/><rect x="53.449" y="50.698" width="4.191" height="24.639" transform="matrix(1,0,0,1,0,0)" fill="none" vector-effect="non-scaling-stroke" stroke-width="1" stroke="rgb(0,0,0)" stroke-linejoin="round" stroke-linecap="round" stroke-miterlimit="3"/><line x1="42.971" y1="78.978" x2="84.885" y2="78.978" vector-effect="non-scaling-stroke" stroke-width="1" stroke="rgb(0,0,0)" stroke-linejoin="round" stroke-linecap="round" stroke-miterlimit="3"/></g></g></g></g><g style="isolation:isolate" id="mobile_home"/></g></svg>