<?xml version="1.0" standalone="no"?><!-- Generator: Gravit.io --><svg xmlns="http://www.w3.org/2000/svg" xmlns:xlink="http://www.w3.org/1999/xlink" style="isolation:isolate" viewBox="0 0 126.459 135.5" width="126.459" height="135.5"><defs><clipPath id="_clipPath_1TaMXQoC34UNtityTkSplrtFgkVrhWMp"><rect width="126.459" height="135.5"/></clipPath></defs><g clip-path="url(#_clipPath_1TaMXQoC34UNtityTkSplrtFgkVrhWMp)"><g style="isolation:isolate" id="Service"><g id="service-web-flow"><g id="Group"><path d=" M 66.352 134 L 124.959 114.951 L 124.959 1.5 L 66.352 20.829 L 1.5 1.5 L 1.5 114.951 L 66.352 134 Z " fill="none" vector-effect="non-scaling-stroke" stroke-width="1" stroke="rgb(0,0,0)" stroke-linejoin="miter" stroke-linecap="round" stroke-miterlimit="3"/><g id="Group"><rect x="26.046" y="31.694" width="74.366" height="51.316" transform="matrix(1,0,0,1,0,0)" fill="none" vector-effect="non-scaling-stroke" stroke-width="1" stroke="rgb(0,0,0)" stroke-linejoin="round" stroke-linecap="round" stroke-miterlimit="3"/><path d=" M 19.286 97.134 L 107.173 97.134 L 100.412 83.009 L 26.22 83.525 L 19.286 97.134 Z " fill="none" vector-effect="non-scaling-stroke" stroke-width="1" stroke="rgb(0,0,0)" stroke-linejoin="round" stroke-linecap="round" stroke-miterlimit="3"/><rect x="26.046" y="36.211" width="74.366" height="42.806" transform="matrix(1,0,0,1,0,0)" fill="none" vector-effect="non-scaling-stroke" stroke-width="1" stroke="rgb(0,0,0)" stroke-linejoin="round" stroke-linecap="round" stroke-miterlimit="3"/><rect x="19.286" y="97.134" width="87.887" height="6.672" transform="matrix(1,0,0,1,0,0)" fill="none" vector-effect="non-scaling-stroke" stroke-width="1" stroke="rgb(0,0,0)" stroke-linejoin="round" stroke-linecap="round" stroke-miterlimit="3"/><rect x="68.863" y="65.496" width="4.507" height="5.211" transform="matrix(1,0,0,1,0,0)" fill="none" vector-effect="non-scaling-stroke" stroke-width="1" stroke="rgb(0,0,0)" stroke-linejoin="round" stroke-linecap="round" stroke-miterlimit="3"/><rect x="86.891" y="56.891" width="4.507" height="13.817" transform="matrix(1,0,0,1,0,0)" fill="none" vector-effect="non-scaling-stroke" stroke-width="1" stroke="rgb(0,0,0)" stroke-linejoin="round" stroke-linecap="round" stroke-miterlimit="3"/><rect x="77.877" y="61.077" width="4.507" height="9.631" transform="matrix(1,0,0,1,0,0)" fill="none" vector-effect="non-scaling-stroke" stroke-width="1" stroke="rgb(0,0,0)" stroke-linejoin="round" stroke-linecap="round" stroke-miterlimit="3"/><path d=" M 44.074 70.708 L 57.596 58.736 L 62.103 63.243 L 73.37 49.722 L 71.117 47.297 L 80.131 45.215 L 77.877 54.229 L 73.37 49.722" fill="none" vector-effect="non-scaling-stroke" stroke-width="1" stroke="rgb(0,0,0)" stroke-linejoin="round" stroke-linecap="round" stroke-miterlimit="3"/><path d=" M 35.448 49.722 C 35.448 44.961 39.313 41.095 44.074 41.095 C 48.836 41.095 52.701 44.961 52.701 49.722 C 52.701 54.483 48.836 58.349 44.074 58.349 C 39.313 58.349 35.448 54.483 35.448 49.722 Z " fill="none" vector-effect="non-scaling-stroke" stroke-width="1" stroke="rgb(0,0,0)" stroke-linejoin="miter" stroke-linecap="square" stroke-miterlimit="3"/><path d=" M 39.567 42.961 L 44.074 49.722 L 50.835 49.722" fill="none" vector-effect="non-scaling-stroke" stroke-width="1" stroke="rgb(0,0,0)" stroke-linejoin="round" stroke-linecap="round" stroke-miterlimit="3"/><line x1="44.074" y1="49.722" x2="39.567" y2="56.482" vector-effect="non-scaling-stroke" stroke-width="1" stroke="rgb(0,0,0)" stroke-linejoin="round" stroke-linecap="round" stroke-miterlimit="3"/></g></g></g></g><g style="isolation:isolate" id="mobile_home"/></g></svg>